<?xml version="1.0" encoding="UTF-8"?> <svg xmlns="http://www.w3.org/2000/svg" xmlns:xlink="http://www.w3.org/1999/xlink" viewBox="0 0 163.15 212.45"> <defs> <style>.cls-1,.cls-7{fill:none;}.cls-2{fill:#f5e1b4;}.cls-3{fill:#f39faf;}.cls-4{fill:#ef7c96;}.cls-5{fill:#1e2e54;}.cls-6{fill:#fff;}.cls-7{stroke:#f8c6d2;stroke-miterlimit:10;stroke-width:0.92px;}.cls-8{fill:#f8c6d2;}.cls-9{fill:#2f3136;}.cls-10,.cls-12{opacity:0.59;}.cls-11{clip-path:url(#clip-path);}.cls-12,.cls-16,.cls-25{isolation:isolate;}.cls-13{clip-path:url(#clip-path-4);}.cls-14,.cls-16{opacity:0.5;}.cls-15{clip-path:url(#clip-path-7);}.cls-17{clip-path:url(#clip-path-10);}.cls-18{clip-path:url(#clip-path-13);}.cls-19{clip-path:url(#clip-path-16);}.cls-20{clip-path:url(#clip-path-19);}.cls-21{clip-path:url(#clip-path-22);}.cls-22{clip-path:url(#clip-path-25);}.cls-23,.cls-25{opacity:0.2;}.cls-24{clip-path:url(#clip-path-28);}.cls-26{fill:#10567a;}.cls-27{fill:#6bb1e2;}.cls-28{fill:#11567a;}</style> <clipPath id="clip-path"> <rect class="cls-1" x="56.51" y="83.23" width="10.23" height="2.62"></rect> </clipPath> <clipPath id="clip-path-4"> <rect class="cls-1" x="69.33" y="86.6" width="9.13" height="2.9"></rect> </clipPath> <clipPath id="clip-path-7"> <rect class="cls-1" x="69.31" y="94.36" width="3.6" height="2.13"></rect> </clipPath> <clipPath id="clip-path-10"> <rect class="cls-1" x="67.74" y="92.85" width="4.08" height="2.12"></rect> </clipPath> <clipPath id="clip-path-13"> <rect class="cls-1" x="58.2" y="90.5" width="4.52" height="1.58"></rect> </clipPath> <clipPath id="clip-path-16"> <rect class="cls-1" x="56.08" y="89.54" width="4.24" height="2.02"></rect> </clipPath> <clipPath id="clip-path-19"> <rect class="cls-1" x="44.93" y="89.11" width="4.95" height="1.64"></rect> </clipPath> <clipPath id="clip-path-22"> <rect class="cls-1" x="43.15" y="88.14" width="4.36" height="1.97"></rect> </clipPath> <clipPath id="clip-path-25"> <rect class="cls-1" x="75.36" y="99.62" width="4.39" height="7.57"></rect> </clipPath> <clipPath id="clip-path-28"> <rect class="cls-1" x="29.3" y="11.81" width="6.07" height="5.6"></rect> </clipPath> </defs> <title>6Asset 1</title> <g id="Layer_2" data-name="Layer 2"> <g id="Layer_1-2" data-name="Layer 1"> <path class="cls-2" d="M62.31,124.94c.33.87,4.5.33,9,1.63.47.14,1.2.38,1.23.78,0,.71-2.11,1.49-3.81,2.11a97.15,97.15,0,0,1-9.46,3.09c-1.63.36-3.29.74-4.92,1.12-4.23,1-6,1.41-12,2.81-4.39,1.06-8.79,2.2-13.21,3.29a29,29,0,0,0-7,2.41A16.94,16.94,0,0,0,17,145.75c-2.06,2.15-.92,2.39-3.52,6.1-.62.9-2.56,3.52-2.6,5.61,0,.16,0,.47.21.59.61.33,2.74-1,3.78-2.72.5-.83.19-.83.9-2.32a14.55,14.55,0,0,1,1.63-2.77s-.05.14-.09.24c-.43.9-1.19,3.33-.36,3.78a1.12,1.12,0,0,0,.9,0c.69-.3.9-1.18,1.11-2.22.57-2.74.59-3.26.83-4.07a10.57,10.57,0,0,1,1.68-3.16c1.61-2,4.23-2.72,9.1-3.74,4.19-.88,6.29-1.3,9.82-1.82,5.39-.8,4.87-1.25,16-3.86,0,0,14.78-3.47,21.83-7.42.68-.38,1.7-1,1.65-1.63-.07-.88-2.15-1.21-3.1-1.37a40.58,40.58,0,0,1-10.21-3.43c-3.69,2.15-4.33,3-4.19,3.45"></path> <path class="cls-2" d="M53.8,121.18c.28,1.4.71,3.52,1.28,6.12,1.11,5,1.89,8.61,3.19,13.13.73,2.46,1.09,5,2,7.45a7.89,7.89,0,0,1,.67,3.24,17.65,17.65,0,0,1-.22,2.08c-.21,1.13-.42,1.44-.26,2s.59.66.76,1.37a2.91,2.91,0,0,1-.09,1.47,6.26,6.26,0,0,1-.76,1.47,14.86,14.86,0,0,0-.85,1.89,108.3,108.3,0,0,0-3.67,11.37c-.14.59,0,.19-5.51,15-1.25,3.41-2.93,6.67-4.11,10.1a13.93,13.93,0,0,1-2.32,4.54,12.84,12.84,0,0,1-4.75,3.6c-1.49.64-3.27.8-6.84,1.11-2,.19-5.44.4-8.06,1.68-.38.19-1.49.73-1.42,1.16.05.23.47.35.8.45a8.74,8.74,0,0,0,3.34-.1c1.16-.14,1.68-.21,1.73-.05s-.29.43-.5.57c-.66.5-1.18.52-1.21.76s.31.4.4.45a4.8,4.8,0,0,0,3.15.21,57.45,57.45,0,0,0,5.77-2c3-1.13,4.47-1.72,6.38-1.82a13.26,13.26,0,0,1,3.65.1,10.12,10.12,0,0,0,3.8.31c1-.17,1.11-.45,1.11-.5s-.23-.38-.66-.66c-1-.69-1.44-.88-1.87-1.16a4.28,4.28,0,0,1-1.56-1.68,3.31,3.31,0,0,1,0-2c1-3.62,1.47-5.44,1.54-5.58,1.56-3.31,2.67-6.79,4.09-10.15.83-2,2.18-5.55,4.71-12.79a108,108,0,0,1,4-10.64c2-4.33,3-6.5,3.2-6.72a3.8,3.8,0,0,0,1.06-2.2,5.44,5.44,0,0,0-1.13-3.14,8,8,0,0,1-1.07-1.47,5.07,5.07,0,0,1-.47-1.72c-.12-1.35-2.48-11.36-6.24-26.8-1-.14-2-.28-3-.47"></path> <path class="cls-3" d="M26.06,80.84a7.48,7.48,0,0,0,.5,1.27,4,4,0,0,0,.49.71,3.57,3.57,0,0,0,.71.52,3.85,3.85,0,0,0,1.56.5,2.85,2.85,0,0,0,1.26,0A13.63,13.63,0,0,0,32.89,83c.55-.23.86-.37,2-.92s1.32-.61,1.67-.78c2.87-1.35,7.93-3.9,10.79-5.08a39,39,0,0,1,10.14-2.63,34.88,34.88,0,0,1,20,2.89A33.65,33.65,0,0,1,93,92.12c4.61,9.55,4.14,20.29,1.65,21.28-1.13.45-4.73-.31-4.89-.4a3.36,3.36,0,0,0-.36-.17,1.21,1.21,0,0,1-.14,0h0a86.35,86.35,0,0,1-13.86,7.86c-5.16,2.31-12,5.41-21.4,6.33a56.28,56.28,0,0,1-23.06-2c-5.91-1.84-11.16-3.54-15.87-8.58A28.62,28.62,0,0,1,7.85,92.66a31,31,0,0,1,2.89-8.49c3.14-6.83,6-8.3,11.84-16.25a67.94,67.94,0,0,0,8.9-14.75c2.15-5.09,4-9.51,3.47-15.47-.14-1.68-1.2-11.37-7.38-14.19-.14-.07-.28-.11-.35-.16a.85.85,0,0,0-.66.14,12.53,12.53,0,0,1-5.3,2.08,12.06,12.06,0,0,1-4.56-.21,7.66,7.66,0,0,1-1.8-1.3c-3.08-3-3.43-9.32-.57-13.22C18,5.9,25.59,6.32,29.82,8.5c3.67,1.87,6.1,5.72,7,7.23A37.88,37.88,0,0,1,39,19.66a43,43,0,0,1,2,5.6,46.27,46.27,0,0,1,.78,19.44C39.09,57.28,28.09,73.39,26.49,77.24a6.67,6.67,0,0,0-.43,3.6M91.4,113.59h0s0,0,0,0"></path> <path class="cls-4" d="M25.59,81.14a4.1,4.1,0,0,0,3,3.13A6.77,6.77,0,0,0,33,83.44C35.71,82.26,38.33,81,41,79.68A64.32,64.32,0,0,1,51.6,75.23a39.1,39.1,0,0,1,17.92-.9A32.32,32.32,0,0,1,88.84,86.49a35,35,0,0,1,7,17.81,23.51,23.51,0,0,1,0,4.89,8.34,8.34,0,0,1-.78,3.12,1.18,1.18,0,0,1-.52.57,3.88,3.88,0,0,1-1.73.07,10.8,10.8,0,0,1-3.14-.61c-.64-.29-1.25.4-1.77.75l-2.09,1.35c-1.65,1.06-3.35,2.06-5.08,3a109.91,109.91,0,0,1-10.21,4.75,61.6,61.6,0,0,1-10.79,3.36,61.41,61.41,0,0,1-10.05,1.18,54.67,54.67,0,0,1-11.07-.56,65.94,65.94,0,0,1-12.29-3.34,28.16,28.16,0,0,1-10-5.89,27.53,27.53,0,0,1-6.5-9.86A28.53,28.53,0,0,1,8,95.9a29.42,29.42,0,0,1,3-11.3,33.88,33.88,0,0,1,4.84-7.74c2.32-2.81,4.71-5.53,6.89-8.44a90.06,90.06,0,0,0,6.48-9.67,59.67,59.67,0,0,0,2.88-6c.8-1.89,1.58-3.79,2.2-5.75a24.38,24.38,0,0,0,1.06-10.21,28,28,0,0,0-1.49-6.41A13.63,13.63,0,0,0,29,23.63a3.9,3.9,0,0,0-1.9-.85c-.71,0-1.39.69-2,1a11.91,11.91,0,0,1-5.91,1.32,5.75,5.75,0,0,1-2.6-.49,7.28,7.28,0,0,1-2-1.82,9.35,9.35,0,0,1-1.68-4.64c-.33-3.38.85-7,3.79-9a12.46,12.46,0,0,1,9.1-1.42A12.84,12.84,0,0,1,30,9.26a15.84,15.84,0,0,1,4.14,3.59c4.38,5.23,6.76,12.08,7.52,18.8a40.8,40.8,0,0,1-1.25,16.46c-2.11,6.86-5.51,13.29-9,19.51-1.34,2.34-2.72,4.68-4,7-1.09,2-2.22,4.13-1.7,6.47.16.67,1.06,0,.94-.59A6.73,6.73,0,0,1,27.62,76c2-3.65,4.14-7.17,6.13-10.81A103.14,103.14,0,0,0,40.56,50.5,38.73,38.73,0,0,0,42.8,40.21,44.53,44.53,0,0,0,40.48,22a31.09,31.09,0,0,0-6.31-10.83,13.92,13.92,0,0,0-6.15-4,15.62,15.62,0,0,0-6.83-.57A11,11,0,0,0,15,9.49a10.83,10.83,0,0,0-3,6.77,11.13,11.13,0,0,0,1.61,7.09,6.85,6.85,0,0,0,2.81,2.53,5.61,5.61,0,0,0,1.78.33,11.87,11.87,0,0,0,2.31,0,13.44,13.44,0,0,0,4.26-1.13,12.93,12.93,0,0,0,1.56-.83c.26-.16.45-.35.78-.28a3.31,3.31,0,0,1,.66.31A10.89,10.89,0,0,1,32,28.93a24.46,24.46,0,0,1,2.48,9.22,23.33,23.33,0,0,1-1.23,9.3,66.8,66.8,0,0,1-3.69,8.84,82.82,82.82,0,0,1-10,14.92c-2.93,3.62-6.17,6.93-8.34,11.09A40.48,40.48,0,0,0,8,89.92a26.55,26.55,0,0,0-1,8.51,29.44,29.44,0,0,0,5.54,15.87,25.69,25.69,0,0,0,6.31,6.17,32.94,32.94,0,0,0,7.5,3.64,61.4,61.4,0,0,0,18.06,3.79,62.55,62.55,0,0,0,15-1.16,70,70,0,0,0,15-5.09,92.41,92.41,0,0,0,15-8.37l-.38.07a10,10,0,0,0,1.21.38c.73.14,1.47.26,2.2.33a6,6,0,0,0,2.08-.07,3,3,0,0,0,1.75-2,13.92,13.92,0,0,0,.69-4.14,30.67,30.67,0,0,0-.38-5.82,36.17,36.17,0,0,0-8.75-18.54A33.17,33.17,0,0,0,64.77,72.63a43.29,43.29,0,0,0-8.35.52A42.14,42.14,0,0,0,45,76.68c-3.24,1.51-6.43,3.12-9.67,4.63-1.56.73-3.33,1.8-5.06,2a3.8,3.8,0,0,1-2.48-.66,3.68,3.68,0,0,1-1.26-2.11c-.16-.66-1.09.07-.94.59"></path> <path class="cls-4" d="M91.4,114.11l.12-.07a.53.53,0,0,0,.21-.21l.07-.15a.8.8,0,0,0,0-.21.42.42,0,0,0,0-.19.37.37,0,0,0-.09-.14s-.07-.07-.14-.09h0l.12,0a.43.43,0,0,0-.23,0,.67.67,0,0,0-.26.09.5.5,0,0,0-.22.21.89.89,0,0,0-.12.29v0a.77.77,0,0,0,0,.26s0,.07.05.12a.31.31,0,0,0,.14.12.25.25,0,0,0,.12,0,.65.65,0,0,0,.19,0l.11-.07a.69.69,0,0,0,.17-.17.62.62,0,0,0,.12-.19s0,.1-.07.14-.07.07-.1.12-.07.07-.12.1l-.11.07-.12,0h0a.88.88,0,0,0,.26-.09s.07-.08.12-.1a.76.76,0,0,0,.16-.26.78.78,0,0,0,.05-.14.26.26,0,0,0,0-.21.25.25,0,0,0-.07-.17.37.37,0,0,0-.14-.12.44.44,0,0,0-.17,0l-.14,0a.39.39,0,0,0-.19.12c-.09.05-.09.07-.16.17l-.07.14.92.07v0l-.81.52a.42.42,0,0,1,.15,0c.09,0,.16,0,.21,0"></path> <path class="cls-5" d="M20.62,14.34a1.75,1.75,0,0,0-1,0,1.81,1.81,0,0,0-.81.59,2.25,2.25,0,0,0-.47,1.42,2.13,2.13,0,0,1-.14-1.73,2,2,0,0,1,1.16-1.11,2,2,0,0,1,1.58.24,2.31,2.31,0,0,1,1,1,7.82,7.82,0,0,0-1.3-.45"></path> <path class="cls-6" d="M13.83,19.8C8.3,21.08,5.27,23.4,4.59,24a17,17,0,0,0-2,2.22,16.21,16.21,0,0,0-1,1.61,8.28,8.28,0,0,0-.9,2.22,8.54,8.54,0,0,0-.14,2.69c.05.79.17,1.54.4,3,.12.71.07.35.43,2.36.09.48.21.93.31,1.4a3.07,3.07,0,0,0,.3,1,1.89,1.89,0,0,0,.81.73,2.06,2.06,0,0,0,1.32.1c1.07-.26,1.59-1.54,2.32-3A46.29,46.29,0,0,1,8.73,34.2a16.55,16.55,0,0,1,3-3.66c.19-.17.61-.47,1.49-1.11,2-1.45,2-1.37,2.27-1.63a8.54,8.54,0,0,0,2.72-5.35,12.66,12.66,0,0,0,.05-2c0-.14,0-.29,0-.43a.88.88,0,0,0-1-.8,28.1,28.1,0,0,0-3.41.61"></path> <path class="cls-7" d="M13.83,19.8C8.3,21.08,5.27,23.4,4.59,24a17,17,0,0,0-2,2.22,16.21,16.21,0,0,0-1,1.61,8.28,8.28,0,0,0-.9,2.22,8.54,8.54,0,0,0-.14,2.69c.05.79.17,1.54.4,3,.12.71.07.35.43,2.36.09.48.21.93.31,1.4a3.07,3.07,0,0,0,.3,1,1.89,1.89,0,0,0,.81.73,2.06,2.06,0,0,0,1.32.1c1.07-.26,1.59-1.54,2.32-3A46.29,46.29,0,0,1,8.73,34.2a16.55,16.55,0,0,1,3-3.66c.19-.17.61-.47,1.49-1.11,2-1.45,2-1.37,2.27-1.63a8.54,8.54,0,0,0,2.72-5.35,12.66,12.66,0,0,0,.05-2c0-.14,0-.29,0-.43a.88.88,0,0,0-1-.8A28.1,28.1,0,0,0,13.83,19.8Z"></path> <path class="cls-8" d="M14.59,24.2a11.39,11.39,0,0,1-2.29,1.61,27,27,0,0,1-2.58,1,6.15,6.15,0,0,0-2.2,1.22,5.88,5.88,0,0,0-1.44,2.09,14.26,14.26,0,0,0-.85,5.25,11,11,0,0,1,.21-5.49A6.11,6.11,0,0,1,7,27.44,6.45,6.45,0,0,1,9.44,26a14.25,14.25,0,0,0,4.73-2.34,17,17,0,0,0,3.61-3.95,12.14,12.14,0,0,1-3.19,4.49"></path> <path class="cls-9" d="M5.63,30.51C5,29,5.89,27.56,5,26.66c-.66-.69-2.11-.61-3-.45A10.49,10.49,0,0,0,.74,28.57a8.47,8.47,0,0,0-.57,1.71,9.84,9.84,0,0,0,.06,3.84c0,.26.11.87.34,2.24a1.28,1.28,0,0,0,.06.33c0,.16.06.32.11.6.1.52.16.78.25,1.23s.1.42.22,1.08a4.29,4.29,0,0,0,.39,1.21l.16.23a1.89,1.89,0,0,0,.87.66,2.49,2.49,0,0,0,1.84.07,2.66,2.66,0,0,0,1.27-1,9.25,9.25,0,0,0,.87-1.65c.26-.49.44-.86.58-1.15.57-1.11,1-2,1.34-2.51s.47-.76.69-1.09.52-.85.71-1.14c-2.86-.66-3.95-1.79-4.3-2.72"></path> <path class="cls-5" d="M9.67,14.72a1.08,1.08,0,0,0,.92.14s.17-.07.05,0a.23.23,0,0,1,.1,0,4.54,4.54,0,0,1,.71.28,4,4,0,0,1,1.08.69c0-.07-.09-.17-.14-.24A9.27,9.27,0,0,1,12,18c-.14.47-.31,1.25-.78,1.53,0,0,0,0,0,0s-.05,0,0,0,.21,0,.28,0a.44.44,0,0,1,.15.05s-.05-.05,0,0l-.08-.07-.09-.1a3.71,3.71,0,0,1-.59-.94,6.38,6.38,0,0,1-.57-2.08c-.05-.5-.09-1.28.38-1.59.24-.14-.26-.42-.36-.45a1,1,0,0,0-.85,0c-.42.26-.47.88-.47,1.35a7,7,0,0,0,.19,1.42c.26,1.06.8,2.46,1.91,2.91a1.38,1.38,0,0,0,1.5-.12,2.81,2.81,0,0,0,.63-1.21,9.29,9.29,0,0,0,.31-1.18,7.84,7.84,0,0,0,.14-1.07,2.42,2.42,0,0,0,0-.47.4.4,0,0,0-.19-.35,6.78,6.78,0,0,0-1.85-1.09,2.61,2.61,0,0,0-2.1-.28c-.26.14-.05.35.09.47"></path> <path class="cls-5" d="M14.47,16.23a.46.46,0,0,0,0-.38.87.87,0,0,0-.33-.3.83.83,0,0,0-.52-.1h.09a1.14,1.14,0,0,1-.26,0l.17,0-.26-.07.16.07-.12,0c0,.29,0,.6-.07.88l.19,0c.43,0,.85-.08,1.28-.12l-.71-.85a1.6,1.6,0,0,1-.19.11l.12-.07a1.66,1.66,0,0,1-.33.12,1.21,1.21,0,0,0,.14,0l-.21,0a.47.47,0,0,0-.38.19.46.46,0,0,0,0,.38,1,1,0,0,0,.33.3.83.83,0,0,0,.52.1,2.25,2.25,0,0,0,1-.38.38.38,0,0,0,.17-.33,1.34,1.34,0,0,0-.12-.24.66.66,0,0,0-.33-.24.9.9,0,0,0-.43,0l-.19,0c-.42,0-.85.07-1.27.12a.47.47,0,0,0-.43.38.56.56,0,0,0,.36.49,2.72,2.72,0,0,0,1.22.22,1,1,0,0,0,.38-.17"></path> <path class="cls-5" d="M19.91,11.22a1.18,1.18,0,0,0,.92.12,13.19,13.19,0,0,1,5.49-.67l-.73-.42a10.48,10.48,0,0,1-1.8,5.93,6.06,6.06,0,0,1-4.19,2.7c-1.75.21-4.25-1.11-4.32-3.1,0-1.39,1.34-2.41,2.41-3a17.34,17.34,0,0,1,3.17-1.42c.3-.09,0-.4-.12-.49a1.11,1.11,0,0,0-.92-.12,15.17,15.17,0,0,0-4.33,2.17c-1.32,1.07-2,2.63-1,4.17a6.34,6.34,0,0,0,6.05,2.48c4.21-.69,6.39-5.23,6.32-9.13,0-.26-.55-.4-.74-.42a15.45,15.45,0,0,0-6.33.73c-.31.12,0,.42.09.52"></path> <path class="cls-4" d="M29.25,95a2.57,2.57,0,0,0,.9.12c.12,0,.52,0,.59-.17a7.55,7.55,0,0,1,2.44-2.43,6.51,6.51,0,0,1,1.27-.57l.12,0a.68.68,0,0,1,.17,0l.35-.07.17,0c.16,0-.24,0,.05,0a2,2,0,0,1,.35,0c.26,0-.14,0,.1,0a.9.9,0,0,0,.23,0s.24,0,.07,0,.1,0,.12,0a1.53,1.53,0,0,1,.36.07c-.34-.12.07,0,.14,0s.31.12.14,0,.07,0,.09,0l.29.12a.77.77,0,0,1,.16.07c.15,0-.14-.1,0,0l.26.15c.17.09.33.19.5.3l.11.07s-.14-.11,0,0a2,2,0,0,0,.16.14,5.08,5.08,0,0,1,.43.38,2.18,2.18,0,0,0,1.56.45c.26,0,.87-.17.52-.52a8.48,8.48,0,0,0-2.11-1.44,8.17,8.17,0,0,0-7.47,0,7.46,7.46,0,0,0-2.74,2.61c-.21.37.45.59.73.73"></path> <path class="cls-4" d="M38.45,90A1.73,1.73,0,0,0,39.94,90,11.82,11.82,0,0,1,42,88.66a12.6,12.6,0,0,1,3.17-1.11A9.65,9.65,0,0,1,47,87.34h.37l.5,0c.14,0,.28,0,.43,0a.9.9,0,0,1,.23,0c-.26,0-.07,0,0,0a9.79,9.79,0,0,1,1,.19s-.26-.07-.05,0a1.6,1.6,0,0,1,.21.05c.12,0,.24.07.36.09l.45.14a.78.78,0,0,0,.14.05c-.24-.12-.09,0,0,0a5.14,5.14,0,0,1,.61.24,4.8,4.8,0,0,1,.57.26c.23.12-.17-.07.07,0l.24.12c.23.12.45.26.68.4a2.51,2.51,0,0,0,1.66.31c.12,0,.38-.09.4-.26s-.17-.3-.28-.38a16.23,16.23,0,0,0-2.44-1.2,15.31,15.31,0,0,0-8.75-.76,13.72,13.72,0,0,0-5.58,2.65c-.36.28.57.64.66.69"></path> <path class="cls-4" d="M51.91,91.45a1.73,1.73,0,0,0,1.49,0,10.87,10.87,0,0,1,2.46-1.52,11.73,11.73,0,0,1,3.76-1.06l.23,0a.72.72,0,0,1,.26,0l.45,0h.81c.33,0,.66,0,1,0l.54,0,.17,0c.31,0-.26,0,0,0s.66.09,1,.16a1.57,1.57,0,0,1,.16,0c.29,0-.26-.07,0,0l.41.11.23.08c.24.07-.23-.1,0,0a1.63,1.63,0,0,1,.31.11s.12.07.17.07c-.15,0-.17-.09,0,0s.16.12.26.17-.1-.12,0,0a.62.62,0,0,1,.12.09l.09.1c.12.09,0-.08,0,0s.07.11.1.18,0,.17,0,.12c.07.67-.64,1.19-1.08,1.54s.56.64.7.69a1.83,1.83,0,0,0,1.49,0c.6-.45,1.38-1.16,1.19-2a2.16,2.16,0,0,0-1-1.11,11,11,0,0,0-4-1.21,21.83,21.83,0,0,0-5.11-.07,13.56,13.56,0,0,0-6.88,2.87c-.36.28.56.63.71.7"></path> <path class="cls-4" d="M63.66,94c.4.12,1.16.26,1.49-.05a10.07,10.07,0,0,1,1.47-1.13,1.45,1.45,0,0,1,.19-.12c.11,0,.21-.12.3-.17l.69-.35a6.66,6.66,0,0,1,.73-.31c.28-.09.52-.19.73-.24s.52-.11.78-.16c.08,0,.12,0,.19,0l.17,0c-.12,0,.19,0,.16,0a.44.44,0,0,1,.19,0,4.26,4.26,0,0,1,.5,0h.1a5,5,0,0,1,.66,0,.23.23,0,0,0,.12,0c.09,0,0,0-.12,0,0,0,.12,0,.14,0a1.34,1.34,0,0,1,.35,0l.36.07.16,0c-.28,0-.14,0-.07,0l.74.21.19.07,0,0c.12,0,.21.07.31.12a1.58,1.58,0,0,0,.35.16l.17.07c.14,0-.19-.11,0,0a4.46,4.46,0,0,1,.52.31l.19.12c.21.12-.07-.07,0,0a1.92,1.92,0,0,1,.23.19,3,3,0,0,1,.4.4,2.62,2.62,0,0,1,.29.43,2.66,2.66,0,0,1,.21.5,2.32,2.32,0,0,1,.07.37v.43a5.53,5.53,0,0,1-2,3.59,14,14,0,0,1-5.51,3c-.52.16.12.59.31.68a2.35,2.35,0,0,0,1.63.12,14,14,0,0,0,6.41-3.83,4.82,4.82,0,0,0,1.46-4,3.69,3.69,0,0,0-1.49-2.08,10.31,10.31,0,0,0-3.12-1.49A12.3,12.3,0,0,0,67,90.84a10.7,10.7,0,0,0-4,2.39c-.33.31.55.64.69.78"></path> <path class="cls-4" d="M73.71,100.11c-.21,0-.95.19-.52.52a3.31,3.31,0,0,1,.85.9,2.81,2.81,0,0,1,.17.35c0,.05,0,.1,0,.14s0,0,0,0A2.74,2.74,0,0,1,73,104.34a9.43,9.43,0,0,1-4,1.73c-.14.05-.37.09-.4.26s.17.31.29.38a2.38,2.38,0,0,0,1.65.3,13.15,13.15,0,0,0,3-1,5.77,5.77,0,0,0,2.89-2.53c.54-1.15-.19-2.22-1.12-2.93a2.73,2.73,0,0,0-1.58-.47"></path> <path class="cls-4" d="M64.32,105.45c-.14-.49-.94-.52-1.35-.35a37.68,37.68,0,0,1-4.68,1.54,4.61,4.61,0,0,1-.64.16l-.3.07c-.05,0-.19.1,0,0,0,0-.09,0-.14,0-.47.09-.92.19-1.37.26-1,.16-2,.3-3,.4-.52,0-1.07.09-1.59.12H51a2.68,2.68,0,0,1-.4,0h-.85a27.12,27.12,0,0,1-3.12-.12,14.61,14.61,0,0,1-1.47-.14c-.26,0-.5-.07-.73-.09-.07,0-.12,0-.19,0s-.17,0-.05,0-.07,0-.09,0l-.15,0c-.85-.15-1.7-.31-2.55-.52-1.35-.34-2.7-.74-4-1.21a1.59,1.59,0,0,0-1.58.5.66.66,0,0,0-.17.61.68.68,0,0,0,.5.4,36.66,36.66,0,0,0,4.75,1.37,38.55,38.55,0,0,0,12.58.64,37.53,37.53,0,0,0,10-2.53c.41-.16,1.09-.54.83-1.09"></path> <path class="cls-4" d="M62.15,110.49c-.36-.45-1.09-.28-1.54-.07l-1,.43-.17.07c.36-.15.22-.07.15,0s-.22.07-.31.12-.4.16-.62.23a27.65,27.65,0,0,1-2.79.93c-.49.14-1,.26-1.46.37,0,0-.33.08-.14,0s0,0,0,0l-.38.07-.78.14a32,32,0,0,1-3.52.45c-.31,0-.62,0-.93,0s.15,0-.07,0h-.68c-.67,0-1.35,0-2,0s-1.35-.07-2-.14c-.35,0-.68-.07-1-.12l-.48-.07c-.21,0-.09,0,0,0-.1,0-.17,0-.26-.05a34.88,34.88,0,0,1-6.48-1.75l-.38-.14-.19-.07s-.21-.07,0,0a4.69,4.69,0,0,1-.6-.24c-.4-.17-.8-.33-1.18-.52-.64-.31-1.28-.64-1.91-1a1.56,1.56,0,0,0-1.63.23c-.36.26-.57.86-.1,1.11A37.26,37.26,0,0,0,35,112.93a35.24,35.24,0,0,0,15.35,1.79,36.16,36.16,0,0,0,11.3-3.09c.38-.17.85-.71.55-1.14"></path> <path class="cls-4" d="M17.52,111.48c-.21,0-.49.19-.4.43a1.3,1.3,0,0,1,.1.52,1.27,1.27,0,0,1-.1.5,4,4,0,0,1-.24.45c0,.07.05,0,0,0s0,0,0,0l-.07.09-.16.17a.73.73,0,0,1-.1.09c-.07.07,0,0,0,0l-.17.11c-.05,0,.1,0,.05,0s0,0-.05,0-.07,0-.09,0,.12,0,0,0-.07,0-.09,0H16.1c-.09,0,.15,0,0,0h-.09c-.07,0,0,0,0,0s0,0,0,0-.07,0-.1,0,.07,0,0,0l-.07,0s0,0-.05,0l0,0-.07-.07-.07-.08c-.05,0,0,0,0,0a1,1,0,0,1-.16-.33c-.07-.26-.38-.31-.62-.31a.88.88,0,0,0-.4.12c-.07,0-.19.14-.17.24a1.46,1.46,0,0,0,.81,1,2.28,2.28,0,0,0,2.48-.42,2.21,2.21,0,0,0,.62-2.34c-.1-.24-.55-.24-.74-.22"></path> <path class="cls-4" d="M20,93.75a1.51,1.51,0,0,1-.55.49,2.28,2.28,0,0,1-1.44.29,3,3,0,0,1-.4-.12,3.35,3.35,0,0,1-.36-.21,1.47,1.47,0,0,1-.49-.64,1.05,1.05,0,0,1-.07-.78,1,1,0,0,1,.42-.57,1.09,1.09,0,0,0,.28,1,2.7,2.7,0,0,0,.36.26,1,1,0,0,0,.4.12,2.8,2.8,0,0,0,1,0A2.12,2.12,0,0,0,20.2,93a1.46,1.46,0,0,1-.19.71"></path> <path class="cls-4" d="M16.93,92.8a1.52,1.52,0,0,1-.54.5,2.29,2.29,0,0,1-1.44.28,2.12,2.12,0,0,1-.41-.12,2.7,2.7,0,0,1-.35-.21,1.51,1.51,0,0,1-.5-.64,1.1,1.1,0,0,1-.07-.78,1.08,1.08,0,0,1,.43-.57,1.1,1.1,0,0,0,.28,1,4.06,4.06,0,0,0,.36.26,1.52,1.52,0,0,0,.4.12,3.09,3.09,0,0,0,1,0,2,2,0,0,0,1-.5,1.25,1.25,0,0,1-.19.71"></path> <g class="cls-10"> <g class="cls-11"> <g class="cls-10"> <g class="cls-11"> <g class="cls-12"> <g class="cls-11"> <path class="cls-6" d="M66.59,85.76c.29-.19.1-.48-.09-.64A9.73,9.73,0,0,0,64.63,84a8.41,8.41,0,0,0-8,.61c-.28.17-.12.48.09.64a.94.94,0,0,0,1,.1,7.46,7.46,0,0,1,3.41-1.16,6.2,6.2,0,0,1,4.44,1.51,1.06,1.06,0,0,0,1,.1"></path> </g> </g> </g> </g> </g> </g> <g class="cls-10"> <g class="cls-13"> <g class="cls-10"> <g class="cls-13"> <g class="cls-12"> <g class="cls-13"> <path class="cls-6" d="M78,89.49c.16,0,.56-.09.35-.33a7.8,7.8,0,0,0-8.94-1.89c-.28.14,0,.38.15.47a1.25,1.25,0,0,0,1,.14,6.28,6.28,0,0,1,3.22-.56,5.38,5.38,0,0,1,3.36,1.84,1.14,1.14,0,0,0,.9.33"></path> </g> </g> </g> </g> </g> </g> <g class="cls-14"> <g class="cls-15"> <g class="cls-14"> <g class="cls-15"> <g class="cls-16"> <g class="cls-15"> <path class="cls-6" d="M72.88,94.58a.46.46,0,0,0-.45-.22,3.76,3.76,0,0,0-3.09,1.75c-.17.29.49.52.63.29a3.34,3.34,0,0,1,2.72-1.59c.15,0,.29-.12.19-.23"></path> </g> </g> </g> </g> </g> </g> <g class="cls-14"> <g class="cls-17"> <g class="cls-14"> <g class="cls-17"> <g class="cls-16"> <g class="cls-17"> <path class="cls-6" d="M71.79,93.06a.47.47,0,0,0-.44-.21,4.48,4.48,0,0,0-3.58,1.75c-.18.26.48.5.64.28a4,4,0,0,1,3.2-1.58c.14,0,.26-.12.18-.24"></path> </g> </g> </g> </g> </g> </g> <g class="cls-14"> <g class="cls-18"> <g class="cls-14"> <g class="cls-18"> <g class="cls-16"> <g class="cls-18"> <path class="cls-6" d="M62.71,90.91c0-.17-.16-.28-.28-.31a4.85,4.85,0,0,0-4.19,1.09c-.14.12.08.28.17.33a.39.39,0,0,0,.45,0,4.14,4.14,0,0,1,1.44-.83A3.41,3.41,0,0,1,61.48,91,3.85,3.85,0,0,1,62,91c.12,0,.26,0,.33,0s.35,0,.42-.12"></path> </g> </g> </g> </g> </g> </g> <g class="cls-14"> <g class="cls-19"> <g class="cls-14"> <g class="cls-19"> <g class="cls-16"> <g class="cls-19"> <path class="cls-6" d="M60.3,89.75a.47.47,0,0,0-.45-.21,5.69,5.69,0,0,0-3.73,1.63c-.12.12.07.28.16.33a.39.39,0,0,0,.45,0A5.25,5.25,0,0,1,60.09,90c.14,0,.28-.09.21-.26"></path> </g> </g> </g> </g> </g> </g> <g class="cls-14"> <g class="cls-20"> <g class="cls-14"> <g class="cls-20"> <g class="cls-16"> <g class="cls-20"> <path class="cls-6" d="M49.87,89.44c0-.16-.23-.23-.38-.26A5.89,5.89,0,0,0,45,90.32c-.28.24.33.54.55.38a5.37,5.37,0,0,1,4-1.07c.12,0,.33,0,.28-.19"></path> </g> </g> </g> </g> </g> </g> <g class="cls-14"> <g class="cls-21"> <g class="cls-14"> <g class="cls-21"> <g class="cls-16"> <g class="cls-21"> <path class="cls-6" d="M47.48,88.36a.42.42,0,0,0-.44-.22,6.78,6.78,0,0,0-3.81,1.54c-.29.24.33.54.54.38a6.16,6.16,0,0,1,3.53-1.44c.14,0,.28-.1.18-.26"></path> </g> </g> </g> </g> </g> </g> <g class="cls-14"> <g class="cls-22"> <g class="cls-14"> <g class="cls-22"> <g class="cls-16"> <g class="cls-22"> <path class="cls-6" d="M77.85,100s0,0,.05.07c-.05-.12,0,0,0,0a1.25,1.25,0,0,0,.12.3,5.34,5.34,0,0,1,.28,1,4.63,4.63,0,0,1-.33,2.72,4.76,4.76,0,0,1-2.48,2.36c-.31.14-.05.43.12.52a1.14,1.14,0,0,0,1,.14,5.25,5.25,0,0,0,2.74-2.65A5.11,5.11,0,0,0,79.1,100c-.21-.38-1.58-.55-1.25,0"></path> </g> </g> </g> </g> </g> </g> <path class="cls-4" d="M25.94,87.79a1.6,1.6,0,0,1-.42.59,2.18,2.18,0,0,1-1.35.57,1.25,1.25,0,0,1-.43,0,1.12,1.12,0,0,1-.4-.14,1.54,1.54,0,0,1-.59-.54,1.2,1.2,0,0,1-.21-.76,1,1,0,0,1,.3-.64,1.16,1.16,0,0,0,.48.93,2.12,2.12,0,0,0,.4.19,1.36,1.36,0,0,0,.4,0,3.16,3.16,0,0,0,1-.23,2.09,2.09,0,0,0,.92-.69,1,1,0,0,1-.07.71"></path> <path class="cls-4" d="M22.75,87.46a1.86,1.86,0,0,1-.43.59,2.13,2.13,0,0,1-1.34.57,1.23,1.23,0,0,1-.43,0,1.12,1.12,0,0,1-.4-.14,1.62,1.62,0,0,1-.59-.54,1.3,1.3,0,0,1-.22-.76,1.11,1.11,0,0,1,.31-.64,1.16,1.16,0,0,0,.47.92,1.72,1.72,0,0,0,.41.19,1.1,1.1,0,0,0,.4,0,2.93,2.93,0,0,0,1-.24,2,2,0,0,0,.92-.68,1.09,1.09,0,0,1-.07.71"></path> <path class="cls-4" d="M13.67,97.89a1.52,1.52,0,0,1-.55.49,2.28,2.28,0,0,1-1.44.29,3,3,0,0,1-.4-.12,2.5,2.5,0,0,1-.35-.21,1.42,1.42,0,0,1-.5-.64,1.11,1.11,0,0,1-.07-.78,1,1,0,0,1,.42-.57,1.09,1.09,0,0,0,.29,1,2.63,2.63,0,0,0,.35.26,1.22,1.22,0,0,0,.4.12,2.88,2.88,0,0,0,1,0,2.07,2.07,0,0,0,1-.49,1.43,1.43,0,0,1-.19.71"></path> <path class="cls-4" d="M18.07,97a1.63,1.63,0,0,1-.36.64,2.15,2.15,0,0,1-1.28.71,2.94,2.94,0,0,1-.42,0,1.67,1.67,0,0,1-.4-.1,1.43,1.43,0,0,1-.66-.47,1.11,1.11,0,0,1-.31-.73,1,1,0,0,1,.23-.69,1.14,1.14,0,0,0,.57.88,1.08,1.08,0,0,0,.43.16.9.9,0,0,0,.4,0,2.77,2.77,0,0,0,.95-.33A2.16,2.16,0,0,0,18,96.3a1,1,0,0,1,0,.71"></path> <path class="cls-4" d="M13.08,102.83a2.14,2.14,0,0,1-1.56,1.47,1.6,1.6,0,0,1-.43,0,1.12,1.12,0,0,1-.4-.07,1.81,1.81,0,0,1-.69-.42,1.17,1.17,0,0,1-.35-.71,1,1,0,0,1,.19-.69,1.1,1.1,0,0,0,.64.83,3.31,3.31,0,0,0,.42.12,1.08,1.08,0,0,0,.4,0,3.12,3.12,0,0,0,.93-.4,2.25,2.25,0,0,0,.78-.83,1.25,1.25,0,0,1,.07.69"></path> <path class="cls-4" d="M18.82,103.28a1.72,1.72,0,0,1-.23.68,2.13,2.13,0,0,1-1.11,1,2.24,2.24,0,0,1-.41.1,1.48,1.48,0,0,1-.42,0,1.69,1.69,0,0,1-.73-.34,1.21,1.21,0,0,1-.45-.66.86.86,0,0,1,.09-.71,1.16,1.16,0,0,0,.73.74,2,2,0,0,0,.45.07,1.4,1.4,0,0,0,.4-.07,2.54,2.54,0,0,0,.86-.53,2,2,0,0,0,.66-.92,1,1,0,0,1,.16.69"></path> <path class="cls-4" d="M15.49,107.42a1.8,1.8,0,0,1-.17.71,2.23,2.23,0,0,1-1,1,2.11,2.11,0,0,1-.4.11,2,2,0,0,1-.42,0,2,2,0,0,1-.76-.26,1.18,1.18,0,0,1-.5-.62.92.92,0,0,1,0-.71,1.12,1.12,0,0,0,.78.67,1.72,1.72,0,0,0,.45,0,1.22,1.22,0,0,0,.4-.12,2.54,2.54,0,0,0,.8-.59,1.85,1.85,0,0,0,.59-1,1.67,1.67,0,0,1,.24.69"></path> <path class="cls-4" d="M20.79,107.58a1.7,1.7,0,0,1-.12.74,2.18,2.18,0,0,1-1,1.11,1.45,1.45,0,0,1-.38.16,1.62,1.62,0,0,1-.4,0,1.5,1.5,0,0,1-.78-.19,1.15,1.15,0,0,1-.54-.57.92.92,0,0,1,0-.71,1.13,1.13,0,0,0,.86.62,1.62,1.62,0,0,0,.44,0,1,1,0,0,0,.38-.14A4.25,4.25,0,0,0,20,108a2,2,0,0,0,.5-1,1.08,1.08,0,0,1,.26.61"></path> <path class="cls-4" d="M25.09,119.69a2,2,0,0,1,.12.76,2.35,2.35,0,0,1-.57,1.44,3.22,3.22,0,0,1-.33.28,2.25,2.25,0,0,1-.38.19,1.55,1.55,0,0,1-.83.07,1.16,1.16,0,0,1-.73-.38,1.06,1.06,0,0,1-.28-.7,1.2,1.2,0,0,0,1,.33,3,3,0,0,0,.45-.17,1,1,0,0,0,.35-.28,3.65,3.65,0,0,0,.55-1,2,2,0,0,0,.14-1.2,1,1,0,0,1,.47.61"></path> <path class="cls-4" d="M20.29,116.83a1.76,1.76,0,0,1,.07.76,2.3,2.3,0,0,1-.68,1.39,1.83,1.83,0,0,1-.36.26,2.4,2.4,0,0,1-.4.17,1.75,1.75,0,0,1-.85,0,1.29,1.29,0,0,1-.71-.45,1,1,0,0,1-.22-.71,1.22,1.22,0,0,0,1,.42,1.41,1.41,0,0,0,.47-.11,1.7,1.7,0,0,0,.38-.26,3.22,3.22,0,0,0,.62-.88,2.1,2.1,0,0,0,.23-1.18,1.2,1.2,0,0,1,.43.59"></path> <path class="cls-4" d="M25,113a1.64,1.64,0,0,1,.22.73,2.45,2.45,0,0,1-.43,1.49,1.26,1.26,0,0,1-.28.33,1.74,1.74,0,0,1-.36.24,1.59,1.59,0,0,1-.83.16,1.33,1.33,0,0,1-.78-.3,1,1,0,0,1-.35-.67,1.15,1.15,0,0,0,1.09.24.89.89,0,0,0,.42-.19.76.76,0,0,0,.33-.31,3.2,3.2,0,0,0,.45-1,2.35,2.35,0,0,0,0-1.21A1.34,1.34,0,0,1,25,113"></path> <path class="cls-4" d="M41.29,42.41a1.74,1.74,0,0,1-.31.66,2.09,2.09,0,0,1-1.2.83,2.42,2.42,0,0,1-.41.05,2.73,2.73,0,0,1-.4-.05,1.52,1.52,0,0,1-.71-.4,1.27,1.27,0,0,1-.38-.71,1,1,0,0,1,.17-.71,1.17,1.17,0,0,0,.66.8,1.39,1.39,0,0,0,.43.12,1.1,1.1,0,0,0,.4,0,3.16,3.16,0,0,0,.9-.42,2.1,2.1,0,0,0,.75-.85,1.43,1.43,0,0,1,.1.73"></path> <path class="cls-4" d="M26.65,73a1.63,1.63,0,0,1-.45.57,2.07,2.07,0,0,1-1.37.52,2,2,0,0,1-.4-.05,2.05,2.05,0,0,1-.38-.16,1.61,1.61,0,0,1-.59-.57,1.37,1.37,0,0,1-.19-.78.88.88,0,0,1,.33-.64,1.14,1.14,0,0,0,.43,1,1.23,1.23,0,0,0,.37.21,1.18,1.18,0,0,0,.41.07,3,3,0,0,0,1-.19,2,2,0,0,0,.95-.64,1.27,1.27,0,0,1-.1.71"></path> <path class="cls-4" d="M39,45.53a1.84,1.84,0,0,1-.5.54,2.26,2.26,0,0,1-1.42.41,1.53,1.53,0,0,1-.4-.07,2.25,2.25,0,0,1-.38-.19,1.6,1.6,0,0,1-.54-.59,1.27,1.27,0,0,1-.12-.79,1,1,0,0,1,.38-.61,1,1,0,0,0,.35,1,1.52,1.52,0,0,0,.38.24,1.44,1.44,0,0,0,.4.09,2.92,2.92,0,0,0,1-.12,1.88,1.88,0,0,0,1-.57,1,1,0,0,1-.14.69"></path> <path class="cls-4" d="M39.26,26.45a1.61,1.61,0,0,1-.15.56,1.57,1.57,0,0,1-.85.83,1.24,1.24,0,0,1-.66.1,1.39,1.39,0,0,1-.62-.26,1.07,1.07,0,0,1-.35-.55.65.65,0,0,1,.1-.56.8.8,0,0,0,.63.44h.31a.77.77,0,0,0,.26-.07,2.26,2.26,0,0,0,.62-.37,1.81,1.81,0,0,0,.54-.69.7.7,0,0,1,.17.57"></path> <path class="cls-4" d="M38.1,30.89a1.51,1.51,0,0,1-.15.57,1.57,1.57,0,0,1-.85.83,1.24,1.24,0,0,1-.66.09,1.13,1.13,0,0,1-.61-.26,1,1,0,0,1-.36-.54.67.67,0,0,1,.1-.57.82.82,0,0,0,.63.45h.31a.77.77,0,0,0,.26-.07,2.08,2.08,0,0,0,.62-.38,1.61,1.61,0,0,0,.54-.68.83.83,0,0,1,.17.56"></path> <g class="cls-23"> <g class="cls-24"> <g class="cls-23"> <g class="cls-24"> <g class="cls-25"> <g class="cls-24"> <path class="cls-6" d="M33.93,17.25a1.83,1.83,0,0,0,.81.16c.38,0,.78-.26.57-.68A11.14,11.14,0,0,0,31,12.09a1.64,1.64,0,0,0-1.47-.16c-.42.21-.14.68.17.87s.68.45,1,.69c.14.12,0,0,0,0s.14.12.16.12l.26.23c.19.17.38.36.57.55s.21.21.31.33a.56.56,0,0,0,.14.16s.12.15,0,.07c.16.22.33.45.49.69s.47.78.69,1.18a1,1,0,0,0,.56.43"></path> </g> </g> </g> </g> </g> </g> <path class="cls-4" d="M23.18,25.22a.57.57,0,0,0,.49,0,22.2,22.2,0,0,0,5.72-3.78c.19-.19-.44-.45-.63-.28a22.52,22.52,0,0,1-5.63,3.71c-.14.07,0,.21.05.31"></path> <path class="cls-26" d="M16.62,8.2a25.94,25.94,0,0,1,22,9.37h0a11.4,11.4,0,0,0,.92-6.21,12,12,0,0,0-3.43-6.93C31.22-.14,22.17.71,18.3,5.22a9,9,0,0,0-1.68,3"></path> <path class="cls-26" d="M35.33,0a3.31,3.31,0,0,0-3,2.31,3.36,3.36,0,0,0,.93,3,3.39,3.39,0,0,0,3.31,1,3.43,3.43,0,0,0,2-4.54A3.35,3.35,0,0,0,35.33,0"></path> <path class="cls-27" d="M18,73.54c2.14.66,2.42,4.41,5,4.82,1.69.27,3.36-1,4.63-2.39,0,.94.15,4.93,2.3,5.83,1,.4,2,0,3.61-.75,5.63-2.57,8.69-4.5,12.45-6.1a44.6,44.6,0,0,1,4.48-1.62,44.05,44.05,0,0,1,11-1.87A35.92,35.92,0,0,1,77.48,74.2a34.52,34.52,0,0,1,13,9.84c9.77,11.82,8.35,26.52,8,29.75C59.18,133.39,23.47,134.25,11,118.4c-5.1-6.48-9.73-20.07-5.48-31.62C8.21,79.48,14.61,72.51,18,73.54"></path> <path class="cls-28" d="M16.9,121.23a39.28,39.28,0,0,1-6.71-15.51c-.57-3-2.38-9.57,1.67-21,.71-2,2.74-7.58,3.6-8.11.11-.07.43-.27.62-.15s.16.49.15.62c-.08,1-2.78,7-3.57,8.76-3.51,7.74-2.09,17.5-1.06,21.49a46.93,46.93,0,0,0,2.28,6.47,48.47,48.47,0,0,0,3.85,7.12l-.83.29"></path> <path class="cls-26" d="M16,84.47a14.25,14.25,0,0,0-1.85,4.76c-1.37,7.36,3.55,15.69,10.09,18.92s8.78-1.38,14.51,2.09c2.84,1.72,11.36,8.33,13.23,9.17a1.54,1.54,0,0,0,1.17.11c.45-.18.54-.62.92-1.27s1.38-2,2-1.86.34,1,.81,1.16c.76.34,2.59-1.18,3-2.44,1.07-3.19-5.27-9.53-12.54-12.88-10.95-5-19.42-1.15-22.28-5.92-.93-1.55-1.41-4.24.92-9.23L16,84.47"></path> <path class="cls-26" d="M24.17,89A18.73,18.73,0,0,0,33,95.58c3.85,1.27,5.37.11,10.25,1.23a28.88,28.88,0,0,1,11.32,5.5c5.34,4.28,8.3,10,9.34,9.49.57-.31,0-2.31.91-2.75.54-.26,1,.27,1.69.15,1.19-.21,1.95-2.08,2.06-2.87.54-3.7-9.08-11-20-12.28-5-.6-8.5.27-13.54-2.26a21.81,21.81,0,0,1-5.72-4.23L24.17,89"></path> <path class="cls-26" d="M21.26,69A8.73,8.73,0,0,0,15,70.24c-2,1.36-2.69,3.28-3.47,5.36S9.71,80.44,10.39,83C12,88.92,22.62,93,28.24,89.14a10.77,10.77,0,0,0,3.84-6c.36-1.27,1.28-4.58-.5-7.62A7.93,7.93,0,0,0,29.26,73a21.4,21.4,0,0,1-1.64,3A4.68,4.68,0,0,1,23,78.36a4.84,4.84,0,0,1-3.85-3.85A5.41,5.41,0,0,1,21.26,69"></path> <path class="cls-6" d="M11.68,94a1.52,1.52,0,1,1-1.52-1.52A1.52,1.52,0,0,1,11.68,94"></path> <path class="cls-6" d="M11.83,104.1a1.51,1.51,0,1,1-1.51-1.51,1.52,1.52,0,0,1,1.51,1.51"></path> <path class="cls-6" d="M15.09,114.92a1.51,1.51,0,1,1-1.51-1.52,1.51,1.51,0,0,1,1.51,1.52"></path> <path class="cls-6" d="M16.9,121.23a3.64,3.64,0,0,1,2.77-.57,7.92,7.92,0,0,1,1.86.92c.95.53,1.42.8,1.57.85,1.33.47,1.86-.31,3.52-.2,1.39.09,1.32.66,3.05,1a17.2,17.2,0,0,0,3.36,0c1.93,0,2.66.51,4.31.83,3,.61,3.58-.51,7.62-.53s3.78,1.09,6.81.79c3.26-.32,3.51-1.61,7.24-2,2.85-.34,2.91.38,5.53-.06,3.11-.52,3-1.52,6.29-2.16,2.8-.55,3.56,0,5.69-.93a15,15,0,0,0,3.1-2.06c1.94-1.49,1.87-1.82,3.11-2.66a17.47,17.47,0,0,1,4.82-1.93c3.2-1,3.52-.7,4.77-1.5s1.47-1.42,2.94-2.39a12.62,12.62,0,0,1,3.4-1.55,8,8,0,0,1,.8,6c-.94,3-4,4.37-5.65,5.08C76.05,125.71,56,128.86,56,128.86a112.93,112.93,0,0,1-27.33.22s-5.8-.75-8.07-3.43l-1.79-2.14-1.9-2.28"></path> <path class="cls-6" d="M16.9,121.23a3.27,3.27,0,0,0-1.34-.52c-.52-.07-.7,0-1.11-.07s-.87-.31-1.82-1.08c-1.45-1.18-1.75-1.6-1.9-1.51-.3.16.21,2.08,1,3.41,2,3.16,6.26,4,8.83,4.19l-3.69-4.42"></path> <path class="cls-6" d="M79.09,201c-.33.2-.73.49-.68.75.08.42,1.25.54,2,.58L83,202c.52-.09,1.25-.17,1.31,0s-.79.76-.88.82c-.55.34-.8.35-.82.51s.78.67,1.55.8a4.29,4.29,0,0,0,2-.14c4-1.27,5.77-2,5.77-2a25.56,25.56,0,0,1,5-1.66,12.66,12.66,0,0,1,3.46-.23c1.49.13,2,.47,3.53.52.69,0,2.77.08,2.94-.54s-1.3-1.7-2.87-2.08a7.05,7.05,0,0,0-3.46.23c-2.69.6-2.83-.12-7.6,0-3.3.1-2.25.42-7.2.79A17.62,17.62,0,0,0,79.09,201"></path> <path class="cls-6" d="M113.11,210.73c-.37-.12-.83-.3-.84-.57s1.08-.82,1.84-1l2.51-.33c.52,0,1.25-.13,1.27-.33s-1-.55-1.06-.58c-.61-.2-.86-.15-.91-.3s.6-.84,1.31-1.15a4.22,4.22,0,0,1,2-.34c4.15.28,6.07.55,6.07.55a25.4,25.4,0,0,0,5.26.41,12.51,12.51,0,0,0,3.42-.6c1.42-.48,1.79-.93,3.3-1.35.67-.18,2.67-.74,3-.18s-.86,2-2.29,2.7a7,7,0,0,1-3.42.61c-2.75.06-2.72.79-7.38,1.78-3.23.69-2.29.13-7.19,1,0,0-4,.69-6.86-.23"></path> <path class="cls-6" d="M135.39,188.75c-.33.2-.73.49-.68.75.08.42,1.25.54,2,.58l2.52-.28c.52-.09,1.25-.17,1.32,0s-.8.76-.89.82c-.55.34-.8.35-.82.51s.78.67,1.55.8a4.29,4.29,0,0,0,2-.14c4-1.27,5.77-2,5.77-2a24.9,24.9,0,0,1,5-1.66,12.66,12.66,0,0,1,3.46-.23c1.49.12,2,.47,3.53.52.69,0,2.77.08,2.94-.55s-1.3-1.69-2.87-2.07a7.05,7.05,0,0,0-3.46.23c-2.69.6-2.83-.12-7.6,0-3.3.1-2.25.42-7.2.79,0,0-4.09.3-6.61,1.87"></path> </g> </g> </svg> 