<?xml version="1.0" encoding="UTF-8"?> <svg xmlns="http://www.w3.org/2000/svg" viewBox="0 0 131.08 205.38"> <defs> <style>.cls-1,.cls-2{fill:#ffed00;}.cls-1{opacity:0.2;}.cls-2{opacity:0.9;}.cls-3,.cls-5{fill:#fff;}.cls-4{fill:#10567a;}.cls-5{stroke:#c6c6c6;stroke-miterlimit:10;stroke-width:0.58px;}.cls-6{fill:#c6c6c6;}.cls-7{fill:#ededed;}.cls-8{fill:#9d9d9c;}.cls-9{fill:#648ec3;}.cls-10{fill:#b7cdec;}.cls-11{fill:#e6007e;}.cls-12{fill:#7fb5e3;}.cls-13{fill:#bdd5dc;}.cls-14{fill:#bcd9c9;}.cls-15{fill:#5d8dae;}.cls-16{fill:#a7c1b0;}.cls-17{fill:#cfe5d8;}.cls-18{fill:#0a0d0d;}.cls-19{fill:#fcfdfc;}.cls-20{fill:#8db8a4;}.cls-21{fill:#2c4360;}</style> </defs> <title>bafAsset 3</title> <g id="Layer_2" data-name="Layer 2"> <g id="бафик"> <circle class="cls-1" cx="55.49" cy="55.49" r="55.48"></circle> <circle class="cls-1" cx="55.49" cy="55.49" r="51.11"></circle> <circle class="cls-1" cx="55.49" cy="55.49" r="51.11"></circle> <path class="cls-2" d="M56.93,11.54c.65-.11,1.29-.2,1.94-.29A44.38,44.38,0,0,0,11.44,60.7,55.26,55.26,0,0,1,56.93,11.54Z"></path> <circle class="cls-3" cx="26.14" cy="28.32" r="4.96"></circle> <circle class="cls-3" cx="34.25" cy="20.1" r="2.3"></circle> <polygon class="cls-4" points="21.02 160.89 22.48 156.27 31.48 153.24 30.08 164.62 21.02 160.89"></polygon> <polygon class="cls-4" points="44.96 94.03 54.14 97.89 49.46 101.49 45.86 103.05 44.96 94.03"></polygon> <path class="cls-4" d="M19.37,158.8c.35,1.92,2.34,2.81,4.44,2l28.42-11.28c2.1-.84,3.53-3.08,3.18-5l-8.7-48.33c-.35-1.92-2.33-2.8-4.44-2L13.85,105.48a4.9,4.9,0,0,0-3.18,5Z"></path> <path class="cls-3" d="M28.29,162.51a2.67,2.67,0,0,0,1.44,2,3.67,3.67,0,0,0,3,0L61.15,153.2c2.1-.84,3.53-3.08,3.18-5l-8.7-48.33c-.35-1.92-2.33-2.8-4.44-2L22.77,109.19a4.89,4.89,0,0,0-3.18,5Z"></path> <path class="cls-5" d="M89.06,97.28a25.5,25.5,0,0,1,.11,5.45c-.15,1.41-.4,2.35-.85,2.43s-1-.66-1.67-1.92a30.23,30.23,0,0,1-2-5.08,15.32,15.32,0,0,1-.73-5.41c.12-1.46.67-2.5,1.44-2.63S87,90.67,87.63,92A16.29,16.29,0,0,1,89.06,97.28Z"></path> <path class="cls-5" d="M91.63,97.05c.18,4.23-.47,7.71-1.39,7.81-.47.07-1-.74-1.57-2.06a26.33,26.33,0,0,1-1.52-5.22,16,16,0,0,1-.22-5.48c.25-1.45.82-2.38,1.59-2.48C90.07,89.46,91.45,92.82,91.63,97.05Z"></path> <path class="cls-5" d="M94.21,97a24.44,24.44,0,0,1-.63,5.41c-.36,1.39-.79,2.27-1.29,2.28s-1-.79-1.47-2.15A25.62,25.62,0,0,1,89.7,97.2a16.7,16.7,0,0,1,.2-5.46c.34-1.41,1-2.34,1.72-2.36s1.44.81,1.9,2.2A17.24,17.24,0,0,1,94.21,97Z"></path> <path class="cls-5" d="M96.79,97.1c-.33,4.24-1.4,7.58-2.39,7.58s-1.93-3.41-2.13-7.65.89-7.72,2.4-7.68S97.11,92.89,96.79,97.1Z"></path> <path class="cls-5" d="M99.36,97.36a24,24,0,0,1-1.26,5.3c-.51,1.34-1,2.16-1.57,2.11-1-.06-1.74-3.53-1.68-7.76s1.34-7.63,2.84-7.53c.73.06,1.31,1,1.61,2.4A17,17,0,0,1,99.36,97.36Z"></path> <path class="cls-5" d="M101.91,97.75a25.61,25.61,0,0,1-1.59,5.23c-.59,1.31-1.16,2.07-1.67,2-1-.15-1.53-3.61-1.22-7.85s1.77-7.57,3.27-7.35c.73.09,1.27,1,1.49,2.5A16.88,16.88,0,0,1,101.91,97.75Z"></path> <path class="cls-5" d="M104.42,98.35a28.48,28.48,0,0,1-2,5.08c-.64,1.25-1.28,2-1.73,1.9-.92-.18-1.26-3.7-.7-7.89s2.22-7.43,3.75-7.13c.76.17,1.24,1.13,1.38,2.62A15.8,15.8,0,0,1,104.42,98.35Z"></path> <path class="cls-5" d="M106.85,99.2c-1.9,3.8-3.58,6.8-4.3,6.58-.43-.1-.57-1-.6-2.47a25.44,25.44,0,0,1,.59-5.42,16.6,16.6,0,0,1,1.88-5.14c.77-1.26,1.71-1.88,2.49-1.67s1.28,1.31,1.31,2.83A12.36,12.36,0,0,1,106.85,99.2Z"></path> <path class="cls-5" d="M109,100.64c-1.47,1.53-2.92,2.79-3.88,3.8a15.69,15.69,0,0,0-1.09,1.24c-.24.3-.36.48-.36.48a4.41,4.41,0,0,0,.06-.62c0-.41.09-1,.17-1.68A32.13,32.13,0,0,1,105,98.53a14.51,14.51,0,0,1,2.42-4.91c.92-1.15,2.05-1.65,3.18-1.1a2.44,2.44,0,0,1,1.16,1.36,4,4,0,0,1,.06,2.09A10.4,10.4,0,0,1,109,100.64Z"></path> <path class="cls-5" d="M110.74,102.52a24.49,24.49,0,0,1-4.46,3.15c-1.25.69-2.2.91-2.48.64a.35.35,0,0,1-.08-.13s0-.05.07-.09a3.87,3.87,0,0,0,.28-.36,15.09,15.09,0,0,0,.86-1.41c.7-1.23,1.46-3,2.5-4.83A10.6,10.6,0,0,1,111,95.35a4.15,4.15,0,0,1,2-.55,2.28,2.28,0,0,1,.9.21,3.78,3.78,0,0,1,.4.22,1.22,1.22,0,0,1,.25.2c.61.6.41,1.67-.28,2.95A17.43,17.43,0,0,1,110.74,102.52Z"></path> <path class="cls-5" d="M112.4,104.5c-3.3,2.66-6.55,4.07-7.23,3.3-.36-.42,0-1.32.76-2.51a26.39,26.39,0,0,1,3.5-4.2,16.39,16.39,0,0,1,4.4-3.22c1.35-.61,2.45-.67,2.9-.14C117.7,98.83,115.69,101.84,112.4,104.5Z"></path> <path class="cls-5" d="M114,106.52c-3.37,2.55-6.67,3.9-7.36,3s1.34-3.76,4.53-6.53,6.54-4.15,7.42-3.06S117.38,104,114,106.52Z"></path> <path class="cls-5" d="M115.53,108.6c-3.44,2.46-6.77,3.71-7.45,2.81s1.42-3.76,4.73-6.41,6.67-3.93,7.49-2.84S119,106.13,115.53,108.6Z"></path> <path class="cls-5" d="M117,110.71c-3.51,2.39-6.85,3.55-7.53,2.62s1.51-3.73,4.89-6.29,6.78-3.76,7.56-2.65S120.51,108.33,117,110.71Z"></path> <path class="cls-5" d="M118.45,112.85c-3.56,2.3-6.93,3.39-7.58,2.45s1.6-3.7,5-6.18,6.86-3.59,7.62-2.47S122,110.56,118.45,112.85Z"></path> <path class="cls-5" d="M119.83,115c-3.62,2.2-7,3.2-7.64,2.25s1.7-3.65,5.19-6,6.94-3.42,7.69-2.28S123.45,112.85,119.83,115Z"></path> <path class="cls-5" d="M121.14,117.26c-3.69,2-7.14,3-7.7,2s1.81-3.58,5.37-5.89,7-3.22,7.75-2S124.85,115.2,121.14,117.26Z"></path> <path class="cls-5" d="M122.35,119.54c-3.81,1.85-7.24,2.65-7.76,1.72s1.94-3.48,5.57-5.67,7.14-3,7.84-1.77S126.16,117.69,122.35,119.54Z"></path> <path class="cls-5" d="M123.42,121.89a27.06,27.06,0,0,1-5.25,1.52c-1.41.24-2.32.25-2.57-.22-.42-.87,2.15-3.31,5.85-5.36s7.27-2.74,7.93-1.36c.34.64-.15,1.7-1.24,2.68A16,16,0,0,1,123.42,121.89Z"></path> <path class="cls-5" d="M124.18,124.35c-2.08.38-4,.53-5.41.7s-2.3.19-2.41-.14c-.27-.69,2.48-2.93,6.28-4.79s7.42-2.28,8.06-.65c.3.85-.23,1.86-1.42,2.89A11.53,11.53,0,0,1,124.18,124.35Z"></path> <path class="cls-3" d="M106.39,170.89l2,5.51A11.89,11.89,0,0,1,123,183.49h0v0l0,.08h0c.11,1.25-5.22,4.27-12.17,6.86s-13,3.79-13.69,2.77h0L91,176.63Z"></path> <path class="cls-6" d="M98.57,194a2.71,2.71,0,0,1-1.47-.3l-.16.05-.17-.37-6.33-17,16.19-6,2.07,5.53a12.17,12.17,0,0,1,3.24-.44,12.37,12.37,0,0,1,11.44,7.81l0,.08,0,.09v0l.12.32-.15.08c-.51,2.07-8.22,5.45-12.41,7C105.87,192.78,101,194,98.57,194ZM97.49,193l0,0s.16.19,1,.19c2.32,0,7.09-1.22,12.16-3.11,8-3,12-5.74,11.9-6.43v0a11.55,11.55,0,0,0-10.69-7.33,11.78,11.78,0,0,0-3.38.51l-.37.12-2-5.49L91.5,176.87Z"></path> <ellipse class="cls-3" cx="98.31" cy="172.5" rx="9.44" ry="6.03" transform="translate(-54.02 45.16) rotate(-20.43)"></ellipse> <path class="cls-6" d="M95.69,179.43h0c-3.26,0-5.78-1.34-6.59-3.5-1.23-3.32,1.89-7.56,7-9.45a14.11,14.11,0,0,1,4.87-.91c3.26,0,5.78,1.34,6.59,3.5,1.23,3.32-1.9,7.56-7,9.45A14.05,14.05,0,0,1,95.69,179.43Zm5.25-13.08a13.26,13.26,0,0,0-4.59.87c-4.68,1.74-7.6,5.52-6.51,8.44.69,1.84,2.93,3,5.85,3h0a13.26,13.26,0,0,0,4.59-.87c4.67-1.74,7.59-5.52,6.51-8.44C106.1,167.5,103.86,166.35,100.94,166.35Z"></path> <ellipse class="cls-3" cx="96.21" cy="166.85" rx="9.44" ry="6.03" transform="translate(-52.18 44.07) rotate(-20.43)"></ellipse> <path class="cls-6" d="M93.58,173.78h0c-3.26,0-5.78-1.34-6.58-3.5A5.59,5.59,0,0,1,88.15,165,13,13,0,0,1,94,160.83a14.11,14.11,0,0,1,4.87-.91c3.25,0,5.78,1.34,6.58,3.5,1.24,3.32-1.89,7.56-7,9.45A14.11,14.11,0,0,1,93.58,173.78Zm5.26-13.08a13.27,13.27,0,0,0-4.6.87,12.13,12.13,0,0,0-5.46,3.85,4.85,4.85,0,0,0-1,4.59c.69,1.84,2.93,3,5.85,3h0a13.32,13.32,0,0,0,4.6-.87c4.67-1.74,7.59-5.52,6.5-8.44C104,161.85,101.76,160.7,98.84,160.7Z"></path> <ellipse class="cls-3" cx="94.1" cy="161.2" rx="9.44" ry="6.03" transform="translate(-50.34 42.98) rotate(-20.43)"></ellipse> <path class="cls-6" d="M91.48,168.13h0c-3.26,0-5.78-1.34-6.59-3.5a5.57,5.57,0,0,1,1.16-5.33,13,13,0,0,1,5.81-4.12,14.15,14.15,0,0,1,4.87-.91c3.26,0,5.78,1.34,6.59,3.5a5.57,5.57,0,0,1-1.16,5.33,13,13,0,0,1-5.81,4.12A14.15,14.15,0,0,1,91.48,168.13Zm5.25-13.08a13.26,13.26,0,0,0-4.59.87,12.13,12.13,0,0,0-5.46,3.85,4.85,4.85,0,0,0-1.05,4.59c.69,1.84,2.93,3,5.85,3h0a13.26,13.26,0,0,0,4.59-.87,12.13,12.13,0,0,0,5.46-3.85,4.85,4.85,0,0,0,1-4.59C101.89,156.2,99.65,155.05,96.73,155.05Z"></path> <ellipse class="cls-3" cx="92" cy="155.55" rx="9.44" ry="6.03" transform="translate(-48.5 41.89) rotate(-20.43)"></ellipse> <path class="cls-6" d="M89.37,162.48h0c-3.25,0-5.78-1.34-6.58-3.5-1.24-3.32,1.89-7.56,7-9.45a14.11,14.11,0,0,1,4.87-.91c3.25,0,5.78,1.34,6.58,3.5,1.24,3.32-1.89,7.56-7,9.45A14.11,14.11,0,0,1,89.37,162.48Zm5.26-13.08a13.32,13.32,0,0,0-4.6.87c-4.67,1.74-7.59,5.53-6.5,8.44.68,1.84,2.92,3,5.84,3h0a13.27,13.27,0,0,0,4.6-.87c4.67-1.74,7.59-5.52,6.51-8.43C99.79,150.55,97.55,149.4,94.63,149.4Z"></path> <path class="cls-3" d="M60.18,184.69l-1.13,5.77a11.88,11.88,0,0,1,8.72,13.67s0,0,0,0v0s0,.06,0,.09h0c-.56,1.12-6.67.91-13.95-.52s-13-3.54-13.12-4.79h0L44,181.53Z"></path> <path class="cls-6" d="M64.29,205.38a59.78,59.78,0,0,1-10.6-1.24c-4.35-.86-12.39-2.91-13.36-4.85l-.17,0,.05-.41L43.71,181l17,3.33-1.14,5.8a12.32,12.32,0,0,1,8.66,14l-.12.57-.17,0C67.55,205,66.67,205.38,64.29,205.38Zm-23.24-6.52v0c0,.69,4.37,2.76,12.79,4.41a58.09,58.09,0,0,0,10.44,1.23c2.74,0,3.06-.48,3.06-.49l0,0a11.5,11.5,0,0,0-8.43-13.16l-.38-.1L59.69,185l-15.33-3Z"></path> <ellipse class="cls-3" cx="52.45" cy="181.85" rx="6.03" ry="9.44" transform="matrix(0.19, -0.98, 0.98, 0.19, -136.09, 198.3)"></ellipse> <path class="cls-6" d="M54.06,188.43h0a15.35,15.35,0,0,1-2.84-.28c-5.32-1.05-9.1-4.72-8.41-8.2.55-2.8,3.77-4.69,8-4.69a15.38,15.38,0,0,1,2.85.28,12.94,12.94,0,0,1,6.4,3.12,5.61,5.61,0,0,1,2,5.08C61.55,186.54,58.32,188.43,54.06,188.43Zm-3.22-12.38c-3.81,0-6.79,1.67-7.26,4.06-.6,3,2.89,6.31,7.79,7.27a14.58,14.58,0,0,0,2.69.26c3.81,0,6.8-1.66,7.27-4a4.85,4.85,0,0,0-1.78-4.36,12.13,12.13,0,0,0-6-2.91A13.89,13.89,0,0,0,50.84,176.05Z"></path> <ellipse class="cls-3" cx="53.61" cy="175.93" rx="6.03" ry="9.44" transform="translate(-129.35 194.66) rotate(-78.9)"></ellipse> <path class="cls-6" d="M55.22,182.51h0a14.54,14.54,0,0,1-2.84-.28c-5.32-1-9.09-4.72-8.41-8.19.55-2.81,3.78-4.69,8-4.69a14.57,14.57,0,0,1,2.85.28c5.32,1,9.09,4.72,8.41,8.19C62.71,180.63,59.48,182.51,55.22,182.51ZM52,170.13c-3.81,0-6.79,1.67-7.26,4.06-.6,3.05,2.89,6.31,7.79,7.27a13.79,13.79,0,0,0,2.69.27c3.81,0,6.8-1.67,7.27-4.06.6-3-2.9-6.31-7.79-7.27A13.81,13.81,0,0,0,52,170.13Z"></path> <ellipse class="cls-3" cx="54.77" cy="170.01" rx="6.03" ry="9.44" transform="translate(-122.61 191.03) rotate(-78.9)"></ellipse> <path class="cls-6" d="M56.39,176.6h0a15.38,15.38,0,0,1-2.85-.28c-5.32-1-9.09-4.72-8.41-8.2.55-2.81,3.78-4.69,8-4.69a14.57,14.57,0,0,1,2.85.28c5.32,1,9.09,4.72,8.41,8.2C63.87,174.71,60.64,176.6,56.39,176.6Zm-3.23-12.38c-3.81,0-6.79,1.66-7.26,4.05-.6,3,2.9,6.31,7.79,7.27a13.81,13.81,0,0,0,2.7.27c3.8,0,6.79-1.67,7.26-4.06.6-3-2.9-6.31-7.79-7.27A14.61,14.61,0,0,0,53.16,164.22Z"></path> <ellipse class="cls-3" cx="55.93" cy="164.1" rx="6.03" ry="9.44" transform="translate(-115.86 187.39) rotate(-78.9)"></ellipse> <path class="cls-6" d="M57.55,170.68h0a14.57,14.57,0,0,1-2.85-.28,13,13,0,0,1-6.41-3.12,5.58,5.58,0,0,1-2-5.08c.55-2.8,3.78-4.69,8-4.69a14.58,14.58,0,0,1,2.85.29c5.32,1,9.09,4.72,8.41,8.19C65,168.8,61.8,170.68,57.55,170.68ZM54.32,158.3c-3.8,0-6.79,1.67-7.26,4.06a4.83,4.83,0,0,0,1.78,4.35,12.1,12.1,0,0,0,6,2.92,14.63,14.63,0,0,0,2.7.27c3.8,0,6.79-1.67,7.26-4.06.6-3.05-2.9-6.31-7.79-7.27A13.81,13.81,0,0,0,54.32,158.3Z"></path> <polygon class="cls-7" points="87.45 32.44 48.49 53.88 17.82 45.95 56.78 24.51 87.45 32.44"></polygon> <polygon class="cls-8" points="68.13 166.28 37.46 158.35 17.82 45.95 48.49 53.88 68.13 166.28"></polygon> <polygon class="cls-3" points="107.09 144.84 68.13 166.28 48.49 53.88 87.45 32.44 107.09 144.84"></polygon> <path class="cls-9" d="M104.72,137.44c.52,3-1,6.55-3.42,7.93L74.78,160.56c-2.41,1.37-4.78.06-5.29-2.94L52.85,60.69c-.51-3,1-6.55,3.42-7.93L82.8,37.57c2.4-1.38,4.77-.06,5.28,2.94Z"></path> <path class="cls-9" d="M104.72,137.44c.52,3-1,6.55-3.42,7.93L74.78,160.56c-2.41,1.37-4.78.06-5.29-2.94L52.85,60.69c-.51-3,1-6.55,3.42-7.93L82.8,37.57c2.4-1.38,4.77-.06,5.28,2.94Z"></path> <path class="cls-10" d="M106.28,137.29c.51,3-1,6.55-3.43,7.93L76.33,160.41c-2.4,1.37-4.77.06-5.29-2.94L54.41,60.54c-.52-3,1-6.55,3.42-7.93L84.35,37.42c2.41-1.38,4.78-.06,5.29,2.94Z"></path> <path class="cls-4" d="M36.28,151.08c.44,2.39,2.36,4.79,4.3,5.36l21.33,6.35c1.94.58,3.15-.88,2.72-3.27L46.83,60.75c-.44-2.38-2.36-4.78-4.29-5.36L21.2,49c-1.93-.58-3.15.89-2.71,3.27Z"></path> <path class="cls-9" d="M34.67,151.46c.43,2.39,2.36,4.79,4.29,5.36l21.34,6.36c1.93.57,3.15-.89,2.71-3.28L45.21,61.13c-.43-2.38-2.35-4.78-4.29-5.36L19.59,49.42c-1.94-.58-3.15.89-2.72,3.27Z"></path> <circle class="cls-1" cx="55.49" cy="55.49" r="51.11"></circle> <path class="cls-2" d="M56.93,11.54c.65-.11,1.29-.2,1.94-.29A44.38,44.38,0,0,0,11.44,60.7,55.26,55.26,0,0,1,56.93,11.54Z"></path> <circle class="cls-3" cx="26.14" cy="28.32" r="4.96"></circle> <circle class="cls-1" cx="55.49" cy="55.49" r="55.48"></circle> <circle class="cls-3" cx="34.25" cy="20.1" r="2.3"></circle> <path class="cls-5" d="M37.47,115.47a12.11,12.11,0,0,1-3.28-4.42c-.5-1.43-.31-2.76.6-3.47a3.2,3.2,0,0,1,3.69.35,9.68,9.68,0,0,1,3.13,4.51c.78,2,1.29,3.86,1.76,5.17s.79,2.17.59,2.26-1-.28-2.18-1.08A31.9,31.9,0,0,1,37.47,115.47Z"></path> <path class="cls-5" d="M35.66,117.81a12.39,12.39,0,0,1-4-3.76c-.75-1.29-.92-2.61-.18-3.39s2-.89,3.43-.27A11.61,11.61,0,0,1,39.08,114a39.28,39.28,0,0,1,3,4.56c.69,1.2,1.11,2,.86,2.32s-1.11,0-2.46-.52A31.38,31.38,0,0,1,35.66,117.81Z"></path> <path class="cls-5" d="M34.26,120.41a12.55,12.55,0,0,1-4.56-3,4.6,4.6,0,0,1-1-1.75,2,2,0,0,1,.21-1.53c.51-.89,1.8-1.16,3.27-.79A12.15,12.15,0,0,1,37,116a32.07,32.07,0,0,1,3.84,3.91c.9,1.11,1.38,1.85,1.19,2.21-.1.18-.39.23-.83.2a10,10,0,0,1-1.69-.26A31.78,31.78,0,0,1,34.26,120.41Z"></path> <path class="cls-5" d="M33.35,123.22a12.25,12.25,0,0,1-5-2.21c-1.17-1-1.66-2.15-1.3-3.13s1.61-1.44,3.09-1.33a12.52,12.52,0,0,1,5.17,1.89,30.79,30.79,0,0,1,4.41,3.2c1.09,1,1.71,1.63,1.54,2s-1,.4-2.48.33A34.3,34.3,0,0,1,33.35,123.22Z"></path> <path class="cls-5" d="M32.94,126.14a11.63,11.63,0,0,1-5.33-1.2c-1.31-.74-2.11-1.89-1.84-2.92s1.28-1.77,2.82-1.9a12.29,12.29,0,0,1,5.41,1,31.82,31.82,0,0,1,4.89,2.41c1.18.74,2,1.28,1.89,1.63s-.93.51-2.37.7A37.14,37.14,0,0,1,32.94,126.14Z"></path> <path class="cls-5" d="M33.19,129.09a11.6,11.6,0,0,1-5.5-.06,2.94,2.94,0,0,1-2.4-2.56c-.05-1.12,1-2,2.42-2.49a11.78,11.78,0,0,1,5.48,0,37.12,37.12,0,0,1,5.27,1.46c1.37.48,2.11.85,2.16,1.16s-.9.64-2.18,1.09A40.87,40.87,0,0,1,33.19,129.09Z"></path> <path class="cls-5" d="M34,131.91a11.12,11.12,0,0,1-5.35,1.16,4.13,4.13,0,0,1-1.94-.64,2,2,0,0,1-1-1.36,3,3,0,0,1,1.82-3A11.8,11.8,0,0,1,33,126.88a39.57,39.57,0,0,1,5.43.35c1.36.2,2.35.31,2.36.6s-.15.34-.47.58-.81.56-1.42.93A42.74,42.74,0,0,1,34,131.91Z"></path> <path class="cls-5" d="M35.52,134.46a11.94,11.94,0,0,1-5,2.3,2.94,2.94,0,0,1-3.25-1.28,2,2,0,0,1-.21-.8,2.72,2.72,0,0,1,.16-.87,4.32,4.32,0,0,1,1.17-1.68,11.14,11.14,0,0,1,4.95-2.32,43.7,43.7,0,0,1,5.41-.87c.71-.07,1.29-.12,1.69-.12a2.49,2.49,0,0,1,.47.05.38.38,0,0,1,.26.14c.17.26-.53.93-1.51,1.93A35.1,35.1,0,0,1,35.52,134.46Z"></path> <path class="cls-5" d="M37.44,136.7A12.52,12.52,0,0,1,33,139.88a4.74,4.74,0,0,1-2,.29,2,2,0,0,1-1.37-.81c-.64-.89-.53-2.14.41-3.43a11.59,11.59,0,0,1,4.36-3.36,38.54,38.54,0,0,1,5.06-2c1.29-.41,2.26-.68,2.44-.39s0,.42-.17.8a9.85,9.85,0,0,1-.84,1.47A32.38,32.38,0,0,1,37.44,136.7Z"></path> <path class="cls-5" d="M39.82,138.43a11.42,11.42,0,0,1-3.46,4.28,3.23,3.23,0,0,1-2.07.58,2.86,2.86,0,0,1-1.79-.69c-.78-.78-.79-2-.17-3.39A12.16,12.16,0,0,1,36,135.06a33,33,0,0,1,4.56-3c1.28-.7,2.18-1,2.39-.78s0,.24-.23.59a6.69,6.69,0,0,0-.72,1.51A41.3,41.3,0,0,1,39.82,138.43Z"></path> <path class="cls-5" d="M42.53,139.6a14.58,14.58,0,0,1-2.7,4.78c-1,1.06-2.16,1.54-3.08,1.1s-1.44-1.72-1.33-3.4A9.18,9.18,0,0,1,38,137.23c1.4-1.59,2.85-2.92,3.76-4s1.56-1.7,1.82-1.53.47,1.13.27,2.57A21.93,21.93,0,0,1,42.53,139.6Z"></path> <path class="cls-5" d="M45.34,140.53c-1.18,4.05-3.37,7-5.05,6.41a1.67,1.67,0,0,1-.93-1A4.72,4.72,0,0,1,39,144a13.55,13.55,0,0,1,1.45-5.28,26,26,0,0,1,2.84-4.68,7.64,7.64,0,0,1,1.19-1.28,1.11,1.11,0,0,1,1-.29C46.48,132.89,46.53,136.45,45.34,140.53Z"></path> <path class="cls-5" d="M48.2,141.3c-1,4.13-3.06,7.13-4.63,6.7s-1.77-4.15-.34-8.15,3.45-6.93,4.59-6.58S49.18,137.19,48.2,141.3Z"></path> <path class="cls-5" d="M51.08,142c-.85,4.15-2.78,7.26-4.33,6.88s-1.88-4-.7-8.1,3.08-7.08,4.31-6.8S51.94,137.81,51.08,142Z"></path> <path class="cls-5" d="M54,142.52c-.73,4.16-2.56,7.35-4.1,7s-2-4-1-8.07,2.81-7.2,4.08-6.95S54.72,138.34,54,142.52Z"></path> <path class="cls-5" d="M56.91,143c-.61,4.19-2.35,7.4-3.88,7.14s-2.08-3.88-1.22-8,2.58-7.3,3.86-7.07S57.51,138.81,56.91,143Z"></path> <path class="cls-5" d="M59.84,143.39c-.48,4.22-2.12,7.47-3.67,7.25s-2.19-3.82-1.46-8,2.38-7.38,3.66-7.18S60.31,139.19,59.84,143.39Z"></path> <path class="cls-5" d="M62.78,143.68c-.3,4.22-1.87,7.56-3.43,7.37s-2.32-3.76-1.71-7.94,2.15-7.43,3.43-7.3S63.08,139.46,62.78,143.68Z"></path> <path class="cls-5" d="M65.74,143.85a15.39,15.39,0,0,1-1,5.38c-.56,1.36-1.39,2.2-2.17,2.13-1.62-.12-2.5-3.68-2-7.89s1.91-7.49,3.14-7.4c.64.06,1.12.92,1.49,2.33A20.88,20.88,0,0,1,65.74,143.85Z"></path> <path class="cls-5" d="M68.69,143.78a12.79,12.79,0,0,1-.47,5.46c-.56,1.43-1.35,2.28-2.22,2.28-1.75,0-2.8-3.55-2.48-7.78s1.58-7.58,2.69-7.55c.56,0,1.07.87,1.44,2.22A27.78,27.78,0,0,1,68.69,143.78Z"></path> <path class="cls-3" d="M126.62,131.94c-.37.34-1-2.41-1.54-2.37-1.09.07-1.76,2.23-1.71,1.15a27.11,27.11,0,0,0-.91-7,2.18,2.18,0,0,1,1.47-2.49,1.78,1.78,0,0,1,2.37,1.21,30.37,30.37,0,0,1,1,8.05A2.18,2.18,0,0,1,126.62,131.94Z"></path> <path class="cls-6" d="M126.55,132.19c-.31,0-.49-.39-.84-1.22a4.1,4.1,0,0,0-.64-1.18c-.46,0-.9.65-1.16,1s-.31.43-.49.43h-.09l-.09-.08a.57.57,0,0,1-.1-.45,27,27,0,0,0-.9-7,2.41,2.41,0,0,1,1.62-2.76,2.27,2.27,0,0,1,.72-.12,2,2,0,0,1,1.94,1.49,30.43,30.43,0,0,1,1,8.11,2.44,2.44,0,0,1-.76,1.63A.31.31,0,0,1,126.55,132.19Zm-1.49-2.85c.42,0,.67.55,1.06,1.46a7.49,7.49,0,0,0,.43.89,2,2,0,0,0,.53-1.24,30,30,0,0,0-1-8,1.51,1.51,0,0,0-1.5-1.14,1.94,1.94,0,0,0-1.9,2.32,28,28,0,0,1,.92,6.82c.31-.43.81-1.08,1.46-1.12Z"></path> <path class="cls-3" d="M126.41,125.12s5,6.83,4.4,7.62-2.1-1.24-2.56-1,1.22,4.68.2,4.6-1.9-3.23-2.36-3.42.29,5-.87,4.19-1.09-4.85-1.37-5.09-1.38,4.19-2.06,3.47c-1.13-1.2-.05-4.52.28-5.81s-2.37,1.28-2.84.31,4-4.25,4-4.25Z"></path> <ellipse class="cls-11" cx="128.35" cy="135.78" rx="0.26" ry="0.4" transform="translate(-36.55 47.94) rotate(-18.57)"></ellipse> <ellipse class="cls-11" cx="125.36" cy="136.64" rx="0.26" ry="0.4" transform="translate(-36.98 47.03) rotate(-18.57)"></ellipse> <ellipse class="cls-11" cx="122.13" cy="134.94" rx="0.4" ry="0.26" transform="translate(-38.06 221.33) rotate(-76.19)"></ellipse> <ellipse class="cls-11" cx="119.6" cy="129.58" rx="0.4" ry="0.26" transform="translate(-34.79 214.79) rotate(-76.19)"></ellipse> <ellipse class="cls-11" cx="130.52" cy="132.41" rx="0.24" ry="0.37" transform="translate(-47.28 78.03) rotate(-28.41)"></ellipse> <circle class="cls-1" cx="55.49" cy="55.49" r="51.11"></circle> <path class="cls-12" d="M75.07,148.28c-1.33.26-2.12-1.56-2.59-2.14-1.21-1.51-.76-2.06-2.48-6.41a15.8,15.8,0,0,1-1.21-3.9c-.16-1.1,0-1-.16-2-.41-2.46-1.67-4-1.2-4.47.2-.21.46,0,.8-.33s.34-.81.46-1.16c.32-1,1.82-1.17,2.31-1.26a39.46,39.46,0,0,0,9.56-3.38,1.55,1.55,0,0,1,1.13-.29c.36.08.54.3,1.18.79s.81.58,1,.7c1.31,1,1.73,4,3.5,7a15.09,15.09,0,0,1,1.75,3.06c.21.57.12.51.67,2.71a11.8,11.8,0,0,1,.62,3,3.54,3.54,0,0,1-.64,2.37,3,3,0,0,1-1.55.77c-3.53,1.57-6.92,3.75-13.13,4.94"></path> <path class="cls-13" d="M78.65,130.45a7.55,7.55,0,0,0-1.18,5.5A8,8,0,0,0,83.19,142a7,7,0,0,0,6.12-1.39,7.16,7.16,0,0,0,2.45-5.76,8.25,8.25,0,0,0-2.53-5.24c-3-2.7-8.22-2.37-10.58.8"></path> <path class="cls-14" d="M80.23,133.22v0a7.42,7.42,0,0,0,.3,4.43,6.22,6.22,0,0,0,3.7,3.57A5.2,5.2,0,0,0,89.09,140a6.5,6.5,0,0,0,1.78-5.4,6.33,6.33,0,0,0-2-3.95,5.49,5.49,0,0,0-4.1-1.3,5,5,0,0,0-3.69,2,4.94,4.94,0,0,0-.8,1.81"></path> <path class="cls-15" d="M84.66,139.72A5.12,5.12,0,0,1,83.07,138a5.57,5.57,0,0,1-.41-4c.7-2,2.79-2.75,2.66-3s-1.17.06-2,.75a4.77,4.77,0,0,0-1.59,4.74,5.81,5.81,0,0,0,3,3.26"></path> <path class="cls-12" d="M84.89,139.89a4.22,4.22,0,0,0,3.59,0,4.66,4.66,0,0,0,2.62-4.19A5.4,5.4,0,0,0,90,132.5a4.67,4.67,0,0,0-2.4-1.83,4.29,4.29,0,0,0-4.85,2.39,5.54,5.54,0,0,0,2.14,6.83"></path> <path class="cls-16" d="M84.68,135.78a2.42,2.42,0,0,0,.67,1.47,2.34,2.34,0,0,0,3.05.07,2.25,2.25,0,0,0,.8-1.85,2.45,2.45,0,0,0-.7-1.52,2.35,2.35,0,0,0-1.43-.6,2.43,2.43,0,0,0-2.39,2.43"></path> <path class="cls-17" d="M85.66,135.33a1.4,1.4,0,0,0,.21,1.1,1.45,1.45,0,0,0,2.15-.17,1.42,1.42,0,0,0,.16-1.25,1.4,1.4,0,0,0-.93-.89,1.42,1.42,0,0,0-1.59,1.21"></path> <path class="cls-18" d="M85.87,135.57a1.07,1.07,0,0,0,.53.69.86.86,0,0,0,.53.09.79.79,0,0,0,.64-.7,1,1,0,0,0-.35-.8.81.81,0,0,0-.53-.31.9.9,0,0,0-.82,1"></path> <path class="cls-19" d="M86.62,136.13l-.12.05h0l-.32-.78s0,0,0,0l.13-.06h0l.32.78s0,0,0,0"></path> <path class="cls-20" d="M72.57,136.29a1.25,1.25,0,0,0,.67.79,1.12,1.12,0,0,0,1.5-.64,1.27,1.27,0,0,0-.42-1.34,1.13,1.13,0,0,0-.88-.19,1.2,1.2,0,0,0-.87,1.38"></path> <path class="cls-17" d="M72.87,136.3a.84.84,0,0,0,.61.43.87.87,0,0,0,.87-.24.86.86,0,0,0,0-1.06.8.8,0,0,0-.83-.18c-.45.14-.83.66-.68,1.05"></path> <rect class="cls-17" x="70.58" y="130.39" width="1.97" height="2.9" transform="translate(-44.91 37.31) rotate(-22.44)"></rect> <rect class="cls-20" x="70.7" y="130.98" width="0.93" height="1.47" transform="translate(-44.9 37.15) rotate(-22.44)"></rect> <path class="cls-20" d="M72.86,127.77c-.12.68.21,1.07,1.13,2.91.55,1.08.68,1.44,1.09,1.59a1,1,0,0,0,1.07-.24c.16-.19.3-.56-.43-2.9-.62-2-.88-2.24-1.17-2.36a1.28,1.28,0,0,0-1.28.2,1.43,1.43,0,0,0-.41.8"></path> <path class="cls-17" d="M79.23,129.21l-.7.29a.1.1,0,0,1-.13-.06l-1-2.52a.11.11,0,0,1,0-.14l.7-.29a.12.12,0,0,1,.14.06l1,2.52a.11.11,0,0,1-.06.14"></path> <path class="cls-20" d="M78.33,127.46l-.31.13a0,0,0,0,1-.06,0l-.14-.33a0,0,0,0,1,0-.06l.3-.13a.07.07,0,0,1,.06,0l.14.34a0,0,0,0,1,0,0"></path> <path class="cls-20" d="M78.74,128.47l-.3.12a0,0,0,0,1-.06,0l-.14-.34a0,0,0,0,1,0,0l.31-.13s.05,0,.05,0l.14.34a0,0,0,0,1,0,.06"></path> <path class="cls-17" d="M73.43,128.43c-.07.49.17.79.84,2.16.4.81.5,1.07.78,1.19a.64.64,0,0,0,.72-.14c.11-.14.19-.41-.36-2.14-.47-1.46-.66-1.67-.86-1.77a.8.8,0,0,0-.86.12.9.9,0,0,0-.26.58"></path> <path class="cls-3" d="M76.33,141.43c.11-.49-2.58.39-2.82-.07-.51-1,1-2.66.08-2.06a26.58,26.58,0,0,1-6.46,2.9,2.19,2.19,0,0,0-1.35,2.57,1.78,1.78,0,0,0,2.27,1.38,30.44,30.44,0,0,0,7.39-3.36A2.17,2.17,0,0,0,76.33,141.43Z"></path> <path class="cls-6" d="M67.51,146.46h0a2,2,0,0,1-2-1.64,2.42,2.42,0,0,1,1.5-2.83,26.73,26.73,0,0,0,6.41-2.88.67.67,0,0,1,.37-.16H74l.11.11c.09.15,0,.32-.12.65s-.47,1.11-.25,1.54a1.05,1.05,0,0,0,.27,0,10,10,0,0,0,1.07-.11,6.8,6.8,0,0,1,1-.11.58.58,0,0,1,.47.16.32.32,0,0,1,.06.27,2.36,2.36,0,0,1-1,1.49,29.92,29.92,0,0,1-7.44,3.39A1.86,1.86,0,0,1,67.51,146.46Zm6-6.83a28.48,28.48,0,0,1-6.3,2.79,2,2,0,0,0-1.2,2.29,1.58,1.58,0,0,0,1.51,1.3,1.5,1.5,0,0,0,.47-.08,30,30,0,0,0,7.33-3.33,1.91,1.91,0,0,0,.77-1.1,8.41,8.41,0,0,0-1,.1,8.39,8.39,0,0,1-1.13.12c-.23,0-.54,0-.66-.25A2.27,2.27,0,0,1,73.5,139.63Z"></path> <path class="cls-3" d="M70.42,144.82s8.44.68,8.79-.24-2.15-1.14-2.19-1.65,4.62-1.42,4-2.24-3.75.07-4.15-.22,4.42-2.38,3.11-2.93-4.71,1.61-5,1.49,2.85-3.37,1.88-3.57c-1.63-.33-3.88,2.33-4.81,3.28s-.15-2.69-1.23-2.58-1.51,5.66-1.51,5.66Z"></path> <ellipse class="cls-11" cx="80.52" cy="140.9" rx="0.4" ry="0.26" transform="translate(-29.67 21.76) rotate(-13.02)"></ellipse> <ellipse class="cls-11" cx="79.68" cy="137.9" rx="0.4" ry="0.26" transform="translate(-29.02 21.5) rotate(-13.02)"></ellipse> <ellipse class="cls-11" cx="76.54" cy="136.03" rx="0.4" ry="0.26" transform="translate(-74.06 95) rotate(-45.4)"></ellipse> <ellipse class="cls-11" cx="70.65" cy="136.68" rx="0.4" ry="0.26" transform="translate(-76.28 91.01) rotate(-45.4)"></ellipse> <ellipse class="cls-11" cx="78.78" cy="144.51" rx="0.37" ry="0.24" transform="translate(-7.9 4.59) rotate(-3.18)"></ellipse> <path class="cls-10" d="M97.28,84.89,89.64,40.36c-.51-3-2.88-4.32-5.29-2.94L57.83,52.61c-2.4,1.38-3.94,4.93-3.42,7.93l7.82,45.59c.69-.09,1.37-.18,2.05-.3A51,51,0,0,0,97.28,84.89Z"></path> <path class="cls-11" d="M74.83,75.83a5.11,5.11,0,0,0,5.33,3.31A4.38,4.38,0,0,0,84.4,75a4.22,4.22,0,0,1,.26.94,4.38,4.38,0,0,1-4.25,4.85,5.1,5.1,0,0,1-5.56-4A4,4,0,0,1,74.83,75.83Z"></path> <circle class="cls-3" cx="71.03" cy="68.6" r="4.13"></circle> <circle class="cls-21" cx="72.14" cy="68.49" r="1.6"></circle> <circle class="cls-3" cx="83.43" cy="63.25" r="4.12"></circle> <circle class="cls-21" cx="84.55" cy="63.14" r="1.6"></circle> <path class="cls-9" d="M82.8,37.57,56.27,52.76c-2.4,1.38-3.93,4.93-3.42,7.93l7.83,45.62c.52,0,1-.11,1.55-.18L54.41,60.54c-.52-3,1-6.55,3.42-7.93L84.35,37.42a4.23,4.23,0,0,1,.8-.35A3.58,3.58,0,0,0,82.8,37.57Z"></path> </g> </g> </svg> 