<?xml version="1.0" encoding="UTF-8"?> <svg xmlns="http://www.w3.org/2000/svg" width="252" height="240" viewBox="0 0 252 240" fill="none"> <path d="M112.837 13.4929C120.053 6.09558 131.947 6.09558 139.163 13.4929V13.4929C144.383 18.8438 152.323 20.5022 159.249 17.6883L160.183 17.3088C169.493 13.5259 180.08 18.2528 183.479 27.71V27.71C185.97 34.6395 192.494 39.3003 199.856 39.4099L201.321 39.4317C211.195 39.5787 218.848 48.11 217.926 57.9418V57.9418C217.246 65.1919 221.278 72.0647 227.938 75.0086L228.812 75.3947C237.885 79.4051 241.448 90.4199 236.442 98.9845V98.9845C232.765 105.275 233.629 113.244 238.551 118.616V118.616C245.321 126.006 244.126 137.679 235.974 143.508L235.634 143.751C229.718 147.98 227.22 155.552 229.456 162.472V162.472C232.49 171.862 226.763 181.822 217.121 183.924L215.827 184.207C208.68 185.765 203.29 191.654 202.368 198.91V198.91C201.116 208.77 191.824 215.542 182.055 213.716L180.726 213.468C173.432 212.104 166.045 215.337 162.097 221.62V221.62C156.676 230.248 145.2 232.694 136.733 227.025L136.323 226.751C130.076 222.569 121.924 222.569 115.677 226.751L115.267 227.025C106.8 232.694 95.3236 230.248 89.9029 221.62V221.62C85.955 215.337 78.5681 212.104 71.2737 213.468L69.9449 213.716C60.1755 215.542 50.8836 208.77 49.6316 198.91V198.91C48.7103 191.654 43.3196 185.765 36.1733 184.207L34.8787 183.924C25.2366 181.822 19.5103 171.862 22.5445 162.472V162.472C24.7804 155.552 22.2815 147.98 16.3656 143.751L16.0264 143.508C7.8736 137.679 6.67903 126.006 13.449 118.616V118.616C18.371 113.244 19.2353 105.275 15.5583 98.9845V98.9845C10.552 90.4199 14.1147 79.4051 23.1884 75.3947L24.062 75.0086C30.7223 72.0647 34.7543 65.1919 34.0743 57.9418V57.9418C33.1522 48.11 40.8054 39.5787 50.6792 39.4317L52.1436 39.4099C59.5063 39.3003 66.0303 34.6395 68.5208 27.71V27.71C71.9197 18.2528 82.507 13.5259 91.8173 17.3088L92.7513 17.6883C99.6769 20.5022 107.617 18.8438 112.837 13.4929V13.4929Z" fill="white"></path> <g filter="url(#filter0_d_1727_1908)"> <path d="M113.779 21.4793C120.487 14.6298 131.513 14.6298 138.221 21.4793V21.4793C143.073 26.4328 150.434 27.9682 156.861 25.3669L157.795 24.9889C166.418 21.4988 176.214 25.8731 179.371 34.6233V34.6233C181.685 41.0396 187.731 45.3526 194.551 45.4537L196.015 45.4754C205.143 45.6108 212.216 53.4984 211.36 62.5863V62.5863C210.729 69.2962 214.465 75.6566 220.633 78.3724L221.507 78.7574C229.903 82.454 233.198 92.6449 228.555 100.557V100.557C225.142 106.374 225.945 113.754 230.51 118.718V118.718C236.788 125.545 235.684 136.356 228.13 141.737L227.79 141.979C222.308 145.883 219.992 152.892 222.068 159.294V159.294C224.883 167.97 219.59 177.18 210.676 179.116L209.381 179.398C202.763 180.835 197.768 186.285 196.912 193.002V193.002C195.75 202.12 187.159 208.383 178.122 206.701L176.794 206.453C170.032 205.194 163.185 208.186 159.515 214.004V214.004C154.478 221.99 143.849 224.256 135.994 219.017L135.584 218.743C129.781 214.873 122.219 214.873 116.416 218.743L116.006 219.017C108.151 224.256 97.5216 221.99 92.4845 214.004V214.004C88.815 208.186 81.9685 205.194 75.2062 206.453L73.8776 206.701C64.8414 208.383 56.25 202.12 55.0878 193.002V193.002C54.2315 186.285 49.2369 180.835 42.6195 179.398L41.3244 179.116C32.4104 177.18 27.1173 167.97 29.9317 159.294V159.294C32.0082 152.892 29.6922 145.883 24.2104 141.979L23.8704 141.737C16.3156 136.356 15.2118 125.545 21.4902 118.718V118.718C26.0555 113.754 26.8579 106.374 23.4447 100.557V100.557C18.8021 92.6449 22.0969 82.454 30.4926 78.7574L31.3672 78.3724C37.5353 75.6566 41.2713 69.2962 40.6395 62.5863V62.5863C39.7838 53.4984 46.8575 45.6108 55.9845 45.4754L57.4488 45.4537C64.2692 45.3526 70.3146 41.0396 72.6295 34.6233V34.6233C75.7865 25.8731 85.5825 21.4988 94.2052 24.9889L95.1393 25.3669C101.566 27.9682 108.927 26.4328 113.779 21.4793V21.4793Z" fill="url(#paint0_linear_1727_1908)" shape-rendering="crispEdges"></path> </g> <path d="M73.8611 102.002L73.8611 96.732L63.9411 96.732L63.9411 95.492L74.6671 81.542L77.8911 81.542L77.8911 95.337L80.6811 95.337L80.6811 96.732L77.8911 96.732L77.8911 102.002L73.8611 102.002ZM66.0801 95.337L73.8611 95.337L73.8611 85.169L66.0801 95.337ZM89.6173 102.622C88.0053 102.622 86.6517 102.343 85.5563 101.785C84.4817 101.227 83.4793 100.39 82.5493 99.274L83.4483 98.468C84.1923 99.398 85.05 100.09 86.0213 100.545C86.9927 101 87.9537 101.227 88.9043 101.227C90.1857 101.227 91.219 100.814 92.0043 99.987C92.7897 99.1396 93.1823 97.848 93.1823 96.112C93.1823 94.5206 92.7587 93.3323 91.9113 92.547C91.064 91.741 89.855 91.338 88.2843 91.338C87.4163 91.338 86.5587 91.462 85.7113 91.71C85.422 91.772 84.988 91.8856 84.4093 92.051L83.1693 90.842L83.5103 81.542L95.5693 81.542L95.5693 82.906L87.1063 82.906L86.8273 90.067L87.7573 90.005C88.8113 89.943 89.4003 89.912 89.5243 89.912C90.785 89.912 92.0147 90.1083 93.2133 90.501C94.4327 90.873 95.4557 91.524 96.2823 92.454C97.109 93.384 97.5223 94.6033 97.5223 96.112C97.5223 97.724 97.0987 99.0156 96.2513 99.987C95.404 100.958 94.3707 101.64 93.1513 102.033C91.9527 102.426 90.7747 102.622 89.6173 102.622ZM115.468 102.622C110.095 102.622 107.408 99.0053 107.408 91.772C107.408 84.5386 110.095 80.922 115.468 80.922C120.842 80.922 123.528 84.5386 123.528 91.772C123.528 99.0053 120.842 102.622 115.468 102.622ZM115.468 101.227C116.77 101.227 117.711 100.473 118.289 98.964C118.889 97.4553 119.188 95.058 119.188 91.772C119.188 88.486 118.889 86.0886 118.289 84.58C117.711 83.0713 116.77 82.317 115.468 82.317C114.166 82.317 113.216 83.0713 112.616 84.58C112.038 86.0886 111.748 88.486 111.748 91.772C111.748 95.058 112.038 97.4553 112.616 98.964C113.216 100.473 114.166 101.227 115.468 101.227ZM134.268 102.622C128.895 102.622 126.208 99.0053 126.208 91.772C126.208 84.5386 128.895 80.922 134.268 80.922C139.641 80.922 142.328 84.5386 142.328 91.772C142.328 99.0053 139.641 102.622 134.268 102.622ZM134.268 101.227C135.57 101.227 136.51 100.473 137.089 98.964C137.688 97.4553 137.988 95.058 137.988 91.772C137.988 88.486 137.688 86.0886 137.089 84.58C136.51 83.0713 135.57 82.317 134.268 82.317C132.966 82.317 132.015 83.0713 131.416 84.58C130.837 86.0886 130.548 88.486 130.548 91.772C130.548 95.058 130.837 97.4553 131.416 98.964C132.015 100.473 132.966 101.227 134.268 101.227ZM153.068 102.622C147.694 102.622 145.008 99.0053 145.008 91.772C145.008 84.5386 147.694 80.922 153.068 80.922C158.441 80.922 161.128 84.5386 161.128 91.772C161.128 99.0053 158.441 102.622 153.068 102.622ZM153.068 101.227C154.37 101.227 155.31 100.473 155.889 98.964C156.488 97.4553 156.788 95.058 156.788 91.772C156.788 88.486 156.488 86.0886 155.889 84.58C155.31 83.0713 154.37 82.317 153.068 82.317C151.766 82.317 150.815 83.0713 150.216 84.58C149.637 86.0886 149.348 88.486 149.348 91.772C149.348 95.058 149.637 97.4553 150.216 98.964C150.815 100.473 151.766 101.227 153.068 101.227Z" fill="#F07B95"></path> <path d="M173.21 84.992L173.21 85.772L174.731 85.772L174.731 86.292L173.21 86.292L173.21 88.502L172.04 88.502L172.04 86.292L171.091 86.292L171.091 85.772L172.04 85.772L172.04 84.992L171.091 84.992L171.091 84.472L172.04 84.472L172.04 81.482C172.04 81.04 171.979 80.715 171.858 80.507C171.737 80.2903 171.494 80.182 171.13 80.182L170.87 80.182L170.87 79.922L174.25 79.922C175.082 79.922 175.832 80.0996 176.499 80.455C177.166 80.8103 177.5 81.4993 177.5 82.522C177.5 83.198 177.327 83.718 176.98 84.082C176.633 84.446 176.243 84.6886 175.81 84.81C175.385 84.9313 174.995 84.992 174.64 84.992L173.21 84.992ZM173.21 84.407C173.557 84.4936 173.882 84.537 174.185 84.537C174.462 84.537 174.757 84.4676 175.069 84.329C175.381 84.1816 175.645 83.952 175.862 83.64C176.087 83.328 176.2 82.9336 176.2 82.457C176.2 81.9803 176.087 81.586 175.862 81.274C175.645 80.962 175.381 80.7366 175.069 80.598C174.757 80.4506 174.462 80.377 174.185 80.377C173.882 80.377 173.557 80.4203 173.21 80.507L173.21 84.407ZM170.961 101.502L175.134 92.922L176.083 92.922L171.91 101.502L170.961 101.502ZM177.454 96.952C177.454 96.51 177.393 96.185 177.272 95.977C177.15 95.7603 176.908 95.652 176.544 95.652L176.414 95.652L176.414 95.392L180.704 95.392C181.354 95.392 181.679 95.7386 181.679 96.432L181.679 97.212L181.419 97.212C181.419 96.8046 181.293 96.4883 181.042 96.263C180.79 96.029 180.461 95.912 180.054 95.912L178.624 95.912L178.624 101.502L177.454 101.502L177.454 96.952ZM185 101.632C184.41 101.632 183.899 101.493 183.466 101.216C183.032 100.93 182.703 100.544 182.478 100.059C182.252 99.5736 182.14 99.0363 182.14 98.447C182.14 97.8576 182.252 97.3203 182.478 96.835C182.703 96.3496 183.032 95.9683 183.466 95.691C183.899 95.405 184.41 95.262 185 95.262C185.589 95.262 186.1 95.405 186.534 95.691C186.967 95.9683 187.296 96.3496 187.522 96.835C187.747 97.3203 187.86 97.8576 187.86 98.447C187.86 99.0363 187.747 99.5736 187.522 100.059C187.296 100.544 186.967 100.93 186.534 101.216C186.1 101.493 185.589 101.632 185 101.632ZM185 101.112C185.32 101.112 185.602 100.995 185.845 100.761C186.096 100.527 186.287 100.206 186.417 99.799C186.555 99.3916 186.625 98.941 186.625 98.447C186.625 97.953 186.555 97.5023 186.417 97.095C186.287 96.6876 186.096 96.367 185.845 96.133C185.602 95.899 185.32 95.782 185 95.782C184.679 95.782 184.393 95.899 184.142 96.133C183.899 96.367 183.708 96.6876 183.57 97.095C183.44 97.5023 183.375 97.953 183.375 98.447C183.375 98.941 183.44 99.3916 183.57 99.799C183.708 100.206 183.899 100.527 184.142 100.761C184.393 100.995 184.679 101.112 185 101.112ZM188.402 101.437C188.402 101.307 188.446 101.199 188.532 101.112C188.619 101.025 188.727 100.982 188.857 100.982L189.247 100.982C189.516 100.384 189.711 99.7296 189.832 99.019C189.962 98.2996 190.027 97.6106 190.027 96.952C190.027 96.51 189.967 96.185 189.845 95.977C189.724 95.7603 189.481 95.652 189.117 95.652L189.117 95.392L194.317 95.392L194.317 100.982L194.837 100.982C194.967 100.982 195.076 101.025 195.162 101.112C195.249 101.199 195.292 101.307 195.292 101.437L195.292 103.517L194.772 103.517C194.703 102.789 194.564 102.269 194.356 101.957C194.148 101.654 193.832 101.502 193.407 101.502L190.287 101.502C189.863 101.502 189.546 101.654 189.338 101.957C189.13 102.269 188.992 102.789 188.922 103.517L188.402 103.517L188.402 101.437ZM193.147 100.982L193.147 95.912L190.872 95.912C190.872 97.0473 190.816 98.018 190.703 98.824C190.591 99.6213 190.409 100.341 190.157 100.982L193.147 100.982Z" fill="#F07B95"></path> <path d="M78.4505 127.438C79.0105 127.438 79.4505 127.346 79.7705 127.162C80.0905 126.97 80.2505 126.686 80.2505 126.31C80.2505 126.038 80.1905 125.822 80.0705 125.662C79.9505 125.502 79.7985 125.378 79.6145 125.29C79.4385 125.202 79.2465 125.146 79.0385 125.122C78.8385 125.09 78.6545 125.074 78.4865 125.074L77.6225 125.074L77.6225 124.414L78.4265 124.414C78.5705 124.414 78.7345 124.402 78.9185 124.378C79.1105 124.354 79.2865 124.306 79.4465 124.234C79.6065 124.162 79.7425 124.062 79.8545 123.934C79.9665 123.798 80.0225 123.622 80.0225 123.406C80.0225 123.198 79.9745 123.026 79.8785 122.89C79.7905 122.754 79.6705 122.646 79.5185 122.566C79.3665 122.486 79.1905 122.43 78.9905 122.398C78.7985 122.366 78.6025 122.35 78.4025 122.35C77.9465 122.35 77.5865 122.398 77.3225 122.494C77.0585 122.582 76.8785 122.65 76.7825 122.698L76.6025 122.002C76.7145 121.946 76.9265 121.878 77.2385 121.798C77.5505 121.71 77.9385 121.666 78.4025 121.666C79.1945 121.666 79.7945 121.81 80.2025 122.098C80.6105 122.386 80.8145 122.814 80.8145 123.382C80.8145 123.734 80.7105 124.022 80.5025 124.246C80.2945 124.462 80.0505 124.614 79.7705 124.702C80.1625 124.814 80.4745 125.002 80.7065 125.266C80.9385 125.53 81.0545 125.878 81.0545 126.31C81.0545 126.926 80.8345 127.386 80.3945 127.69C79.9545 127.994 79.3105 128.146 78.4625 128.146C77.8945 128.146 77.4385 128.098 77.0945 128.002C76.7505 127.906 76.5305 127.834 76.4345 127.786L76.6385 127.078C76.6625 127.094 76.7145 127.122 76.7945 127.162C76.8825 127.194 77.0025 127.234 77.1545 127.282C77.3065 127.322 77.4905 127.358 77.7065 127.39C77.9225 127.422 78.1705 127.438 78.4505 127.438ZM84.6853 127.438C84.9893 127.438 85.2533 127.43 85.4773 127.414C85.7093 127.39 85.9053 127.362 86.0653 127.33L86.0653 125.146C85.9773 125.106 85.8373 125.066 85.6453 125.026C85.4533 124.978 85.1893 124.954 84.8533 124.954C84.6613 124.954 84.4613 124.97 84.2533 125.002C84.0453 125.026 83.8533 125.086 83.6773 125.182C83.5013 125.27 83.3573 125.394 83.2453 125.554C83.1333 125.714 83.0773 125.926 83.0773 126.19C83.0773 126.422 83.1133 126.618 83.1853 126.778C83.2653 126.938 83.3733 127.066 83.5093 127.162C83.6533 127.258 83.8213 127.33 84.0133 127.378C84.2133 127.418 84.4373 127.438 84.6853 127.438ZM84.6133 121.654C85.0213 121.654 85.3653 121.714 85.6453 121.834C85.9333 121.946 86.1653 122.106 86.3413 122.314C86.5173 122.514 86.6453 122.754 86.7253 123.034C86.8053 123.314 86.8453 123.618 86.8453 123.946L86.8453 127.858C86.7653 127.882 86.6493 127.91 86.4973 127.942C86.3453 127.966 86.1693 127.994 85.9693 128.026C85.7693 128.058 85.5453 128.082 85.2973 128.098C85.0573 128.122 84.8093 128.134 84.5533 128.134C84.2253 128.134 83.9213 128.098 83.6413 128.026C83.3693 127.954 83.1293 127.842 82.9213 127.69C82.7213 127.53 82.5613 127.33 82.4413 127.09C82.3293 126.842 82.2733 126.542 82.2733 126.19C82.2733 125.854 82.3373 125.566 82.4653 125.326C82.5933 125.086 82.7733 124.89 83.0053 124.738C83.2373 124.578 83.5133 124.462 83.8333 124.39C84.1533 124.318 84.5013 124.282 84.8773 124.282C84.9893 124.282 85.1053 124.29 85.2253 124.306C85.3533 124.314 85.4733 124.33 85.5853 124.354C85.7053 124.37 85.8053 124.39 85.8853 124.414C85.9733 124.43 86.0333 124.446 86.0653 124.462L86.0653 124.078C86.0653 123.862 86.0493 123.654 86.0173 123.454C85.9853 123.246 85.9133 123.062 85.8013 122.902C85.6973 122.734 85.5453 122.602 85.3453 122.506C85.1533 122.402 84.8973 122.35 84.5773 122.35C84.1213 122.35 83.7813 122.382 83.5573 122.446C83.3333 122.51 83.1693 122.562 83.0653 122.602L82.9573 121.918C83.0933 121.854 83.3013 121.794 83.5813 121.738C83.8693 121.682 84.2133 121.654 84.6133 121.654ZM96.4972 128.002L95.7172 128.002L95.7172 125.11L92.3452 125.11L92.3452 128.002L91.5652 128.002L91.5652 121.798L92.3452 121.798L92.3452 124.45L95.7172 124.45L95.7172 121.798L96.4972 121.798L96.4972 128.002ZM98.1893 124.894C98.1893 124.35 98.2653 123.878 98.4173 123.478C98.5773 123.07 98.7813 122.73 99.0293 122.458C99.2853 122.186 99.5733 121.986 99.8933 121.858C100.221 121.722 100.557 121.654 100.901 121.654C101.661 121.654 102.265 121.902 102.713 122.398C103.169 122.894 103.397 123.658 103.397 124.69C103.397 124.754 103.393 124.818 103.385 124.882C103.385 124.946 103.381 125.006 103.373 125.062L99.0173 125.062C99.0413 125.822 99.2293 126.406 99.5813 126.814C99.9333 127.222 100.493 127.426 101.261 127.426C101.685 127.426 102.021 127.386 102.269 127.306C102.517 127.226 102.697 127.158 102.809 127.102L102.953 127.774C102.841 127.838 102.629 127.914 102.317 128.002C102.013 128.09 101.653 128.134 101.237 128.134C100.693 128.134 100.229 128.054 99.8453 127.894C99.4613 127.734 99.1453 127.51 98.8973 127.222C98.6493 126.934 98.4693 126.594 98.3573 126.202C98.2453 125.802 98.1893 125.366 98.1893 124.894ZM102.593 124.402C102.577 123.754 102.425 123.25 102.137 122.89C101.849 122.53 101.441 122.35 100.913 122.35C100.633 122.35 100.381 122.406 100.157 122.518C99.9413 122.63 99.7493 122.782 99.5813 122.974C99.4213 123.158 99.2933 123.374 99.1973 123.622C99.1093 123.87 99.0573 124.13 99.0413 124.402L102.593 124.402ZM110.428 124.906C110.428 125.394 110.356 125.838 110.212 126.238C110.076 126.638 109.88 126.978 109.624 127.258C109.376 127.538 109.08 127.758 108.736 127.918C108.392 128.07 108.012 128.146 107.596 128.146C107.18 128.146 106.8 128.07 106.456 127.918C106.112 127.758 105.812 127.538 105.556 127.258C105.308 126.978 105.112 126.638 104.968 126.238C104.832 125.838 104.764 125.394 104.764 124.906C104.764 124.418 104.832 123.974 104.968 123.574C105.112 123.174 105.308 122.834 105.556 122.554C105.812 122.266 106.112 122.046 106.456 121.894C106.8 121.734 107.18 121.654 107.596 121.654C108.012 121.654 108.392 121.734 108.736 121.894C109.08 122.046 109.376 122.266 109.624 122.554C109.88 122.834 110.076 123.174 110.212 123.574C110.356 123.974 110.428 124.418 110.428 124.906ZM109.6 124.906C109.6 124.13 109.42 123.514 109.06 123.058C108.7 122.594 108.212 122.362 107.596 122.362C106.98 122.362 106.492 122.594 106.132 123.058C105.772 123.514 105.592 124.13 105.592 124.906C105.592 125.682 105.772 126.298 106.132 126.754C106.492 127.21 106.98 127.438 107.596 127.438C108.212 127.438 108.7 127.21 109.06 126.754C109.42 126.298 109.6 125.682 109.6 124.906ZM115.672 122.458L112.9 122.458L112.9 128.002L112.12 128.002L112.12 121.798L115.672 121.798L115.672 122.458ZM117.669 126.886C117.741 126.942 117.829 127.002 117.933 127.066C118.045 127.13 118.173 127.19 118.317 127.246C118.461 127.302 118.617 127.35 118.785 127.39C118.953 127.422 119.129 127.438 119.313 127.438C119.697 127.438 120.017 127.374 120.273 127.246C120.537 127.11 120.749 126.93 120.909 126.706C121.069 126.474 121.185 126.206 121.257 125.902C121.329 125.59 121.365 125.262 121.365 124.918C121.365 124.102 121.161 123.478 120.753 123.046C120.345 122.606 119.805 122.386 119.133 122.386C118.749 122.386 118.437 122.406 118.197 122.446C117.965 122.478 117.789 122.514 117.669 122.554L117.669 126.886ZM117.669 130.222L116.889 130.222L116.889 122.014C117.121 121.934 117.417 121.858 117.777 121.786C118.137 121.714 118.593 121.678 119.145 121.678C119.601 121.678 120.013 121.754 120.381 121.906C120.757 122.05 121.077 122.262 121.341 122.542C121.613 122.822 121.821 123.162 121.965 123.562C122.117 123.962 122.193 124.414 122.193 124.918C122.193 125.39 122.129 125.826 122.001 126.226C121.881 126.618 121.701 126.958 121.461 127.246C121.221 127.526 120.925 127.746 120.573 127.906C120.229 128.066 119.833 128.146 119.385 128.146C118.977 128.146 118.621 128.09 118.317 127.978C118.021 127.858 117.805 127.746 117.669 127.642L117.669 130.222ZM125.842 127.438C126.146 127.438 126.41 127.43 126.634 127.414C126.866 127.39 127.062 127.362 127.222 127.33L127.222 125.146C127.134 125.106 126.994 125.066 126.802 125.026C126.61 124.978 126.346 124.954 126.01 124.954C125.818 124.954 125.618 124.97 125.41 125.002C125.202 125.026 125.01 125.086 124.834 125.182C124.658 125.27 124.514 125.394 124.402 125.554C124.29 125.714 124.234 125.926 124.234 126.19C124.234 126.422 124.27 126.618 124.342 126.778C124.422 126.938 124.53 127.066 124.666 127.162C124.81 127.258 124.978 127.33 125.17 127.378C125.37 127.418 125.594 127.438 125.842 127.438ZM125.77 121.654C126.178 121.654 126.522 121.714 126.802 121.834C127.09 121.946 127.322 122.106 127.498 122.314C127.674 122.514 127.802 122.754 127.882 123.034C127.962 123.314 128.002 123.618 128.002 123.946L128.002 127.858C127.922 127.882 127.806 127.91 127.654 127.942C127.502 127.966 127.326 127.994 127.126 128.026C126.926 128.058 126.702 128.082 126.454 128.098C126.214 128.122 125.966 128.134 125.71 128.134C125.382 128.134 125.078 128.098 124.798 128.026C124.526 127.954 124.286 127.842 124.078 127.69C123.878 127.53 123.718 127.33 123.598 127.09C123.486 126.842 123.43 126.542 123.43 126.19C123.43 125.854 123.494 125.566 123.622 125.326C123.75 125.086 123.93 124.89 124.162 124.738C124.394 124.578 124.67 124.462 124.99 124.39C125.31 124.318 125.658 124.282 126.034 124.282C126.146 124.282 126.262 124.29 126.382 124.306C126.51 124.314 126.63 124.33 126.742 124.354C126.862 124.37 126.962 124.39 127.042 124.414C127.13 124.43 127.19 124.446 127.222 124.462L127.222 124.078C127.222 123.862 127.206 123.654 127.174 123.454C127.142 123.246 127.07 123.062 126.958 122.902C126.854 122.734 126.702 122.602 126.502 122.506C126.31 122.402 126.054 122.35 125.734 122.35C125.278 122.35 124.938 122.382 124.714 122.446C124.49 122.51 124.326 122.562 124.222 122.602L124.114 121.918C124.25 121.854 124.458 121.794 124.738 121.738C125.026 121.682 125.37 121.654 125.77 121.654ZM134.923 128.002L134.143 128.002L134.143 125.11L130.771 125.11L130.771 128.002L129.991 128.002L129.991 121.798L130.771 121.798L130.771 124.45L134.143 124.45L134.143 121.798L134.923 121.798L134.923 128.002ZM141.211 122.794C140.971 123.082 140.691 123.446 140.371 123.886C140.059 124.326 139.739 124.79 139.411 125.278C139.091 125.766 138.783 126.25 138.487 126.73C138.191 127.21 137.935 127.634 137.719 128.002L136.987 128.002L136.987 121.798L137.755 121.798L137.755 126.766C137.947 126.422 138.183 126.026 138.463 125.578C138.751 125.122 139.055 124.666 139.375 124.21C139.695 123.746 140.015 123.302 140.335 122.878C140.663 122.454 140.967 122.094 141.247 121.798L141.979 121.798L141.979 128.002L141.211 128.002L141.211 122.794ZM143.586 121.798L144.366 121.798L144.366 123.478C144.366 124.054 144.494 124.45 144.75 124.666C145.014 124.882 145.39 124.99 145.878 124.99C146.286 124.99 146.602 124.97 146.826 124.93C147.058 124.89 147.254 124.842 147.414 124.786L147.414 121.798L148.194 121.798L148.194 128.002L147.414 128.002L147.414 125.446C147.358 125.462 147.274 125.486 147.162 125.518C147.058 125.542 146.934 125.566 146.79 125.59C146.646 125.614 146.49 125.638 146.322 125.662C146.162 125.678 145.998 125.686 145.83 125.686C145.486 125.686 145.174 125.65 144.894 125.578C144.622 125.506 144.386 125.386 144.186 125.218C143.994 125.05 143.846 124.83 143.742 124.558C143.638 124.278 143.586 123.934 143.586 123.526L143.586 121.798ZM149.881 124.894C149.881 124.35 149.957 123.878 150.109 123.478C150.269 123.07 150.473 122.73 150.721 122.458C150.977 122.186 151.265 121.986 151.585 121.858C151.913 121.722 152.249 121.654 152.593 121.654C153.353 121.654 153.957 121.902 154.405 122.398C154.861 122.894 155.089 123.658 155.089 124.69C155.089 124.754 155.085 124.818 155.077 124.882C155.077 124.946 155.073 125.006 155.065 125.062L150.709 125.062C150.733 125.822 150.921 126.406 151.273 126.814C151.625 127.222 152.185 127.426 152.953 127.426C153.377 127.426 153.713 127.386 153.961 127.306C154.209 127.226 154.389 127.158 154.501 127.102L154.645 127.774C154.533 127.838 154.321 127.914 154.009 128.002C153.705 128.09 153.345 128.134 152.929 128.134C152.385 128.134 151.921 128.054 151.537 127.894C151.153 127.734 150.837 127.51 150.589 127.222C150.341 126.934 150.161 126.594 150.049 126.202C149.937 125.802 149.881 125.366 149.881 124.894ZM154.285 124.402C154.269 123.754 154.117 123.25 153.829 122.89C153.541 122.53 153.133 122.35 152.605 122.35C152.325 122.35 152.073 122.406 151.849 122.518C151.633 122.63 151.441 122.782 151.273 122.974C151.113 123.158 150.985 123.374 150.889 123.622C150.801 123.87 150.749 124.13 150.733 124.402L154.285 124.402ZM161.759 128.002L160.979 128.002L160.979 125.11L157.607 125.11L157.607 128.002L156.827 128.002L156.827 121.798L157.607 121.798L157.607 124.45L160.979 124.45L160.979 121.798L161.759 121.798L161.759 128.002ZM168.755 128.002L167.975 128.002L167.975 125.11L164.603 125.11L164.603 128.002L163.823 128.002L163.823 121.798L164.603 121.798L164.603 124.45L167.975 124.45L167.975 121.798L168.755 121.798L168.755 128.002ZM176.111 124.906C176.111 125.394 176.039 125.838 175.895 126.238C175.759 126.638 175.563 126.978 175.307 127.258C175.059 127.538 174.763 127.758 174.419 127.918C174.075 128.07 173.695 128.146 173.279 128.146C172.863 128.146 172.483 128.07 172.139 127.918C171.795 127.758 171.495 127.538 171.239 127.258C170.991 126.978 170.795 126.638 170.651 126.238C170.515 125.838 170.447 125.394 170.447 124.906C170.447 124.418 170.515 123.974 170.651 123.574C170.795 123.174 170.991 122.834 171.239 122.554C171.495 122.266 171.795 122.046 172.139 121.894C172.483 121.734 172.863 121.654 173.279 121.654C173.695 121.654 174.075 121.734 174.419 121.894C174.763 122.046 175.059 122.266 175.307 122.554C175.563 122.834 175.759 123.174 175.895 123.574C176.039 123.974 176.111 124.418 176.111 124.906ZM175.283 124.906C175.283 124.13 175.103 123.514 174.743 123.058C174.383 122.594 173.895 122.362 173.279 122.362C172.663 122.362 172.175 122.594 171.815 123.058C171.455 123.514 171.275 124.13 171.275 124.906C171.275 125.682 171.455 126.298 171.815 126.754C172.175 127.21 172.663 127.438 173.279 127.438C173.895 127.438 174.383 127.21 174.743 126.754C175.103 126.298 175.283 125.682 175.283 124.906ZM177.431 124.894C177.431 124.35 177.507 123.878 177.659 123.478C177.819 123.07 178.023 122.73 178.271 122.458C178.527 122.186 178.815 121.986 179.135 121.858C179.463 121.722 179.799 121.654 180.143 121.654C180.903 121.654 181.507 121.902 181.955 122.398C182.411 122.894 182.639 123.658 182.639 124.69C182.639 124.754 182.635 124.818 182.627 124.882C182.627 124.946 182.623 125.006 182.615 125.062L178.259 125.062C178.283 125.822 178.471 126.406 178.823 126.814C179.175 127.222 179.735 127.426 180.503 127.426C180.927 127.426 181.263 127.386 181.511 127.306C181.759 127.226 181.939 127.158 182.051 127.102L182.195 127.774C182.083 127.838 181.871 127.914 181.559 128.002C181.255 128.09 180.895 128.134 180.479 128.134C179.935 128.134 179.471 128.054 179.087 127.894C178.703 127.734 178.387 127.51 178.139 127.222C177.891 126.934 177.711 126.594 177.599 126.202C177.487 125.802 177.431 125.366 177.431 124.894ZM181.835 124.402C181.819 123.754 181.667 123.25 181.379 122.89C181.091 122.53 180.683 122.35 180.155 122.35C179.875 122.35 179.623 122.406 179.399 122.518C179.183 122.63 178.991 122.782 178.823 122.974C178.663 123.158 178.535 123.374 178.439 123.622C178.351 123.87 178.299 124.13 178.283 124.402L181.835 124.402ZM65.6316 144.002L65.6316 137.798L66.4116 137.798L66.4116 140.666C66.6356 140.45 66.8836 140.21 67.1556 139.946C67.4356 139.674 67.7076 139.406 67.9716 139.142C68.2356 138.87 68.4796 138.618 68.7036 138.386C68.9356 138.146 69.1196 137.95 69.2556 137.798L70.1916 137.798C70.0076 138.006 69.7876 138.242 69.5316 138.506C69.2756 138.762 69.0116 139.022 68.7396 139.286C68.4756 139.55 68.2156 139.806 67.9596 140.054C67.7116 140.302 67.4916 140.514 67.2996 140.69C67.5716 140.866 67.8596 141.086 68.1636 141.35C68.4676 141.606 68.7596 141.886 69.0396 142.19C69.3276 142.486 69.5916 142.794 69.8316 143.114C70.0796 143.426 70.2876 143.722 70.4556 144.002L69.5316 144.002C69.3396 143.706 69.1116 143.406 68.8476 143.102C68.5916 142.798 68.3196 142.51 68.0316 142.238C67.7516 141.958 67.4676 141.706 67.1796 141.482C66.8996 141.258 66.6436 141.078 66.4116 140.942L66.4116 144.002L65.6316 144.002ZM76.783 140.906C76.783 141.394 76.711 141.838 76.567 142.238C76.431 142.638 76.235 142.978 75.979 143.258C75.731 143.538 75.435 143.758 75.091 143.918C74.747 144.07 74.367 144.146 73.951 144.146C73.535 144.146 73.155 144.07 72.811 143.918C72.467 143.758 72.167 143.538 71.911 143.258C71.663 142.978 71.467 142.638 71.323 142.238C71.187 141.838 71.119 141.394 71.119 140.906C71.119 140.418 71.187 139.974 71.323 139.574C71.467 139.174 71.663 138.834 71.911 138.554C72.167 138.266 72.467 138.046 72.811 137.894C73.155 137.734 73.535 137.654 73.951 137.654C74.367 137.654 74.747 137.734 75.091 137.894C75.435 138.046 75.731 138.266 75.979 138.554C76.235 138.834 76.431 139.174 76.567 139.574C76.711 139.974 76.783 140.418 76.783 140.906ZM75.955 140.906C75.955 140.13 75.775 139.514 75.415 139.058C75.055 138.594 74.567 138.362 73.951 138.362C73.335 138.362 72.847 138.594 72.487 139.058C72.127 139.514 71.947 140.13 71.947 140.906C71.947 141.682 72.127 142.298 72.487 142.754C72.847 143.21 73.335 143.438 73.951 143.438C74.567 143.438 75.055 143.21 75.415 142.754C75.775 142.298 75.955 141.682 75.955 140.906ZM80.3114 138.458L80.3114 138.71C80.3114 138.95 80.3074 139.214 80.2994 139.502C80.2914 139.782 80.2754 140.07 80.2514 140.366C80.2274 140.662 80.1874 140.958 80.1314 141.254C80.0834 141.542 80.0194 141.814 79.9394 142.07C79.8514 142.334 79.7394 142.586 79.6034 142.826C79.4754 143.058 79.3194 143.266 79.1354 143.45C78.9594 143.626 78.7514 143.774 78.5114 143.894C78.2794 144.006 78.0154 144.078 77.7194 144.11L77.6114 143.462C78.0114 143.374 78.3314 143.21 78.5714 142.97C78.8194 142.73 79.0234 142.39 79.1834 141.95C79.3434 141.51 79.4434 141.006 79.4834 140.438C79.5314 139.862 79.5554 139.234 79.5554 138.554L79.5554 137.798L83.3714 137.798L83.3714 144.002L82.5914 144.002L82.5914 138.458L80.3114 138.458ZM89.6603 138.794C89.4203 139.082 89.1403 139.446 88.8203 139.886C88.5083 140.326 88.1883 140.79 87.8603 141.278C87.5403 141.766 87.2323 142.25 86.9363 142.73C86.6403 143.21 86.3843 143.634 86.1683 144.002L85.4363 144.002L85.4363 137.798L86.2043 137.798L86.2043 142.766C86.3963 142.422 86.6323 142.026 86.9123 141.578C87.2003 141.122 87.5043 140.666 87.8243 140.21C88.1443 139.746 88.4643 139.302 88.7843 138.878C89.1123 138.454 89.4163 138.094 89.6963 137.798L90.4283 137.798L90.4283 144.002L89.6603 144.002L89.6603 138.794ZM92.035 137.798L92.815 137.798L92.815 139.478C92.815 140.054 92.943 140.45 93.199 140.666C93.463 140.882 93.839 140.99 94.327 140.99C94.735 140.99 95.051 140.97 95.275 140.93C95.507 140.89 95.703 140.842 95.863 140.786L95.863 137.798L96.643 137.798L96.643 144.002L95.863 144.002L95.863 141.446C95.807 141.462 95.723 141.486 95.611 141.518C95.507 141.542 95.383 141.566 95.239 141.59C95.095 141.614 94.939 141.638 94.771 141.662C94.611 141.678 94.447 141.686 94.279 141.686C93.935 141.686 93.623 141.65 93.343 141.578C93.071 141.506 92.835 141.386 92.635 141.218C92.443 141.05 92.295 140.83 92.191 140.558C92.087 140.278 92.035 139.934 92.035 139.526L92.035 137.798ZM98.3299 140.894C98.3299 140.35 98.4059 139.878 98.5579 139.478C98.7179 139.07 98.9219 138.73 99.1699 138.458C99.4259 138.186 99.7139 137.986 100.034 137.858C100.362 137.722 100.698 137.654 101.042 137.654C101.802 137.654 102.406 137.902 102.854 138.398C103.31 138.894 103.538 139.658 103.538 140.69C103.538 140.754 103.534 140.818 103.526 140.882C103.526 140.946 103.522 141.006 103.514 141.062L99.1579 141.062C99.1819 141.822 99.3699 142.406 99.7219 142.814C100.074 143.222 100.634 143.426 101.402 143.426C101.826 143.426 102.162 143.386 102.41 143.306C102.658 143.226 102.838 143.158 102.95 143.102L103.094 143.774C102.982 143.838 102.77 143.914 102.458 144.002C102.154 144.09 101.794 144.134 101.378 144.134C100.834 144.134 100.37 144.054 99.9859 143.894C99.6019 143.734 99.2859 143.51 99.0379 143.222C98.7899 142.934 98.6099 142.594 98.4979 142.202C98.3859 141.802 98.3299 141.366 98.3299 140.894ZM102.734 140.402C102.718 139.754 102.566 139.25 102.278 138.89C101.99 138.53 101.582 138.35 101.054 138.35C100.774 138.35 100.522 138.406 100.298 138.518C100.082 138.63 99.8899 138.782 99.7219 138.974C99.5619 139.158 99.4339 139.374 99.3379 139.622C99.2499 139.87 99.1979 140.13 99.1819 140.402L102.734 140.402ZM107.844 144.134C107.364 144.134 106.94 144.058 106.572 143.906C106.204 143.754 105.896 143.538 105.648 143.258C105.408 142.97 105.224 142.63 105.096 142.238C104.968 141.838 104.904 141.398 104.904 140.918C104.904 140.43 104.968 139.986 105.096 139.586C105.232 139.186 105.424 138.842 105.672 138.554C105.92 138.266 106.22 138.046 106.572 137.894C106.924 137.734 107.32 137.654 107.76 137.654C108.096 137.654 108.408 137.682 108.696 137.738C108.992 137.794 109.22 137.866 109.38 137.954L109.176 138.626C109.016 138.546 108.836 138.482 108.636 138.434C108.436 138.386 108.168 138.362 107.832 138.362C107.144 138.362 106.62 138.586 106.26 139.034C105.908 139.474 105.732 140.102 105.732 140.918C105.732 141.286 105.772 141.626 105.852 141.938C105.932 142.242 106.06 142.506 106.236 142.73C106.42 142.946 106.652 143.118 106.932 143.246C107.22 143.366 107.568 143.426 107.976 143.426C108.312 143.426 108.592 143.39 108.816 143.318C109.048 143.238 109.216 143.17 109.32 143.114L109.488 143.786C109.344 143.866 109.116 143.942 108.804 144.014C108.5 144.094 108.18 144.134 107.844 144.134ZM114.967 137.798L114.967 138.458L112.927 138.458L112.927 144.002L112.147 144.002L112.147 138.458L110.119 138.458L110.119 137.798L114.967 137.798ZM118.179 137.666C118.419 137.666 118.687 137.682 118.983 137.714C119.287 137.738 119.571 137.806 119.835 137.918C120.099 138.022 120.319 138.19 120.495 138.422C120.679 138.646 120.771 138.954 120.771 139.346C120.771 139.65 120.683 139.922 120.507 140.162C120.331 140.394 120.091 140.566 119.787 140.678C120.235 140.798 120.559 140.99 120.759 141.254C120.959 141.518 121.059 141.842 121.059 142.226C121.059 142.642 120.975 142.978 120.807 143.234C120.639 143.482 120.415 143.674 120.135 143.81C119.863 143.938 119.551 144.022 119.199 144.062C118.855 144.102 118.503 144.122 118.143 144.122C117.711 144.122 117.331 144.094 117.003 144.038C116.683 143.982 116.407 143.922 116.175 143.858L116.175 137.93C116.375 137.866 116.639 137.806 116.967 137.75C117.295 137.694 117.699 137.666 118.179 137.666ZM116.955 140.402L118.371 140.402C118.851 140.402 119.239 140.322 119.535 140.162C119.831 140.002 119.979 139.734 119.979 139.358C119.979 139.118 119.927 138.93 119.823 138.794C119.719 138.658 119.583 138.558 119.415 138.494C119.247 138.422 119.055 138.378 118.839 138.362C118.623 138.338 118.407 138.326 118.191 138.326C117.927 138.326 117.675 138.342 117.435 138.374C117.195 138.398 117.035 138.422 116.955 138.446L116.955 140.402ZM116.955 141.05L116.955 143.33C116.995 143.346 117.059 143.362 117.147 143.378C117.243 143.386 117.347 143.398 117.459 143.414C117.579 143.422 117.703 143.43 117.831 143.438C117.967 143.446 118.095 143.45 118.215 143.45C118.487 143.45 118.747 143.434 118.995 143.402C119.243 143.37 119.459 143.31 119.643 143.222C119.827 143.126 119.975 143.002 120.087 142.85C120.199 142.69 120.255 142.482 120.255 142.226C120.255 142.002 120.207 141.814 120.111 141.662C120.023 141.51 119.895 141.39 119.727 141.302C119.567 141.214 119.375 141.15 119.151 141.11C118.935 141.07 118.699 141.05 118.443 141.05L116.955 141.05ZM128.017 140.906C128.017 141.394 127.945 141.838 127.801 142.238C127.665 142.638 127.469 142.978 127.213 143.258C126.965 143.538 126.669 143.758 126.325 143.918C125.981 144.07 125.601 144.146 125.185 144.146C124.769 144.146 124.389 144.07 124.045 143.918C123.701 143.758 123.401 143.538 123.145 143.258C122.897 142.978 122.701 142.638 122.557 142.238C122.421 141.838 122.353 141.394 122.353 140.906C122.353 140.418 122.421 139.974 122.557 139.574C122.701 139.174 122.897 138.834 123.145 138.554C123.401 138.266 123.701 138.046 124.045 137.894C124.389 137.734 124.769 137.654 125.185 137.654C125.601 137.654 125.981 137.734 126.325 137.894C126.669 138.046 126.965 138.266 127.213 138.554C127.469 138.834 127.665 139.174 127.801 139.574C127.945 139.974 128.017 140.418 128.017 140.906ZM127.189 140.906C127.189 140.13 127.009 139.514 126.649 139.058C126.289 138.594 125.801 138.362 125.185 138.362C124.569 138.362 124.081 138.594 123.721 139.058C123.361 139.514 123.181 140.13 123.181 140.906C123.181 141.682 123.361 142.298 123.721 142.754C124.081 143.21 124.569 143.438 125.185 143.438C125.801 143.438 126.289 143.21 126.649 142.754C127.009 142.298 127.189 141.682 127.189 140.906ZM137.228 144.002L136.448 144.002L136.448 138.458L133.22 138.458L133.22 144.002L132.44 144.002L132.44 137.798L137.228 137.798L137.228 144.002ZM144.588 140.906C144.588 141.394 144.516 141.838 144.372 142.238C144.236 142.638 144.04 142.978 143.784 143.258C143.536 143.538 143.24 143.758 142.896 143.918C142.552 144.07 142.172 144.146 141.756 144.146C141.34 144.146 140.96 144.07 140.616 143.918C140.272 143.758 139.972 143.538 139.716 143.258C139.468 142.978 139.272 142.638 139.128 142.238C138.992 141.838 138.924 141.394 138.924 140.906C138.924 140.418 138.992 139.974 139.128 139.574C139.272 139.174 139.468 138.834 139.716 138.554C139.972 138.266 140.272 138.046 140.616 137.894C140.96 137.734 141.34 137.654 141.756 137.654C142.172 137.654 142.552 137.734 142.896 137.894C143.24 138.046 143.536 138.266 143.784 138.554C144.04 138.834 144.236 139.174 144.372 139.574C144.516 139.974 144.588 140.418 144.588 140.906ZM143.76 140.906C143.76 140.13 143.58 139.514 143.22 139.058C142.86 138.594 142.372 138.362 141.756 138.362C141.14 138.362 140.652 138.594 140.292 139.058C139.932 139.514 139.752 140.13 139.752 140.906C139.752 141.682 139.932 142.298 140.292 142.754C140.652 143.21 141.14 143.438 141.756 143.438C142.372 143.438 142.86 143.21 143.22 142.754C143.58 142.298 143.76 141.682 143.76 140.906ZM148.848 144.134C148.368 144.134 147.944 144.058 147.576 143.906C147.208 143.754 146.9 143.538 146.652 143.258C146.412 142.97 146.228 142.63 146.1 142.238C145.972 141.838 145.908 141.398 145.908 140.918C145.908 140.43 145.972 139.986 146.1 139.586C146.236 139.186 146.428 138.842 146.676 138.554C146.924 138.266 147.224 138.046 147.576 137.894C147.928 137.734 148.324 137.654 148.764 137.654C149.1 137.654 149.412 137.682 149.7 137.738C149.996 137.794 150.224 137.866 150.384 137.954L150.18 138.626C150.02 138.546 149.84 138.482 149.64 138.434C149.44 138.386 149.172 138.362 148.836 138.362C148.148 138.362 147.624 138.586 147.264 139.034C146.912 139.474 146.736 140.102 146.736 140.918C146.736 141.286 146.776 141.626 146.856 141.938C146.936 142.242 147.064 142.506 147.24 142.73C147.424 142.946 147.656 143.118 147.936 143.246C148.224 143.366 148.572 143.426 148.98 143.426C149.316 143.426 149.596 143.39 149.82 143.318C150.052 143.238 150.22 143.17 150.324 143.114L150.492 143.786C150.348 143.866 150.12 143.942 149.808 144.014C149.504 144.094 149.184 144.134 148.848 144.134ZM151.428 140.894C151.428 140.35 151.504 139.878 151.656 139.478C151.816 139.07 152.02 138.73 152.268 138.458C152.524 138.186 152.812 137.986 153.132 137.858C153.46 137.722 153.796 137.654 154.14 137.654C154.9 137.654 155.504 137.902 155.952 138.398C156.408 138.894 156.636 139.658 156.636 140.69C156.636 140.754 156.632 140.818 156.624 140.882C156.624 140.946 156.62 141.006 156.612 141.062L152.256 141.062C152.28 141.822 152.468 142.406 152.82 142.814C153.172 143.222 153.732 143.426 154.5 143.426C154.924 143.426 155.26 143.386 155.508 143.306C155.756 143.226 155.936 143.158 156.048 143.102L156.192 143.774C156.08 143.838 155.868 143.914 155.556 144.002C155.252 144.09 154.892 144.134 154.476 144.134C153.932 144.134 153.468 144.054 153.084 143.894C152.7 143.734 152.384 143.51 152.136 143.222C151.888 142.934 151.708 142.594 151.596 142.202C151.484 141.802 151.428 141.366 151.428 140.894ZM155.832 140.402C155.816 139.754 155.664 139.25 155.376 138.89C155.088 138.53 154.68 138.35 154.152 138.35C153.872 138.35 153.62 138.406 153.396 138.518C153.18 138.63 152.988 138.782 152.82 138.974C152.66 139.158 152.532 139.374 152.436 139.622C152.348 139.87 152.296 140.13 152.28 140.402L155.832 140.402ZM165.922 144.002L158.374 144.002L158.374 137.798L159.154 137.798L159.154 143.342L161.782 143.342L161.782 137.798L162.562 137.798L162.562 143.342L165.19 143.342L165.19 137.798L165.97 137.798L165.97 143.342L166.678 143.342L166.678 145.718L165.922 145.718L165.922 144.002ZM167.705 140.894C167.705 140.35 167.781 139.878 167.933 139.478C168.093 139.07 168.297 138.73 168.545 138.458C168.801 138.186 169.089 137.986 169.409 137.858C169.737 137.722 170.073 137.654 170.417 137.654C171.177 137.654 171.781 137.902 172.229 138.398C172.685 138.894 172.913 139.658 172.913 140.69C172.913 140.754 172.909 140.818 172.901 140.882C172.901 140.946 172.897 141.006 172.889 141.062L168.533 141.062C168.557 141.822 168.745 142.406 169.097 142.814C169.449 143.222 170.009 143.426 170.777 143.426C171.201 143.426 171.537 143.386 171.785 143.306C172.033 143.226 172.213 143.158 172.325 143.102L172.469 143.774C172.357 143.838 172.145 143.914 171.833 144.002C171.529 144.09 171.169 144.134 170.753 144.134C170.209 144.134 169.745 144.054 169.361 143.894C168.977 143.734 168.661 143.51 168.413 143.222C168.165 142.934 167.985 142.594 167.873 142.202C167.761 141.802 167.705 141.366 167.705 140.894ZM172.109 140.402C172.093 139.754 171.941 139.25 171.653 138.89C171.365 138.53 170.957 138.35 170.429 138.35C170.149 138.35 169.897 138.406 169.673 138.518C169.457 138.63 169.265 138.782 169.097 138.974C168.937 139.158 168.809 139.374 168.713 139.622C168.625 139.87 168.573 140.13 168.557 140.402L172.109 140.402ZM179.583 144.002L178.803 144.002L178.803 141.11L175.431 141.11L175.431 144.002L174.651 144.002L174.651 137.798L175.431 137.798L175.431 140.45L178.803 140.45L178.803 137.798L179.583 137.798L179.583 144.002ZM185.871 138.794C185.631 139.082 185.351 139.446 185.031 139.886C184.719 140.326 184.399 140.79 184.071 141.278C183.751 141.766 183.443 142.25 183.147 142.73C182.851 143.21 182.595 143.634 182.379 144.002L181.647 144.002L181.647 137.798L182.415 137.798L182.415 142.766C182.607 142.422 182.843 142.026 183.123 141.578C183.411 141.122 183.715 140.666 184.035 140.21C184.355 139.746 184.675 139.302 184.995 138.878C185.323 138.454 185.627 138.094 185.907 137.798L186.639 137.798L186.639 144.002L185.871 144.002L185.871 138.794ZM192.926 138.794C192.686 139.082 192.406 139.446 192.086 139.886C191.774 140.326 191.454 140.79 191.126 141.278C190.806 141.766 190.498 142.25 190.202 142.73C189.906 143.21 189.65 143.634 189.434 144.002L188.702 144.002L188.702 137.798L189.47 137.798L189.47 142.766C189.662 142.422 189.898 142.026 190.178 141.578C190.466 141.122 190.77 140.666 191.09 140.21C191.41 139.746 191.73 139.302 192.05 138.878C192.378 138.454 192.682 138.094 192.962 137.798L193.694 137.798L193.694 144.002L192.926 144.002L192.926 138.794ZM191.198 136.742C190.75 136.742 190.382 136.618 190.094 136.37C189.806 136.122 189.622 135.77 189.542 135.314L190.178 135.146C190.226 135.418 190.33 135.642 190.49 135.818C190.658 135.986 190.894 136.07 191.198 136.07C191.502 136.07 191.734 135.986 191.894 135.818C192.062 135.642 192.17 135.418 192.218 135.146L192.854 135.314C192.774 135.77 192.59 136.122 192.302 136.37C192.014 136.618 191.646 136.742 191.198 136.742ZM67.8392 159.138C67.7912 159.018 67.7192 158.854 67.6232 158.646C67.5272 158.43 67.4192 158.194 67.2992 157.938C67.1872 157.674 67.0632 157.398 66.9272 157.11C66.7912 156.814 66.6552 156.53 66.5192 156.258C66.3912 155.986 66.2672 155.73 66.1472 155.49C66.0272 155.25 65.9232 155.054 65.8352 154.902C65.7312 155.822 65.6552 156.698 65.6072 157.53C65.5592 158.354 65.5192 159.178 65.4872 160.002L64.7552 160.002C64.7872 158.97 64.8392 157.93 64.9112 156.882C64.9912 155.834 65.0912 154.806 65.2112 153.798L66.0152 153.798C66.1192 153.966 66.2512 154.206 66.4112 154.518C66.5792 154.83 66.7592 155.186 66.9512 155.586C67.1512 155.978 67.3552 156.406 67.5632 156.87C67.7792 157.326 67.9952 157.79 68.2112 158.262C68.4272 157.79 68.6392 157.326 68.8472 156.87C69.0632 156.406 69.2672 155.978 69.4592 155.586C69.6592 155.186 69.8392 154.83 69.9992 154.518C70.1592 154.206 70.2952 153.966 70.4072 153.798L71.1992 153.798C71.3192 154.806 71.4152 155.834 71.4872 156.882C71.5672 157.93 71.6232 158.97 71.6552 160.002L70.9112 160.002C70.8792 159.178 70.8392 158.354 70.7912 157.53C70.7432 156.698 70.6672 155.822 70.5632 154.902C70.4752 155.062 70.3712 155.262 70.2512 155.502C70.1312 155.734 70.0032 155.986 69.8672 156.258C69.7392 156.53 69.6072 156.814 69.4712 157.11C69.3352 157.398 69.2072 157.674 69.0872 157.938C68.9752 158.194 68.8712 158.43 68.7752 158.646C68.6792 158.854 68.6072 159.018 68.5592 159.138L67.8392 159.138ZM75.5271 159.438C75.8311 159.438 76.0951 159.43 76.3191 159.414C76.5511 159.39 76.7471 159.362 76.9071 159.33L76.9071 157.146C76.8191 157.106 76.6791 157.066 76.4871 157.026C76.2951 156.978 76.0311 156.954 75.6951 156.954C75.5031 156.954 75.3031 156.97 75.0951 157.002C74.8871 157.026 74.6951 157.086 74.5191 157.182C74.3431 157.27 74.1991 157.394 74.0871 157.554C73.9751 157.714 73.9191 157.926 73.9191 158.19C73.9191 158.422 73.9551 158.618 74.0271 158.778C74.1071 158.938 74.2151 159.066 74.3511 159.162C74.4951 159.258 74.6631 159.33 74.8551 159.378C75.0551 159.418 75.2791 159.438 75.5271 159.438ZM75.4551 153.654C75.8631 153.654 76.2071 153.714 76.4871 153.834C76.7751 153.946 77.0071 154.106 77.1831 154.314C77.3591 154.514 77.4871 154.754 77.5671 155.034C77.6471 155.314 77.6871 155.618 77.6871 155.946L77.6871 159.858C77.6071 159.882 77.4911 159.91 77.3391 159.942C77.1871 159.966 77.0111 159.994 76.8111 160.026C76.6111 160.058 76.3871 160.082 76.1391 160.098C75.8991 160.122 75.6511 160.134 75.3951 160.134C75.0671 160.134 74.7631 160.098 74.4831 160.026C74.2111 159.954 73.9711 159.842 73.7631 159.69C73.5631 159.53 73.4031 159.33 73.2831 159.09C73.1711 158.842 73.1151 158.542 73.1151 158.19C73.1151 157.854 73.1791 157.566 73.3071 157.326C73.4351 157.086 73.6151 156.89 73.8471 156.738C74.0791 156.578 74.3551 156.462 74.6751 156.39C74.9951 156.318 75.3431 156.282 75.7191 156.282C75.8311 156.282 75.9471 156.29 76.0671 156.306C76.1951 156.314 76.3151 156.33 76.4271 156.354C76.5471 156.37 76.6471 156.39 76.7271 156.414C76.8151 156.43 76.8751 156.446 76.9071 156.462L76.9071 156.078C76.9071 155.862 76.8911 155.654 76.8591 155.454C76.8271 155.246 76.7551 155.062 76.6431 154.902C76.5391 154.734 76.3871 154.602 76.1871 154.506C75.9951 154.402 75.7391 154.35 75.4191 154.35C74.9631 154.35 74.6231 154.382 74.3991 154.446C74.1751 154.51 74.0111 154.562 73.9071 154.602L73.7991 153.918C73.9351 153.854 74.1431 153.794 74.4231 153.738C74.7111 153.682 75.0551 153.654 75.4551 153.654ZM84.6085 160.002L83.8285 160.002L83.8285 157.11L80.4565 157.11L80.4565 160.002L79.6765 160.002L79.6765 153.798L80.4565 153.798L80.4565 156.45L83.8285 156.45L83.8285 153.798L84.6085 153.798L84.6085 160.002ZM90.8966 154.794C90.6566 155.082 90.3766 155.446 90.0566 155.886C89.7446 156.326 89.4246 156.79 89.0966 157.278C88.7766 157.766 88.4686 158.25 88.1726 158.73C87.8766 159.21 87.6206 159.634 87.4046 160.002L86.6726 160.002L86.6726 153.798L87.4406 153.798L87.4406 158.766C87.6326 158.422 87.8686 158.026 88.1486 157.578C88.4366 157.122 88.7406 156.666 89.0606 156.21C89.3806 155.746 89.7006 155.302 90.0206 154.878C90.3486 154.454 90.6526 154.094 90.9326 153.798L91.6646 153.798L91.6646 160.002L90.8966 160.002L90.8966 154.794ZM93.7273 160.002L93.7273 153.798L94.5073 153.798L94.5073 156.666C94.7313 156.45 94.9793 156.21 95.2513 155.946C95.5313 155.674 95.8033 155.406 96.0673 155.142C96.3313 154.87 96.5753 154.618 96.7993 154.386C97.0313 154.146 97.2153 153.95 97.3513 153.798L98.2873 153.798C98.1033 154.006 97.8833 154.242 97.6273 154.506C97.3713 154.762 97.1073 155.022 96.8353 155.286C96.5713 155.55 96.3113 155.806 96.0553 156.054C95.8073 156.302 95.5873 156.514 95.3953 156.69C95.6673 156.866 95.9553 157.086 96.2593 157.35C96.5633 157.606 96.8553 157.886 97.1353 158.19C97.4233 158.486 97.6873 158.794 97.9273 159.114C98.1753 159.426 98.3833 159.722 98.5513 160.002L97.6273 160.002C97.4353 159.706 97.2073 159.406 96.9433 159.102C96.6873 158.798 96.4153 158.51 96.1273 158.238C95.8473 157.958 95.5633 157.706 95.2753 157.482C94.9953 157.258 94.7393 157.078 94.5073 156.942L94.5073 160.002L93.7273 160.002ZM107.49 156.906C107.49 157.394 107.422 157.838 107.286 158.238C107.15 158.638 106.958 158.978 106.71 159.258C106.462 159.538 106.17 159.758 105.834 159.918C105.498 160.07 105.126 160.146 104.718 160.146C104.326 160.146 103.966 160.074 103.638 159.93C103.31 159.786 103.022 159.582 102.774 159.318C102.526 159.054 102.33 158.738 102.186 158.37C102.042 157.994 101.962 157.574 101.946 157.11L100.578 157.11L100.578 160.002L99.7976 160.002L99.7976 153.798L100.578 153.798L100.578 156.462L101.958 156.462C101.998 156.038 102.094 155.654 102.246 155.31C102.398 154.958 102.594 154.662 102.834 154.422C103.074 154.174 103.354 153.986 103.674 153.858C103.994 153.722 104.342 153.654 104.718 153.654C105.126 153.654 105.498 153.734 105.834 153.894C106.17 154.046 106.462 154.266 106.71 154.554C106.958 154.834 107.15 155.174 107.286 155.574C107.422 155.974 107.49 156.418 107.49 156.906ZM106.662 156.906C106.662 156.522 106.614 156.174 106.518 155.862C106.43 155.542 106.302 155.274 106.134 155.058C105.966 154.834 105.762 154.662 105.522 154.542C105.282 154.422 105.014 154.362 104.718 154.362C104.414 154.362 104.142 154.422 103.902 154.542C103.662 154.662 103.458 154.834 103.29 155.058C103.122 155.274 102.994 155.542 102.906 155.862C102.818 156.174 102.774 156.522 102.774 156.906C102.774 157.682 102.946 158.298 103.29 158.754C103.642 159.21 104.118 159.438 104.718 159.438C105.318 159.438 105.79 159.21 106.134 158.754C106.486 158.298 106.662 157.682 106.662 156.906ZM109.964 158.886C110.036 158.942 110.124 159.002 110.228 159.066C110.34 159.13 110.468 159.19 110.612 159.246C110.756 159.302 110.912 159.35 111.08 159.39C111.248 159.422 111.424 159.438 111.608 159.438C111.992 159.438 112.312 159.374 112.568 159.246C112.832 159.11 113.044 158.93 113.204 158.706C113.364 158.474 113.48 158.206 113.552 157.902C113.624 157.59 113.66 157.262 113.66 156.918C113.66 156.102 113.456 155.478 113.048 155.046C112.64 154.606 112.1 154.386 111.428 154.386C111.044 154.386 110.732 154.406 110.492 154.446C110.26 154.478 110.084 154.514 109.964 154.554L109.964 158.886ZM109.964 162.222L109.184 162.222L109.184 154.014C109.416 153.934 109.712 153.858 110.072 153.786C110.432 153.714 110.888 153.678 111.44 153.678C111.896 153.678 112.308 153.754 112.676 153.906C113.052 154.05 113.372 154.262 113.636 154.542C113.908 154.822 114.116 155.162 114.26 155.562C114.412 155.962 114.488 156.414 114.488 156.918C114.488 157.39 114.424 157.826 114.296 158.226C114.176 158.618 113.996 158.958 113.756 159.246C113.516 159.526 113.22 159.746 112.868 159.906C112.524 160.066 112.128 160.146 111.68 160.146C111.272 160.146 110.916 160.09 110.612 159.978C110.316 159.858 110.1 159.746 109.964 159.642L109.964 162.222ZM118.136 159.438C118.44 159.438 118.704 159.43 118.928 159.414C119.16 159.39 119.356 159.362 119.516 159.33L119.516 157.146C119.428 157.106 119.288 157.066 119.096 157.026C118.904 156.978 118.64 156.954 118.304 156.954C118.112 156.954 117.912 156.97 117.704 157.002C117.496 157.026 117.304 157.086 117.128 157.182C116.952 157.27 116.808 157.394 116.696 157.554C116.584 157.714 116.528 157.926 116.528 158.19C116.528 158.422 116.564 158.618 116.636 158.778C116.716 158.938 116.824 159.066 116.96 159.162C117.104 159.258 117.272 159.33 117.464 159.378C117.664 159.418 117.888 159.438 118.136 159.438ZM118.064 153.654C118.472 153.654 118.816 153.714 119.096 153.834C119.384 153.946 119.616 154.106 119.792 154.314C119.968 154.514 120.096 154.754 120.176 155.034C120.256 155.314 120.296 155.618 120.296 155.946L120.296 159.858C120.216 159.882 120.1 159.91 119.948 159.942C119.796 159.966 119.62 159.994 119.42 160.026C119.22 160.058 118.996 160.082 118.748 160.098C118.508 160.122 118.26 160.134 118.004 160.134C117.676 160.134 117.372 160.098 117.092 160.026C116.82 159.954 116.58 159.842 116.372 159.69C116.172 159.53 116.012 159.33 115.892 159.09C115.78 158.842 115.724 158.542 115.724 158.19C115.724 157.854 115.788 157.566 115.916 157.326C116.044 157.086 116.224 156.89 116.456 156.738C116.688 156.578 116.964 156.462 117.284 156.39C117.604 156.318 117.952 156.282 118.328 156.282C118.44 156.282 118.556 156.29 118.676 156.306C118.804 156.314 118.924 156.33 119.036 156.354C119.156 156.37 119.256 156.39 119.336 156.414C119.424 156.43 119.484 156.446 119.516 156.462L119.516 156.078C119.516 155.862 119.5 155.654 119.468 155.454C119.436 155.246 119.364 155.062 119.252 154.902C119.148 154.734 118.996 154.602 118.796 154.506C118.604 154.402 118.348 154.35 118.028 154.35C117.572 154.35 117.232 154.382 117.008 154.446C116.784 154.51 116.62 154.562 116.516 154.602L116.408 153.918C116.544 153.854 116.752 153.794 117.032 153.738C117.32 153.682 117.664 153.654 118.064 153.654ZM127.584 160.134C127.104 160.134 126.68 160.058 126.312 159.906C125.944 159.754 125.636 159.538 125.388 159.258C125.148 158.97 124.964 158.63 124.836 158.238C124.708 157.838 124.644 157.398 124.644 156.918C124.644 156.43 124.708 155.986 124.836 155.586C124.972 155.186 125.164 154.842 125.412 154.554C125.66 154.266 125.96 154.046 126.312 153.894C126.664 153.734 127.06 153.654 127.5 153.654C127.836 153.654 128.148 153.682 128.436 153.738C128.732 153.794 128.96 153.866 129.12 153.954L128.916 154.626C128.756 154.546 128.576 154.482 128.376 154.434C128.176 154.386 127.908 154.362 127.572 154.362C126.884 154.362 126.36 154.586 126 155.034C125.648 155.474 125.472 156.102 125.472 156.918C125.472 157.286 125.512 157.626 125.592 157.938C125.672 158.242 125.8 158.506 125.976 158.73C126.16 158.946 126.392 159.118 126.672 159.246C126.96 159.366 127.308 159.426 127.716 159.426C128.052 159.426 128.332 159.39 128.556 159.318C128.788 159.238 128.956 159.17 129.06 159.114L129.228 159.786C129.084 159.866 128.856 159.942 128.544 160.014C128.24 160.094 127.92 160.134 127.584 160.134ZM138.054 160.002L137.274 160.002L137.274 154.458L134.046 154.458L134.046 160.002L133.266 160.002L133.266 153.798L138.054 153.798L138.054 160.002ZM145.414 156.906C145.414 157.394 145.342 157.838 145.198 158.238C145.062 158.638 144.866 158.978 144.61 159.258C144.362 159.538 144.066 159.758 143.722 159.918C143.378 160.07 142.998 160.146 142.582 160.146C142.166 160.146 141.786 160.07 141.442 159.918C141.098 159.758 140.798 159.538 140.542 159.258C140.294 158.978 140.098 158.638 139.954 158.238C139.818 157.838 139.75 157.394 139.75 156.906C139.75 156.418 139.818 155.974 139.954 155.574C140.098 155.174 140.294 154.834 140.542 154.554C140.798 154.266 141.098 154.046 141.442 153.894C141.786 153.734 142.166 153.654 142.582 153.654C142.998 153.654 143.378 153.734 143.722 153.894C144.066 154.046 144.362 154.266 144.61 154.554C144.866 154.834 145.062 155.174 145.198 155.574C145.342 155.974 145.414 156.418 145.414 156.906ZM144.586 156.906C144.586 156.13 144.406 155.514 144.046 155.058C143.686 154.594 143.198 154.362 142.582 154.362C141.966 154.362 141.478 154.594 141.118 155.058C140.758 155.514 140.578 156.13 140.578 156.906C140.578 157.682 140.758 158.298 141.118 158.754C141.478 159.21 141.966 159.438 142.582 159.438C143.198 159.438 143.686 159.21 144.046 158.754C144.406 158.298 144.586 157.682 144.586 156.906ZM147.106 160.002L147.106 153.798L147.886 153.798L147.886 156.666C148.11 156.45 148.358 156.21 148.63 155.946C148.91 155.674 149.182 155.406 149.446 155.142C149.71 154.87 149.954 154.618 150.178 154.386C150.41 154.146 150.594 153.95 150.73 153.798L151.666 153.798C151.482 154.006 151.262 154.242 151.006 154.506C150.75 154.762 150.486 155.022 150.214 155.286C149.95 155.55 149.69 155.806 149.434 156.054C149.186 156.302 148.966 156.514 148.774 156.69C149.046 156.866 149.334 157.086 149.638 157.35C149.942 157.606 150.234 157.886 150.514 158.19C150.802 158.486 151.066 158.794 151.306 159.114C151.554 159.426 151.762 159.722 151.93 160.002L151.006 160.002C150.814 159.706 150.586 159.406 150.322 159.102C150.066 158.798 149.794 158.51 149.506 158.238C149.226 157.958 148.942 157.706 148.654 157.482C148.374 157.258 148.118 157.078 147.886 156.942L147.886 160.002L147.106 160.002ZM153.957 158.886C154.029 158.942 154.117 159.002 154.221 159.066C154.333 159.13 154.461 159.19 154.605 159.246C154.749 159.302 154.905 159.35 155.073 159.39C155.241 159.422 155.417 159.438 155.601 159.438C155.985 159.438 156.305 159.374 156.561 159.246C156.825 159.11 157.037 158.93 157.197 158.706C157.357 158.474 157.473 158.206 157.545 157.902C157.617 157.59 157.653 157.262 157.653 156.918C157.653 156.102 157.449 155.478 157.041 155.046C156.633 154.606 156.093 154.386 155.421 154.386C155.037 154.386 154.725 154.406 154.485 154.446C154.253 154.478 154.077 154.514 153.957 154.554L153.957 158.886ZM153.957 162.222L153.177 162.222L153.177 154.014C153.409 153.934 153.705 153.858 154.065 153.786C154.425 153.714 154.881 153.678 155.433 153.678C155.889 153.678 156.301 153.754 156.669 153.906C157.045 154.05 157.365 154.262 157.629 154.542C157.901 154.822 158.109 155.162 158.253 155.562C158.405 155.962 158.481 156.414 158.481 156.918C158.481 157.39 158.417 157.826 158.289 158.226C158.169 158.618 157.989 158.958 157.749 159.246C157.509 159.526 157.213 159.746 156.861 159.906C156.517 160.066 156.121 160.146 155.673 160.146C155.265 160.146 154.909 160.09 154.605 159.978C154.309 159.858 154.093 159.746 153.957 159.642L153.957 162.222ZM160.173 153.798L160.953 153.798L160.953 156.282C161.097 156.242 161.309 156.202 161.589 156.162C161.869 156.114 162.149 156.09 162.429 156.09C162.741 156.09 163.041 156.126 163.329 156.198C163.625 156.27 163.881 156.386 164.097 156.546C164.321 156.706 164.497 156.914 164.625 157.17C164.761 157.426 164.829 157.738 164.829 158.106C164.829 158.474 164.761 158.786 164.625 159.042C164.497 159.298 164.321 159.51 164.097 159.678C163.873 159.838 163.605 159.954 163.293 160.026C162.989 160.098 162.665 160.134 162.321 160.134C162.113 160.134 161.901 160.126 161.685 160.11C161.477 160.094 161.277 160.074 161.085 160.05C160.901 160.026 160.729 159.998 160.569 159.966C160.409 159.934 160.277 159.898 160.173 159.858L160.173 153.798ZM162.321 159.438C162.825 159.438 163.233 159.334 163.545 159.126C163.865 158.918 164.025 158.578 164.025 158.106C164.025 157.882 163.981 157.686 163.893 157.518C163.805 157.35 163.685 157.214 163.533 157.11C163.389 156.998 163.217 156.918 163.017 156.87C162.825 156.814 162.621 156.786 162.405 156.786C162.157 156.786 161.905 156.798 161.649 156.822C161.393 156.846 161.161 156.894 160.953 156.966L160.953 159.318C161.057 159.342 161.237 159.37 161.493 159.402C161.749 159.426 162.025 159.438 162.321 159.438ZM166.917 160.002L166.137 160.002L166.137 153.798L166.917 153.798L166.917 160.002ZM172.981 153.798L172.981 154.458L170.941 154.458L170.941 160.002L170.161 160.002L170.161 154.458L168.133 154.458L168.133 153.798L172.981 153.798ZM178.412 154.794C178.172 155.082 177.892 155.446 177.572 155.886C177.26 156.326 176.94 156.79 176.612 157.278C176.292 157.766 175.984 158.25 175.688 158.73C175.392 159.21 175.136 159.634 174.92 160.002L174.188 160.002L174.188 153.798L174.956 153.798L174.956 158.766C175.148 158.422 175.384 158.026 175.664 157.578C175.952 157.122 176.256 156.666 176.576 156.21C176.896 155.746 177.216 155.302 177.536 154.878C177.864 154.454 178.168 154.094 178.448 153.798L179.18 153.798L179.18 160.002L178.412 160.002L178.412 154.794ZM180.871 156.894C180.871 156.35 180.947 155.878 181.099 155.478C181.259 155.07 181.463 154.73 181.711 154.458C181.967 154.186 182.255 153.986 182.575 153.858C182.903 153.722 183.239 153.654 183.583 153.654C184.343 153.654 184.947 153.902 185.395 154.398C185.851 154.894 186.079 155.658 186.079 156.69C186.079 156.754 186.075 156.818 186.067 156.882C186.067 156.946 186.063 157.006 186.055 157.062L181.699 157.062C181.723 157.822 181.911 158.406 182.263 158.814C182.615 159.222 183.175 159.426 183.943 159.426C184.367 159.426 184.703 159.386 184.951 159.306C185.199 159.226 185.379 159.158 185.491 159.102L185.635 159.774C185.523 159.838 185.311 159.914 184.999 160.002C184.695 160.09 184.335 160.134 183.919 160.134C183.375 160.134 182.911 160.054 182.527 159.894C182.143 159.734 181.827 159.51 181.579 159.222C181.331 158.934 181.151 158.594 181.039 158.202C180.927 157.802 180.871 157.366 180.871 156.894ZM185.275 156.402C185.259 155.754 185.107 155.25 184.819 154.89C184.531 154.53 184.123 154.35 183.595 154.35C183.315 154.35 183.063 154.406 182.839 154.518C182.623 154.63 182.431 154.782 182.263 154.974C182.103 155.158 181.975 155.374 181.879 155.622C181.791 155.87 181.739 156.13 181.723 156.402L185.275 156.402ZM190.757 159.138C190.709 159.018 190.637 158.854 190.541 158.646C190.445 158.43 190.337 158.194 190.217 157.938C190.105 157.674 189.981 157.398 189.845 157.11C189.709 156.814 189.573 156.53 189.437 156.258C189.309 155.986 189.185 155.73 189.065 155.49C188.945 155.25 188.841 155.054 188.753 154.902C188.649 155.822 188.573 156.698 188.525 157.53C188.477 158.354 188.437 159.178 188.405 160.002L187.673 160.002C187.705 158.97 187.757 157.93 187.829 156.882C187.909 155.834 188.009 154.806 188.129 153.798L188.933 153.798C189.037 153.966 189.169 154.206 189.329 154.518C189.497 154.83 189.677 155.186 189.869 155.586C190.069 155.978 190.273 156.406 190.481 156.87C190.697 157.326 190.913 157.79 191.129 158.262C191.345 157.79 191.557 157.326 191.765 156.87C191.981 156.406 192.185 155.978 192.377 155.586C192.577 155.186 192.757 154.83 192.917 154.518C193.077 154.206 193.213 153.966 193.325 153.798L194.117 153.798C194.237 154.806 194.333 155.834 194.405 156.882C194.485 157.93 194.541 158.97 194.573 160.002L193.829 160.002C193.797 159.178 193.757 158.354 193.709 157.53C193.661 156.698 193.585 155.822 193.481 154.902C193.393 155.062 193.289 155.262 193.169 155.502C193.049 155.734 192.921 155.986 192.785 156.258C192.657 156.53 192.525 156.814 192.389 157.11C192.253 157.398 192.125 157.674 192.005 157.938C191.893 158.194 191.789 158.43 191.693 158.646C191.597 158.854 191.525 159.018 191.477 159.138L190.757 159.138Z" fill="#4F5665"></path> <defs> <filter id="filter0_d_1727_1908" x="13.4102" y="16.3418" width="225.18" height="213.498" filterUnits="userSpaceOnUse" color-interpolation-filters="sRGB"> <feFlood flood-opacity="0" result="BackgroundImageFix"></feFlood> <feColorMatrix in="SourceAlpha" type="matrix" values="0 0 0 0 0 0 0 0 0 0 0 0 0 0 0 0 0 0 127 0" result="hardAlpha"></feColorMatrix> <feOffset dy="4"></feOffset> <feGaussianBlur stdDeviation="2"></feGaussianBlur> <feComposite in2="hardAlpha" operator="out"></feComposite> <feColorMatrix type="matrix" values="0 0 0 0 0.766565 0 0 0 0 0.684619 0 0 0 0 0.701411 0 0 0 0.2 0"></feColorMatrix> <feBlend mode="normal" in2="BackgroundImageFix" result="effect1_dropShadow_1727_1908"></feBlend> <feBlend mode="normal" in="SourceGraphic" in2="effect1_dropShadow_1727_1908" result="shape"></feBlend> </filter> <linearGradient id="paint0_linear_1727_1908" x1="126" y1="9" x2="126" y2="231" gradientUnits="userSpaceOnUse"> <stop stop-color="#FFF6F6"></stop> <stop offset="1" stop-color="white" stop-opacity="0"></stop> </linearGradient> </defs> </svg> 