<?xml version="1.0" encoding="UTF-8"?> <svg xmlns="http://www.w3.org/2000/svg" width="145" height="144" viewBox="0 0 145 144" fill="none"> <path d="M55.4982 21.1484L55.7644 21.8461L52.329 23.1565L53.3693 25.8836L56.6461 24.6337L56.9122 25.3313L53.6355 26.5812L54.8854 29.858L54.1455 30.1402L51.323 22.7411L55.4982 21.1484Z" fill="#30695F"></path> <path d="M61.1264 19.7031L62.4892 26.7322L66.037 26.0444L66.1789 26.7761L61.855 27.6144L60.3503 19.8536L61.1264 19.7031Z" fill="#30695F"></path> <path d="M75.945 26.4808L75.1079 26.4671L74.4043 24.5096L70.6488 24.4487L69.882 26.3824L69.0449 26.3687L72.2163 18.5L73.0307 18.5132L75.945 26.4808ZM72.6075 19.4907L70.9437 23.7067L74.1336 23.7585L72.6075 19.4907Z" fill="#30695F"></path> <path d="M87.136 20.4878L88.0949 20.7098L86.308 28.4248L85.5366 28.2461L87.0528 21.6994L83.306 25.5928L83.1958 25.5673L81.5421 20.4231L80.0259 26.9698L79.2544 26.7912L81.0412 19.0762L82.0001 19.2982L83.5725 24.1913L87.136 20.4878Z" fill="#30695F"></path> <path d="M97.9903 24.8948L98.7943 25.288L94.1627 28.2337L92.734 31.1559L92.0212 30.8074L93.4597 27.8649L92.9399 22.4258L93.7441 22.819L94.1649 27.3517L97.9903 24.8948Z" fill="#30695F"></path> <path d="M106.954 39.7935L111.468 35.1505L112.038 35.7049L106.495 41.4067L106.006 40.9316L107.343 33.2002L102.829 37.8431L102.259 37.2887L107.802 31.5869L108.291 32.0621L106.954 39.7935Z" fill="#30695F"></path> <path d="M112.47 49.673L112.004 48.9776L113.21 47.2834L111.119 44.1634L109.093 44.6359L108.627 43.9404L116.9 42.0596L117.353 42.7362L112.47 49.673ZM116.309 42.9458L111.897 43.9826L113.673 46.6328L116.309 42.9458Z" fill="#30695F"></path> <path d="M113.894 52.703L121.08 49.375L121.414 50.0936L114.228 53.4216L113.894 52.703Z" fill="#30695F"></path> <path d="M123.606 55.7013L116.742 57.778L117.789 61.2432L117.075 61.4593L115.797 57.2362L123.377 54.9434L123.606 55.7013Z" fill="#30695F"></path> <path d="M117.862 67.1074C117.778 66.3882 117.875 65.7505 118.152 65.1942C118.437 64.6447 118.868 64.2337 119.443 63.9614L119.915 64.5897C119.437 64.7898 119.085 65.0966 118.861 65.5101C118.636 65.9312 118.559 66.4376 118.628 67.0294C118.696 67.6062 118.876 68.0445 119.168 68.3444C119.462 68.6443 119.825 68.7689 120.261 68.7181C120.672 68.67 120.966 68.4839 121.141 68.1598C121.316 67.8431 121.476 67.3233 121.619 66.6004C121.799 65.7365 121.953 65.1718 122.082 64.9062C122.372 64.2649 122.857 63.9045 123.538 63.8249C124.205 63.7471 124.757 63.918 125.193 64.3378C125.636 64.7493 125.898 65.2997 125.978 65.9889C126.048 66.5807 125.951 67.1234 125.69 67.6171C125.436 68.1099 125.068 68.4985 124.584 68.7827L124.136 68.163C124.963 67.702 125.323 67.007 125.214 66.0781C125.156 65.5836 124.986 65.2011 124.704 64.9303C124.431 64.6661 124.084 64.5585 123.664 64.6075C123.267 64.6539 122.991 64.8229 122.835 65.1144C122.672 65.4143 122.526 65.8832 122.396 66.5211L122.253 67.1528C122.231 67.2845 122.184 67.4722 122.114 67.7158C122.046 67.9819 121.984 68.1676 121.928 68.2728C121.735 68.6978 121.543 68.9746 121.353 69.1031C121.075 69.3253 120.749 69.4583 120.374 69.502C119.708 69.58 119.144 69.399 118.683 68.9593C118.229 68.5187 117.955 67.9014 117.862 67.1074Z" fill="#30695F"></path> <path d="M120.573 79.7975C120.621 79.4843 120.77 79.2322 121.02 79.0413C121.276 78.859 121.561 78.7915 121.874 78.8389C122.181 78.8853 122.425 79.033 122.608 79.2819C122.791 79.5384 122.858 79.8232 122.811 80.1364C122.764 80.4422 122.617 80.6868 122.368 80.8703C122.119 81.0538 121.841 81.1223 121.536 81.076C121.223 81.0286 120.97 80.8798 120.779 80.6296C120.596 80.3806 120.527 80.1033 120.573 79.7975Z" fill="#F67C95"></path> <path d="M119.678 98.198L119.249 99.0835L112.124 95.6247L112.47 94.9119L118.515 97.8473L115.554 93.3281L115.603 93.2263L120.986 92.7591L114.941 89.8237L115.287 89.1113L122.411 92.5704L121.981 93.4556L116.861 93.8998L119.678 98.198Z" fill="#F67C95"></path> <path d="M105.994 103.806L106.519 103.154L108.496 103.802L110.852 100.878L109.798 99.084L110.323 98.4316L114.582 105.769L114.07 106.404L105.994 103.806ZM113.56 105.469L111.256 101.566L109.255 104.05L113.56 105.469Z" fill="#F67C95"></path> <path d="M102.447 112.813L104.63 115.514L104.013 116.012L99.0371 109.852L99.6533 109.354L101.978 112.232L105.322 109.53L102.997 106.652L103.614 106.155L108.59 112.316L107.974 112.813L105.791 110.111L102.447 112.813Z" fill="#F67C95"></path> <path d="M90.3467 114.706L91.0542 114.351L93.9507 120.113L94.996 112.369L95.6024 112.064L99.16 119.14L98.4525 119.496L95.5556 113.734L94.5103 121.477L93.9039 121.782L90.3467 114.706Z" fill="#F67C95"></path> <path d="M85.9571 120.521L81.1218 117.6L82.1271 117.331L86.7042 120.074L85.7113 116.37L86.4763 116.165L88.5266 123.814L87.7616 124.019L86.8243 120.522L84.2867 124.951L83.2814 125.22L85.9571 120.521Z" fill="#F67C95"></path> <path d="M71.6878 126.324C70.5415 126.342 69.566 125.959 68.7612 125.172C67.9566 124.394 67.545 123.434 67.5265 122.295C67.5082 121.165 67.8883 120.189 68.667 119.369C69.446 118.564 70.4086 118.153 71.5549 118.134C72.6483 118.116 73.5894 118.471 74.3781 119.197C75.1518 119.924 75.5775 120.826 75.6554 121.903L77.1372 121.88L77.0771 118.18L77.869 118.168L77.9975 126.086L77.2056 126.099L77.1493 122.626L75.6562 122.651C75.5449 123.693 75.1215 124.56 74.3859 125.25C73.6429 125.949 72.7435 126.307 71.6878 126.324ZM74.9243 122.175C74.9092 121.24 74.5796 120.457 73.9358 119.827C73.2919 119.196 72.5025 118.889 71.5673 118.904C70.6323 118.919 69.8532 119.252 69.2301 119.903C68.6071 120.555 68.3031 121.348 68.3184 122.283C68.3334 123.21 68.6629 123.989 69.3067 124.621C69.9507 125.259 70.7402 125.57 71.6753 125.555C72.6104 125.54 73.3894 125.203 74.0123 124.544C74.6354 123.893 74.9394 123.103 74.9243 122.175Z" fill="#F67C95"></path> <path d="M61.9647 125.221L59.2167 124.552C58.5279 124.384 58.0089 124.013 57.6597 123.439C57.3105 122.865 57.2198 122.233 57.3876 121.545C57.5554 120.856 57.9263 120.337 58.5005 119.988C59.0746 119.639 59.706 119.547 60.3948 119.716L62.3733 120.198L63.0694 117.34L63.8389 117.527L61.9647 125.221ZM62.1966 120.923L60.2181 120.441C59.7418 120.325 59.3114 120.387 58.9269 120.627C58.535 120.866 58.2784 121.234 58.157 121.732C58.0374 122.223 58.0968 122.665 58.3351 123.056C58.5643 123.453 58.9172 123.711 59.3934 123.826L61.3719 124.308L62.1966 120.923Z" fill="#F67C95"></path> <path d="M45.535 109.742L46.207 110.161L42.7951 115.633L49.9509 112.496L50.5269 112.855L46.3369 119.575L45.6649 119.155L49.0768 113.684L41.921 116.821L41.345 116.462L45.535 109.742Z" fill="#F67C95"></path> <path d="M32.5273 108.551L28.9453 104.173L35.0745 99.1582L35.5759 99.7714L30.0247 104.313L32.6037 107.466L38.1549 102.923L38.6564 103.536L32.5273 108.551Z" fill="#F67C95"></path> <path d="M29.2352 96.7162L31.7721 95.3669L29.9657 91.9708L30.6249 91.6201L32.8032 95.7154L25.8117 99.4344L23.6599 95.3888L24.3191 95.0381L26.0989 98.3845L28.576 97.0669L26.9289 93.9709L27.5882 93.6202L29.2352 96.7162Z" fill="#F67C95"></path> <path d="M20.0007 85.0772L26.8786 83.0425L26.6379 82.2288L28.8075 81.5869L29.0322 82.3463L27.5785 82.7764L29.1832 88.2006L30.6369 87.7705L30.8615 88.5299L28.6918 89.1718L28.5089 88.5534C27.7755 88.2276 26.7976 88.2456 25.5754 88.6072L21.4096 89.8395L20.0007 85.0772ZM28.2425 87.653L27.1032 83.8018L20.9414 85.6247L21.901 88.8683L25.3724 87.8414C26.5657 87.4884 27.5224 87.4255 28.2425 87.653Z" fill="#F67C95"></path> <path d="M26.3383 72.5791L26.3938 73.371L19.9453 73.8224L26.7026 77.7831L26.7501 78.4619L18.831 79.0163L18.7756 78.2243L25.224 77.773L18.4667 73.8122L18.4192 73.1334L26.3383 72.5791Z" fill="#F67C95"></path> <path d="M22.7482 66.3069L27.3098 62.9752L27.17 64.0066L22.8712 67.1684L26.6716 67.6836L26.5652 68.4684L18.7178 67.4046L18.8242 66.6198L22.4115 67.1061L19.3074 63.0548L19.4472 62.0234L22.7482 66.3069Z" fill="#F67C95"></path> <path d="M22.8307 50.7946C23.2643 49.7333 24.0009 48.9873 25.0405 48.5567C26.0731 48.1231 27.1166 48.1217 28.1708 48.5525C29.2181 48.9804 29.9655 49.7135 30.413 50.7519C30.8465 51.7844 30.8464 52.8314 30.4129 53.8926C29.9992 54.905 29.3033 55.6309 28.3253 56.0705C27.353 56.4961 26.3562 56.5328 25.335 56.1807L24.7744 57.5526L28.199 58.9519L27.8995 59.685L20.5686 56.6896L20.8681 55.9565L24.0832 57.2702L24.6481 55.8878C23.7331 55.3755 23.1026 54.6453 22.7567 53.6973C22.4066 52.7396 22.4313 51.772 22.8307 50.7946ZM25.3723 55.4016C26.238 55.7554 27.0874 55.7602 27.9205 55.4162C28.7536 55.0723 29.347 54.4674 29.7007 53.6016C30.0545 52.7359 30.0545 51.8885 29.7006 51.0596C29.3468 50.2306 28.737 49.6393 27.8713 49.2856C27.0125 48.9347 26.1666 48.9312 25.3336 49.2752C24.4935 49.6163 23.8966 50.2198 23.5428 51.0855C23.1891 51.9513 23.1926 52.8 23.5534 53.6318C23.9072 54.4608 24.5135 55.0507 25.3723 55.4016Z" fill="#F67C95"></path> <path d="M27.6621 42.3849L29.3408 40.1087C29.7616 39.5381 30.3042 39.2026 30.9686 39.1022C31.6331 39.0019 32.2506 39.1621 32.8211 39.5829C33.3917 40.0037 33.7271 40.5463 33.8275 41.2107C33.9279 41.8752 33.7677 42.4926 33.347 43.0632L32.1383 44.7021L34.5055 46.4479L34.0355 47.0852L27.6621 42.3849ZM31.5373 44.2589L32.746 42.62C33.037 42.2255 33.146 41.8045 33.0729 41.3571C33.0045 40.9036 32.7638 40.5246 32.3511 40.2202C31.9444 39.9203 31.5143 39.8046 31.0608 39.8731C30.6057 39.931 30.2327 40.1573 29.9417 40.5518L28.7331 42.1907L31.5373 44.2589Z" fill="#F67C95"></path> <path d="M42.383 33.9204C42.1335 34.1155 41.8522 34.1967 41.5392 34.1637C41.2275 34.1203 40.9741 33.9738 40.779 33.7243C40.5885 33.4807 40.512 33.2054 40.5496 32.8984C40.593 32.5867 40.7395 32.3333 40.989 32.1382C41.2326 31.9477 41.5079 31.8712 41.8149 31.9087C42.1219 31.9462 42.3707 32.0868 42.5613 32.3303C42.7564 32.5798 42.8375 32.8611 42.8046 33.1741C42.7671 33.4811 42.6265 33.7298 42.383 33.9204Z" fill="#F67C95"></path> <circle cx="72.5" cy="71.5" r="16.5" fill="#F67C95"></circle> </svg> 