<?xml version="1.0" encoding="UTF-8"?> <svg xmlns="http://www.w3.org/2000/svg" width="160" height="124" viewBox="0 0 160 124" fill="none"> <path d="M112.999 12.7291C112.726 12.5776 112.438 12.426 112.165 12.2745C112.695 10.5164 112.286 8.47036 110.346 7.13665C103.36 2.34743 95.0996 0.680294 86.764 0.271088C80.0045 -0.0623369 68.6377 -1.47182 67.8799 7.97022C67.1676 16.7 76.8672 19.8675 83.6873 21.3528C92.9475 23.3685 102.374 23.2472 111.604 21.1406C115.378 20.2464 116.56 14.7449 112.999 12.7291Z" fill="#F5E1B4"></path> <path d="M46.9933 17.0172C46.9933 15.2289 46.0991 13.4102 43.9773 12.5766C33.8684 8.63608 23.123 6.93864 12.2866 7.62065C8.70979 7.84798 5.48161 12.4099 8.75526 15.3653C18.4702 24.1253 31.6254 27.6566 44.3714 24.3678C47.3267 23.61 49.3425 19.4725 46.9933 17.0172Z" fill="#F5E1B4"></path> <path d="M72.4255 115.788C72.2739 114.727 71.895 113.818 71.3494 113.014C72.0011 110.817 71.2282 108.301 68.3334 107.649C63.6655 106.603 58.9217 105.8 54.1476 105.361C49.9343 104.982 44.4176 104.027 41.1137 107.392C38.5523 109.998 38.4008 114.166 40.2498 117.212C42.5232 120.956 46.7971 122.077 50.8437 122.653C56.2391 123.411 73.7895 125.275 72.4255 115.788Z" fill="#F5E1B4"></path> <path d="M99.3733 67.2002C103.677 67.1548 105.239 59.9861 100.358 58.0916C93.0684 55.2575 62.7266 47.2249 65.6971 63.7296C68.1675 77.4304 88.3247 78.0972 98.2517 74.3083C101.328 73.1565 101.101 69.3524 99.3733 67.2002ZM75.2301 62.7748C75.321 62.5929 75.897 62.5323 76.7305 62.5474C76.3971 62.896 76.1091 63.3052 75.897 63.7296C75.806 63.6386 75.6848 63.5629 75.5938 63.4568C74.7754 62.6232 74.6542 62.3807 75.2301 62.7748Z" fill="#F5E1B4"></path> <path d="M158.556 53.4676C155.237 48.6026 150.28 45.1319 144.794 43.7679C144.385 42.6161 143.445 41.6764 141.824 41.3127C137.14 40.2518 130.654 39.494 126.486 42.4342C122.485 45.2532 123.167 50.3758 126.41 53.5434C133.548 60.5302 146.219 61.7578 155.51 60.1058C158.207 59.6208 160.223 55.9077 158.556 53.4676Z" fill="#F5E1B4"></path> <path d="M148.963 107.149C150.615 102.102 146.872 98.4493 142.37 97.1156C129.973 93.4479 116.196 93.3721 103.465 94.7058C97.585 95.312 99.6613 104.269 105.466 103.678C106.451 103.572 107.436 103.496 108.437 103.42C109.391 112.847 129.806 113.575 136.444 113.514C141.385 113.453 147.19 112.559 148.963 107.149Z" fill="#F5E1B4"></path> <path d="M35.5519 63.5456C32.0661 60.9388 28.0346 59.3171 23.8365 58.7109C23.5334 57.3166 22.6089 56.0435 20.8811 55.4372C14.6673 53.2245 8.37765 53.6943 2.40627 56.3769C-0.306608 57.5894 -0.761281 61.5753 1.22412 63.591C9.72651 72.2298 22.5179 75.6702 34.1272 71.9419C38.0829 70.6688 38.871 66.016 35.5519 63.5456Z" fill="#F5E1B4"></path> </svg> 