<?xml version="1.0" encoding="UTF-8"?> <svg xmlns="http://www.w3.org/2000/svg" width="458" height="374" viewBox="0 0 458 374" fill="none"> <path d="M276.741 116.019C275.235 113.8 273.573 111.683 271.526 109.894C270.076 108.681 268.312 107.673 265.973 108.307C265.592 108.408 265.395 108.909 265.34 109.168C264.848 114.853 268.378 119.174 270.837 123.676C273.681 128.892 276.161 134.345 278.157 139.969C281.849 150.069 283.725 160.46 285.047 171.141C286.374 181.372 288.57 191.109 292.931 200.4C299.386 214.204 308.866 226.482 319.27 238.004C309.643 236.549 299.816 237.087 290.068 238.094C280.493 239.138 270.811 240.249 261.178 241.777C251.821 243.275 242.731 245.416 233.484 247.66C224.704 249.821 215.718 251.894 206.358 252.351C196.978 252.893 187.364 251.803 177.92 253.281C177.453 253.363 177.361 255.062 177.686 255.221C182.567 258.066 189.219 258.708 195.11 259.551C201.002 260.394 206.982 261.03 212.931 261.388C223.12 262.102 233.627 262.387 243.453 260.809C253.587 259.251 261.853 254.221 271.367 251.355C276.516 249.78 281.813 248.552 287.024 247.306C292.099 246.077 297.19 244.76 302.298 243.583C310.14 241.81 319.663 240.801 326.377 245.797C327.109 246.585 327.841 247.374 328.573 248.162C329.236 248.846 329.724 248.452 329.853 247.846L331.396 248.626C332.027 249.256 332.69 249.94 333.32 250.571C334.392 251.658 335.071 249.947 334.254 249.141C325.652 240.759 317.822 231.501 311.957 221.258C306.63 212.078 303.554 202.245 301.902 191.856C300.388 181.451 299.843 170.708 297.362 160.414C294.901 149.807 290.202 139.993 285.067 130.537C282.391 125.583 279.853 120.613 276.741 116.019ZM320.579 239.457C320.767 239.634 320.936 239.895 321.123 240.069L320.561 239.544C320.561 239.544 320.528 239.491 320.579 239.457Z" fill="#EDE1E4"></path> <path d="M296.505 222.863C296.64 223.073 296.794 223.196 296.93 223.404C293.719 220.96 289.998 219.221 285.99 218.19L284.964 217.52C285.434 217.213 285.751 216.782 285.562 216.607C284.18 215.499 282.674 214.547 281.117 213.628L281.534 213.355C281.722 213.531 281.824 213.688 282.01 213.864C282.199 214.039 283.001 212.174 282.643 211.737C273.801 202.173 265.933 191.822 259.457 180.86C247.529 160.875 241.918 138.25 232.701 116.94C228.352 106.748 222.895 96.9078 215.468 88.5039C211.763 84.3706 207.621 80.5973 202.848 77.4606C200.556 75.978 198.193 74.6178 195.673 73.3603C193.632 72.3846 191.251 71.1097 188.387 72.3115C187.745 72.5823 187.324 74.3466 187.594 74.7664C190.925 79.8145 196.751 82.8586 202.073 86.1594C207.223 89.4227 211.556 93.1449 214.7 98.0169C220.276 106.663 222.554 116.867 225.89 126.529C229.642 137.409 235.268 147.511 240.513 157.713C245.928 168.177 251.08 178.813 257.744 188.683C260.992 193.488 264.502 198.12 268.306 202.636C264.446 199.647 260.639 196.623 256.988 193.497C251.436 188.112 246.894 181.994 242.996 175.605C238.42 168.168 234.696 160.323 230.676 152.597C226.27 144.156 221.307 136.003 216.188 127.953C211.153 120.146 206.239 112.185 199.74 105.335C192.933 98.2384 184.084 92.9232 173.599 89.7945C173.307 89.6874 173.098 89.8238 172.818 90.0811C170.894 91.9349 171.435 94.0386 172.643 95.3347C174.668 97.4372 177.129 99.1814 179.485 100.993C184.268 104.72 188.563 108.616 192.158 113.268C198.212 121.154 202.439 130.011 207.329 138.508C212.352 147.217 218.037 155.568 224.453 163.44C233.702 174.899 244.239 185.592 255.843 195.288C257.597 196.973 259.438 198.673 261.453 200.187C261.573 200.257 261.744 200.294 261.849 200.225C264.375 202.298 266.919 204.286 269.516 206.239C269.944 206.556 270.454 205.85 270.635 205.21C272.487 207.276 274.374 209.395 276.332 211.392C275.165 210.964 273.978 210.622 272.739 210.314C272.055 209.942 271.318 209.605 270.613 209.321L264.138 204.464C264.284 203.998 263.932 203.11 263.383 202.947C254.589 199.907 244.96 199.717 235.352 200.709C226.467 201.673 217.622 203.504 208.732 204.919C198.665 206.582 188.416 207.619 178.156 208.291C156.835 210.008 135.484 210.181 113.902 210.803C112.9 210.862 112.992 211.695 113.401 212.098C116.925 215.604 123.8 215.209 129.494 215.286C135.671 215.421 141.9 215.522 148.076 215.656C169.797 216.285 191.489 216.41 212.782 214.19C217.966 213.707 223.187 213.051 228.307 212.238C230.815 211.866 233.288 211.44 235.814 210.981C233.566 211.409 231.331 211.975 229.131 212.594C223.916 214.065 218.817 215.832 213.519 217.059C208.498 218.255 203.43 219.034 198.262 219.656C187.595 220.965 176.815 221.753 165.918 222.245C156.005 222.765 145.467 222.202 135.593 224.856C135.074 224.972 133.562 225.736 133.952 226.226C137.059 230.005 145.024 229.344 150.408 229.401C157.052 229.454 163.733 229.333 170.38 229.161C182.309 228.888 194.122 228.32 205.849 227.732C217.004 227.295 227.904 226.578 238.619 224.193C249.073 221.979 259.421 218.794 270.093 218.299C278.382 218.023 287.025 219.45 293.644 223.839C287.751 223.221 281.297 224.384 275.676 225.226C264.918 226.969 253.969 228.761 242.943 229.859C232.728 230.948 222.35 231.323 211.992 231.613C191.632 232.403 170.705 233.119 150.322 238.246C149.507 238.48 148.508 239.579 149.642 239.956C155.088 241.834 161.049 242.556 167.051 242.88C173.172 243.274 179.331 243.496 185.403 243.699C196.201 244.09 206.77 243.665 217.351 242.337C228.103 241.046 238.708 239.18 249.258 237.575C259.893 235.987 270.492 234.573 280.974 232.862C285.765 232.115 290.458 230.985 295.246 230.464C298.235 230.148 301.342 230.129 304.055 231.112C304.089 231.164 304.123 231.218 304.157 231.269C304.413 231.549 304.79 231.675 305.171 231.575C305.942 231.963 306.662 232.388 307.343 232.984C308.026 233.583 309.176 232.832 309.289 232.087C309.664 232.438 310.005 232.737 310.433 233.052C311.114 233.648 312.091 231.596 311.476 231.104C301.699 222.97 293.706 212.999 288.545 201.774C283.984 191.944 281.523 181.338 278.63 170.864C275.785 160.584 272.231 150.469 267.928 140.693C263.626 130.917 258.492 121.462 252.659 112.538C249.735 108.118 246.686 103.854 243.395 99.6735C240.273 95.756 236.463 91.6917 230.219 91.4516C229.321 91.4429 228.869 92.9297 228.845 93.4665C229.115 98.9501 231.85 103.42 234.864 107.632C238.352 112.577 241.806 117.469 244.685 122.739C254.803 141.301 258.327 162.532 267.665 181.382C272.502 191.18 279.215 199.977 285.982 208.736C289.419 213.491 292.963 218.177 296.505 222.863ZM244.255 209.561C244.308 209.528 244.308 209.528 244.395 209.546C248.614 208.949 253.002 208.614 257.246 208.745C252.931 208.734 248.594 209.035 244.255 209.561Z" fill="#EDE1E4"></path> <path d="M174 108.376C169.387 102.378 165.017 95.0303 156.161 92.699C155.353 92.4826 153.795 94.0972 154.028 94.6894C157.159 101.73 162.952 107.253 167.579 113.391C169.715 116.24 171.451 119.277 172.822 122.552C174.226 125.88 175.335 129.326 176.825 132.672C179.621 138.963 183.216 144.881 187.419 150.476C194.201 159.377 202.566 167.391 212.224 174.188C204.726 172.236 196.549 171.993 188.359 172.652C172.358 174.096 156.519 178.785 140.263 181.215C131.754 182.53 123.41 183.066 115.009 182.821C105.916 182.656 96.8625 182.092 87.7203 181.735C86.737 181.707 85.5569 183.447 86.3803 183.802C96.349 188.088 108.303 189.81 120.269 190.63C129.82 191.39 139.669 191.806 149.42 190.574C158.962 189.478 167.996 186.33 177.062 183.46C186.266 180.574 195.427 178.312 204.934 178.43C214.114 178.614 222.782 180.769 230.166 184.732C230.493 184.892 231.067 184.517 231.403 184L231.436 184.052C232.017 184.492 234.927 183.708 234.345 183.268C227.308 177.886 219.024 171.607 212.477 165.83C206.592 160.738 201.144 155.287 196.826 149.17C192.288 142.826 189.814 135.654 186.65 128.56C183.436 121.276 178.867 114.655 174 108.376ZM222.051 178.715C221.673 178.589 221.295 178.464 220.865 178.373C220.917 178.339 220.969 178.304 220.936 178.252L222.051 178.715ZM213.183 174.753C214.516 175.669 215.85 176.585 217.236 177.467L212.878 175.548C213.02 175.307 213.18 174.979 213.183 174.753Z" fill="#EDE1E4"></path> <path d="M160.275 127.622C163.323 133.153 165.92 138.904 169.419 144.214C172.648 149.105 176.609 153.518 181.249 157.487C182.463 158.332 183.643 159.125 184.805 160.005C185.232 160.321 185.656 160.863 185.493 161.417C185.456 161.59 185.333 161.745 185.176 161.847C185.05 162.227 184.651 162.414 184.07 161.974C182.875 161.042 181.765 160.129 180.622 159.163C171.287 152.75 162.022 146.218 154.604 138.403C146.096 129.589 141.364 118.455 131.094 110.941C125.216 106.663 118.479 103.246 113.142 98.5407C112.801 98.2416 112.272 96.5024 113.581 96.6895C128.169 98.9242 140.636 104.781 149.615 113.287C153.942 117.461 157.395 122.354 160.275 127.622Z" fill="#EDE1E4"></path> <path d="M119.694 123.083C125.219 126.697 130.203 130.739 135.24 134.747C140.924 139.299 149.326 145.875 157.426 147.955C158.234 148.172 154.922 148.102 154.199 147.904C153.735 147.76 153.305 147.669 152.841 147.525L150.672 148.421C150.653 148.508 150.601 148.542 150.635 148.594C152.525 149.222 154.381 149.796 156.289 150.337C156.667 150.462 156.593 150.808 156.295 151.152C159.638 151.499 162.982 151.847 166.378 152.16C167.342 152.275 165.385 154.075 164.454 154.013C133.561 151.484 102.791 147.534 72.6635 142.046C68.4442 141.377 64.2249 140.708 60.0765 139.918C56.3583 139.22 52.7136 138.176 50.4828 135.984C49.9204 135.458 51.6292 134.192 52.4588 134.097C67.1941 131.842 81.6281 131.422 95.0693 132.917C106.51 134.304 116.841 137.31 126.979 140.591C123.885 138.442 120.947 136.191 118.009 133.94C113.329 130.37 108.545 126.867 103.253 123.846C97.8418 120.753 92.0801 118.038 86.1432 115.513C79.3304 112.665 72.2718 110.128 65.2133 107.59C64.8537 107.378 65.1919 106.636 65.2994 106.342C66.2982 103.977 68.9779 103.641 71.1812 104.063C74.8474 104.795 78.4427 105.649 81.9674 106.623C88.897 108.5 95.5099 110.807 101.807 113.545C108.137 116.335 114.117 119.503 119.694 123.083Z" fill="#EDE1E4"></path> <path d="M175.13 158.358L188.024 164.53C190.639 165.13 193.079 165.919 195.43 166.916C195.43 166.916 193.613 168.475 192.996 168.208C186.235 165.327 178.209 164.166 170.001 164.912C161.74 165.692 153.692 168.642 145.401 170.411C137.143 172.231 129.067 172.146 120.998 171.609C111.997 171.011 102.981 170.274 94.0537 169.33C85.1604 168.438 76.255 167.182 68.631 164.343C66.9654 163.719 65.1801 163.023 63.6221 162.105C62.6633 161.54 61.5018 160.66 61.7078 159.483C62.1873 157.233 66.5324 156.256 68.7758 156.28C72.8322 156.236 76.4429 157.228 79.9154 158.236C83.9379 159.406 87.9634 160.35 92.3918 160.883C100.575 161.941 109.259 161.703 117.898 161.048C137.522 159.695 157.408 155.638 176.021 157.552C176.107 157.57 175.671 157.93 175.13 158.358Z" fill="#EDE1E4"></path> <path d="M195.264 185.195C203.324 183.876 211.277 184.116 219.123 184.65C228.053 185.369 236.924 186.572 244.767 189.865C245.058 189.972 244.93 190.578 244.766 191.13L246.186 192.064C248.853 192.63 251.358 193.749 253.49 195.558C253.865 195.909 253.064 197.774 253.03 197.723C246.992 192.506 237.486 193.429 229.367 195.234C221.039 197.176 212.831 199.187 204.304 200.589C187.316 203.497 169.815 204.803 152.455 204.602C141.86 204.525 130.923 204.149 121.965 200.395C121.64 200.235 121.821 198.329 122.184 198.316C138.824 196.827 155.532 195.442 171.638 191.398C179.57 189.418 187.237 186.567 195.264 185.195Z" fill="#EDE1E4"></path> <path d="M197.395 269.08C197.279 268.784 197.183 268.176 197.77 268.165C218.411 268.157 239.228 271.759 258.911 268.655C267.868 267.344 275.749 264.133 283.361 260.276C290.921 256.453 298.4 252.161 306.836 249.927C316.119 247.509 326.103 248.135 335.149 251.683C335.648 251.878 335.965 252.715 335.973 253.304L336.503 253.779C337.36 254.187 338.285 254.699 339.157 255.246C339.79 255.652 340.174 257.858 339.268 257.259C330.678 251.774 320.145 253.519 311.589 256.949C301.473 260.953 292.149 266.301 282.254 270.533C273.695 274.189 264.549 276.589 254.786 277.457C245.558 278.348 235.983 278.126 226.472 276.967C220.941 276.337 215.464 275.446 210.009 274.243C207.428 273.695 204.9 273.114 202.388 272.445C200.118 271.919 197.939 270.959 197.395 269.08Z" fill="#EDE1E4"></path> <path d="M233.767 283.671C249.261 285.24 263.508 280.846 276.842 276.304C284.835 273.614 292.793 270.87 300.735 268.214C308.242 265.692 315.615 262.96 323.306 260.838C329.232 259.201 335.408 258.07 341.6 258.343C335.66 249.711 329.982 240.911 324.703 231.922C319.98 223.91 315.43 215.935 313.552 206.81C310.385 191.079 313.659 173.821 308.054 158.343C306.441 153.884 303.978 149.835 301.461 145.82C300.195 143.741 298.928 141.664 297.853 139.537C296.996 137.863 295.576 135.662 296.02 133.586C296.44 131.821 298.403 130.836 300.036 131.408C302.25 132.195 303.984 134.191 305.324 135.921C308.157 139.507 310.553 143.451 312.568 147.498C320.645 164.044 323.028 182.819 325.663 200.833C328.49 218.796 331.881 237.062 341.364 252.912C342.529 254.832 343.778 256.77 345.101 258.588L345.134 258.641C345.306 258.677 345.479 258.714 345.703 258.716C340.092 248.752 336.771 237.963 335.406 226.641C334.558 219.226 334.265 211.747 333.573 204.229C332.836 196.295 331.598 188.389 330.135 180.483C328.486 171.133 326.646 161.834 324.909 152.468C324.83 151.999 326.318 150.505 326.782 150.648C334.678 153.681 336.239 163.237 337.778 170.573C339.483 178.396 340.775 186.267 341.702 194.151C342.697 202.14 343.365 210.195 343.634 218.212C343.952 226.419 343.669 234.498 345.891 242.432C347.981 249.929 352.245 259.878 354.819 267.207C354.896 266.635 353.352 263.549 353.375 263.012C349.898 252.326 348.497 241.176 347.84 229.912C347.153 215.838 346.796 201.472 347.442 187.048C347.615 183.286 347.892 179.456 348.255 175.645C348.433 173.964 348.525 172.264 348.842 170.567C349.029 169.476 349.447 167.938 350.68 167.431C351.86 166.958 352.602 168.11 353.248 168.879C354.268 170.001 355.08 171.26 355.7 172.566C357.028 175.199 357.714 178.103 358.122 181.038C359.065 187.796 358.797 194.748 358.706 201.511C358.675 208.605 358.51 215.715 358.223 222.754C357.706 236.572 356.711 250.107 355.183 263.395C355.072 268.979 356.055 269.007 356.59 270.296C357.072 271.619 355.672 269.333 355.155 267.957L354.669 268.125C354.685 268.264 354.613 268.384 354.629 268.523L356.567 270.607C357.7 271.21 358.846 271.951 359.905 272.672C360.999 273.447 359.785 275.134 358.606 274.341C351.971 269.814 343.889 267.647 336.169 267.998C332.267 268.166 328.441 269.027 324.953 270.413C320.823 272.068 317.369 274.773 313.305 276.533C309.192 278.329 304.538 279.06 300.119 280.383C295.667 281.655 291.33 283.221 287.012 284.702C278.812 287.53 270.351 290.302 261.143 290.881C251.729 291.597 241.58 290.258 233.225 285.365C232.23 284.973 232.611 283.607 233.767 283.671Z" fill="#EDE1E4"></path> <path d="M126.789 136.631C129.337 137.126 131.795 137.828 134.097 138.633C171.184 152.606 198.444 164.585 233.153 182.124C250.367 191.655 267.213 201.65 283.656 212.056C299.663 222.823 315.424 233.9 330.499 245.872C346.761 259.451 362.057 274.182 375.188 290.85C376.205 292.197 374.319 296.409 373.215 295.044C349.354 265.427 318.536 242.293 287.39 220.491C254.245 199.622 219.435 180.66 183.012 163.572C161.888 154.659 145.144 147.353 123.108 139.558C121.544 139.09 121.71 135.779 126.789 136.631Z" fill="#EDE1E4"></path> </svg> 