<?xml version="1.0" encoding="UTF-8"?> <svg xmlns="http://www.w3.org/2000/svg" width="365" height="308" viewBox="0 0 365 308" fill="none"> <g clip-path="url(#clip0_1229_1237)"> <path d="M329.285 307.534C353.286 281.131 367.528 161.963 364.627 114.877C362.517 80.7286 331.571 59.8699 296.933 57.5816C252.185 54.5012 231.261 58.4617 171.04 25.6334C127.522 1.87031 23.7829 -0.506019 6.81537 76.9441C-6.45972 137.408 31.5193 321 31.5193 321L329.285 307.534Z" fill="#E6F7E5"></path> <path d="M52.9904 60.765C52.1288 59.3217 51.2401 57.9139 50.3784 56.4706C49.569 55.1794 48.9051 53.5505 47.7271 52.5951C47.3643 52.262 46.0453 52.1526 46.1813 52.9297C46.4012 54.3318 47.6733 55.7518 48.4035 56.9264C49.2922 58.3342 50.1809 59.742 51.0426 61.1853C51.5536 61.9121 53.633 61.7605 52.9904 60.765Z" fill="#F8E6B1"></path> <path d="M41.083 50.4958C40.4153 49.3128 39.7747 48.0944 38.9008 47.0345C38.4065 46.4328 37.5792 46.1938 36.8375 46.3569C36.1584 46.5116 35.7796 47.0078 36.0593 47.6702C36.6374 48.897 37.5467 49.9839 38.331 51.0876C38.7273 51.6707 39.6172 51.9013 40.2964 51.7466C40.9755 51.5919 41.4523 51.1144 41.083 50.4958Z" fill="#F8E6B1"></path> <path d="M45.5166 60.7812C44.695 59.8734 43.5402 59.3284 42.3294 59.0772C41.7063 58.9381 40.7147 59.1348 40.3526 59.756C40.0176 60.3417 40.4932 61.0414 41.0352 61.2869C41.9147 61.6779 42.8401 61.9356 43.7467 62.2912C44.3157 62.5012 45.1366 62.4547 45.5947 62.0751C46.0528 61.6955 45.8878 61.1768 45.5166 60.7812Z" fill="#F8E6B1"></path> <path d="M33.6448 53.625C31.8791 52.5574 30.1424 51.2315 28.2312 50.5017C27.262 50.1545 24.9186 50.946 26.3176 52.1263C27.8938 53.4419 30.0364 54.2362 31.8207 55.2057C32.4336 55.5053 33.4401 55.6566 34.0064 55.1353C34.5373 54.5869 34.168 53.9683 33.6448 53.625Z" fill="#F8E6B1"></path> <path d="M46.8882 40.1732C46.2019 39.0882 45.5426 37.9677 44.8562 36.8827C44.2053 35.8247 43.2084 34.5586 41.7605 34.9119C40.3127 35.2652 41.041 36.6627 41.5958 37.4791C42.3531 38.6182 43.1728 39.749 43.9301 40.8881C44.3702 41.5608 45.3851 41.7746 46.0913 41.5844C46.735 41.4027 47.3284 40.8459 46.8882 40.1732Z" fill="#F8E6B1"></path> <path d="M33.7038 38.4103C32.5605 36.5276 30.9816 34.4807 29.0471 33.3404C27.9819 32.7515 25.1945 33.3163 26.6709 34.8362C27.3694 35.5378 28.1762 36.0977 28.8748 36.7993C29.5733 37.5009 30.2178 38.2734 30.7997 39.0544C31.5402 40.0685 34.6717 39.9348 33.7038 38.4103Z" fill="#F8E6B1"></path> <path d="M24.6985 41.2406C23.527 40.5706 22.3555 39.9006 21.1569 39.2661C20.4378 38.8853 18.7224 38.1928 18.1606 39.2226C17.988 39.5957 18.1008 39.9623 18.3927 40.2413C19.65 41.3133 21.4549 41.962 22.9202 42.6881C23.533 42.9876 24.4416 43.1203 24.9809 42.6344C25.591 42.2026 25.2488 41.5486 24.6985 41.2406Z" fill="#F8E6B1"></path> <path d="M57.6946 51.9581C56.8749 50.8273 56.1447 49.6527 54.9564 48.8577C54.5311 48.533 54.0059 48.4126 53.4789 48.5151C53.1122 48.6279 52.6728 48.9095 52.794 49.3386C53.1576 50.626 54.0855 51.615 54.9156 52.5853C55.3744 53.16 56.2018 53.399 56.9434 53.2359C57.4976 53.098 58.1264 52.5682 57.6946 51.9581Z" fill="#F8E6B1"></path> <path d="M36.1644 67.6665C35.185 67.4798 34.2242 67.1951 33.2821 66.8124C32.34 66.4298 31.4791 65.9408 30.4539 65.8874C29.9726 65.8565 28.9371 65.9636 29.1357 66.7323C29.447 67.8676 30.8247 68.4145 31.8293 68.7888C33.109 69.3171 34.4803 69.5785 35.8702 69.742C36.4494 69.7916 37.4849 69.6845 37.6073 68.9364C37.6942 68.1612 36.7521 67.7786 36.1644 67.6665Z" fill="#F8E6B1"></path> <path d="M24.4451 58.3265C23.8258 57.7415 23.242 57.1835 22.5957 56.634C22.162 56.2468 21.7637 55.8866 21.149 55.81C20.7301 55.7707 20.1238 55.7566 19.8532 56.111C19.6013 56.3675 19.4557 56.7052 19.6935 57.055C20.2755 57.8359 20.947 58.573 21.5559 59.3185C22.1566 60.0014 23.1528 60.3132 24.0026 60.0083C24.79 59.7118 25.0999 58.9386 24.4451 58.3265Z" fill="#F8E6B1"></path> <path d="M15.9562 44.6083C15.5683 44.0877 15.1532 43.6026 14.7028 43.0904C14.1814 42.524 13.3933 41.8662 12.5621 42.0731C10.9893 42.4432 12.9683 44.6273 13.3917 45.175C13.8151 45.7227 14.6071 45.9346 15.2862 45.7799C15.7508 45.6857 16.3796 45.156 15.9562 44.6083Z" fill="#F8E6B1"></path> <path d="M19.9411 27.1174C18.8172 26.0911 17.6933 25.0647 16.6049 24.0655C15.5165 23.0662 14.5009 21.898 13.0774 21.4845C12.3834 21.2913 10.5728 21.3114 10.8655 22.5447C11.202 23.8675 12.8007 24.6393 13.7931 25.397C15.0336 26.3441 16.3095 27.3182 17.55 28.2653C18.1525 28.7253 19.1049 28.9475 19.7859 28.5698C20.3774 28.236 20.4811 27.5858 19.9411 27.1174Z" fill="#F8E6B1"></path> <path d="M33.3957 25.4401C32.6907 24.453 31.9857 23.4659 31.2536 22.5143C30.7509 21.85 30.265 21.3107 29.3835 21.1426C28.6708 21.0473 28.1438 21.1498 27.6483 21.7253C27.4589 21.9734 27.5717 22.34 27.7032 22.6087C28.4147 23.8813 29.5199 25.0055 30.4375 26.155C30.9673 26.7838 31.8301 27.0498 32.5988 26.8513C33.2425 26.6695 33.863 26.0773 33.3957 25.4401Z" fill="#F8E6B1"></path> <path d="M58.3282 41.502C57.8946 41.1147 57.4609 40.7275 57.0001 40.3758C56.3976 39.9158 55.4452 39.6936 54.7642 40.0712C54.1102 40.4134 54.0336 41.0282 54.5465 41.532C54.9531 41.9547 55.3514 42.3148 55.8121 42.6666C56.4147 43.1266 57.3671 43.3488 58.0835 42.9982C58.8 42.6476 58.8766 42.0329 58.3282 41.502Z" fill="#F8E6B1"></path> <path d="M8.70132 31.5518C8.44484 31.2999 8.15292 31.021 7.89643 30.769C7.49818 30.4089 6.78551 30.3136 6.32932 30.4702C5.87313 30.6269 5.63799 31.0083 5.85711 31.4561C6.02403 31.7519 6.1639 32.0831 6.33082 32.3788C6.46229 32.6475 6.83539 32.8201 7.13761 32.9387C7.53777 33.0759 8.01911 33.1068 8.41279 32.9585C9.02105 32.7497 9.24973 32.0827 8.70132 31.5518Z" fill="#F8E6B1"></path> <path d="M70.3025 49.1854C69.7727 48.5565 69.2701 47.8922 68.7944 47.1925C68.275 46.4032 67.8535 45.6326 67.1633 44.9935C66.7651 44.6334 66.142 44.4942 65.5795 44.5697C65.2045 44.62 64.5337 44.8372 64.5653 45.3102C64.5474 46.3624 65.1377 47.2058 65.7551 48.0138C66.3725 48.8217 67.0524 49.6213 67.7864 50.35C68.7498 51.366 71.6538 50.722 70.3025 49.1854Z" fill="#F8E6B1"></path> <path d="M12.3227 50.2494C11.6969 49.3789 11.0712 48.5085 10.3829 47.6464C9.95951 47.0988 9.53611 46.5511 8.90462 46.3495C8.27312 46.1478 7.44383 46.1318 6.93162 46.5823C6.59014 46.8826 6.52381 47.3369 6.76162 47.6867C7.51886 48.8259 8.39272 49.8858 9.26658 50.9456C9.76925 51.6099 10.6946 51.8676 11.5258 51.6606C12.1154 51.5497 12.8254 50.9137 12.3227 50.2494Z" fill="#F8E6B1"></path> </g> <g clip-path="url(#clip1_1229_1237)"> <path d="M192.496 291.755C194.776 293.762 216.02 312.557 238.267 306.717C248.296 304.072 257.505 296.681 260.149 294.492C265.802 289.747 269.632 284.912 272.185 281.262C261.973 284.091 253.767 286.463 247.567 288.47C247.567 288.47 245.379 289.2 234.802 290.021C233.708 290.112 231.52 290.295 230.243 288.926C229.605 288.196 229.24 287.101 229.514 286.189C230.243 283.634 236.717 283.635 244.285 282.905C253.858 281.992 258.69 281.536 263.887 279.438C266.167 278.525 275.558 274.693 280.026 265.113C282.123 260.734 282.305 256.902 282.396 253.617C282.852 242.122 278.476 232.633 274.92 226.885C265.893 244.038 256.046 254.712 249.39 260.734C243.737 265.934 237.993 270.04 231.429 269.401C230.973 269.31 223.405 268.58 222.037 264.019C221.399 261.738 222.493 259.548 223.04 258.544C225.867 253.344 231.52 251.519 234.985 250.15C245.379 246.136 252.217 240.844 260.149 234.731C271.364 226.064 272.276 221.32 272.458 219.677C273.096 214.568 270.543 209.732 269.996 208.638C268.446 205.627 266.532 203.62 263.34 200.882C259.602 197.689 254.223 193.492 246.837 189.295C244.285 196.047 240.455 206.083 235.44 218.4C230.608 230.534 227.235 238.563 219.302 245.589C217.114 247.505 210.823 253.07 206.993 251.154C204.532 249.877 204.258 246.136 204.258 245.862C203.985 241.209 207.814 237.742 211.005 234.549C213.832 231.721 217.752 226.611 225.593 216.393C232.614 207.36 236.079 202.798 237.993 195.956C238.996 192.306 241.458 183.547 237.446 174.606C233.982 167.033 227.69 163.384 220.943 159.461C213.102 154.899 205.808 153.074 200.976 152.162C202.89 163.293 203.529 172.781 203.711 179.807C203.985 188.474 203.255 195.499 201.887 209.55C200.976 218.582 200.155 223.509 196.235 227.159C193.59 229.531 188.393 232.542 184.837 230.626C183.014 229.622 182.285 227.706 182.102 227.25C180.826 223.692 183.014 220.042 183.835 218.4C187.39 211.922 189.579 204.988 193.955 191.211C195.779 185.372 196.69 182.453 197.146 178.164C197.602 173.785 198.696 161.833 191.311 151.979C187.664 147.053 183.379 144.772 179.185 142.399C169.52 137.108 159.855 135.648 152.835 135.557C165.052 172.508 170.614 201.065 168.79 211.466C167.423 219.404 162.59 223.783 162.59 223.783C161.587 224.695 156.846 228.801 153.655 227.432C152.014 226.703 150.19 224.239 150.646 212.926C151.193 199.331 154.02 195.773 155.843 183.091C157.029 174.241 158.214 165.026 154.476 154.716C153.199 151.249 151.193 145.958 146.179 141.213C139.796 135.192 132.32 133.732 125.482 132.272C121.196 131.451 115.27 130.63 108.067 131.177C112.261 138.476 117.914 148.421 124.387 160.373C124.387 160.373 135.967 181.723 134.782 194.04C134.69 195.408 134.235 199.149 131.408 201.795C130.77 202.342 129.311 203.711 127.214 203.711C123.293 203.711 120.832 198.875 120.285 197.872C118.37 194.131 118.461 190.664 118.552 188.748C118.735 181.266 118.096 175.792 116.82 165.391C115.543 154.99 113.629 150.246 112.443 147.782C109.252 141.122 106.243 138.932 104.967 138.111C101.32 135.739 97.6728 135.557 94.7551 135.374C88.4639 135.009 83.2669 136.651 79.8933 138.203C82.1728 140.392 96.6698 154.625 103.143 165.209C104.511 167.49 106.517 171.048 105.787 175.245C105.605 176.34 105.149 179.168 102.596 180.901C102.323 181.084 99.861 182.726 97.1257 181.996C94.6639 181.358 93.2963 179.35 91.8375 176.796C88.1904 170.5 86.0022 165.026 85.5463 163.658C82.9934 157.089 82.1728 154.26 79.5286 150.246C77.7963 147.6 76.2463 146.049 74.1492 145.228C71.2316 144.042 68.3139 144.589 67.2198 144.863C66.6728 144.954 66.3081 145.137 62.661 146.961C57.8286 149.333 57.8286 149.425 57.2816 149.607C55.4581 150.155 52.6316 150.428 48.4375 148.695C49.3492 150.246 50.6257 152.983 50.9904 156.541C51.4463 161.286 50.1698 164.935 49.7139 165.939C48.5286 168.858 47.7992 168.676 46.158 172.052C44.8816 174.789 43.2404 178.073 43.6963 181.266C43.8786 182.27 44.4257 185.281 51.9933 190.664C57.7375 194.77 63.1169 197.142 66.6728 198.51C76.4286 202.251 85.5463 204.167 85.5463 204.167C87.5522 204.623 91.8375 205.444 96.761 208.09C98.9492 209.276 102.505 211.283 102.323 213.564C102.232 214.477 101.593 215.298 99.5875 216.484C94.208 219.586 88.2816 219.221 86.8228 219.13C78.8904 218.491 73.1463 215.754 68.2228 213.473C64.0286 211.466 59.0139 209.003 53.361 204.349C46.7051 198.875 42.2375 192.762 39.3198 187.653C38.3169 189.295 29.8375 204.349 36.5845 216.758C40.7786 224.422 48.8934 227.524 54.5463 229.622C60.0169 231.721 67.311 232.45 81.8081 234.093C87.0051 234.64 92.0198 235.917 97.1257 236.647C98.7669 236.921 103.964 237.56 108.979 241.027C111.44 242.76 111.896 243.764 111.714 244.403C111.623 245.132 110.802 245.954 107.52 246.592C99.9522 248.143 93.2051 245.954 93.2051 245.954C75.5169 240.297 79.8022 243.399 67.2198 238.472C60.0169 235.553 50.5345 231.356 39.7757 225.06C38.9551 228.527 36.5845 239.841 42.9669 249.603C44.3345 251.702 46.7051 254.712 51.7198 257.906C66.7639 267.668 84.5433 266.938 90.4698 266.573C90.4698 266.573 100.682 266.026 129.311 265.661C130.04 265.661 131.773 265.661 132.411 266.756C132.867 267.486 132.776 268.489 132.502 269.128C131.773 270.77 129.311 271.226 125.755 271.682C118.005 272.686 116.273 272.595 116.273 272.595C101.958 272.23 102.687 273.233 92.4757 272.412C79.9845 271.409 70.411 269.219 66.2169 268.215C59.1051 266.482 50.6257 263.927 41.3257 259.913C41.4169 265.478 42.4198 274.693 47.8904 283.817C50.3522 287.923 53.8169 293.397 60.3816 296.408C64.3933 298.141 67.8581 298.324 72.6904 298.232C83.1757 298.05 91.1081 297.867 103.873 295.13C112.717 293.214 121.743 291.937 130.679 290.021C132.685 289.565 137.973 288.379 138.885 290.112C139.34 291.116 138.337 292.576 137.973 293.123C133.414 299.51 118.37 301.973 112.17 302.977C98.311 305.166 91.4728 306.261 83.8139 306.079C74.1492 305.988 66.0345 304.619 59.8345 303.159C61.2022 308.36 64.7581 318.213 73.7845 325.968C76.8845 328.614 81.808 332.811 89.011 333.724C94.9375 334.454 99.3139 332.72 106.608 329.709C116.182 325.695 120.558 321.954 135.146 315.111C140.252 312.739 143.808 311.279 145.085 312.557C146.726 314.29 143.17 319.947 142.44 321.133C141.529 322.593 137.699 328.432 128.582 333.085C122.108 336.37 116.546 337.282 112.717 337.829C108.067 338.559 100.955 339.015 92.2933 337.464C96.0316 343.03 103.052 351.515 114.54 356.442C120.011 358.814 125.937 361.277 132.593 359.453C140.89 357.08 146.452 348.778 149.826 343.76C152.835 339.289 156.664 335.457 159.673 330.987C160.493 329.892 162.408 326.972 165.052 326.972C165.326 326.972 166.785 326.972 167.514 327.976C168.517 329.253 167.605 331.534 167.24 332.446C164.87 338.194 144.993 356.624 141.711 359.635C151.649 359.544 159.764 358.175 165.417 356.807C177.452 353.887 191.402 350.511 195.232 340.293C197.055 335.366 196.235 329.618 196.143 329.162C195.87 327.246 195.232 325.147 191.676 318.031C191.037 316.662 188.12 310.823 186.114 307.539C162.682 268.307 131.864 235.096 131.864 235.096C92.7492 192.945 65.2139 165.209 65.3963 164.935C65.6698 164.753 99.7698 194.952 140.07 237.651C178.82 278.616 230.517 346.041 239.361 356.533L242.461 353.796L192.496 291.755Z" fill="#87AF96"></path> </g> <path d="M115.5 1.44062L118.678 10.027L118.757 10.2426L118.973 10.3224L127.559 13.5L118.973 16.6776L118.757 16.7574L118.678 16.973L115.5 25.5594L112.322 16.973L112.243 16.7574L112.027 16.6776L103.441 13.5L112.027 10.3224L112.243 10.2426L112.322 10.027L115.5 1.44062Z" fill="url(#paint0_linear_1229_1237)" stroke="url(#paint1_linear_1229_1237)"></path> <defs> <linearGradient id="paint0_linear_1229_1237" x1="115.5" y1="0" x2="115.5" y2="27" gradientUnits="userSpaceOnUse"> <stop stop-color="#FF95AB"></stop> <stop offset="1" stop-color="#FFB1C1"></stop> </linearGradient> <linearGradient id="paint1_linear_1229_1237" x1="115.5" y1="0" x2="115.5" y2="27" gradientUnits="userSpaceOnUse"> <stop stop-color="#FFFDDA"></stop> <stop offset="1" stop-color="#F4F1BA"></stop> </linearGradient> <clipPath id="clip0_1229_1237"> <rect width="365" height="301" fill="white" transform="translate(365 308) rotate(-180)"></rect> </clipPath> <clipPath id="clip1_1229_1237"> <rect width="248" height="177" fill="white" transform="translate(33.9999 131)"></rect> </clipPath> </defs> </svg> 