<?xml version="1.0" encoding="UTF-8"?> <svg xmlns="http://www.w3.org/2000/svg" width="172" height="44" viewBox="0 0 172 44" fill="none"> <path d="M70.0432 8.25254V12.9369H75.2181V14.3388H70.0432V20.4661H68.2472V6.85059H75.9989V8.25254H70.0432Z" fill="white"></path> <path d="M78.3614 4.44727H80.0996V20.4658H78.3614V4.44727Z" fill="white"></path> <path d="M92.4209 20.4454C91.9522 20.6189 91.4835 20.7127 91.0158 20.7256C90.4946 20.7256 90.0689 20.6189 89.7368 20.4056C89.4047 20.1922 89.1998 19.8194 89.122 19.2849C87.8851 20.259 86.7396 20.7461 85.6855 20.7461C84.8657 20.7461 84.1952 20.5026 83.674 20.0155C83.1527 19.5284 82.8931 18.9185 82.8931 18.1836C82.8931 17.5036 83.076 16.94 83.4407 16.4917C83.8053 16.0445 84.3161 15.6738 84.9729 15.3807C85.6298 15.0876 86.5189 14.773 87.6381 14.44L89.0832 14.0197V13.2385C89.0832 11.6371 88.4904 10.8354 87.306 10.8354C86.6544 10.8354 86.0565 10.9723 85.51 11.246C84.9624 11.5197 84.3445 12.0294 83.6551 12.7772L82.9331 11.6565C84.3907 10.1619 85.9598 9.41406 87.6392 9.41406C88.7584 9.41406 89.5687 9.71471 90.071 10.3149C90.5723 10.9152 90.8225 11.9162 90.8225 13.3182V18.5446C90.8225 18.8377 90.875 19.0478 90.9791 19.175C91.0831 19.3021 91.246 19.3646 91.4677 19.3646C91.6632 19.3646 91.9428 19.2989 92.3074 19.1653L92.4209 20.4454ZM85.0213 19.0446C85.2819 19.2579 85.6266 19.3646 86.0565 19.3646C86.4989 19.3646 86.9582 19.2515 87.4332 19.0252C87.9082 18.7978 88.4589 18.4508 89.0832 17.9842V15.2008L87.9702 15.5402C86.7333 15.9281 85.8673 16.301 85.3733 16.662C84.8784 17.0219 84.6314 17.482 84.6314 18.0435C84.6303 18.4971 84.7606 18.8312 85.0213 19.0446Z" fill="white"></path> <path d="M108.307 10.3354C108.717 10.9486 108.923 11.843 108.923 13.0186V20.467H107.184V13.1781C107.184 12.3376 107.063 11.7374 106.823 11.3764C106.582 11.0165 106.168 10.8365 105.583 10.8365C105.127 10.8365 104.664 10.954 104.197 11.1867C103.728 11.4206 103.2 11.7708 102.615 12.2374C102.641 12.3979 102.654 12.6576 102.654 13.0186V20.467H100.916V13.1781C100.916 12.3376 100.795 11.7374 100.554 11.3764C100.313 11.0165 99.8992 10.8365 99.3139 10.8365C98.8714 10.8365 98.4153 10.9496 97.9466 11.177C97.4779 11.4044 96.9503 11.7503 96.3649 12.218V20.467H94.6267V9.77398H95.974L96.2283 10.8958C97.4779 9.90761 98.656 9.41407 99.7626 9.41407C100.478 9.41407 101.045 9.54769 101.461 9.81493C101.877 10.0822 102.184 10.469 102.379 10.9755C103.681 9.93455 104.899 9.41407 106.03 9.41407C107.138 9.41299 107.897 9.72118 108.307 10.3354Z" fill="white"></path> <path d="M120.951 9.77344L116.42 21.9471C115.977 23.1745 115.43 24.0624 114.78 24.6098C114.128 25.1572 113.335 25.431 112.397 25.431C111.876 25.431 111.407 25.3512 110.991 25.1907L111.205 23.7898C111.596 23.8965 111.954 23.9493 112.279 23.9493C112.93 23.9493 113.476 23.7488 113.919 23.349C114.361 22.9482 114.779 22.2143 115.168 21.1464L115.325 20.6852L111.206 9.77344H113.002L116.127 18.4233L119.193 9.77344H120.951V9.77344Z" fill="white"></path> <path d="M135.625 10.3451C136.061 10.9658 136.28 11.8559 136.28 13.0186V20.467H134.541V13.1781C134.541 12.3376 134.411 11.7374 134.15 11.3764C133.89 11.0165 133.441 10.8365 132.803 10.8365C132.321 10.8365 131.833 10.9496 131.338 11.177C130.843 11.4044 130.303 11.7503 129.718 12.218V20.467H127.98V9.77398H129.328L129.582 10.8958C130.844 9.90761 132.069 9.41407 133.253 9.41407C134.397 9.41299 135.189 9.72441 135.625 10.3451Z" fill="white"></path> <path d="M148.483 20.4454C148.014 20.6189 147.546 20.7127 147.078 20.7256C146.557 20.7256 146.131 20.6189 145.799 20.4056C145.467 20.1922 145.262 19.8194 145.184 19.2849C143.947 20.259 142.802 20.7461 141.748 20.7461C140.928 20.7461 140.257 20.5026 139.736 20.0155C139.215 19.5284 138.955 18.9185 138.955 18.1836C138.955 17.5036 139.138 16.94 139.503 16.4917C139.868 16.0445 140.378 15.6738 141.035 15.3807C141.692 15.0876 142.581 14.773 143.7 14.44L145.145 14.0197V13.2385C145.145 11.6371 144.553 10.8354 143.368 10.8354C142.717 10.8354 142.119 10.9723 141.572 11.246C141.025 11.5197 140.407 12.0294 139.717 12.7772L138.995 11.6565C140.453 10.1619 142.022 9.41406 143.701 9.41406C144.821 9.41406 145.631 9.71471 146.133 10.3149C146.635 10.9152 146.885 11.9162 146.885 13.3182V18.5446C146.885 18.8377 146.937 19.0478 147.041 19.175C147.145 19.3021 147.308 19.3646 147.53 19.3646C147.725 19.3646 148.005 19.2989 148.37 19.1653L148.483 20.4454ZM141.084 19.0446C141.344 19.2579 141.689 19.3646 142.119 19.3646C142.561 19.3646 143.02 19.2515 143.495 19.0252C143.97 18.7978 144.521 18.4508 145.145 17.9842V15.2008L144.032 15.5402C142.795 15.9281 141.93 16.301 141.436 16.662C140.941 17.0219 140.694 17.482 140.694 18.0435C140.693 18.4971 140.823 18.8312 141.084 19.0446Z" fill="white"></path> <path d="M150.886 6.14001C150.664 5.92018 150.554 5.65617 150.554 5.34905C150.554 5.029 150.664 4.75529 150.886 4.529C151.107 4.30162 151.367 4.18848 151.667 4.18848C151.979 4.18848 152.246 4.30162 152.467 4.529C152.689 4.75529 152.799 5.029 152.799 5.34905C152.799 5.65617 152.689 5.92018 152.467 6.14001C152.246 6.35984 151.979 6.46976 151.667 6.46976C151.367 6.46976 151.107 6.35984 150.886 6.14001ZM150.808 9.77368H152.546V20.4656H150.808V9.77368Z" fill="white"></path> <path d="M156.353 4.44727H158.091V20.4658H156.353V4.44727Z" fill="white"></path> <path d="M162.504 20.566C161.917 20.3925 161.371 20.1393 160.863 19.8053L161.391 18.5046C162.263 19.1318 163.317 19.4453 164.554 19.4453C165.231 19.4453 165.781 19.2848 166.204 18.9647C166.628 18.6447 166.839 18.191 166.839 17.6037C166.839 17.2697 166.735 16.9863 166.526 16.7524C166.318 16.5197 166.06 16.3257 165.754 16.1716C165.448 16.0186 165.015 15.8354 164.455 15.622C163.765 15.3688 163.206 15.1306 162.776 14.9108C162.346 14.691 161.981 14.3839 161.683 13.9905C161.383 13.5972 161.233 13.0929 161.233 12.4787C161.233 11.4916 161.575 10.734 162.259 10.206C162.942 9.67905 163.824 9.41504 164.905 9.41504C166.155 9.41504 167.261 9.74263 168.224 10.3957L167.716 11.6974C166.883 11.0961 165.959 10.7965 164.944 10.7965C164.345 10.7965 163.864 10.9237 163.499 11.1769C163.134 11.4302 162.951 11.817 162.951 12.3375C162.951 12.8181 163.147 13.192 163.538 13.4582C163.929 13.7254 164.52 13.9991 165.315 14.2793C166.004 14.5326 166.565 14.7729 166.994 15.0002C167.424 15.2276 167.792 15.5477 168.098 15.9604C168.404 16.3742 168.557 16.9011 168.557 17.5423C168.557 18.5434 168.192 19.3408 167.464 19.9356C166.735 20.5294 165.765 20.8257 164.554 20.8257C163.773 20.8257 163.09 20.7395 162.504 20.566Z" fill="white"></path> <path d="M72.502 33.54H73.3279V39.1154H72.6105V34.6666L70.7074 37.8336H70.6204L68.7174 34.6666V39.1154H68V33.54H68.8269L70.6645 36.5958L72.502 33.54Z" fill="white"></path> <path d="M79.5492 34.6332V33.5397H80.2666V39.1151H79.5492V38.0216C79.0488 38.8398 78.3164 39.2483 77.3519 39.2483C76.5766 39.2483 75.9128 38.9653 75.3619 38.4004C74.8174 37.8355 74.5468 37.1439 74.5468 36.3258C74.5468 35.5087 74.8185 34.8171 75.3619 34.2522C75.9128 33.6873 76.5766 33.4043 77.3519 33.4043C78.3164 33.4054 79.0488 33.8139 79.5492 34.6332ZM75.8839 37.8993C76.2973 38.3233 76.8042 38.5358 77.4067 38.5358C78.0081 38.5358 78.5161 38.3233 78.9296 37.8993C79.343 37.4611 79.5492 36.9369 79.5492 36.3269C79.5492 35.7102 79.343 35.1893 78.9296 34.7654C78.5161 34.3348 78.0092 34.119 77.4067 34.119C76.8042 34.119 76.2973 34.3359 75.8839 34.7654C75.4715 35.1893 75.2642 35.7091 75.2642 36.3269C75.2642 36.9369 75.4704 37.4611 75.8839 37.8993Z" fill="white"></path> <path d="M85.6609 35.9715V33.54H86.3783V39.1154H85.6609V36.6839H82.5293V39.1154H81.8119V33.54H82.5293V35.9715H85.6609Z" fill="white"></path> <path d="M88.6413 37.8336L91.8825 33.54H92.4914V39.1154H91.774V34.8218L88.5329 39.1154H87.9239V33.54H88.6413V37.8336Z" fill="white"></path> <path d="M95.5134 36.2169L98.4281 39.1163H97.4712L94.752 36.4283V39.1163H94.0346V33.541H94.752V36.0055L97.3402 33.541H98.3197L95.5134 36.2169Z" fill="white"></path> <path d="M104.073 33.4053C104.87 33.4053 105.544 33.6883 106.095 34.2532C106.653 34.8115 106.933 35.5019 106.933 36.3267C106.933 37.1449 106.653 37.8409 106.095 38.4124C105.537 38.9707 104.862 39.2493 104.073 39.2493C103.348 39.2493 102.716 39.0081 102.18 38.5236C101.651 38.0259 101.35 37.4125 101.277 36.6835H100.146V39.115H99.429V33.5396H100.146V35.9711H101.277C101.357 35.2355 101.659 34.6254 102.18 34.142C102.71 33.6508 103.34 33.4053 104.073 33.4053ZM102.55 37.8992C102.963 38.3232 103.47 38.5357 104.073 38.5357C104.674 38.5357 105.182 38.3232 105.596 37.8992C106.009 37.461 106.215 36.9368 106.215 36.3267C106.215 35.7101 106.009 35.1892 105.596 34.7652C105.182 34.3347 104.675 34.1188 104.073 34.1188C103.47 34.1188 102.963 34.3358 102.55 34.7652C102.136 35.1892 101.93 35.709 101.93 36.3267C101.93 36.9368 102.136 37.461 102.55 37.8992Z" fill="white"></path> <path d="M111.065 33.4053C111.841 33.4053 112.501 33.6883 113.045 34.2532C113.595 34.8181 113.871 35.5096 113.871 36.3267C113.871 37.1449 113.595 37.8365 113.045 38.4014C112.501 38.9663 111.841 39.2493 111.065 39.2493C110.101 39.2493 109.368 38.8408 108.868 38.0226V41.346H108.151V33.5396H108.868V34.6331C109.369 33.8138 110.102 33.4053 111.065 33.4053ZM109.489 37.8992C109.902 38.3232 110.409 38.5357 111.012 38.5357C111.613 38.5357 112.121 38.3232 112.534 37.8992C112.948 37.461 113.154 36.9368 113.154 36.3267C113.154 35.7101 112.948 35.1892 112.534 34.7652C112.121 34.3347 111.614 34.1188 111.012 34.1188C110.409 34.1188 109.902 34.3358 109.489 34.7652C109.075 35.1892 108.869 35.709 108.869 36.3267C108.869 36.9368 109.075 37.461 109.489 37.8992Z" fill="white"></path> <path d="M118.547 37.8336L121.789 33.54H122.398V39.1154H121.68V34.8218L118.439 39.1154H117.83V33.54H118.547V37.8336Z" fill="white"></path> <path d="M126.683 33.54H131.25V39.1154H130.533V34.2536H127.401V39.1154H126.684V33.54H126.683Z" fill="white"></path> <path d="M135.307 33.4053C136.119 33.4053 136.769 33.6993 137.254 34.2862C137.755 34.8666 138.005 35.5537 138.005 36.3499C138.005 36.3873 137.998 36.5018 137.984 36.6956H133.209C133.281 37.2539 133.514 37.6999 133.905 38.0347C134.296 38.3694 134.785 38.5368 135.373 38.5368C136.2 38.5368 136.783 38.2208 137.123 37.5887L137.754 37.9675C137.514 38.3694 137.187 38.6833 136.769 38.9101C136.352 39.137 135.883 39.2504 135.361 39.2504C134.506 39.2504 133.809 38.9751 133.273 38.4256C132.736 37.875 132.469 37.1758 132.469 36.3278C132.469 35.4876 132.733 34.7939 133.263 34.2433C133.792 33.6839 134.473 33.4053 135.307 33.4053ZM135.307 34.1188C134.741 34.1188 134.269 34.2906 133.888 34.632C133.507 34.9734 133.28 35.4238 133.208 35.981H137.264C137.185 35.3863 136.963 34.9293 136.6 34.61C136.225 34.2829 135.793 34.1188 135.307 34.1188Z" fill="white"></path> <path d="M143.518 33.54V38.4018H144.279V40.6097H143.562V39.1154H139.125V40.6097H138.408V38.4018H139.072C139.441 37.8964 139.626 37.1938 139.626 36.2941V33.54H143.518V33.54ZM139.94 38.4018H142.8V34.2536H140.342V36.2941C140.342 37.1564 140.208 37.8589 139.94 38.4018Z" fill="white"></path> <path d="M146.107 37.8336L149.348 33.54H149.957V39.1154H149.24V34.8218L145.999 39.1154H145.39V33.54H146.107V37.8336Z" fill="white"></path> <path d="M152.98 36.2169L155.895 39.1163H154.938L152.219 36.4283V39.1163H151.501V33.541H152.219V36.0055L154.807 33.541H155.785L152.98 36.2169Z" fill="white"></path> <path d="M161.54 33.4053C162.337 33.4053 163.011 33.6883 163.562 34.2532C164.12 34.8115 164.4 35.5019 164.4 36.3267C164.4 37.1449 164.12 37.8409 163.562 38.4124C163.003 38.9707 162.329 39.2493 161.54 39.2493C160.815 39.2493 160.183 39.0081 159.647 38.5236C159.118 38.0259 158.817 37.4125 158.744 36.6835H157.613V39.115H156.896V33.5396H157.613V35.9711H158.744C158.824 35.2355 159.125 34.6254 159.647 34.142C160.176 33.6508 160.807 33.4053 161.54 33.4053ZM160.017 37.8992C160.43 38.3232 160.937 38.5357 161.54 38.5357C162.141 38.5357 162.649 38.3232 163.062 37.8992C163.476 37.461 163.682 36.9368 163.682 36.3267C163.682 35.7101 163.476 35.1892 163.062 34.7652C162.649 34.3347 162.142 34.1188 161.54 34.1188C160.937 34.1188 160.43 34.3358 160.017 34.7652C159.603 35.1892 159.397 35.709 159.397 36.3267C159.397 36.9368 159.603 37.461 160.017 37.8992Z" fill="white"></path> <path d="M168.532 33.4053C169.308 33.4053 169.968 33.6883 170.511 34.2532C171.062 34.8181 171.338 35.5096 171.338 36.3267C171.338 37.1449 171.062 37.8365 170.511 38.4014C169.968 38.9663 169.308 39.2493 168.532 39.2493C167.568 39.2493 166.835 38.8408 166.335 38.0226V41.346H165.617V33.5396H166.335V34.6331C166.835 33.8138 167.568 33.4053 168.532 33.4053ZM166.956 37.8992C167.369 38.3232 167.876 38.5357 168.478 38.5357C169.08 38.5357 169.588 38.3232 170.001 37.8992C170.415 37.461 170.621 36.9368 170.621 36.3267C170.621 35.7101 170.415 35.1892 170.001 34.7652C169.588 34.3347 169.081 34.1188 168.478 34.1188C167.876 34.1188 167.369 34.3358 166.956 34.7652C166.542 35.1892 166.336 35.709 166.336 36.3267C166.335 36.9368 166.542 37.461 166.956 37.8992Z" fill="white"></path> <path d="M22 44C34.1503 44 44 34.1503 44 22C44 9.84974 34.1503 0 22 0C9.84974 0 0 9.84974 0 22C0 34.1503 9.84974 44 22 44Z" fill="#FCFBCD"></path> <path d="M37.133 37.959C35.3573 38.4511 27.7675 40.3372 20.7336 36.0876C19.0671 35.0814 13.3033 31.5656 12.6382 25.3698C12.3486 22.6787 13.2395 20.4294 13.4125 20.0097C13.4125 20.0097 14.3967 17.6819 16.4497 16.3492C16.6693 16.2069 16.8828 16.2118 16.8828 16.2118C16.9908 16.2154 17.0988 16.2449 17.1982 16.3013C18.0179 16.7677 19.2451 17.3272 20.8183 17.6046C22.5632 17.9126 24.0198 17.7457 24.923 17.5714C25.4384 17.234 26.1747 16.667 26.83 15.7896C29.0499 12.8126 29.0891 7.91513 26.5207 5.02769C24.5585 2.82131 21.7091 2.45563 20.7139 2.38691C13.6862 1.89974 6.72956 9.35578 4.51581 16.5774C3.34145 20.4061 3.62 23.7819 3.77585 25.495C3.88752 26.7123 4.39064 31.2539 7.21673 36.2803C8.26592 38.1455 9.35562 39.5812 10.1876 40.5728C10.8908 41.0207 11.94 41.633 13.2824 42.2073C19.3199 44.7929 24.8347 43.8627 26.3882 43.551C28.4903 43.1301 30.0941 42.4895 31.0022 42.0834C33.8614 40.8035 35.8862 39.1493 37.133 37.959Z" fill="#333333"></path> <path d="M36.244 38.7654C34.3187 39.1974 27.0209 40.5926 20.2398 36.3345C18.9893 35.5491 12.7334 31.6211 12.1272 25.2891C12.0352 24.3283 11.8352 21.9034 13.1605 19.2786C14.1152 17.3888 15.454 16.1997 16.3535 15.5445C16.5903 15.3714 16.902 15.3702 17.1437 15.5359C17.9769 16.1065 19.3796 16.8808 21.262 17.1471C22.7566 17.3582 24.0071 17.1729 24.8121 16.9839C25.1986 16.7924 25.7165 16.4808 26.2036 15.9752C28.5008 13.5884 28.3622 8.69952 25.9165 5.94953C24.1003 3.91003 21.4718 3.55908 20.5073 3.48913C14.0661 3.02159 8.16481 9.68 5.96333 15.137C5.90443 15.2843 5.82344 15.4868 5.73018 15.7396C4.34843 19.4799 4.43187 22.7232 4.47973 24.1049C4.68466 29.9522 7.09107 34.3085 8.15499 36.186C9.54042 38.6305 11.0412 40.4601 12.1837 41.6934C13.5212 42.3585 15.4466 43.1487 17.8665 43.6102C18.9685 43.82 20.7294 44.0691 22.8977 43.9795C23.8672 43.9402 27.3301 43.7341 31.0042 42.0799C32.208 41.5375 33.1639 40.962 33.4867 40.7644C34.6168 40.0711 35.5347 39.368 36.244 38.7654Z" fill="#FEACBB"></path> <path d="M20.9692 8.95939C20.936 8.58266 21.152 8.18016 21.4993 7.94823C21.8416 7.70403 22.3178 7.63531 22.7387 7.7703C23.1584 7.91019 23.502 8.2452 23.6357 8.64402C23.7793 9.03547 23.7192 9.48828 23.47 9.77421C23.4369 9.39993 23.3167 9.11278 23.1498 8.88576C22.978 8.66365 22.7644 8.5029 22.5239 8.43172C22.2871 8.34705 22.0208 8.35073 21.7508 8.42927C21.4796 8.51149 21.2146 8.67592 20.9692 8.95939Z" fill="#333333"></path> <path d="M30.3505 8.32338C29.8511 8.07059 29.1897 8.33443 28.7185 8.53813C28.2067 8.75901 27.7048 9.01548 27.2778 9.37871C27.1723 9.46829 27.1367 9.52106 27.1355 9.65359C27.1342 9.77385 27.1379 9.89411 27.1453 10.0131C27.1612 10.2892 27.2005 10.5629 27.2557 10.8341C27.3195 11.1458 27.3932 11.4562 27.4938 11.7593C27.6005 12.0845 27.7392 12.4551 27.9895 12.6981C28.3 12.9987 28.7798 12.9484 29.1529 12.7987C30.0168 12.4502 30.4438 11.363 30.6475 10.5261C30.7359 10.1653 30.785 9.79103 30.7911 9.41921C30.7985 9.05598 30.758 8.57617 30.4156 8.36142C30.2242 8.24116 29.9542 8.29761 29.7554 8.37737C29.6879 8.40437 29.2915 8.62157 29.4744 8.7357C29.8511 8.97131 29.8032 9.59101 29.7627 9.97387C29.7038 10.5347 29.5566 11.0856 29.3234 11.5998C29.2032 11.8649 29.0596 12.1238 28.8669 12.3435C28.8461 12.3668 28.7994 12.4159 28.7909 12.4244C28.7712 12.4416 28.7455 12.4576 28.727 12.4772C28.7712 12.433 28.7479 12.4723 28.7234 12.4797C28.7639 12.4674 28.7994 12.4453 28.8412 12.4355C28.8952 12.4232 29.0105 12.4379 29.0559 12.4159C29.0891 12.3999 29.0915 12.4674 29.0571 12.4159C29.0449 12.3962 29.0326 12.4073 29.024 12.4011C28.6583 12.1802 28.5184 11.5765 28.4141 11.1985C28.246 10.5887 28.1393 9.96528 28.1442 9.33085C28.1086 9.39467 28.073 9.45848 28.0374 9.52229C28.2951 9.30877 28.5724 9.12224 28.8755 8.9799C29.0535 8.89645 29.2363 8.81791 29.4216 8.75288C29.4302 8.75042 29.4572 8.72833 29.4952 8.7357C29.4007 8.71606 29.5271 8.76883 29.5394 8.77497C29.7394 8.87682 30.0695 8.76883 30.2499 8.66698C30.3837 8.58967 30.5555 8.42769 30.3505 8.32338Z" fill="#333333"></path> <path d="M26.8349 9.99104C27.1662 10.0131 27.4877 9.96036 27.7896 9.82047C27.9381 9.75052 28.0841 9.60204 28.0718 9.42779C28.0596 9.25967 27.8951 9.15413 27.7368 9.13818C27.4067 9.10505 27.0766 9.07192 26.7453 9.03878C26.6974 9.03388 26.6496 9.02897 26.6029 9.02406C26.4888 9.01301 26.3784 9.02774 26.2704 9.06823C26.1747 9.10382 26.0704 9.15904 26.0078 9.24372C25.9648 9.30016 25.9317 9.36397 25.9207 9.43515C25.9047 9.53577 25.9673 9.63885 26.0446 9.6953C26.2704 9.86342 26.5551 9.96773 26.8349 9.99104C26.9711 10.0021 27.1098 9.98368 27.2325 9.92232C27.3282 9.87446 27.4497 9.78365 27.4902 9.67812C27.527 9.58486 27.5356 9.47442 27.4681 9.39097C27.3981 9.30507 27.2901 9.24985 27.1797 9.24003C27.122 9.23513 27.0643 9.22654 27.0079 9.21304C27.0472 9.22285 27.0864 9.23144 27.1245 9.24126C27.0361 9.21917 26.9515 9.18727 26.8705 9.14677C26.9036 9.16395 26.9355 9.18113 26.9686 9.19708C26.9159 9.16886 26.8655 9.13818 26.8177 9.10259C26.6312 9.32593 26.4446 9.5505 26.2581 9.77384C26.5882 9.80697 26.9183 9.8401 27.2496 9.87324C27.2975 9.87814 27.3454 9.88305 27.392 9.88796C27.3736 9.66094 27.3564 9.43269 27.338 9.20567C27.3098 9.21917 27.2816 9.23022 27.2521 9.24126C27.295 9.22531 27.3392 9.20936 27.3822 9.19218C27.3171 9.21672 27.2496 9.2339 27.1809 9.24617C27.2263 9.23881 27.273 9.23022 27.3184 9.22285C27.2496 9.2339 27.1809 9.23881 27.111 9.23881C27.1539 9.24003 27.1981 9.24126 27.2411 9.24249C27.2202 9.24249 27.1993 9.24126 27.1785 9.24003C27.041 9.23022 26.906 9.24617 26.7809 9.30875C26.6852 9.35661 26.5637 9.44742 26.5232 9.55295C26.4864 9.64622 26.4778 9.75666 26.5453 9.8401C26.6164 9.926 26.7257 9.98368 26.8349 9.99104Z" fill="#333333"></path> <path d="M22.3865 5.56658C20.7901 5.02419 19.1334 4.8438 17.4572 4.99229C17.3099 5.00579 16.8878 5.12727 16.8829 5.33098C16.8252 8.37671 18.5113 11.9059 21.7938 12.4434C23.502 12.7232 25.5194 11.9759 26.5122 10.5156C27.3319 9.31056 26.7919 8.10061 25.7501 7.26984C24.7635 6.48325 23.5707 5.98135 22.3865 5.56658C22.1571 5.48682 21.8773 5.53345 21.6736 5.6623C21.5607 5.73347 21.3472 5.96663 21.584 6.04885C22.4332 6.34581 23.2725 6.68818 24.0505 7.14468C24.8874 7.63553 25.96 8.42703 25.9244 9.51426C25.8741 11.0506 23.9119 12.0888 22.5485 11.9219C21.2171 11.7599 20.0256 10.9206 19.2831 9.82964C18.3567 8.46752 17.8609 6.84894 17.8916 5.2009C17.7001 5.3138 17.5087 5.42669 17.3173 5.53959C18.7592 5.41197 20.2121 5.58254 21.5828 6.04885C21.8135 6.12738 22.0908 6.08321 22.2957 5.95313C22.4074 5.88318 22.6234 5.64758 22.3865 5.56658Z" fill="#333333"></path> <path d="M20.5643 40.9369C18.1322 40.0055 15.9074 38.5562 13.9575 36.8076C12.0284 35.0344 10.4503 32.8537 9.42076 30.4228C8.46237 27.9661 8.0476 25.2897 8.31389 22.6722C8.44642 21.3653 8.72498 20.0769 9.12625 18.8325C9.55574 17.598 10.0834 16.3979 10.7596 15.2861C9.60974 17.614 8.8845 20.1419 8.71393 22.7054C8.536 25.2664 8.93727 27.8581 9.90302 30.2265C10.8639 32.601 12.399 34.7153 14.2311 36.5167C16.0902 38.2948 18.223 39.8103 20.5643 40.9369Z" fill="#333333"></path> <path d="M24.3959 12.1728C24.0057 12.1274 23.6473 12.4072 23.6142 12.7986C23.6056 12.9066 23.597 13.0195 23.5909 13.1386C23.5541 13.8478 23.5897 14.4405 23.6191 14.7179C23.7259 15.7364 24.2585 17.6433 25.731 18.8705C25.974 19.073 25.9666 19.0263 27.4944 20.1479C28.1693 20.6437 28.5142 20.8842 28.6614 21.0143C29.8395 22.061 30.5561 23.174 30.9954 23.8686C31.7268 25.0221 32.4962 26.5707 32.7429 27.0788C33.3147 28.258 33.7196 29.2434 34.5504 29.4483C35.1247 29.5895 35.5886 29.3698 35.5886 29.3698C35.9702 29.1894 36.1567 28.8888 36.212 28.7992C36.3383 28.5893 36.3641 28.4274 36.4451 28.0212C36.5175 27.6567 36.6132 27.2972 36.6783 26.9315C36.9593 25.3681 36.9237 25.6504 37.0157 25.0896C37.2023 23.9398 37.2967 23.3642 37.3274 22.7543C37.3691 21.9358 37.3961 21.3836 37.2231 20.6523C37.0501 19.9184 36.7593 19.365 36.5224 18.9134C36.45 18.776 36.1886 18.2851 35.7444 17.6679C35.7444 17.6679 35.067 16.7267 34.213 15.929C33.6877 15.4382 31.3218 13.6343 27.0244 12.633C26.3618 12.4771 25.4709 12.2992 24.3959 12.1728Z" fill="white"></path> <path d="M34.9474 29.7602C34.8063 29.7602 34.6517 29.7455 34.4885 29.705C33.6062 29.4878 33.1619 28.5613 32.6478 27.4875C32.6011 27.3918 32.5545 27.2937 32.5067 27.1943C32.3508 26.874 31.5372 25.2149 30.7739 24.0099C30.3579 23.3533 29.6609 22.2538 28.4866 21.2108C28.3945 21.1286 28.1982 20.9862 27.8742 20.7506C27.7245 20.6414 27.5466 20.5125 27.338 20.3591C26.4814 19.7296 26.1059 19.4682 25.9047 19.3271C25.7439 19.2142 25.6777 19.1676 25.5623 19.0719C23.7351 17.549 23.405 15.1991 23.3572 14.7438C23.3204 14.3928 23.2934 13.7829 23.3277 13.1228C23.3339 13.0013 23.3424 12.8847 23.351 12.7742C23.3719 12.5178 23.4946 12.2858 23.6959 12.1214C23.8983 11.9558 24.1658 11.8772 24.426 11.9079C25.323 12.0134 26.2164 12.1693 27.0852 12.3717C31.9741 13.5118 34.297 15.6421 34.394 15.7316C35.2567 16.5379 35.9316 17.4692 35.9598 17.5085C36.3697 18.0779 36.6359 18.5528 36.7574 18.786C36.9992 19.2461 37.2998 19.8204 37.4814 20.5862C37.6631 21.3543 37.6336 21.9446 37.5919 22.7619C37.56 23.3877 37.4655 23.9681 37.2777 25.1265C37.2336 25.3953 37.2188 25.4738 37.1845 25.6481C37.1477 25.8358 37.0875 26.15 36.939 26.9734C36.901 27.1869 36.8519 27.3992 36.8053 27.6041C36.7697 27.7587 36.7353 27.9134 36.7047 28.068L36.6887 28.1514C36.6163 28.5147 36.5807 28.6975 36.4384 28.9319C36.2114 29.3074 35.9132 29.5049 35.7033 29.6043C35.6592 29.6289 35.361 29.7602 34.9474 29.7602ZM24.3131 12.4319C24.21 12.4319 24.1094 12.4675 24.0296 12.5325C23.9401 12.6049 23.8861 12.708 23.8762 12.8209C23.8677 12.9264 23.8603 13.0369 23.8542 13.1534C23.821 13.7817 23.8468 14.3597 23.8812 14.691C24.0026 15.8507 24.6039 17.5883 25.8998 18.6682C25.998 18.7504 26.0507 18.7872 26.2066 18.8964C26.4103 19.0388 26.7882 19.3026 27.6497 19.9358C27.8583 20.0892 28.035 20.2168 28.1835 20.326C28.532 20.58 28.7234 20.7187 28.8351 20.8181C30.0647 21.9102 30.8144 23.0932 31.2169 23.7288C31.9765 24.9265 32.757 26.5095 32.9791 26.966C33.027 27.0654 33.0748 27.1648 33.1214 27.2605C33.5976 28.252 33.9731 29.0362 34.6136 29.1933C35.0836 29.3098 35.4739 29.1344 35.4775 29.1319C35.6211 29.0644 35.826 28.927 35.9856 28.6644C36.0788 28.5097 36.1034 28.3858 36.1696 28.0545L36.1868 27.971C36.2187 27.8115 36.2543 27.652 36.2911 27.4937C36.3365 27.2937 36.3832 27.0875 36.42 26.8863C36.5685 26.0592 36.6298 25.7438 36.6666 25.5548C36.6998 25.3855 36.7145 25.3094 36.7562 25.048C36.9415 23.9092 37.0348 23.3374 37.0642 22.7422C37.1047 21.9397 37.1317 21.4096 36.9673 20.7138C36.8016 20.0119 36.5181 19.4719 36.2899 19.0375C36.1745 18.8166 35.9218 18.3663 35.5303 17.8227C35.5242 17.8128 34.8566 16.8925 34.0332 16.1231C33.9412 16.0372 31.7176 13.9989 26.9649 12.8908C26.1158 12.6933 25.2408 12.5399 24.3646 12.4368C24.3475 12.4331 24.3303 12.4319 24.3131 12.4319Z" fill="#333333"></path> <path d="M30.5973 22.7823C30.9396 23.3013 31.2857 23.8621 31.628 24.4622C32.0759 25.2488 32.4625 26.0072 32.795 26.725V26.7263C33.0098 27.3987 33.335 28.0356 33.7718 28.6369C33.8467 28.7314 34.2136 29.1768 34.8272 29.2284C35.1119 29.2529 35.3438 29.183 35.4812 29.1278C35.8224 28.9768 35.9979 28.7118 36.0604 28.616C36.1304 28.5068 36.1819 28.3952 36.3108 27.8614C36.393 27.5214 36.4605 27.211 36.5169 26.9005C36.701 25.8746 36.7317 25.7507 36.7685 25.5494C36.7685 25.5494 36.793 25.4157 36.8151 25.2758C36.9612 24.3616 37.0311 23.6057 37.063 23.1234C37.128 22.1466 37.1599 21.657 37.1023 21.2545C36.9869 20.4409 36.7206 19.8519 36.5047 19.3819C36.2961 18.9266 35.9733 18.329 35.4776 17.6909C35.0137 17.6185 34.3228 17.5854 33.9056 17.994C33.2258 18.6603 33.9314 19.8568 33.4381 20.9882C33.1767 21.5846 32.5067 22.3356 30.5973 22.7823Z" fill="#333333"></path> <path d="M23.958 12.5713C24.752 13.7469 25.6919 14.7949 26.7743 15.6453C27.8566 16.5263 29.085 17.0295 30.4508 17.4626C31.1232 17.7032 31.8423 18.0443 32.3847 18.5904C32.9296 19.1242 33.321 19.7942 33.5542 20.4949C34.0242 21.9073 33.9579 23.3835 33.7186 24.7739C33.6941 23.3615 33.5628 21.9392 33.0498 20.6851C32.7798 20.0691 32.4252 19.4984 31.9344 19.0653C31.4582 18.621 30.8704 18.3376 30.2151 18.1155C29.5648 17.8823 28.8678 17.6541 28.2125 17.3191C27.5596 16.9828 26.9522 16.5558 26.4196 16.0662C25.3336 15.0992 24.5078 13.8782 23.958 12.5713Z" fill="#333333"></path> </svg> 