<?xml version="1.0" encoding="UTF-8"?> <svg xmlns="http://www.w3.org/2000/svg" width="484" height="279" viewBox="0 0 484 279" fill="none"> <path d="M339.769 170.331C313.714 188.261 303.7 268.488 289.272 275.706C282.577 282.201 249.597 274.587 231.191 272.54C194.772 268.488 157.129 252.778 140.724 241.452C122.775 224.101 81.619 213.497 63.2844 210.364C28.545 211.521 13.5878 202.653 10.4516 198.074C-16.1819 170.89 14.3115 150.599 32.8874 143.851C78.4828 125.777 137.105 168.432 150.133 185.06C160.555 198.363 198.864 215.666 216.716 222.655C224.822 227.282 250.008 233.258 261.588 235.668L226.125 198.074C211.65 187.229 170.397 105.534 173.292 46.9735C175.608 0.125178 203.207 -2.91129 216.716 1.42652C254.351 13.717 260.864 79.5071 258.693 105.534C256.956 126.355 267.137 171.083 272.444 190.844C274.133 202.412 278.483 226.27 282.577 226.27C284.944 226.27 284.223 223.018 282.577 219.763C274.845 171.324 313.86 124.813 327.853 105.534C341.933 90.9395 372.001 67.959 396.203 50.5884C437.137 15.1629 433.518 14.4594 454.826 15.1629C484.354 22.1034 484.964 47.1277 482.328 65.0477C478.39 91.817 449.036 113.246 433.837 119.27C393.872 130.635 355.639 157.34 339.769 170.331Z" fill="#F3DEE5"></path> <path d="M351.311 132.079C313.223 158.062 297.448 197.758 294.322 214.358C293.745 217.822 293.12 216.282 292.88 215.079C291.437 189.818 303.7 172.497 310.914 158.062C318.128 143.627 354.197 114.757 357.082 113.314C359.968 111.87 390.266 90.9396 396.758 88.7744C403.25 86.6092 434.27 61.3482 435.712 59.183C437.155 57.0177 454.468 41.8611 440.762 59.183C439.346 60.9724 423.449 77.9483 422.006 80.1135C420.564 82.2787 398.922 99.6005 351.311 132.079Z" fill="#E09BB2"></path> <path d="M225.07 80.1135C224.493 75.4943 220.742 61.1076 219.299 57.0177C214.249 115.479 228.677 145.07 230.841 155.175C233.005 165.279 245.99 195.592 258.253 209.305C270.517 223.018 269.074 219.41 267.631 215.079C266.477 211.615 262.582 206.418 258.253 193.427C245.99 176.105 236.698 141.641 235.169 132.079C232.284 114.035 225.791 85.8874 225.07 80.1135Z" fill="#E09BB2"></path> <path d="M126.241 199.201C120.47 196.314 87.287 182.12 70.6953 177.549C77.1877 177.549 82.2374 174.662 98.1077 177.549C113.978 180.436 138.658 193.226 150.047 202.088C163.032 212.192 160.146 215.079 216.414 240.34C220.943 242.374 251.04 251.888 262.582 255.497C261.428 257.806 253.444 256.459 249.597 255.497C199.101 247.558 146.44 209.305 126.241 199.201Z" fill="#E09BB2"></path> </svg> 