<?xml version="1.0" encoding="UTF-8"?> <svg xmlns="http://www.w3.org/2000/svg" width="124" height="130" viewBox="0 0 124 130" fill="none"> <g clip-path="url(#clip0_1466_1844)"> <mask id="mask0_1466_1844" style="mask-type:luminance" maskUnits="userSpaceOnUse" x="-1" y="0" width="126" height="130"> <path d="M27.2016 10.9C49.4016 -4.19998 79.8016 -3.49998 100.702 12.6C124.202 30.7 124.302 59.7 124.202 64.2C124.102 69.1 123.402 89.2 107.902 106.8C105.502 109.5 84.6016 132.6 54.6016 129.2C25.3016 125.9 3.1016 98.7 0.301602 70.3C-1.7984 49.3 6.6016 25 27.2016 10.9Z" fill="white"></path> </mask> <g mask="url(#mask0_1466_1844)"> <path d="M27.2016 10.9C49.4016 -4.19998 79.8016 -3.49998 100.702 12.6C124.202 30.7 124.302 59.7 124.202 64.2C124.102 69.1 123.402 89.2 107.902 106.8C105.502 109.5 84.6016 132.6 54.6016 129.2C25.3016 125.9 3.1016 98.7 0.301602 70.3C-1.7984 49.3 6.6016 25 27.2016 10.9Z" fill="#FFCFCF"></path> <path d="M83.4742 52.5749C85.9774 46.3861 82.9661 39.2841 76.7773 36.7809C70.5885 34.2777 63.4866 37.289 60.9833 43.4778L40.1477 95.207C37.6445 101.396 40.6558 108.498 46.8446 111.001C53.0333 113.504 60.1353 110.493 62.6385 104.304L83.4742 52.5749Z" fill="#FEEEF1"></path> <path d="M88.5338 27.0451C89.9991 23.4224 88.2013 19.1824 84.5786 17.7171C80.9559 16.2518 76.7159 18.0496 75.2506 21.6723L62.8566 52.3142C61.3913 55.9369 63.1891 60.1769 66.8118 61.6422C70.4344 63.1075 74.6744 61.3097 76.1397 57.687L88.5338 27.0451Z" fill="#FEEEF1"></path> <path d="M70.5481 60.4316C71.2197 58.7712 70.4556 56.9692 68.8402 56.4036C67.1798 55.732 65.3778 56.4961 64.8122 58.1116L49.4875 95.9988C48.8159 97.6592 49.58 99.4612 51.1955 100.027C52.8559 100.698 54.6579 99.9343 55.2235 98.3189L70.5481 60.4316Z" fill="white"></path> <path d="M84.4661 26.0161C85.1377 24.3557 84.3736 22.5537 82.7581 21.9881C81.0977 21.3165 79.2958 22.0806 78.7302 23.696L63.4055 61.5833C62.7339 63.2437 63.498 65.0457 65.1134 65.6113C66.7738 66.2829 68.5758 65.5188 69.1414 63.9033L84.4661 26.0161Z" fill="#EB2145"></path> <path d="M44.1263 90.9145L45.5078 87.499L50.4175 89.4849L49.0361 92.9004L44.1263 90.9145Z" fill="#FA8541"></path> <path d="M62.6107 86.1518L63.9922 82.7363L68.9019 84.7222L67.5204 88.1377L62.6107 86.1518Z" fill="#FA8541"></path> <path d="M52.7001 69.8059L54.082 66.3906L58.9915 68.3772L57.6095 71.7925L52.7001 69.8059Z" fill="#FA8541"></path> <path d="M71.1849 65.0429L72.5664 61.6274L77.4761 63.6133L76.0947 67.0288L71.1849 65.0429Z" fill="#FA8541"></path> <path d="M61.1664 48.6551L62.5469 45.2393L67.4572 47.2238L66.0767 50.6396L61.1664 48.6551Z" fill="#FA8541"></path> </g> <mask id="mask1_1466_1844" style="mask-type:luminance" maskUnits="userSpaceOnUse" x="-1" y="0" width="126" height="130"> <path d="M27.2016 10.9C49.4016 -4.19998 79.8016 -3.49998 100.702 12.6C124.202 30.7 124.302 59.7 124.202 64.2C124.102 69.1 123.402 89.2 107.902 106.8C105.502 109.5 84.6016 132.6 54.6016 129.2C25.3016 125.9 3.1016 98.7 0.301602 70.3C-1.7984 49.3 6.6016 25 27.2016 10.9Z" fill="white"></path> </mask> <g mask="url(#mask1_1466_1844)"> <path d="M98.6016 44C98.6016 44 97.5016 48.9 94.6016 48.9C94.6016 48.9 98.6016 50.5 98.6016 53.2C98.6016 53.2 99.7016 48.9 102.602 48.7C102.602 48.7 99.4016 48.6 98.6016 44Z" fill="white"></path> </g> <mask id="mask2_1466_1844" style="mask-type:luminance" maskUnits="userSpaceOnUse" x="-1" y="0" width="126" height="130"> <path d="M27.2016 10.9C49.4016 -4.19998 79.8016 -3.49998 100.702 12.6C124.202 30.7 124.302 59.7 124.202 64.2C124.102 69.1 123.402 89.2 107.902 106.8C105.502 109.5 84.6016 132.6 54.6016 129.2C25.3016 125.9 3.1016 98.7 0.301602 70.3C-1.7984 49.3 6.6016 25 27.2016 10.9Z" fill="white"></path> </mask> <g mask="url(#mask2_1466_1844)"> <path d="M24.5016 60.8999C24.5016 60.8999 23.6016 65.0999 21.1016 65.0999C21.1016 65.0999 24.5016 66.4999 24.5016 68.6999C24.5016 68.6999 25.4016 65.0999 27.9016 64.8999C27.9016 64.8999 25.1016 64.7999 24.5016 60.8999Z" fill="white"></path> </g> <mask id="mask3_1466_1844" style="mask-type:luminance" maskUnits="userSpaceOnUse" x="-1" y="0" width="126" height="130"> <path d="M27.2016 10.9C49.4016 -4.19998 79.8016 -3.49998 100.702 12.6C124.202 30.7 124.302 59.7 124.202 64.2C124.102 69.1 123.402 89.2 107.902 106.8C105.502 109.5 84.6016 132.6 54.6016 129.2C25.3016 125.9 3.1016 98.7 0.301602 70.3C-1.7984 49.3 6.6016 25 27.2016 10.9Z" fill="white"></path> </mask> <g mask="url(#mask3_1466_1844)"> <path d="M82.5016 31.5C82.5016 31.5 82.0016 33.8 80.6016 33.8C80.6016 33.8 82.5016 34.6 82.5016 35.8C82.5016 35.8 83.0016 33.8 84.4016 33.7C84.3016 33.8 82.8016 33.7 82.5016 31.5Z" fill="white"></path> </g> <mask id="mask4_1466_1844" style="mask-type:luminance" maskUnits="userSpaceOnUse" x="-1" y="0" width="126" height="130"> <path d="M27.2016 10.9C49.4016 -4.19998 79.8016 -3.49998 100.702 12.6C124.202 30.7 124.302 59.7 124.202 64.2C124.102 69.1 123.402 89.2 107.902 106.8C105.502 109.5 84.6016 132.6 54.6016 129.2C25.3016 125.9 3.1016 98.7 0.301602 70.3C-1.7984 49.3 6.6016 25 27.2016 10.9Z" fill="white"></path> </mask> <g mask="url(#mask4_1466_1844)"> <path d="M23.1031 75.1001C23.1031 75.1001 22.6031 77.4001 21.2031 77.4001C21.2031 77.4001 23.1031 78.2001 23.1031 79.4001C23.1031 79.4001 23.6031 77.4001 25.0031 77.3001C25.0031 77.3001 23.5031 77.2001 23.1031 75.1001Z" fill="white"></path> </g> <mask id="mask5_1466_1844" style="mask-type:luminance" maskUnits="userSpaceOnUse" x="-1" y="0" width="126" height="130"> <path d="M27.2016 10.9C49.4016 -4.19998 79.8016 -3.49998 100.702 12.6C124.202 30.7 124.302 59.7 124.202 64.2C124.102 69.1 123.402 89.2 107.902 106.8C105.502 109.5 84.6016 132.6 54.6016 129.2C25.3016 125.9 3.1016 98.7 0.301602 70.3C-1.7984 49.3 6.6016 25 27.2016 10.9Z" fill="white"></path> </mask> <g mask="url(#mask5_1466_1844)"> <path d="M96.5016 94.2998C96.5016 94.2998 96.0016 96.5998 94.6016 96.5998C94.6016 96.5998 96.5016 97.3998 96.5016 98.5998C96.5016 98.5998 97.0016 96.5998 98.4016 96.4998C98.4016 96.4998 96.8016 96.3998 96.5016 94.2998Z" fill="white"></path> </g> </g> <defs> <clipPath id="clip0_1466_1844"> <rect width="124" height="130" fill="white"></rect> </clipPath> </defs> </svg> 