 <svg width="124" height="130"> <g>  <path d="M27.2016 10.9C49.4016 -4.19998 79.8016 -3.49998 100.702 12.6C124.202 30.7 124.302 59.7 124.202 64.2C124.102 69.1 123.402 89.2 107.902 106.8C105.502 109.5 84.6016 132.6 54.6016 129.2C25.3016 125.9 3.1016 98.7 0.301602 70.3C-1.7984 49.3 6.6016 25 27.2016 10.9Z"></path>  <g> <path d="M27.2016 10.9C49.4016 -4.19998 79.8016 -3.49998 100.702 12.6C124.202 30.7 124.302 59.7 124.202 64.2C124.102 69.1 123.402 89.2 107.902 106.8C105.502 109.5 84.6016 132.6 54.6016 129.2C25.3016 125.9 3.1016 98.7 0.301602 70.3C-1.7984 49.3 6.6016 25 27.2016 10.9Z"></path> </g>  <path d="M27.2016 10.9C49.4016 -4.19998 79.8016 -3.49998 100.702 12.6C124.202 30.7 124.302 59.7 124.202 64.2C124.102 69.1 123.402 89.2 107.902 106.8C105.502 109.5 84.6016 132.6 54.6016 129.2C25.3016 125.9 3.1016 98.7 0.301602 70.3C-1.7984 49.3 6.6016 25 27.2016 10.9Z"></path>  <g> <path d="M55.3023 196.2C55.3023 196.2 56.5023 183.4 61.5023 174.3C66.6023 165.2 87.2023 143.2 90.3023 136.9C93.9023 129.7 98.0023 107.9 100.702 100C103.202 92.7 106.002 86 108.602 81.7C111.302 77.2 103.102 74.9 96.3023 82.1C90.2023 88.6 87.4023 93.5 83.8023 104.5C82.7023 108 80.9023 99.4 80.5023 97.5C80.1023 95.6 83.9023 65.5 86.3023 48C88.6023 31 85.2023 17.3 78.5023 25.4C77.6023 26.5 75.9023 33 75.9023 33C75.9023 33 86.2023 7.80001 74.1023 7.60001C70.3023 7.50001 64.8023 26 59.1023 44.9C53.9023 62.3 48.3023 80.2 48.3023 80.2C48.3023 80.2 61.9023 18.6 60.4023 17.1C50.8023 7.30001 40.5023 49.2 40.5023 49.2C40.5023 49.2 41.9023 41.8 40.8023 39.2C39.6023 36.4 36.4023 36 34.0023 39.8C29.1023 47.7 22.4023 79 16.6023 91.8C13.2023 99.3 7.40234 132.1 7.40234 137.6C7.60234 151.2 17.8023 164 13.4023 184.8C13.5023 184.7 28.3023 205.8 55.3023 196.2Z"></path> <path d="M83.3016 105.4C83.3016 105.4 80.4016 114 77.6016 119.6"></path> <path d="M63.6016 82.5L76.5016 33.5"></path> <path d="M68.6016 86.0996L63.1016 82.0996"></path> <path d="M48.3008 80.7999L49.6008 74.3999"></path> <path d="M50.2039 81.5L44.0039 80.5"></path> <path d="M32.7016 84.3999L28.6016 86.4999"></path> <path d="M30.3008 85.5C30.3008 85.5 37.9008 62.8 41.5008 44.5"></path> <path d="M69.8039 15.7998C69.7039 15.9998 69.9039 16.0998 70.1039 16.1998C71.1039 17.2998 73.0039 17.8998 75.4039 17.5998C78.4039 17.1998 79.5039 7.59984 77.4039 6.99984C74.1039 6.19984 72.8039 7.89984 69.8039 15.7998Z"></path> <path d="M77.3034 31.2996C77.2034 31.9996 77.0034 32.8996 77.4034 33.0996C78.0034 33.4996 79.8034 34.1996 81.6034 33.6996C84.0034 33.1996 84.9034 22.6996 83.2034 22.0996C80.6034 21.2996 78.5034 21.6996 77.3034 31.2996Z"></path> <path d="M57.7013 14.9C55.6013 14.3 50.7013 22.5 52.8013 24.3C54.5013 25.7 56.6013 26.3 57.5013 26.4C57.7013 26.4 57.9013 26.3 58.0013 26.2C60.7013 17.8 60.8013 15.8 57.7013 14.9Z"></path> <path d="M37.504 36.2001C36.104 36.0001 33.104 42.9001 34.504 44.2001C35.604 45.2001 37.104 45.3001 37.704 45.2001C38.304 45.1001 38.804 44.0001 38.804 43.8001C40.804 35.7001 39.604 36.4001 37.504 36.2001Z"></path> <path d="M105.603 87.5999L103.303 86.0999C103.203 86.0999 103.203 85.9999 103.203 85.8999C103.403 85.0999 106.403 79.2999 109.203 78.5999C109.203 78.5999 110.603 78.4999 109.703 80.5999C108.903 82.0999 107.303 84.5999 105.603 87.5999Z"></path> </g>  <path d="M27.2016 10.9C49.4016 -4.19998 79.8016 -3.49998 100.702 12.6C124.202 30.7 124.302 59.7 124.202 64.2C124.102 69.1 123.402 89.2 107.902 106.8C105.502 109.5 84.6016 132.6 54.6016 129.2C25.3016 125.9 3.1016 98.7 0.301602 70.3C-1.7984 49.3 6.6016 25 27.2016 10.9Z"></path>  <g> <path d="M98.6016 44C98.6016 44 97.5016 48.9 94.6016 48.9C94.6016 48.9 98.6016 50.5 98.6016 53.2C98.6016 53.2 99.7016 48.9 102.602 48.7C102.602 48.7 99.4016 48.6 98.6016 44Z"></path> </g>  <path d="M27.2016 10.9C49.4016 -4.19998 79.8016 -3.49998 100.702 12.6C124.202 30.7 124.302 59.7 124.202 64.2C124.102 69.1 123.402 89.2 107.902 106.8C105.502 109.5 84.6016 132.6 54.6016 129.2C25.3016 125.9 3.1016 98.7 0.301602 70.3C-1.7984 49.3 6.6016 25 27.2016 10.9Z"></path>  <g> <path d="M24.5016 60.8999C24.5016 60.8999 23.6016 65.0999 21.1016 65.0999C21.1016 65.0999 24.5016 66.4999 24.5016 68.6999C24.5016 68.6999 25.4016 65.0999 27.9016 64.8999C27.9016 64.8999 25.1016 64.7999 24.5016 60.8999Z"></path> </g>  <path d="M27.2016 10.9C49.4016 -4.19998 79.8016 -3.49998 100.702 12.6C124.202 30.7 124.302 59.7 124.202 64.2C124.102 69.1 123.402 89.2 107.902 106.8C105.502 109.5 84.6016 132.6 54.6016 129.2C25.3016 125.9 3.1016 98.7 0.301602 70.3C-1.7984 49.3 6.6016 25 27.2016 10.9Z"></path>  <g> <path d="M82.5016 31.5C82.5016 31.5 82.0016 33.8 80.6016 33.8C80.6016 33.8 82.5016 34.6 82.5016 35.8C82.5016 35.8 83.0016 33.8 84.4016 33.7C84.3016 33.8 82.8016 33.7 82.5016 31.5Z"></path> </g>  <path d="M27.2016 10.9C49.4016 -4.19998 79.8016 -3.49998 100.702 12.6C124.202 30.7 124.302 59.7 124.202 64.2C124.102 69.1 123.402 89.2 107.902 106.8C105.502 109.5 84.6016 132.6 54.6016 129.2C25.3016 125.9 3.1016 98.7 0.301602 70.3C-1.7984 49.3 6.6016 25 27.2016 10.9Z"></path>  <g> <path d="M23.1031 75.1001C23.1031 75.1001 22.6031 77.4001 21.2031 77.4001C21.2031 77.4001 23.1031 78.2001 23.1031 79.4001C23.1031 79.4001 23.6031 77.4001 25.0031 77.3001C25.0031 77.3001 23.5031 77.2001 23.1031 75.1001Z"></path> </g>  <path d="M27.2016 10.9C49.4016 -4.19998 79.8016 -3.49998 100.702 12.6C124.202 30.7 124.302 59.7 124.202 64.2C124.102 69.1 123.402 89.2 107.902 106.8C105.502 109.5 84.6016 132.6 54.6016 129.2C25.3016 125.9 3.1016 98.7 0.301602 70.3C-1.7984 49.3 6.6016 25 27.2016 10.9Z"></path>  <g> <path d="M96.5016 94.2998C96.5016 94.2998 96.0016 96.5998 94.6016 96.5998C94.6016 96.5998 96.5016 97.3998 96.5016 98.5998C96.5016 98.5998 97.0016 96.5998 98.4016 96.4998C98.4016 96.4998 96.8016 96.3998 96.5016 94.2998Z"></path> </g>  <path d="M27.2016 10.9C49.4016 -4.19998 79.8016 -3.49998 100.702 12.6C124.202 30.7 124.302 59.7 124.202 64.2C124.102 69.1 123.402 89.2 107.902 106.8C105.502 109.5 84.6016 132.6 54.6016 129.2C25.3016 125.9 3.1016 98.7 0.301602 70.3C-1.7984 49.3 6.6016 25 27.2016 10.9Z"></path>  <g> <path d="M74.4023 9.7002C74.6023 9.5002 74.8023 9.2002 75.0023 9.0002C75.2023 9.1002 75.5023 9.3002 75.7023 9.4002C75.9023 9.2002 76.1023 9.0002 76.4023 8.7002C76.7023 8.7002 77.0023 8.7002 77.3023 8.7002C77.5023 8.4002 77.7023 8.0002 78.0023 7.7002C77.9023 8.1002 77.7023 8.4002 77.6023 8.8002C77.2023 8.8002 76.9023 8.9002 76.5023 8.9002C76.3023 9.1002 76.1023 9.2002 75.8023 9.4002C75.5023 9.3002 75.3023 9.2002 75.0023 9.1002C74.8023 9.4002 74.6023 9.5002 74.4023 9.7002Z"></path> </g>  <path d="M27.2016 10.9C49.4016 -4.19998 79.8016 -3.49998 100.702 12.6C124.202 30.7 124.302 59.7 124.202 64.2C124.102 69.1 123.402 89.2 107.902 106.8C105.502 109.5 84.6016 132.6 54.6016 129.2C25.3016 125.9 3.1016 98.7 0.301602 70.3C-1.7984 49.3 6.6016 25 27.2016 10.9Z"></path> <path d="M79.2031 24.3999C79.4031 24.1999 79.6031 23.9999 79.8031 23.6999C80.0031 23.7999 80.3 23.9 80.5 24C80.7 23.8 80.9031 23.6999 81.2031 23.3999C81.5031 23.3999 81.8031 23.3999 82.1031 23.3999C82.3031 23.0999 82.5031 22.6999 82.8031 22.3999C82.7031 22.7999 82.5031 23.0999 82.4031 23.4999C82.0031 23.4999 81.7031 23.5999 81.3031 23.5999C81.1031 23.7999 80.9031 23.8999 80.6031 24.0999C80.3031 23.9999 80.1031 23.8999 79.8031 23.7999C79.6031 24.0999 79.4031 24.1999 79.2031 24.3999Z"></path>  <g> <path d="M79.2031 24.3999C79.4031 24.1999 79.6031 23.9999 79.8031 23.6999C80.0031 23.7999 80.3 23.9 80.5 24C80.7 23.8 80.9031 23.6999 81.2031 23.3999C81.5031 23.3999 81.8031 23.3999 82.1031 23.3999C82.3031 23.0999 82.7 22.3 83 22C82.9 22.4 82.6 23.6 82.5 24C82.1 24 81.7692 23.7999 81.3031 23.5999C81.1031 23.7999 80.9031 23.8999 80.6031 24.0999C80.3031 23.9999 80.1031 23.8999 79.8031 23.7999C79.6031 24.0999 79.4031 24.1999 79.2031 24.3999Z"></path> </g> </g>   <rect width="124" height="130"></rect>   </svg> 