<?xml version="1.0" encoding="UTF-8"?> <svg xmlns="http://www.w3.org/2000/svg" width="481" height="401" viewBox="0 0 481 401" fill="none"> <g clip-path="url(#clip0_1177_1183)"> <path d="M157.869 275.356C171.791 271.148 186.056 277.609 191.449 281.366C199.279 277.955 212.728 270.909 203.877 270.017C195.026 269.126 174.9 258.188 165.944 252.831C137.917 231.93 162.273 212.03 178.424 213.766C191.344 215.154 212.447 242.575 221.384 256.112L251.803 221.702C255.49 222.073 260.042 222.137 248.745 219.422C234.624 216.028 186.257 195.818 201.829 171.747C214.287 152.49 231.963 155.796 240.116 161.876C258.639 175.689 266.971 189.665 268.903 198.771C278.579 188.277 296.61 167.573 291.324 168.706C284.717 170.122 264.74 163.947 243.847 148.367C227.133 135.902 222.704 117.172 230.399 112.17C274.723 95.2666 299.261 142.113 303.847 145.533C307.516 148.269 320.053 120.612 325.862 106.442C322.687 107.51 311.575 107.524 292.533 99.032C268.729 88.4176 264.295 66.9887 281.218 52.5312C294.328 41.3306 324.434 64.4064 339.137 79.0716L379.556 -17.662L392.192 0.483988L351.367 88.192C382.002 86.4556 395.907 103.962 399.094 107.132C402.282 110.302 414.287 130.356 387.487 139.711C360.687 149.065 331.2 105.665 333.506 112.142C335.351 117.324 321.636 141.882 314.549 153.513C367.104 171.296 366.422 200.92 364.928 212.494C363.434 224.067 338.888 220.829 327.418 210.689C318.242 202.578 304.628 183.121 298.968 174.406L276.547 204.471C281.51 206.322 295.593 214.234 312.218 231.072C328.842 247.911 323.613 260.452 318.92 264.618C314.104 270.013 300.291 277.052 283.569 262.045C266.848 247.037 262.8 229.639 262.866 222.816L224.588 265.638C260.027 281.917 259.519 300.675 254.835 308.019C252.901 313.449 244.936 323.633 228.553 320.932C212.171 318.23 206.825 294.419 206.201 282.852L194.014 289.623C197.932 296.775 202.321 314.85 188.53 329.94C171.291 348.803 145.087 343.535 130.81 329.716C119.388 318.661 124.721 303.501 128.814 297.302C132.953 285.798 149.908 277.878 157.869 275.356Z" fill="#F7E2CE"></path> </g> <path d="M56.5804 200.886C68.0187 200.675 77.4367 208.615 80.716 212.611C87.3727 211.701 99.0586 209.241 92.5489 206.675C86.0392 204.109 73.1412 191.529 67.5059 185.56C50.7556 163.75 73.4443 153.89 85.2995 158.655C94.7838 162.467 104.9 187.733 108.772 199.889L139.151 180.341C141.863 181.41 145.295 182.431 137.324 177.962C127.359 172.375 95.064 146.743 111.995 131.848C125.54 119.932 138.214 126.212 143.087 132.556C154.157 146.97 157.479 159.33 156.995 166.636C166.562 160.759 184.635 148.939 180.392 148.667C175.087 148.328 161.284 139.385 148.798 123.127C138.808 110.12 139.457 94.9954 146.351 92.8528C183.516 89.5277 192.082 130.232 194.823 133.801C197.015 136.657 212.414 118.399 219.84 108.914C217.208 109.044 208.793 106.68 196.193 96.1832C180.442 83.0624 181.663 65.8935 197.563 58.5651C209.881 52.8876 227.74 76.788 235.736 91.0309L287.001 26.4407L292.69 42.8768L243.046 100.548C266.607 105.779 273.393 122.002 275.128 125.083C276.863 128.163 281.667 145.909 259.381 147.264C237.095 148.619 224.046 109.466 224.408 114.862C224.697 119.179 209.069 134.839 201.218 142.129C237.203 166.819 230.357 189.099 226.753 197.541C223.149 205.982 205.26 198.286 198.744 188.16C193.531 180.059 187.383 162.422 184.96 154.615L161.564 172.584C164.925 175.046 173.896 184.044 182.882 200.342C191.869 216.641 185.231 225.017 180.789 227.168C175.99 230.223 164.03 232.6 154.579 217.667C145.127 202.734 145.78 188.699 147.288 183.548L109.163 207.785C132.512 227.68 128.119 241.771 123.004 246.33C120.38 250.027 112.174 256.034 100.35 250.489C88.526 244.944 89.567 225.777 91.5655 216.887L80.8937 219.409C82.3319 225.66 81.7923 240.28 68.1283 248.757C51.0483 259.353 32.3375 249.766 24.4825 236.255C18.1986 225.446 25.4742 215.109 29.8976 211.292C35.4885 203.467 50.0157 201.094 56.5804 200.886Z" fill="white"></path> <defs> <clipPath id="clip0_1177_1183"> <rect width="391" height="321" fill="white" transform="translate(90 79.9988)"></rect> </clipPath> </defs> </svg> 