<?xml version="1.0" encoding="UTF-8"?> <svg xmlns="http://www.w3.org/2000/svg" width="625" height="619" viewBox="0 0 625 619" fill="none"> <g opacity="0.2"> <g clip-path="url(#clip0_560_1880)"> <path d="M418.196 465.366C381.443 415.383 343.404 357.723 306.749 292.289C268.656 224.216 243.797 168.889 244.171 168.685C244.611 168.445 268.881 214.397 306.846 280.784C306.846 280.784 336.739 333.014 377.229 378.325C380.642 382.168 386.911 388.182 388.338 389.51C396 396.869 398.455 398.47 400.739 399.595C401.283 399.869 408.201 403.204 415.16 402.83C429.63 402.046 439.514 385.6 447.961 371.515C451.939 364.871 456.95 355.203 460.96 342.574C455.853 345.535 424.589 363.552 416.345 364.231C415.003 364.349 411.801 364.603 410.547 362.786C409.636 361.44 410.21 359.591 410.318 359.226C411.46 355.838 415.866 354.489 417.589 353.943C424.419 351.798 430.826 348.479 437.676 346.454C445.378 344.141 458.103 340.316 464.396 330.741C469.408 323.093 468.574 314.552 467.766 306.702C466.098 290.192 458.127 277.912 452.5 270.977C451.04 282.566 447.554 291.399 444.816 297.018C442.577 301.616 439.224 308.361 432.509 315.225C423.009 324.882 414.005 327.467 411.849 328.028C410.088 328.507 401.52 330.765 399.94 328.03C398.763 325.951 402.075 321.952 407.078 316.46C421.522 300.639 428.059 296.592 436.922 286.01C443.682 277.937 447.652 273.049 449.02 265.24C450.686 255.645 447.337 247.731 445.213 242.79C439.009 228.273 427.912 219.932 421.823 216.101C421.183 224.436 419.648 235.321 415.989 247.627C413.102 257.32 408.992 265.66 400.773 282.339C397.115 289.731 387.967 307.929 378.121 311.148C377.302 311.419 374.946 312.176 373.909 311.162C372.068 309.315 375.661 303.011 377.011 300.652C382.978 290.16 388.169 279.21 394.136 268.715C402.718 253.592 406.029 243.626 410.431 230.345C412.477 224.184 413.682 219.707 413.016 213.972C411.887 204.41 406.275 197.905 402.052 193.144C392.619 182.538 381.332 177.636 374.313 175.322C375.627 188.689 375.541 200.539 374.931 210.217C374.56 215.904 373.515 228.892 369.821 245.167C366.817 258.432 365.82 257.088 360.63 275.451C360.63 275.451 360 277.68 355.672 287.15C353.682 291.481 352.179 294.363 349.756 294.675C348.777 294.816 347.473 294.518 346.769 293.628C345.704 292.322 346.372 290.16 346.667 289.252C358.464 253.027 363.231 240.336 363.231 240.336C366.044 232.923 374.119 210.661 367.637 187.739C365.488 180.092 362.684 175.917 360.54 173.357C350.7 161.437 335.44 159.887 330.665 159.596C334.355 175.704 336.01 189.456 336.802 199.774C338.137 217.692 335.83 210.964 336.041 235.684C336.041 235.684 336.148 245.147 331.18 254.087C329.037 257.976 327.646 258.648 326.711 258.543C325.826 258.456 324.672 257.547 323.503 253.711C321.128 246.055 322.318 239.132 322.675 236.963C323.835 230.144 324.249 223.25 325.564 216.477C329.299 197.46 331.175 187.925 330.712 180.148C330.242 172.112 329.563 160.636 321.501 152.221C308.501 138.777 286.025 143.576 283.525 144.15C288.87 149.922 294.814 158 299.138 168.586C302.799 177.558 303.902 184.898 304.772 191.005C305.783 198.176 306.924 206.636 304.576 216.911C304.158 218.806 302.269 226.461 296.201 232.097C293.978 234.143 292.58 234.641 291.432 234.39C288.511 233.79 287.376 228.485 286.725 225.199C285.247 217.975 285.923 212.122 286.174 209.44C286.174 209.44 287.399 197.101 286.498 183.201C286.162 178.076 285.322 170.329 282.353 161.418C278.509 149.782 274.972 147.805 273.726 147.213C269.812 145.355 265.022 146.08 261.072 146.656C256.128 147.421 256.044 148.477 251.914 148.798C250.486 148.919 245.351 149.174 239.551 146.678C235.187 144.802 232.281 142.131 230.648 140.345C231.255 146.376 229.806 149.843 228.343 151.914C227.9 152.549 227.813 152.554 222.903 157.732C219.142 161.714 218.861 162.087 218.47 162.739C217.703 163.99 215.841 167.506 216.195 171.701C216.475 174.796 217.84 177.298 220.457 180.565C224.465 185.575 227.698 187.717 235.013 193.555C236.558 194.775 242.597 199.642 249.129 206.785C251.731 209.622 253.788 212.187 253.595 215.538C253.402 219.373 250.312 221.847 249.991 222.067C246.749 224.581 242.932 224.03 241.511 223.839C235.909 223.078 232.077 219.113 229.776 216.507C218.865 204.073 206.598 180.05 204.708 176.343C201.386 180.085 197.212 186.048 195.199 194.122C194.245 197.933 193.063 202.614 194.57 208.197C195.049 210.042 196.597 214.814 203.838 221.483C206.513 223.973 211.793 228.333 224.436 234.029C237.113 239.708 243.759 242.709 253.349 245.464C255.755 246.17 260.303 247.419 264.238 251.328C265.363 252.425 270.478 257.533 268.908 262.469C268.084 265.069 265.716 266.449 264.786 267C260.389 269.573 255.4 268.565 253.662 268.196C237.597 264.848 215.107 241.663 215.107 241.663C202.503 228.705 192.19 217.613 184.565 209.355C181.047 218.293 179.647 226.121 179.037 231.851C178.066 241.111 177.022 251.202 182.118 261.673C186.153 269.959 192.099 274.657 195.982 277.585C207.616 286.509 219.773 288.654 231.474 290.608C248.226 293.362 253.86 291.123 271.318 295.817C285.884 299.72 288.277 302.978 288.548 305.331C289.106 309.897 282.044 314.274 280.437 315.196C280.437 315.196 272.927 319.555 262.298 318.199C248.378 316.445 214.352 297.972 172.325 267.892C169.705 276.867 167.634 289.668 170.538 304.099C171.811 310.381 173.102 316.696 177.856 323.318C187.434 336.609 203.084 339.921 208.786 341.11C214.437 342.285 218.475 342.276 226.637 342.255C245.846 342.179 255.424 342.175 265.105 340.185C267.47 339.686 273.002 338.468 276.989 341.427C277.503 341.805 279.669 343.52 280.196 346.26C281.263 351.601 275.362 357.057 271.284 359.412C265.11 362.998 258.623 362.062 246.749 359.63C228.391 355.865 219.229 353.974 208.346 350.214C199.523 347.172 187.766 342.615 174.375 335.79C173.564 342.2 173.052 352.22 175.69 363.987C177.942 374.079 180.102 383.519 188.334 390.876C198.008 399.509 210.12 399.879 215.131 400.042C224.565 400.338 231.685 397.681 245.947 392.404C262.031 386.441 270.02 383.443 274.716 381.014C279.988 378.27 285.922 374.727 291.695 376.932C292.027 377.057 296.665 378.872 297.308 382.47C298.297 388.072 288.73 393.817 285.402 395.852C273.333 403.136 261.843 404.226 244.51 405.562C226.935 406.941 212.626 407.858 203.049 408.429C205.507 419.463 208.689 428.037 211.246 434.014C213.48 439.158 215.268 442.438 218.434 445.582C219.526 446.697 224.659 451.839 231.417 453.111C233.605 453.497 239.968 454.284 255.414 443.445C266.297 435.842 275.73 429.206 284.922 417.614C287.995 413.742 292.62 407.315 300.282 405.812C301.825 405.498 305.067 404.915 307.648 406.666C312.829 410.202 310.848 420.189 310.747 420.727C308.958 429.293 301.475 434.911 292.594 440.061C282.241 446.058 264.841 454.364 239.512 459.009C245.478 465.757 255.762 475.023 270.521 479.04C274.669 480.2 279.632 481.484 286.004 480.597C299.919 478.713 308.511 468.279 310.596 465.738C315.332 459.996 317.814 453.991 322.735 442.225C326.586 432.93 329.144 424.646 332.721 424.757C333.911 424.765 335.188 425.737 335.846 426.782C337.109 428.857 336.05 431.586 335.494 432.985C330.308 446.037 328.48 448.569 328.48 448.569C323.412 455.633 317.218 465.067 309.539 476.932C315.087 475.179 322.783 472.209 331.055 466.909C334.905 464.459 347.922 455.692 355.278 443.958C371.542 418.019 356.184 383.573 354.503 379.927" stroke="#507668" stroke-miterlimit="10" stroke-linecap="round" stroke-linejoin="round"></path> </g> </g> <defs> <clipPath id="clip0_560_1880"> <rect width="420" height="462.368" fill="white" transform="translate(0 322.406) rotate(-50.142)"></rect> </clipPath> </defs> </svg> 