<?xml version="1.0" encoding="UTF-8"?> <svg xmlns="http://www.w3.org/2000/svg" width="676" height="595" viewBox="0 0 676 595" fill="none"> <g clip-path="url(#clip0_262:547)"> <path d="M431.212 151.484C416.08 157.096 401.817 164.819 388.849 174.425C375.615 184 362.322 193.968 349.923 204.599C321.198 229.176 297.197 260.91 280.721 294.887C265.942 325.374 258.301 359.008 259.713 392.917C261.267 429.996 274.126 464.236 292.903 495.899C297.908 504.356 303.592 512.377 308.774 520.719C309.741 522.275 308.474 525.794 306.682 523.726C284.468 498.093 271.034 465.238 263.034 432.617C255.222 400.6 254.81 368.094 262.593 336.043C270.47 303.548 286.418 273.773 306.146 246.993C317.191 232.003 329.63 218.093 343.298 205.45C355.547 194.132 369.284 184.278 382.601 174.297C396.39 163.958 413.056 150.919 430.614 148.528C432.035 148.337 432.512 151.027 431.22 151.501L431.212 151.484Z" fill="#CDD6D1"></path> <path d="M111.334 473.772C120.311 463.314 131.067 456.062 143.53 450.644C159.222 443.839 174.439 436.168 191.25 432.809C215.749 427.894 243.412 425.672 265.623 438.324C264.105 445.172 254.644 447.406 248.691 448.582C240.252 450.249 233.581 449.31 225.2 448.913C210.307 448.207 196.84 451.944 182.763 454.193C170.355 456.191 158.116 460.846 145.775 463.917C135.391 466.501 122.738 464.845 113.884 471.66L111.334 473.772Z" fill="#CDD6D1"></path> <path d="M117.528 359.751C133.708 359.725 146.595 363.89 161.771 368.301C176.196 372.472 191.384 373.963 205.61 378.769C224.847 385.267 251.397 395.586 260.807 414.885C248.397 415.059 234.802 410.849 222.678 407.665C209.413 404.19 196.209 398.64 182.667 395.304C171.287 392.527 160.281 388.397 149.883 383.003C141.503 378.582 125.063 372.681 120.518 363.573L117.528 359.751Z" fill="#CDD6D1"></path> <path d="M122.55 308.272C126.814 319.47 139.836 331.225 149.518 338.329C161.029 346.777 173.549 352.89 186.443 359.332C199.731 365.967 213.238 371.542 226.481 378.211C232.313 381.145 238.406 384.083 244.232 387.373C245.689 388.158 257.183 396.749 257.684 396.543L257.918 396.553C255.308 390.692 254.116 385.347 250.199 379.698C247.084 375.101 243.274 371.015 238.905 367.588C228.067 359.35 214.822 352.62 202.582 346.895C190.342 341.171 178.213 334.859 166.314 328.766C155.001 322.971 142.367 319.086 131.176 312.862C128.593 311.425 125.833 309.968 123.414 308.297L122.55 308.272Z" fill="#CDD6D1"></path> <path d="M145.235 262.075C145.359 286.2 164.447 307.949 182.724 321.619C201.002 335.289 220.044 347.813 239.509 359.654C245.304 363.178 251.522 367.511 257.657 370.023C256.874 365.154 252.62 359.24 250.102 354.771C246.618 348.484 242.166 342.784 236.912 337.88C225.65 327.38 212.388 319.321 200.485 309.849C190.435 301.843 179.441 294.903 169.841 286.365C161.824 279.251 154.794 271.816 147.389 264.063C146.707 263.362 145.988 262.698 145.235 262.075V262.075Z" fill="#CDD6D1"></path> <path d="M175.142 207.155C175.624 219.828 174.639 231.098 178.801 243.19C180.585 248.457 182.064 253.814 184.425 258.844C187.016 264.342 190.131 269.269 193.063 274.533C198.744 284.774 206.173 293.209 213.995 301.796C221.378 309.893 227.803 318.253 235.393 326C243.118 333.903 249.737 345.374 259.855 350.233C260.823 345.11 257.888 338.718 256.292 333.994C254.222 327.844 252.38 321.634 249.581 315.749C243.029 301.961 232.327 290.841 222.451 279.464C206.015 260.557 189.609 241.147 180.175 217.64C178.971 214.635 178.583 209.98 176.41 207.742L175.142 207.155Z" fill="#CDD6D1"></path> <path d="M268.787 316.147C265.3 310.195 259.927 305.233 255.989 299.563C251.78 293.522 249.085 286.669 245.851 280.105C239.184 266.472 233.25 253.026 228.857 238.393C221.75 214.72 215.904 188.099 224.6 164.395C226.443 159.092 228.787 153.976 231.598 149.117C232.713 151.393 232.583 155.237 232.82 157.847C233.199 162.021 233.246 166.174 233.461 170.372C233.851 177.703 235.402 185.188 237.005 192.481C239.75 204.947 243.548 216.881 247.195 229.135C254.699 254.38 263.644 278.677 267.249 304.018C267.745 307.559 269.658 313.803 268.792 316.776" fill="#CDD6D1"></path> <path d="M284.355 280.686C270.453 256.212 262.015 230.015 253.995 203.128C247.239 180.479 244.08 151.343 259.008 131.456C259.879 130.295 260.787 128.969 261.723 127.929C262.898 143.891 262.641 159.676 264.808 175.438C267.107 191.835 272.11 207.646 277.802 223.273C284.562 241.824 289.389 261.295 284.685 280.063" fill="#CDD6D1"></path> <path d="M303.78 250.687C304.083 247.206 302.222 243.381 301.286 240.066C300.029 235.627 298.648 231.265 297.679 226.764C295.906 218.495 294.714 210.091 293.561 201.801C291.338 185.799 290.372 169.704 292.767 153.614C296.111 131.085 308.692 107.841 328.52 96.582C320.49 111.095 313.763 127.109 310.545 143.463C307.756 157.618 308.755 172.574 308.778 187.1C308.795 199.389 309.547 211.462 310.116 223.621C310.5 231.908 309.997 244.33 304.417 250.677" fill="#CDD6D1"></path> <path d="M328.67 221.93C326.47 217.82 325.642 211.046 324.566 206.054C323.038 198.96 322.768 191.078 322.865 183.726C322.977 168.755 327.042 153.306 331.331 138.971C333.871 130.379 338.273 122.453 344.223 115.756C350.174 109.059 357.527 103.756 365.759 100.223C360.151 105.238 356.033 116.329 352.511 123.306C348.406 131.468 345.056 139.989 342.503 148.761C339.734 157.795 338.271 167.178 338.16 176.626C338.202 185.283 339.067 194.567 337.896 203.106C336.881 210.524 332.9 217.011 328.665 222.887" fill="#CDD6D1"></path> <path d="M293.268 266.332C293.096 261.363 289.464 255.355 287.587 250.708C285.531 245.538 283.893 240.212 282.688 234.78C279.71 221.743 276.935 207.654 275.611 194.26C273.102 168.757 275.769 137.144 295.87 118.708C293.192 131.411 291.196 144.249 289.89 157.166C288.767 168.468 287.269 180.967 289.066 192.282C292.454 213.655 298.855 233.994 296.738 256.084C296.421 259.365 296.212 263.563 294.857 266.3" fill="#CDD6D1"></path> <path d="M364.581 189.358C362.551 184.907 363.336 176.751 363.281 171.73C363.172 164.37 363.987 157.026 365.707 149.869C369.021 136.076 374.718 121.195 382.316 109.246C390.931 95.8088 401.313 87.005 417.25 84.6104C404.58 95.3346 394.935 109.811 388.008 124.874C382.142 137.617 380.304 151.148 376.27 164.195C373.888 171.869 372.024 185.87 364.902 190.306" fill="#CDD6D1"></path> <path d="M314.919 235.67C313.765 230.532 311.633 225.66 310.422 220.356C308.728 213.185 308.614 205.013 307.837 197.714C306.284 183.313 306.557 168.816 311.21 154.949C315.268 142.874 320.01 130.722 326.139 119.591C329.41 113.513 333.751 108.077 338.954 103.542C341.531 101.207 344.304 99.098 347.242 97.2381C348.272 96.6246 355.288 92.0697 356.14 92.5572L356.245 92.5011C346.065 104.857 337.217 116.988 331.963 132.348C326.608 147.806 323.334 163.908 322.227 180.231C321.12 198.784 325.493 220.178 316.219 236.664" fill="#CDD6D1"></path> <path d="M345.164 208.723C340.125 196.426 341.031 179.703 343.519 166.923C344.5 161.804 345.307 156.477 346.28 151.207C347.657 143.73 350.455 137.338 353.88 130.547C360.547 117.344 369.842 105.949 384.751 102.737C379.935 107.006 376.046 113.878 372.689 119.44C368.513 126.151 364.851 133.169 361.734 140.434C357.176 151.44 355.963 163.734 354.126 175.232C352.399 186.008 352.055 200.294 344.851 209.067" fill="#CDD6D1"></path> <path d="M377.998 179.738C378.042 165.394 383.461 149.666 390.057 136.988C396.188 125.203 404.76 114.433 414.253 105.037C420.385 98.7995 427.908 94.1039 436.204 91.3342C416.97 109.492 404.584 132.404 393.98 156.746C390.51 164.826 386.99 172.735 379.909 178.466" fill="#CDD6D1"></path> <path d="M417.41 155.526C427.734 137.554 442.432 115.727 462.619 107.927C470.291 104.834 478.143 102.209 486.132 100.066C479.999 103.463 474.353 108.446 468.715 112.73C463.607 116.486 458.813 120.652 454.38 125.185C447.275 132.557 440.877 142.235 432.098 147.951C427.93 150.66 423.034 152.224 419.331 155.223" fill="#CDD6D1"></path> <path d="M394.571 168.344C400.393 165.414 404.741 159.612 408.58 154.487C417.096 143.167 424.635 130.991 432.772 119.313C437.134 113.303 441.831 107.544 446.842 102.063C450.761 97.6111 456.045 91.9511 461.483 90.1801C450.265 92.4637 440.286 95.4531 431.528 103.242C427.048 107.228 423.498 112.312 420.267 117.256C417.036 122.201 413.389 127.026 410.467 132.199C406.598 139.051 402.67 145.83 400.027 153.228C399.069 155.815 398.031 158.445 397.156 161.091C396.537 162.936 396.28 165.863 394.567 167.06" fill="#CDD6D1"></path> <path d="M429.203 149.999C434.771 148.781 440.058 145.1 445.197 142.732C450.393 140.422 455.406 137.717 460.19 134.642C466.854 130.118 473.14 125.06 478.985 119.519C486.285 112.666 494.134 106.027 501.926 99.6874C509.346 93.6407 517.22 87.5896 525.81 83.322C523.123 83.2987 520.178 84.8857 517.567 85.6618C514.465 86.6275 511.344 87.5937 508.367 88.7726C503.662 90.6911 499.155 93.0657 494.912 95.8625C487.317 100.749 480.599 106.637 472.985 111.429C464.846 116.596 457.106 122.366 449.829 128.69C445.33 132.555 441.075 136.695 437.091 141.089C434.319 144.16 432.323 148.235 429.445 151.052" fill="#CDD6D1"></path> <path d="M379.96 177.826C394.887 177.772 409.76 176.035 424.297 172.649C437.094 169.789 450.536 168.969 463.854 168.382C475.94 167.873 487.904 165.647 499.978 164.595C514.426 163.289 528.838 165.558 543.227 164.801C541.445 162.054 534.514 161.617 531.455 161.035C527.39 160.277 523.323 159.749 519.308 159.067C513.61 158.105 507.96 156.847 502.096 156.545C488.625 155.762 474.943 154.896 461.284 154.422C449.79 154.022 439.299 155.823 428.425 157.974C417.888 160.039 407.485 162.529 397.811 167.677C391.953 170.813 386.685 175.708 380.922 178.461" fill="#CDD6D1"></path> <path d="M428.361 151.912C450.037 151.889 470.08 142.91 491.198 140.044C501.952 138.579 511.93 135.373 522.85 134.276C534.677 133.128 546.981 133.436 558.836 132.284C562.781 131.964 566.706 131.443 570.598 130.725C545.947 126.296 519.808 124.063 494.998 127.817C484.151 129.476 473.381 132.132 462.789 134.308C452.335 136.411 440.6 140.382 432.191 147.756C430.997 148.8 429.907 150.016 428.71 150.937" fill="#CDD6D1"></path> <path d="M366.857 190.608C370.654 187.631 376.348 185.661 380.888 183.489C385.576 181.232 390.524 179.562 395.621 178.515C405.7 176.477 415.912 175.167 426.18 174.597C451.014 173.329 475.851 175.046 500.211 177.132C504.101 177.465 509.697 178.389 513.022 177.998C487.02 178.035 461.471 181.822 435.783 183.143C413.052 184.311 391.538 190.292 368.791 190.329L365.921 190.331" fill="#CDD6D1"></path> <path d="M329.578 223.528C338.227 215.497 353.203 211.19 364.324 208.803C376.031 206.289 387.813 206.202 400.052 206.193C423.878 206.159 449.517 201.765 473.111 206.428C480.039 207.9 486.839 209.918 493.448 212.463C468.448 212.067 444.155 216.342 418.898 216.375C395.512 216.355 372.158 218.089 349.032 221.563C345.303 222.15 341.588 222.491 337.866 223.208C334.498 223.849 330.226 223.596 327.025 224.802" fill="#CDD6D1"></path> <path d="M286.282 282.619C289.955 277.998 298.311 274.105 303.742 271.819C309.174 269.533 314.829 267.199 320.389 265.094C334.317 259.835 348.859 255.938 363.128 251.647C375.966 247.78 389.191 243.997 401.694 239.138C410.634 235.658 419.781 229.641 428.209 226.892C419.774 228.681 411.189 229.337 402.73 230.693C396.139 231.743 389.457 232.76 382.868 233.737C369.292 235.861 356.019 239.601 343.331 244.878C322.465 253.519 299.89 263.481 286.289 282.304C286.3 282.537 286.192 282.646 285.958 282.616" fill="#CDD6D1"></path> <path d="M345.472 207.884C348.849 204.51 356.228 201.97 360.769 199.974C365.742 197.771 370.854 195.897 376.072 194.362C387.05 191.041 398.428 189.225 409.894 188.967C435.998 188.637 462.481 186.942 488.683 188.209C492.864 188.407 497.216 189.468 501.346 189.475C493.899 190.03 486.516 192.583 479.037 193.332C470.939 194.142 462.773 195.175 454.649 195.937C440.626 197.223 426.524 198.282 412.45 199.492C400.914 200.484 389.537 201.463 378.322 203.714C368.505 205.673 357.921 208.54 347.699 207.242C346.947 207.19 346.2 207.088 345.462 206.936" fill="#CDD6D1"></path> <path d="M418.342 223.102L417.173 223.261C404.232 225.057 391.218 226.291 378.246 227.854C366.028 229.335 354.151 232.034 342.028 233.402C339.855 233.643 337.571 233.984 335.336 234.206C329.044 234.892 322.713 235.164 316.385 235.02C317.795 233.664 320.526 233.073 322.412 232.374C325.873 231.092 329.331 229.903 332.824 228.759C336.317 227.615 339.691 226.462 343.184 225.473C345.103 224.933 347.104 224.546 349.002 223.965C357.922 221.263 366.66 217.871 375.91 216.133C392.087 213.102 409.323 213.538 426.002 213.515C438.441 213.512 452.001 212.194 464.201 214.03C468.406 214.661 472.506 215.173 476.663 216.006C479.978 216.678 485.176 216.84 487.806 218.771C482.354 219.336 476.296 217.934 470.604 218.224C465.365 218.488 460.163 219.209 454.975 219.53C442.679 220.265 430.548 221.367 418.342 223.102Z" fill="#CDD6D1"></path> <path d="M270.598 316.992C275.318 304.509 288.075 294.527 298.717 286.849C310.954 278.026 325.591 273.144 339.857 268.711C360.43 262.31 384.806 260.282 406.507 263.947C390.662 264.539 374.026 271.051 359.007 275.588C344.977 279.823 330.141 282.592 316.917 289.164C308.117 293.544 299.713 297.888 290.986 302.404C283.151 306.455 277.326 313.68 269.746 317.841" fill="#CDD6D1"></path> <path d="M296.033 264.198C303.194 264.948 310.698 261.168 317.3 258.764C324.845 256.01 332.796 253.858 340.345 250.957C354.059 245.688 368.648 239.495 382.74 237.197C402.302 233.981 423.877 235.299 443.442 237.122C438.336 233.395 430.684 233.199 424.839 232.565C418.075 231.666 411.269 231.112 404.449 230.904C389.855 230.754 375.786 230.696 361.93 233.531C349.099 236.208 336.661 240.508 324.917 246.328C319.834 248.78 314.705 251.07 309.612 253.911C304.518 256.752 301.091 260.806 296.476 264.231" fill="#CDD6D1"></path> <path d="M262.141 348.056C265.853 342.636 269.09 337.605 274.472 333.251C279.85 328.758 285.521 324.627 291.447 320.886C305.221 312.474 321.772 308.476 336.503 302.859C350.652 297.472 367.173 292.235 379.832 284.161C365.006 282.766 348.668 287.822 334.816 291.807C320.724 295.868 306.684 300.201 293.97 308.346C285.811 313.554 279.662 319.729 273.7 327.298C269.159 333.068 262.66 340.467 261.282 347.634" fill="#CDD6D1"></path> <path d="M306.226 250.995C319.287 246.345 334.024 243.992 347.999 241.145C362.664 238.156 377.317 235.568 391.672 232.559C402.501 230.287 413.034 227.343 424.434 226.155C437.502 224.809 451.299 225.251 464.724 225.249C457.844 225.024 450.578 222.568 443.575 221.88C436.571 221.191 429.424 220.621 422.304 220.627C407.469 220.627 392.652 222.889 378.062 224.509C364.186 226.049 350.739 229.941 337.676 233.928C325.999 237.484 312.6 241.93 304.567 251.769C305 251.9 305.376 251.771 305.804 251.853" fill="#CDD6D1"></path> <path d="M276.084 350.068C271.996 352.767 268.357 356.09 265.299 359.918C263.038 362.839 261.263 366.631 258.609 369.109C259.506 362.459 262.976 355.966 266.882 350.443C273.159 341.545 281.53 333.267 291.27 328.436C300.703 323.748 311.045 321.26 321.205 318.724C341.139 313.764 363.121 310.052 382.74 316.429C368.054 318.724 353.041 325.497 338.675 329.124C325.17 332.539 311.626 336.596 297.862 340.689C289.937 343.024 283.016 345.433 276.084 350.068Z" fill="#CDD6D1"></path> <path d="M260.974 414.848C259.408 400.132 271.114 386.948 283.463 381.529C303.935 372.558 325.764 374.776 347.36 372.609C354.329 371.916 361.295 371.857 368.203 370.875C373.575 370.124 378.666 368.383 383.798 367.647C356.179 383.368 321.277 392.826 290.721 399.055C278.874 401.479 269.314 403.258 260.967 412.725" fill="#CDD6D1"></path> <path d="M265.694 438.669C263.626 434.363 270.455 425.159 273.423 421.756C278.26 416.211 284.543 413.23 291.592 411.737C306.95 408.492 322.641 407.63 338.406 406.23C349.44 405.248 360.3 404.659 371.236 403.107C380.217 401.834 390.116 398.733 398.735 398.566C394.503 403.809 385.738 406.511 379.654 409.032C372.617 411.988 365.372 414.422 357.977 416.314C344.113 419.755 330.324 421.787 316.287 424.46C306.765 426.271 297.463 428.027 288.236 430.022C279.753 431.857 271.194 432.831 264.409 438.631" fill="#CDD6D1"></path> <path d="M258.79 385.074C264.488 373.023 269.635 361.743 280.416 352.622C290.698 343.923 304.513 338.59 316.965 334.37C336.068 327.896 358.776 327.476 379.573 327.478C365.025 333.805 346.732 337.958 331.041 342.865C317.151 347.351 303.648 352.955 290.663 359.62C284.123 362.867 277.9 366.719 272.078 371.127C266.872 375.075 264.028 381.264 258.806 385.066" fill="#CDD6D1"></path> </g> <defs> <clipPath id="clip0_262:547"> <rect width="566.805" height="371.296" fill="white" transform="matrix(-0.881592 0.472013 0.472013 0.881592 500.618 0.0214844)"></rect> </clipPath> </defs> </svg> 