<?xml version="1.0" encoding="UTF-8"?> <svg xmlns="http://www.w3.org/2000/svg" width="365" height="336" viewBox="0 0 365 336" fill="none"> <g clip-path="url(#clip0_1147_1174)"> <path d="M35.7144 1.46576C11.7138 27.8692 -2.52835 147.037 0.372827 194.123C2.48277 228.271 33.4287 249.13 68.0669 251.418C112.815 254.499 133.739 250.538 193.96 283.367C237.478 307.13 341.217 309.506 358.185 232.056C371.46 171.592 333.481 -12 333.481 -12L35.7144 1.46576Z" fill="#FCF4E1"></path> </g> <g clip-path="url(#clip1_1147_1174)"> <path d="M155.63 22.9645C153.03 21.5645 128.83 8.76449 109.33 19.3645C100.53 24.1645 93.53 33.1645 91.53 35.8645C87.33 41.5645 84.83 47.0645 83.23 50.9645C92.23 45.9645 99.33 41.9645 104.63 38.5645C104.63 38.5645 106.53 37.3645 116.23 34.2645C117.23 33.9645 119.33 33.2645 120.73 34.2645C121.43 34.7645 122.13 35.7645 122.03 36.6645C121.93 39.2645 115.83 40.7645 108.93 43.0645C100.13 46.0645 95.73 47.5645 91.33 50.7645C89.43 52.1645 81.43 57.8645 79.43 67.8645C78.53 72.4645 79.23 76.0645 79.83 79.1645C82.03 90.0645 88.23 97.9645 92.83 102.564C97.43 84.4645 104.23 72.2645 109.03 65.0645C113.23 58.8645 117.63 53.7645 123.93 52.8645C124.33 52.8645 131.63 51.8645 133.93 55.7645C135.03 57.7645 134.53 60.0645 134.23 61.1645C132.93 66.4645 128.03 69.4645 125.03 71.5645C116.23 77.6645 110.93 84.1645 104.93 91.6645C96.33 102.364 96.63 106.964 96.83 108.564C97.43 113.564 100.93 117.464 101.63 118.364C103.73 120.764 106.03 122.264 109.63 124.164C113.83 126.264 119.93 128.964 127.73 131.364C128.63 124.464 129.93 114.164 131.73 101.464C133.53 88.9645 134.83 80.6645 140.73 72.2645C142.33 69.9645 146.93 63.2645 151.03 64.2645C153.63 64.8645 154.73 68.3645 154.73 68.5645C156.03 72.8645 153.23 76.9645 150.93 80.6645C148.93 83.9645 146.43 89.5645 141.33 100.964C136.83 111.064 134.53 116.064 134.33 122.964C134.23 126.564 133.93 135.365 139.73 142.764C144.63 149.064 151.43 151.064 158.63 153.165C167.03 155.665 174.33 155.764 179.03 155.464C174.73 145.464 172.03 136.664 170.23 130.164C168.03 122.064 167.13 115.364 165.23 101.864C164.03 93.1645 163.63 88.3645 166.53 84.0645C168.43 81.2645 172.63 77.1645 176.53 78.2645C178.53 78.7645 179.63 80.4645 179.83 80.8645C181.83 83.8645 180.63 87.8645 180.13 89.5645C178.23 96.4645 177.73 103.464 176.83 117.364C176.43 123.264 176.23 126.164 176.83 130.364C177.43 134.564 179.03 146.064 188.23 153.564C192.83 157.365 197.33 158.564 201.83 159.764C212.13 162.564 221.53 161.665 228.13 160.165C208.33 128.265 196.53 102.764 195.93 92.5645C195.43 84.7645 198.93 79.5645 198.93 79.5645C199.63 78.4645 203.13 73.5645 206.43 74.1645C208.13 74.4645 210.33 76.3645 212.53 87.0645C215.13 99.9645 213.23 103.864 214.43 116.164C215.33 124.764 216.23 133.664 222.13 142.464C224.03 145.364 227.23 149.964 233.03 153.264C240.33 157.464 247.73 157.164 254.53 156.864C258.73 156.664 264.43 156.064 271.13 153.964C265.53 148.064 257.93 140.064 249.13 130.264C249.13 130.264 233.43 112.865 231.73 101.064C231.53 99.7645 231.03 96.1645 233.13 93.0645C233.53 92.4645 234.73 90.7645 236.63 90.2645C240.33 89.3645 243.73 93.2645 244.43 94.1645C247.03 97.1645 247.73 100.564 248.13 102.364C249.63 109.464 251.53 114.364 255.03 123.864C258.53 133.264 261.43 137.364 263.13 139.364C267.63 144.964 271.03 146.264 272.33 146.664C276.33 148.064 279.73 147.364 282.53 146.864C288.43 145.764 293.03 143.064 295.83 140.864C293.23 139.364 276.43 129.264 267.93 120.764C266.13 118.964 263.43 115.964 263.13 111.964C263.03 110.964 262.83 108.164 264.83 105.864C265.03 105.664 266.93 103.564 269.73 103.564C272.13 103.564 273.93 105.164 275.83 107.264C280.73 112.365 283.93 116.964 284.73 118.164C288.63 123.764 290.03 126.164 293.43 129.364C295.63 131.364 297.43 132.564 299.63 132.864C302.63 133.364 305.33 132.164 306.23 131.664C306.73 131.364 307.03 131.264 310.03 128.664C314.03 125.364 314.03 125.264 314.53 124.964C316.13 123.964 318.73 123.164 323.03 123.864C321.83 122.564 320.03 120.364 318.83 117.164C317.33 112.864 317.73 109.165 317.93 108.064C318.33 105.064 319.13 105.064 319.93 101.564C320.53 98.7645 321.33 95.2645 320.13 92.3645C319.73 91.4645 318.53 88.7645 310.23 85.4645C303.93 82.8645 298.33 81.8645 294.63 81.4645C284.63 80.1645 275.63 80.4645 275.63 80.4645C273.63 80.5645 269.43 80.7645 264.23 79.3645C261.83 78.7645 258.13 77.6645 257.83 75.5645C257.73 74.7645 258.13 73.7645 259.73 72.2645C264.13 68.1645 269.73 67.1645 271.13 66.9645C278.73 65.7645 284.73 66.9645 289.93 68.0645C294.33 68.9645 299.53 70.1645 305.93 73.1645C313.43 76.7645 318.93 81.4645 322.93 85.6645C323.43 83.8645 328.03 67.8645 318.93 57.7645C313.23 51.5645 304.93 50.4645 299.13 49.7645C293.53 49.0645 286.53 49.9645 272.53 51.7645C267.53 52.3645 262.53 52.3645 257.53 52.8645C255.93 53.0645 250.83 53.5645 245.43 51.4645C242.73 50.4645 242.13 49.5645 242.13 48.8645C242.13 48.1645 242.63 47.1645 245.53 45.8645C252.23 42.6645 259.13 43.2645 259.13 43.2645C277.03 44.5645 272.23 42.5645 285.13 44.4645C292.53 45.5645 302.43 47.3645 313.93 50.8645C313.93 47.3645 313.53 36.2645 305.43 28.5645C303.63 26.8645 300.83 24.6645 295.33 22.7645C279.03 16.9645 262.53 21.7645 257.03 23.4645C257.03 23.4645 247.63 26.3645 220.83 33.1645C220.13 33.3645 218.53 33.7645 217.63 32.8645C217.03 32.2645 216.83 31.3645 217.03 30.6645C217.33 28.9645 219.53 27.9645 222.73 26.7645C229.83 24.0645 231.43 23.7645 231.43 23.7645C244.93 20.8645 244.03 20.0645 253.83 18.5645C265.83 16.6645 275.23 16.5645 279.43 16.5645C286.43 16.5645 295.03 17.0645 304.63 18.6645C303.33 13.4645 300.23 5.06449 293.03 -2.23551C289.83 -5.53551 285.33 -9.93551 278.43 -11.1355C274.33 -11.9355 271.03 -11.2355 266.43 -10.0355C256.63 -7.43552 249.23 -5.53551 237.83 -0.0355148C229.93 3.76448 221.73 7.06449 213.93 10.8645C212.13 11.7645 207.43 14.0645 206.13 12.5645C205.43 11.7645 206.13 10.0645 206.33 9.56448C209.13 2.56448 222.73 -3.13552 228.23 -5.43552C240.73 -10.6355 246.93 -13.1355 254.13 -14.8355C263.23 -16.9355 271.13 -17.5355 277.23 -17.5355C274.73 -22.1355 269.23 -30.5355 259.03 -35.7355C255.53 -37.5355 249.93 -40.3355 242.93 -39.5355C237.23 -38.9355 233.43 -36.2355 227.33 -31.7355C219.23 -25.8355 216.03 -21.2355 203.83 -11.5355C199.63 -8.13551 196.53 -5.93552 195.13 -6.93552C193.23 -8.23552 195.23 -14.3355 195.73 -15.5355C196.23 -17.0355 198.53 -23.4355 206.03 -29.9355C211.33 -34.4355 216.33 -36.5355 219.83 -37.9355C224.03 -39.6355 230.63 -41.7355 239.03 -42.2355C234.23 -46.6355 225.73 -53.0355 213.93 -55.0355C208.33 -56.0355 202.13 -57.0355 196.33 -53.7355C189.13 -49.6355 185.73 -40.6355 183.63 -35.1355C181.83 -30.2355 179.13 -25.8355 177.23 -20.9355C176.73 -19.7355 175.53 -16.6355 173.03 -15.9355C172.73 -15.8355 171.43 -15.5355 170.43 -16.2355C169.13 -17.2355 169.53 -19.5355 169.63 -20.5355C170.53 -26.4355 185.03 -48.2355 187.43 -51.8355C178.13 -49.5355 170.83 -46.3355 165.83 -43.8355C155.23 -38.4355 142.83 -32.0355 141.63 -21.5355C141.03 -16.5355 143.13 -11.3355 143.33 -10.9355C144.03 -9.23552 145.13 -7.33552 150.03 -1.43552C150.93 -0.335518 155.03 4.46448 157.63 7.16448C188.53 38.6645 224.93 62.7645 224.93 62.7645C271.23 93.4645 303.33 113.164 303.13 113.464C302.93 113.764 264.03 93.0645 216.53 62.2645C170.83 32.5645 107.13 -18.8355 96.43 -26.7355L94.13 -23.5355L155.63 22.9645Z" fill="#F8E6B1"></path> </g> <path d="M206.5 310.441L209.678 319.027L209.757 319.243L209.973 319.322L218.559 322.5L209.973 325.678L209.757 325.757L209.678 325.973L206.5 334.559L203.322 325.973L203.243 325.757L203.027 325.678L194.441 322.5L203.027 319.322L203.243 319.243L203.322 319.027L206.5 310.441Z" fill="url(#paint0_linear_1147_1174)" stroke="url(#paint1_linear_1147_1174)"></path> <defs> <linearGradient id="paint0_linear_1147_1174" x1="206.5" y1="309" x2="206.5" y2="336" gradientUnits="userSpaceOnUse"> <stop stop-color="#FF95AB"></stop> <stop offset="1" stop-color="#FFB1C1"></stop> </linearGradient> <linearGradient id="paint1_linear_1147_1174" x1="206.5" y1="309" x2="206.5" y2="336" gradientUnits="userSpaceOnUse"> <stop stop-color="#FFFDDA"></stop> <stop offset="1" stop-color="#F4F1BA"></stop> </linearGradient> <clipPath id="clip0_1147_1174"> <rect width="365" height="301" fill="white" transform="translate(0 1)"></rect> </clipPath> <clipPath id="clip1_1147_1174"> <rect width="246" height="162" fill="white" transform="translate(79)"></rect> </clipPath> </defs> </svg> 