<?xml version="1.0" encoding="UTF-8"?> <svg xmlns="http://www.w3.org/2000/svg" width="1124" height="561" viewBox="0 0 1124 561" fill="none"> <mask id="mask0_380_99" style="mask-type:alpha" maskUnits="userSpaceOnUse" x="0" y="0" width="1124" height="561"> <path d="M0 66.2579C0 39.7347 20.782 17.8146 47.2667 16.3841C441.689 -4.92045 682.417 -5.95656 1076.88 16.2697C1103.3 17.7588 1124 39.6551 1124 66.1235V499.019C1124 525.828 1102.78 547.876 1075.99 548.935C682.318 564.496 441.71 564.256 48.0448 548.908C21.2426 547.863 0 525.809 0 498.987V66.2579Z" fill="white"></path> </mask> <g mask="url(#mask0_380_99)"> <path d="M125.8 358.446C121.971 361.962 110.418 378.224 104.978 386.812L114.082 384.306C121.956 382.513 146.853 387.217 158.686 389.926C184.424 397.609 203.471 414.197 197.855 436.853C192.238 459.509 163.403 455.728 150.993 456.737C138.582 457.745 104.776 444.417 95.9606 440.423L79.9826 433.183L64.5258 467.296C66.1263 466.695 72.9322 466.331 87.3521 469.681C105.377 473.869 141.439 489.546 161.339 507.184C181.239 524.822 172.513 544.079 156.862 552.24C141.21 560.402 117.716 547.767 108.349 543.523L72.5363 527.296C57.017 524.906 59.403 544.556 55.9127 552.259C52.4225 559.962 60.6722 584.259 59.3858 592.96C58.3567 599.922 49.4236 601.268 45.0856 601.071C37.9176 600.476 36.2993 592.078 34.2506 586.877C31.2388 581.799 16.5965 572.54 10.3311 566.385C-2.49042 561.902 -16.2275 550.742 -20.8712 547.311C-45.2509 529.302 -42.1604 517.107 -36.65 510.319C-23.2154 499.429 -2.61967 508.496 5.99887 514.39C16.1657 518.334 25.6492 532.578 26.8957 529.827C28.1422 527.076 21.0595 511.93 16.4946 505.882C12.8428 501.045 -21.4508 471.889 -38.1411 457.916C-64.44 438.572 -62.6698 416.296 -58.4973 407.576C-43.5391 374.563 -9.15712 402.741 1.46837 411.535C9.96877 418.57 27.4762 440.12 35.1673 450.015C38.7154 441.012 7.53474 398.146 -8.49911 377.839C-28.4477 349.17 -22.055 323.727 -16.3651 314.589C-12.662 308.859 -1.1062 299.38 15.4926 307.301C36.1843 315.083 53.6321 363.833 59.4044 370.142C64.3785 375.579 62.4742 370.207 60.9002 366.841C54.7093 352.364 61.7525 319.036 66.0479 304.182C71.5804 284.937 84.8138 262.229 96.9467 256.507C124.235 245.527 140.858 255.79 147.309 264.073C168.339 287.474 154.113 320.873 152.67 325.525C151.226 330.176 129.627 354.93 125.8 358.446Z" fill="#507668"></path> <ellipse cx="108.791" cy="311.906" rx="3.02444" ry="3.62436" transform="rotate(24.3753 108.791 311.906)" fill="#A5D7A2"></ellipse> <ellipse cx="119.511" cy="288.247" rx="3.02444" ry="5.43654" transform="rotate(24.3753 119.511 288.247)" fill="#A5D7A2"></ellipse> <ellipse rx="3.62878" ry="5.28629" transform="matrix(0.72286 0.690995 -0.691613 0.722268 142.665 289.265)" fill="#A5D7A2"></ellipse> <ellipse rx="3.62878" ry="5.28629" transform="matrix(0.72286 0.690995 -0.691613 0.722268 138.924 315.11)" fill="#A5D7A2"></ellipse> <ellipse rx="3.62878" ry="5.28629" transform="matrix(0.72286 0.690995 -0.691613 0.722268 121.841 335.223)" fill="#A5D7A2"></ellipse> <ellipse rx="3.62877" ry="5.28629" transform="matrix(0.722859 0.690995 -0.691613 0.722269 110.164 355.133)" fill="#A5D7A2"></ellipse> <ellipse rx="3.62932" ry="5.2855" transform="matrix(0.923589 0.383383 -0.383302 0.923623 81.0294 310.56)" fill="#A5D7A2"></ellipse> <ellipse rx="3.62932" ry="5.2855" transform="matrix(0.92359 0.383383 -0.383302 0.923623 87.1971 288.154)" fill="#A5D7A2"></ellipse> <ellipse rx="3.62911" ry="5.28581" transform="matrix(0.806286 0.591526 -0.591971 0.805959 111.784 266.135)" fill="#A5D7A2"></ellipse> <ellipse rx="3.62837" ry="5.28689" transform="matrix(0.638419 0.769689 -0.770376 0.63759 134.064 268.844)" fill="#A5D7A2"></ellipse> <ellipse rx="3.62837" ry="5.28689" transform="matrix(0.638419 0.769689 -0.770376 0.63759 96.6167 333.244)" fill="#A5D7A2"></ellipse> <ellipse cx="88.3607" cy="364.324" rx="3.62933" ry="5.43654" transform="rotate(24.3753 88.3607 364.324)" fill="#A5D7A2"></ellipse> <ellipse rx="3.62837" ry="5.43797" transform="matrix(0.999617 -0.027679 0.028757 0.999586 71.013 343.014)" fill="#A5D7A2"></ellipse> <ellipse rx="3.62736" ry="4.83511" transform="matrix(0.967737 -0.251964 0.253258 0.967399 11.1001 323.344)" fill="#A5D7A2"></ellipse> <ellipse rx="3.77035" ry="5.463" transform="matrix(0.996845 0.0793694 -0.0784983 0.996914 0.64334 347.207)" fill="#A5D7A2"></ellipse> <ellipse rx="3.76842" ry="5.46579" transform="matrix(0.939988 -0.341207 0.342492 0.939521 25.9439 347.863)" fill="#A5D7A2"></ellipse> <ellipse rx="3.77005" ry="5.46343" transform="matrix(0.999993 -0.00369435 0.00473148 0.999989 9.82712 369.736)" fill="#A5D7A2"></ellipse> <ellipse rx="3.77005" ry="5.46345" transform="matrix(0.999986 -0.00530204 0.00634221 0.99998 40.6606 369.119)" fill="#A5D7A2"></ellipse> <ellipse rx="3.77057" ry="5.46268" transform="matrix(0.98851 0.151153 -0.150448 0.988618 31.3492 391.143)" fill="#A5D7A2"></ellipse> <ellipse rx="4.32335" ry="6.70356" transform="matrix(0.970399 0.241507 -0.241035 0.970517 66.642 384.463)" fill="#A5D7A2"></ellipse> <ellipse rx="3.42236" ry="5.21388" transform="matrix(0.76306 0.646328 -0.646878 0.762594 83.3304 392.732)" fill="#A5D7A2"></ellipse> <ellipse rx="3.42042" ry="5.21682" transform="matrix(0.363689 0.931521 -0.932017 0.362415 123.515 398.243)" fill="#A5D7A2"></ellipse> <ellipse rx="3.42042" ry="5.21682" transform="matrix(0.363689 0.931521 -0.932017 0.362415 156.573 413.221)" fill="#A5D7A2"></ellipse> <ellipse rx="3.42042" ry="5.21682" transform="matrix(0.363689 0.931521 -0.932017 0.362415 180.396 413.405)" fill="#A5D7A2"></ellipse> <ellipse rx="3.42042" ry="5.21682" transform="matrix(0.363689 0.93152 -0.932017 0.362414 176.328 434.11)" fill="#A5D7A2"></ellipse> <ellipse rx="3.42042" ry="5.21682" transform="matrix(0.363689 0.931521 -0.932017 0.362415 150.51 438.328)" fill="#A5D7A2"></ellipse> <ellipse rx="3.42043" ry="5.21683" transform="matrix(0.363689 0.931521 -0.932017 0.362415 133.562 420.038)" fill="#A5D7A2"></ellipse> <ellipse rx="3.4225" ry="5.21367" transform="matrix(0.801153 0.598459 -0.59892 0.800809 103.071 421.818)" fill="#A5D7A2"></ellipse> <ellipse rx="3.42249" ry="5.21367" transform="matrix(0.801153 0.59846 -0.59892 0.800809 73.6332 416.438)" fill="#A5D7A2"></ellipse> <ellipse rx="3.42206" ry="5.21433" transform="matrix(0.998967 0.0454336 -0.0444925 0.99901 53.9031 410.151)" fill="#A5D7A2"></ellipse> <ellipse rx="3.42249" ry="5.21368" transform="matrix(0.801152 0.59846 -0.598919 0.80081 50.4378 432.455)" fill="#A5D7A2"></ellipse> <ellipse rx="3.80581" ry="5.57143" transform="matrix(0.874814 -0.484459 0.508691 0.860949 4.12409 459.7)" fill="#A5D7A2"></ellipse> <ellipse rx="4.44366" ry="6.71183" transform="matrix(0.9692 0.246273 -0.236122 0.971723 31.0347 475.779)" fill="#A5D7A2"></ellipse> <ellipse rx="4.27706" ry="5.1007" transform="matrix(0.950286 0.311378 -0.305161 0.952301 49.7962 485.469)" fill="#A5D7A2"></ellipse> <ellipse rx="4.12897" ry="3.88993" transform="matrix(0.767756 0.640742 -0.652572 0.757727 69.6799 490.499)" fill="#A5D7A2"></ellipse> <ellipse rx="3.47161" ry="5.29145" transform="matrix(0.376706 0.926333 -0.937007 0.34931 90.8439 481.598)" fill="#A5D7A2"></ellipse> <ellipse rx="3.42798" ry="5.35721" transform="matrix(-0.118013 0.993012 -0.990923 -0.134431 121.608 491.557)" fill="#A5D7A2"></ellipse> <ellipse rx="3.4716" ry="5.29145" transform="matrix(0.376707 0.926333 -0.937008 0.349309 145.757 505.15)" fill="#A5D7A2"></ellipse> <ellipse rx="3.4716" ry="5.29145" transform="matrix(0.376707 0.926333 -0.937008 0.349309 145.233 520.836)" fill="#A5D7A2"></ellipse> <ellipse rx="3.42236" ry="5.36557" transform="matrix(-0.237318 0.971432 -0.968913 -0.247402 116.277 529.6)" fill="#A5D7A2"></ellipse> <ellipse rx="3.44142" ry="5.33711" transform="matrix(0.0713469 0.997452 -0.998888 0.0471415 147.383 542.367)" fill="#A5D7A2"></ellipse> <ellipse rx="3.44142" ry="5.33711" transform="matrix(0.0713475 0.997451 -0.998888 0.0471409 161.488 527.471)" fill="#A5D7A2"></ellipse> <ellipse rx="3.42236" ry="5.36557" transform="matrix(-0.237318 0.971432 -0.968913 -0.247402 92.9699 517.713)" fill="#A5D7A2"></ellipse> <ellipse rx="3.43416" ry="5.34799" transform="matrix(-0.0220853 0.999756 -0.99908 -0.0428794 120.928 511.15)" fill="#A5D7A2"></ellipse> <ellipse rx="3.4716" ry="5.29145" transform="matrix(0.376706 0.926333 -0.937007 0.34931 90.9558 498.896)" fill="#A5D7A2"></ellipse> <ellipse rx="3.46557" ry="5.30064" transform="matrix(0.32125 0.946994 -0.955992 0.293392 67.4643 510.486)" fill="#A5D7A2"></ellipse> <ellipse rx="3.48866" ry="5.2653" transform="matrix(0.986734 -0.162347 0.189374 0.981905 45.3368 511.074)" fill="#A5D7A2"></ellipse> <ellipse rx="3.46914" ry="5.29521" transform="matrix(0.936654 -0.350256 0.377639 0.925953 7.74137 481.084)" fill="#A5D7A2"></ellipse> <ellipse rx="4.65145" ry="5.29521" transform="matrix(0.936654 -0.350256 0.37764 0.925953 11.7456 446.641)" fill="#A5D7A2"></ellipse> <ellipse rx="3.70228" ry="5.29521" transform="matrix(0.936654 -0.350256 0.377639 0.925953 51.5304 462.749)" fill="#A5D7A2"></ellipse> <ellipse rx="3.48974" ry="5.26362" transform="matrix(0.988512 -0.15114 0.177979 0.984034 27.4648 499.444)" fill="#A5D7A2"></ellipse> <ellipse rx="4.23319" ry="5.43785" transform="matrix(0.999976 -0.0069074 0.00794953 0.999968 41.4522 535.461)" fill="#A5D7A2"></ellipse> <ellipse rx="4.23402" ry="5.43678" transform="matrix(0.970617 0.240629 -0.240154 0.970735 42.8934 558.662)" fill="#A5D7A2"></ellipse> <ellipse rx="4.23168" ry="5.43981" transform="matrix(0.956365 -0.292173 0.293469 0.955968 18.2561 538.396)" fill="#A5D7A2"></ellipse> <ellipse rx="4.22943" ry="5.44271" transform="matrix(0.75364 -0.657287 0.658064 0.752962 22.7625 563.464)" fill="#A5D7A2"></ellipse> </g> </svg> 