<?xml version="1.0" encoding="UTF-8"?> <svg xmlns="http://www.w3.org/2000/svg" width="462" height="499" viewBox="0 0 462 499" fill="none"> <g filter="url(#filter0_d)"> <path d="M30 176.993V313.786C30 343.399 45.6824 370.581 71.3044 385.388L189.696 453.895C215.318 468.702 246.682 468.702 272.304 453.895L390.696 385.388C416.318 370.581 432 343.399 432 313.786V176.993C432 147.38 416.318 120.198 390.696 105.391L272.304 37.1048C246.682 22.2984 215.318 22.2984 189.696 37.1048L71.3044 105.612C45.6824 120.198 30 147.601 30 176.993Z" fill="white"></path> <path d="M39 182.831V309.169C39 338.766 54.687 365.933 80.3165 380.732L189.684 443.901C215.313 458.7 246.687 458.7 272.316 443.901L381.684 380.732C407.313 365.933 423 338.766 423 309.169V182.831C423 153.234 407.313 126.067 381.684 111.268L272.316 48.0988C246.687 33.3004 215.313 33.3004 189.684 48.0988L80.3165 111.268C54.687 126.067 39 153.234 39 182.831Z" fill="white"></path> <g opacity="0.1"> <mask id="mask0" maskUnits="userSpaceOnUse" x="39" y="37" width="384" height="418"> <path d="M39 182.831V309.169C39 338.766 54.687 365.933 80.3165 380.732L189.684 443.901C215.313 458.7 246.687 458.7 272.316 443.901L381.684 380.732C407.313 365.933 423 338.766 423 309.169V182.831C423 153.234 407.313 126.067 381.684 111.268L272.316 48.0988C246.687 33.3004 215.313 33.3004 189.684 48.0988L80.3165 111.268C54.687 126.067 39 153.234 39 182.831Z" fill="white"></path> </mask> <g mask="url(#mask0)"> <path d="M-18 388.984C-12.4889 393.089 19.8889 409.506 44 371.199C3.35556 352.045 -15.2444 382.828 -18 388.984Z" fill="#236229"></path> <path d="M9 341.226C13.766 346.017 41 369.288 73 337.804C38.2766 309.742 13.0851 335.751 9 341.226Z" fill="#236229"></path> <path d="M47 300.476C50.4409 306.035 72.4624 335.916 111 311.594C82.7849 276.154 52.5054 296.306 47 300.476Z" fill="#236229"></path> <path d="M55.562 233C49.3328 236.387 20.2636 258.065 44.488 296C79.7863 268.226 59.7147 238.419 55.562 233Z" fill="#236229"></path> <path d="M96 267.502C98.069 273.796 113.241 308.06 156 293.375C136.69 251.419 102.207 264.006 96 267.502Z" fill="#236229"></path> <path d="M119.066 203C112.865 205.069 79.1019 220.241 93.5716 263C134.225 243.69 121.822 209.207 119.066 203Z" fill="#236229"></path> <path d="M474 388.984C468.489 393.089 436.111 409.506 412 371.199C452.644 352.045 471.244 382.828 474 388.984Z" fill="#236229"></path> <path d="M447 341.226C442.234 346.017 415 369.288 383 337.804C417.723 309.742 442.915 335.751 447 341.226Z" fill="#236229"></path> <path d="M454.226 274C459.017 278.766 482.288 306 450.804 338C422.742 303.277 448.751 278.085 454.226 274Z" fill="#236229"></path> <path d="M409 300.476C405.559 306.035 383.538 335.916 345 311.594C373.215 276.154 403.495 296.306 409 300.476Z" fill="#236229"></path> <path d="M400.476 233C406.035 236.387 435.916 258.065 411.594 296C376.154 268.226 396.306 238.419 400.476 233Z" fill="#236229"></path> <path d="M360 267.502C357.931 273.796 342.759 308.06 300 293.375C320 251.419 354.483 264.006 360 267.502Z" fill="#236229"></path> <path d="M337.37 203C343.478 205.069 376.735 220.241 362.482 263C321.759 243.69 333.976 209.207 337.37 203Z" fill="#236229"></path> </g> </g> <path fill-rule="evenodd" clip-rule="evenodd" d="M189.154 47.2413C215.111 32.2529 246.889 32.2529 272.846 47.2413L272.846 47.2414L382.154 110.379C408.111 125.368 424 152.886 424 182.862V309.138C424 339.114 408.111 366.632 382.154 381.621L272.846 444.759L272.294 443.803L272.846 444.759C246.889 459.747 215.111 459.747 189.154 444.759L189.706 443.803L189.154 444.759L79.8459 381.621C53.8888 366.632 38 339.114 38 309.138V182.862C38 152.886 53.8887 125.368 79.8458 110.379C79.8459 110.379 79.8459 110.379 79.8459 110.379L189.154 47.2414L189.154 47.2413ZM271.742 49.1529C246.468 34.5592 215.532 34.5592 190.258 49.1529L80.9505 112.291L80.9504 112.291C55.6764 126.885 40.2082 153.674 40.2082 182.862V309.138C40.2082 338.326 55.6764 365.115 80.9504 379.709L80.3982 380.665L80.9505 379.709L190.258 442.847C215.532 457.441 246.468 457.441 271.742 442.847L381.049 379.709L381.602 380.665L381.05 379.709C406.324 365.115 421.792 338.326 421.792 309.138V182.862C421.792 153.674 406.324 126.885 381.05 112.291L381.602 111.335L381.049 112.291L271.742 49.1529Z" fill="#FFD1EA"></path> <path d="M177.133 272.431V270.862C178.601 270.862 179.703 270.652 180.437 270.234C181.276 269.711 181.853 269.083 182.168 268.351C182.587 267.514 182.797 266.625 182.797 265.683C182.902 264.637 182.954 263.591 182.954 262.545V247.166H140L193.182 172V239.32H202.779V247.166H193.182V262.545C193.182 264.637 193.549 266.572 194.283 268.351C195.122 270.025 196.8 270.862 199.318 270.862V272.431H177.133ZM182.954 195.382C177.71 202.809 172.465 210.132 167.22 217.351C162.08 224.569 156.888 231.892 151.643 239.32H182.954V195.382Z" fill="#30695F"></path> <path d="M213.781 265.683C213.781 263.591 214.463 261.812 215.827 260.348C217.295 258.883 219.078 258.151 221.176 258.151C223.274 258.151 225.057 258.883 226.526 260.348C227.994 261.812 228.729 263.591 228.729 265.683C228.729 267.775 227.994 269.554 226.526 271.018C225.057 272.378 223.274 273.058 221.176 273.058C219.078 273.058 217.295 272.378 215.827 271.018C214.463 269.554 213.781 267.775 213.781 265.683Z" fill="#30695F"></path> <path d="M309 246.852C309 251.455 308.056 255.483 306.168 258.935C304.385 262.283 301.92 265.108 298.773 267.409C295.731 269.606 292.164 271.28 288.074 272.431C283.983 273.477 279.63 274 275.014 274C270.713 274 266.518 273.477 262.427 272.431C258.336 271.28 254.665 269.606 251.413 267.409C248.161 265.108 245.539 262.283 243.546 258.935C241.658 255.588 240.714 251.665 240.714 247.166C240.714 241.203 242.497 235.868 246.063 231.16C249.63 226.348 255.294 222.791 263.056 220.489C257.077 217.769 252.672 214.631 249.839 211.074C247.112 207.412 245.749 202.966 245.749 197.735C245.749 193.865 246.535 190.517 248.109 187.692C249.787 184.763 251.937 182.305 254.56 180.317C257.287 178.329 260.381 176.865 263.843 175.923C267.304 174.877 270.818 174.354 274.385 174.354C277.951 174.354 281.465 174.877 284.927 175.923C288.493 176.865 291.64 178.329 294.367 180.317C297.094 182.305 299.297 184.815 300.976 187.849C302.759 190.778 303.65 194.231 303.65 198.206C303.65 202.914 302.077 207.308 298.93 211.388C295.783 215.468 291.692 218.554 286.657 220.646C293.161 222.529 298.511 225.668 302.706 230.062C306.902 234.351 309 239.948 309 246.852ZM294.525 200.56C294.525 197.422 293.843 194.545 292.479 191.929C291.22 189.314 289.542 187.117 287.444 185.338C285.346 183.455 282.934 182.043 280.206 181.102C277.584 180.055 274.909 179.532 272.182 179.532C270.084 179.532 268.039 179.846 266.046 180.474C264.053 181.102 262.269 182.043 260.696 183.298C259.123 184.554 257.811 186.123 256.762 188.006C255.818 189.889 255.346 192.086 255.346 194.597C255.346 197.422 256.028 200.037 257.392 202.443C258.755 204.849 260.539 206.994 262.741 208.877C265.049 210.76 267.619 212.434 270.451 213.898C273.388 215.258 276.325 216.409 279.262 217.351C283.983 215.468 287.706 213.114 290.434 210.289C293.161 207.465 294.525 204.222 294.525 200.56ZM301.133 250.148C301.133 247.218 300.346 244.446 298.773 241.831C297.199 239.215 294.997 236.862 292.164 234.769C289.332 232.572 286.028 230.637 282.252 228.963C278.581 227.185 274.699 225.668 270.609 224.412C267.881 225.354 265.311 226.505 262.899 227.865C260.486 229.225 258.388 230.794 256.605 232.572C254.822 234.351 253.406 236.286 252.357 238.378C251.308 240.471 250.783 242.72 250.783 245.126C250.783 248.265 251.518 251.246 252.986 254.071C254.455 256.895 256.395 259.406 258.808 261.603C261.221 263.695 264 265.317 267.147 266.468C270.294 267.618 273.546 268.194 276.902 268.194C279.734 268.194 282.567 267.775 285.399 266.938C288.336 265.997 290.906 264.794 293.108 263.329C295.416 261.76 297.304 259.877 298.773 257.68C300.346 255.483 301.133 252.972 301.133 250.148Z" fill="#30695F"></path> <path d="M163.241 109.554C163.48 108.815 164.52 108.815 164.759 109.554L167.045 116.618C167.151 116.948 167.458 117.172 167.803 117.172H175.201C175.974 117.172 176.295 118.165 175.67 118.621L169.685 122.987C169.405 123.191 169.288 123.553 169.395 123.883L171.681 130.948C171.92 131.686 171.079 132.299 170.454 131.843L164.469 127.477C164.189 127.273 163.811 127.273 163.531 127.477L157.546 131.843C156.921 132.299 156.08 131.686 156.319 130.948L158.605 123.883C158.712 123.553 158.595 123.191 158.315 122.987L152.33 118.621C151.705 118.165 152.026 117.172 152.799 117.172H160.197C160.542 117.172 160.849 116.948 160.955 116.618L163.241 109.554Z" fill="#FFD1EA"></path> <path fill-rule="evenodd" clip-rule="evenodd" d="M164 112.393L162.473 117.113C162.152 118.104 161.233 118.774 160.197 118.774H155.254L159.253 121.691C160.092 122.303 160.443 123.388 160.122 124.378L158.595 129.098L162.593 126.181C163.432 125.569 164.568 125.569 165.407 126.181L169.405 129.098L167.878 124.378C167.557 123.388 167.908 122.303 168.747 121.691L172.746 118.774H167.803C166.767 118.774 165.848 118.104 165.527 117.113L164 112.393ZM164.759 109.554C164.52 108.815 163.48 108.815 163.241 109.554L160.955 116.618C160.849 116.948 160.542 117.172 160.197 117.172H152.799C152.026 117.172 151.705 118.165 152.33 118.621L158.315 122.987C158.595 123.191 158.712 123.553 158.605 123.883L156.319 130.948C156.08 131.686 156.921 132.299 157.546 131.843L163.531 127.477C163.811 127.273 164.189 127.273 164.469 127.477L170.454 131.843C171.079 132.299 171.92 131.686 171.681 130.948L169.395 123.883C169.288 123.553 169.405 123.191 169.685 122.987L175.67 118.621C176.295 118.165 175.974 117.172 175.201 117.172H167.803C167.458 117.172 167.151 116.948 167.045 116.618L164.759 109.554Z" fill="#FFD1EA"></path> <path d="M196.71 109.554C196.958 108.815 198.042 108.815 198.29 109.554L200.671 116.618C200.783 116.948 201.102 117.172 201.462 117.172H209.167C209.972 117.172 210.307 118.165 209.656 118.621L203.422 122.987C203.131 123.191 203.009 123.553 203.12 123.883L205.501 130.948C205.75 131.686 204.874 132.299 204.222 131.843L197.988 127.477C197.697 127.273 197.303 127.273 197.012 127.477L190.778 131.843C190.126 132.299 189.25 131.686 189.499 130.948L191.88 123.883C191.991 123.553 191.869 123.191 191.578 122.987L185.344 118.621C184.693 118.165 185.028 117.172 185.833 117.172H193.538C193.898 117.172 194.217 116.948 194.329 116.618L196.71 109.554Z" fill="#FFD1EA"></path> <path fill-rule="evenodd" clip-rule="evenodd" d="M197.5 112.393L195.909 117.113C195.575 118.104 194.618 118.774 193.538 118.774H188.39L192.555 121.691C193.429 122.303 193.794 123.388 193.461 124.378L191.87 129.098L196.035 126.181C196.908 125.569 198.092 125.569 198.965 126.181L203.13 129.098L201.539 124.378C201.206 123.388 201.571 122.303 202.445 121.691L206.61 118.774H201.462C200.382 118.774 199.425 118.104 199.091 117.113L197.5 112.393ZM198.29 109.554C198.042 108.815 196.958 108.815 196.71 109.554L194.329 116.618C194.217 116.948 193.898 117.172 193.538 117.172H185.833C185.028 117.172 184.693 118.165 185.344 118.621L191.578 122.987C191.869 123.191 191.991 123.553 191.88 123.883L189.499 130.948C189.25 131.686 190.126 132.299 190.778 131.843L197.012 127.477C197.303 127.273 197.697 127.273 197.988 127.477L204.222 131.843C204.874 132.299 205.75 131.686 205.501 130.948L203.12 123.883C203.009 123.553 203.131 123.191 203.422 122.987L209.656 118.621C210.307 118.165 209.972 117.172 209.167 117.172H201.462C201.102 117.172 200.783 116.948 200.671 116.618L198.29 109.554Z" fill="#FFD1EA"></path> <path d="M230.241 109.554C230.48 108.815 231.52 108.815 231.759 109.554L234.045 116.618C234.151 116.948 234.458 117.172 234.803 117.172H242.201C242.974 117.172 243.295 118.165 242.67 118.621L236.685 122.987C236.405 123.191 236.288 123.553 236.395 123.883L238.681 130.948C238.92 131.686 238.079 132.299 237.454 131.843L231.469 127.477C231.189 127.273 230.811 127.273 230.531 127.477L224.546 131.843C223.921 132.299 223.08 131.686 223.319 130.948L225.605 123.883C225.712 123.553 225.595 123.191 225.315 122.987L219.33 118.621C218.705 118.165 219.026 117.172 219.799 117.172H227.197C227.542 117.172 227.849 116.948 227.955 116.618L230.241 109.554Z" fill="#FFD1EA"></path> <path fill-rule="evenodd" clip-rule="evenodd" d="M231 112.393L229.473 117.113C229.152 118.104 228.233 118.774 227.197 118.774H222.254L226.253 121.691C227.092 122.303 227.443 123.388 227.122 124.378L225.595 129.098L229.593 126.181C230.432 125.569 231.568 125.569 232.407 126.181L236.405 129.098L234.878 124.378C234.557 123.388 234.908 122.303 235.747 121.691L239.746 118.774H234.803C233.767 118.774 232.848 118.104 232.527 117.113L231 112.393ZM231.759 109.554C231.52 108.815 230.48 108.815 230.241 109.554L227.955 116.618C227.849 116.948 227.542 117.172 227.197 117.172H219.799C219.026 117.172 218.705 118.165 219.33 118.621L225.315 122.987C225.595 123.191 225.712 123.553 225.605 123.883L223.319 130.948C223.08 131.686 223.921 132.299 224.546 131.843L230.531 127.477C230.811 127.273 231.189 127.273 231.469 127.477L237.454 131.843C238.079 132.299 238.92 131.686 238.681 130.948L236.395 123.883C236.288 123.553 236.405 123.191 236.685 122.987L242.67 118.621C243.295 118.165 242.974 117.172 242.201 117.172H234.803C234.458 117.172 234.151 116.948 234.045 116.618L231.759 109.554Z" fill="#FFD1EA"></path> <path d="M264.241 109.554C264.48 108.815 265.52 108.815 265.759 109.554L268.045 116.618C268.151 116.948 268.458 117.172 268.803 117.172H276.201C276.974 117.172 277.295 118.165 276.67 118.621L270.685 122.987C270.405 123.191 270.288 123.553 270.395 123.883L272.681 130.948C272.92 131.686 272.079 132.299 271.454 131.843L265.469 127.477C265.189 127.273 264.811 127.273 264.531 127.477L258.546 131.843C257.921 132.299 257.08 131.686 257.319 130.948L259.605 123.883C259.712 123.553 259.595 123.191 259.315 122.987L253.33 118.621C252.705 118.165 253.026 117.172 253.799 117.172H261.197C261.542 117.172 261.849 116.948 261.955 116.618L264.241 109.554Z" fill="#FFD1EA"></path> <path fill-rule="evenodd" clip-rule="evenodd" d="M265 112.393L263.473 117.113C263.152 118.104 262.233 118.774 261.197 118.774H256.254L260.253 121.691C261.092 122.303 261.443 123.388 261.122 124.378L259.595 129.098L263.593 126.181C264.432 125.569 265.568 125.569 266.407 126.181L270.405 129.098L268.878 124.378C268.557 123.388 268.908 122.303 269.747 121.691L273.746 118.774H268.803C267.767 118.774 266.848 118.104 266.527 117.113L265 112.393ZM265.759 109.554C265.52 108.815 264.48 108.815 264.241 109.554L261.955 116.618C261.849 116.948 261.542 117.172 261.197 117.172H253.799C253.026 117.172 252.705 118.165 253.33 118.621L259.315 122.987C259.595 123.191 259.712 123.553 259.605 123.883L257.319 130.948C257.08 131.686 257.921 132.299 258.546 131.843L264.531 127.477C264.811 127.273 265.189 127.273 265.469 127.477L271.454 131.843C272.079 132.299 272.92 131.686 272.681 130.948L270.395 123.883C270.288 123.553 270.405 123.191 270.685 122.987L276.67 118.621C277.295 118.165 276.974 117.172 276.201 117.172H268.803C268.458 117.172 268.151 116.948 268.045 116.618L265.759 109.554Z" fill="#FFD1EA"></path> <path d="M298.241 109.554C298.48 108.815 299.52 108.815 299.759 109.554L302.045 116.618C302.151 116.948 302.458 117.172 302.803 117.172H310.201C310.974 117.172 311.295 118.165 310.67 118.621L304.685 122.987C304.405 123.191 304.288 123.553 304.395 123.883L306.681 130.948C306.92 131.686 306.079 132.299 305.454 131.843L299.469 127.477C299.189 127.273 298.811 127.273 298.531 127.477L292.546 131.843C291.921 132.299 291.08 131.686 291.319 130.948L293.605 123.883C293.712 123.553 293.595 123.191 293.315 122.987L287.33 118.621C286.705 118.165 287.026 117.172 287.799 117.172H295.197C295.542 117.172 295.849 116.948 295.955 116.618L298.241 109.554Z" fill="#FFD1EA"></path> <path fill-rule="evenodd" clip-rule="evenodd" d="M299 112.393L297.473 117.113C297.152 118.104 296.233 118.774 295.197 118.774H290.254L294.253 121.691C295.092 122.303 295.443 123.388 295.122 124.378L293.595 129.098L297.593 126.181C298.432 125.569 299.568 125.569 300.407 126.181L304.405 129.098L302.878 124.378C302.557 123.388 302.908 122.303 303.747 121.691L307.746 118.774H302.803C301.767 118.774 300.848 118.104 300.527 117.113L299 112.393ZM299.759 109.554C299.52 108.815 298.48 108.815 298.241 109.554L295.955 116.618C295.849 116.948 295.542 117.172 295.197 117.172H287.799C287.026 117.172 286.705 118.165 287.33 118.621L293.315 122.987C293.595 123.191 293.712 123.553 293.605 123.883L291.319 130.948C291.08 131.686 291.921 132.299 292.546 131.843L298.531 127.477C298.811 127.273 299.189 127.273 299.469 127.477L305.454 131.843C306.079 132.299 306.92 131.686 306.681 130.948L304.395 123.883C304.288 123.553 304.405 123.191 304.685 122.987L310.67 118.621C311.295 118.165 310.974 117.172 310.201 117.172H302.803C302.458 117.172 302.151 116.948 302.045 116.618L299.759 109.554Z" fill="#FFD1EA"></path> <mask id="mask1" maskUnits="userSpaceOnUse" x="287" y="109" width="24" height="23"> <path d="M298.241 109.554C298.48 108.815 299.52 108.815 299.759 109.554L302.045 116.618C302.151 116.948 302.458 117.172 302.803 117.172H310.201C310.974 117.172 311.295 118.165 310.67 118.621L304.685 122.987C304.405 123.191 304.288 123.553 304.395 123.883L306.681 130.948C306.92 131.686 306.079 132.299 305.454 131.843L299.469 127.477C299.189 127.273 298.811 127.273 298.531 127.477L292.546 131.843C291.921 132.299 291.08 131.686 291.319 130.948L293.605 123.883C293.712 123.553 293.595 123.191 293.315 122.987L287.33 118.621C286.705 118.165 287.026 117.172 287.799 117.172H295.197C295.542 117.172 295.849 116.948 295.955 116.618L298.241 109.554Z" fill="#FCFBCD"></path> </mask> <g mask="url(#mask1)"> </g> <mask id="mask2" maskUnits="userSpaceOnUse" x="287" y="109" width="24" height="23"> <path fill-rule="evenodd" clip-rule="evenodd" d="M299 112.393L297.473 117.113C297.152 118.104 296.233 118.774 295.197 118.774H290.254L294.253 121.691C295.092 122.303 295.443 123.388 295.122 124.378L293.595 129.098L297.593 126.181C298.432 125.569 299.568 125.569 300.407 126.181L304.405 129.098L302.878 124.378C302.557 123.388 302.908 122.303 303.747 121.691L307.746 118.774H302.803C301.767 118.774 300.848 118.104 300.527 117.113L299 112.393ZM299.759 109.554C299.52 108.815 298.48 108.815 298.241 109.554L295.955 116.618C295.849 116.948 295.542 117.172 295.197 117.172H287.799C287.026 117.172 286.705 118.165 287.33 118.621L293.315 122.987C293.595 123.191 293.712 123.553 293.605 123.883L291.319 130.948C291.08 131.686 291.921 132.299 292.546 131.843L298.531 127.477C298.811 127.273 299.189 127.273 299.469 127.477L305.454 131.843C306.079 132.299 306.92 131.686 306.681 130.948L304.395 123.883C304.288 123.553 304.405 123.191 304.685 122.987L310.67 118.621C311.295 118.165 310.974 117.172 310.201 117.172H302.803C302.458 117.172 302.151 116.948 302.045 116.618L299.759 109.554Z" fill="#F4F3A3"></path> </mask> <g mask="url(#mask2)"> <path d="M321.344 100.365L302.032 100.546L302.38 137.56L321.692 137.379C321.122 118.446 320.425 120.921 321.344 100.365Z" fill="#EBEBEB"></path> </g> </g> <defs> <filter id="filter0_d" x="-5" y="-7" width="473" height="512" filterUnits="userSpaceOnUse" color-interpolation-filters="sRGB"> <feFlood flood-opacity="0" result="BackgroundImageFix"></feFlood> <feColorMatrix in="SourceAlpha" type="matrix" values="0 0 0 0 0 0 0 0 0 0 0 0 0 0 0 0 0 0 127 0"></feColorMatrix> <feOffset dy="4"></feOffset> <feGaussianBlur stdDeviation="15"></feGaussianBlur> <feColorMatrix type="matrix" values="0 0 0 0 0.0266667 0 0 0 0 0.175625 0 0 0 0 0.2 0 0 0 0.08 0"></feColorMatrix> <feBlend mode="normal" in2="BackgroundImageFix" result="effect1_dropShadow"></feBlend> <feBlend mode="normal" in="SourceGraphic" in2="effect1_dropShadow" result="shape"></feBlend> </filter> </defs> </svg> 