<?xml version="1.0" encoding="UTF-8"?> <svg xmlns="http://www.w3.org/2000/svg" width="275" height="358" viewBox="0 0 275 358" fill="none"> <path d="M120 153.732C120.552 152.775 121.775 152.448 122.732 153L189.416 191.5C190.373 192.052 190.7 193.275 190.148 194.232L98.8839 352.306C97.9517 353.921 95.512 353.494 95.1832 351.659L85.492 297.559C85.2735 296.339 84.0099 295.61 82.8444 296.03L31.1469 314.687C29.3931 315.32 27.8036 313.421 28.7359 311.806L120 153.732Z" fill="url(#paint0_linear_385_234)"></path> <path d="M84 194.232C83.4477 193.275 83.7755 192.052 84.7321 191.5L151.416 153C152.373 152.448 153.596 152.775 154.148 153.732L245.412 311.806C246.344 313.421 244.755 315.32 243.001 314.687L191.304 296.03C190.138 295.61 188.875 296.339 188.656 297.559L178.965 351.659C178.636 353.494 176.196 353.921 175.264 352.306L84 194.232Z" fill="url(#paint1_linear_385_234)"></path> <path d="M128.556 5.53313C134.037 2.14257 140.963 2.14257 146.444 5.53313L167.691 18.6774C170.293 20.2876 173.282 21.1652 176.342 21.2178L201.323 21.647C207.766 21.7577 213.593 25.5025 216.371 31.3178L227.138 53.8623C228.457 56.624 230.497 58.9784 233.043 60.677L253.826 74.5433C259.187 78.1202 262.064 84.4208 261.257 90.8146L258.126 115.602C257.743 118.638 258.186 121.722 259.41 124.527L269.396 147.428C271.973 153.335 270.987 160.191 266.851 165.134L250.817 184.293C248.852 186.641 247.558 189.474 247.071 192.496L243.091 217.161C242.064 223.523 237.528 228.758 231.377 230.679L207.53 238.129C204.608 239.041 201.987 240.726 199.944 243.004L183.261 261.602C178.958 266.399 172.312 268.35 166.098 266.641L142.009 260.015C139.058 259.203 135.942 259.203 132.991 260.015L108.902 266.641C102.688 268.35 96.0424 266.399 91.739 261.602L75.0562 243.004C73.0125 240.726 70.3918 239.041 67.4705 238.129L43.6231 230.679C37.4717 228.758 32.9357 223.523 31.9091 217.161L27.9293 192.496C27.4417 189.474 26.1476 186.641 24.1834 184.293L8.14921 165.134C4.01319 160.191 3.02743 153.335 5.60351 147.428L15.5903 124.527C16.8136 121.722 17.257 118.638 16.8735 115.602L13.7433 90.8146C12.9358 84.4208 15.8132 78.1202 21.1741 74.5433L41.9568 60.677C44.5026 58.9784 46.5427 56.624 47.8617 53.8623L58.6293 31.3178C61.4067 25.5025 67.2338 21.7577 73.6774 21.647L98.6576 21.2178C101.718 21.1652 104.707 20.2876 107.309 18.6774L128.556 5.53313Z" fill="url(#paint2_linear_385_234)"></path> <circle cx="138" cy="137" r="94" fill="#FCE7F0" stroke="white" stroke-width="6"></circle> <path d="M231.435 154.149C229.502 158.351 234.243 169.19 232.969 171.176C232.614 172.493 227.9 174 225.434 175.117C220.554 177.329 214.649 178.165 211.74 177.966C208.187 177.125 202.222 178.866 199.684 179.842C195.405 182.583 192.862 182.585 192.125 182.243C186.746 180.814 189.06 175.984 190.89 173.747C195.268 168.067 205.825 169.052 208.706 170.17C211.01 171.065 217.118 170.379 219.884 169.924C221.249 169.901 224.861 168.771 226.496 168.209L219.229 166.13C216.599 165.847 205.305 158.654 201.29 151.072C198.078 145.006 201.319 142.562 203.341 142.098C208.989 140.833 214.728 148.621 216.401 152.057C217.74 154.805 222.364 159.671 224.509 161.76C225.586 163.088 227.917 165.764 228.431 165.458C228.729 165.282 228.395 164.927 227.945 164.64C223.351 159.125 224.776 150.36 225.092 146.89C225.77 144.002 227.83 138.865 229.573 134.872C232.068 127.358 231.56 127.54 234.291 126.036C238.52 124.703 240.468 127.805 241.477 130.256C242.984 133.917 240.898 138.806 239.438 140.699C235.266 145.114 232.458 151.33 231.435 154.149Z" fill="#507668"></path> <path d="M230.025 148.476C227.182 154.59 228.168 160.761 229.016 163.083C229.203 163.561 229.009 163.414 228.889 163.281C226.819 160.212 227.065 157.117 226.892 154.762C226.719 152.407 229.093 146.081 229.347 145.684C229.602 145.287 231.844 140.391 232.498 139.633C233.152 138.876 235.161 133.381 235.181 133.001C235.2 132.621 236.242 129.421 235.815 132.624C235.771 132.955 235.043 136.278 235.023 136.658C235.004 137.038 233.58 140.833 230.025 148.476Z" fill="white"></path> <path d="M210.275 151.371C209.857 150.834 208.31 149.304 207.823 148.898C211.56 156.628 215.586 159.272 216.613 160.381C217.641 161.491 221.539 164.333 224.106 165.142C226.672 165.951 226.221 165.604 225.716 165.168C225.312 164.818 224.434 164.455 222.918 163.145C220.082 161.882 216.337 158.242 215.43 157.153C213.718 155.099 210.797 152.044 210.275 151.371Z" fill="white"></path> <path d="M206.761 173.734C205.82 173.802 200.588 174.496 198.161 175.161C198.977 174.676 199.396 173.935 201.606 173.113C203.816 172.29 207.874 172.055 209.968 172.319C212.355 172.619 212.209 173.198 221.169 172.171C221.89 172.089 226.384 171.037 228.104 170.628C228.132 171.005 227.028 171.432 226.472 171.599C219.533 174.373 210.055 173.496 206.761 173.734Z" fill="white"></path> <path d="M128.357 178.861V181.188H131.136V181.885H128.357V184.93H127.392V178.164H131.556V178.861H128.357Z" fill="#213D65"></path> <path d="M132.596 176.602H133.637V184.409H132.596V176.602Z" fill="#213D65"></path> <path d="M139.883 184.778C139.653 184.866 139.422 184.913 139.192 184.92C138.936 184.92 138.727 184.866 138.563 184.758C138.4 184.65 138.299 184.462 138.261 184.192C137.653 184.684 137.09 184.93 136.572 184.93C136.169 184.93 135.839 184.807 135.583 184.561C135.326 184.315 135.199 184.007 135.199 183.635C135.199 183.292 135.289 183.007 135.468 182.781C135.647 182.555 135.898 182.367 136.221 182.219C136.544 182.071 136.981 181.912 137.532 181.744L138.242 181.532V181.137C138.242 180.328 137.951 179.923 137.368 179.923C137.048 179.923 136.754 179.992 136.485 180.13C136.216 180.269 135.912 180.526 135.573 180.904L135.218 180.338C135.935 179.583 136.706 179.205 137.532 179.205C138.082 179.205 138.481 179.357 138.728 179.66C138.974 179.963 139.097 180.469 139.097 181.177V183.818C139.097 183.966 139.123 184.072 139.174 184.136C139.225 184.2 139.305 184.232 139.414 184.232C139.511 184.232 139.648 184.199 139.827 184.131L139.883 184.778ZM136.245 184.07C136.373 184.178 136.543 184.232 136.754 184.232C136.972 184.232 137.197 184.175 137.431 184.061C137.664 183.946 137.935 183.77 138.242 183.535V182.128L137.695 182.3C137.087 182.496 136.661 182.684 136.418 182.867C136.175 183.048 136.053 183.281 136.053 183.565C136.053 183.794 136.117 183.963 136.245 184.07Z" fill="#213D65"></path> <path d="M147.897 179.639C148.106 179.927 148.211 180.349 148.211 180.902V184.41H147.325V180.977C147.325 180.581 147.263 180.299 147.14 180.129C147.018 179.959 146.807 179.875 146.508 179.875C146.276 179.875 146.04 179.93 145.802 180.04C145.563 180.15 145.294 180.315 144.996 180.534C145.009 180.61 145.015 180.732 145.015 180.902V184.41H144.129V180.977C144.129 180.581 144.068 180.299 143.945 180.129C143.822 179.959 143.611 179.875 143.313 179.875C143.088 179.875 142.855 179.928 142.616 180.035C142.377 180.142 142.108 180.305 141.81 180.525V184.41H140.924V179.374H141.611L141.74 179.903C142.377 179.437 142.978 179.205 143.542 179.205C143.907 179.205 144.195 179.268 144.407 179.394C144.619 179.519 144.776 179.702 144.876 179.94C145.539 179.45 146.159 179.205 146.736 179.205C147.301 179.204 147.688 179.349 147.897 179.639Z" fill="#213D65"></path> <path d="M154.977 179.205L152.609 185.275C152.377 185.887 152.092 186.329 151.752 186.602C151.411 186.875 150.997 187.012 150.507 187.012C150.234 187.012 149.989 186.972 149.772 186.892L149.884 186.194C150.088 186.247 150.275 186.273 150.445 186.273C150.785 186.273 151.071 186.173 151.302 185.974C151.533 185.774 151.751 185.408 151.955 184.876L152.037 184.646L149.885 179.205H150.823L152.456 183.518L154.058 179.205H154.977Z" fill="#213D65"></path> <path d="M162.455 179.643C162.674 179.936 162.784 180.355 162.784 180.902V184.41H161.912V180.977C161.912 180.581 161.846 180.299 161.715 180.129C161.585 179.959 161.36 179.875 161.039 179.875C160.797 179.875 160.553 179.928 160.304 180.035C160.056 180.142 159.785 180.305 159.491 180.525V184.41H158.62V179.374H159.296L159.423 179.903C160.057 179.437 160.671 179.205 161.265 179.205C161.839 179.204 162.236 179.351 162.455 179.643Z" fill="#213D65"></path> <path d="M168.509 184.778C168.278 184.866 168.048 184.913 167.818 184.92C167.562 184.92 167.352 184.866 167.189 184.758C167.026 184.65 166.925 184.462 166.887 184.192C166.279 184.684 165.716 184.93 165.197 184.93C164.794 184.93 164.465 184.807 164.208 184.561C163.952 184.315 163.825 184.007 163.825 183.635C163.825 183.292 163.914 183.007 164.094 182.781C164.273 182.555 164.524 182.367 164.847 182.219C165.17 182.071 165.607 181.912 166.157 181.744L166.868 181.532V181.137C166.868 180.328 166.576 179.923 165.994 179.923C165.674 179.923 165.38 179.992 165.111 180.13C164.842 180.269 164.538 180.526 164.199 180.904L163.844 180.338C164.561 179.583 165.332 179.205 166.158 179.205C166.708 179.205 167.106 179.357 167.353 179.66C167.6 179.963 167.723 180.469 167.723 181.177V183.818C167.723 183.966 167.749 184.072 167.8 184.136C167.851 184.2 167.931 184.232 168.04 184.232C168.136 184.232 168.274 184.199 168.453 184.131L168.509 184.778ZM164.871 184.07C164.999 184.178 165.168 184.232 165.38 184.232C165.597 184.232 165.823 184.175 166.057 184.061C166.29 183.946 166.561 183.77 166.868 183.535V182.128L166.321 182.3C165.712 182.496 165.287 182.684 165.044 182.867C164.801 183.048 164.679 183.281 164.679 183.565C164.679 183.794 164.743 183.963 164.871 184.07Z" fill="#213D65"></path> <path d="M170.224 177.538C170.121 177.433 170.07 177.306 170.07 177.159C170.07 177.005 170.121 176.874 170.224 176.766C170.327 176.657 170.447 176.602 170.586 176.602C170.731 176.602 170.854 176.657 170.957 176.766C171.06 176.874 171.111 177.005 171.111 177.159C171.111 177.306 171.06 177.433 170.957 177.538C170.854 177.644 170.731 177.696 170.586 177.696C170.447 177.696 170.327 177.644 170.224 177.538ZM170.188 179.281H170.994V184.409H170.188V179.281Z" fill="#213D65"></path> <path d="M173.193 176.602H174.234V184.409H173.193V176.602Z" fill="#213D65"></path> <path d="M176.163 184.8C175.845 184.713 175.55 184.586 175.275 184.418L175.56 183.765C176.032 184.08 176.603 184.237 177.272 184.237C177.639 184.237 177.936 184.157 178.165 183.996C178.394 183.836 178.509 183.608 178.509 183.313C178.509 183.146 178.452 183.004 178.339 182.886C178.227 182.769 178.087 182.672 177.922 182.595C177.756 182.518 177.522 182.426 177.219 182.319C176.845 182.192 176.543 182.073 176.31 181.962C176.077 181.852 175.88 181.698 175.718 181.501C175.556 181.303 175.475 181.05 175.475 180.742C175.475 180.247 175.66 179.867 176.03 179.602C176.4 179.337 176.877 179.205 177.462 179.205C178.138 179.205 178.737 179.369 179.258 179.697L178.984 180.35C178.533 180.048 178.033 179.898 177.483 179.898C177.159 179.898 176.899 179.962 176.701 180.089C176.504 180.216 176.405 180.41 176.405 180.671C176.405 180.912 176.511 181.1 176.722 181.233C176.934 181.368 177.254 181.505 177.684 181.645C178.057 181.772 178.36 181.893 178.593 182.007C178.825 182.121 179.025 182.282 179.19 182.489C179.356 182.696 179.439 182.961 179.439 183.283C179.439 183.785 179.241 184.185 178.847 184.483C178.452 184.781 177.927 184.93 177.272 184.93C176.85 184.93 176.48 184.887 176.163 184.8Z" fill="#213D65"></path> <path d="M129.591 190.655H129.994V193.257H129.644V191.181L128.714 192.659H128.672L127.742 191.181V193.257H127.392V190.655H127.796L128.693 192.081L129.591 190.655Z" fill="#213D65"></path> <path d="M133.766 191.202V190.715H134.158V193.198H133.766V192.711C133.493 193.075 133.093 193.257 132.567 193.257C132.143 193.257 131.781 193.131 131.48 192.88C131.183 192.628 131.035 192.32 131.035 191.956C131.035 191.592 131.183 191.284 131.48 191.033C131.781 190.781 132.143 190.655 132.567 190.655C133.093 190.656 133.493 190.837 133.766 191.202ZM131.765 192.657C131.991 192.845 132.268 192.94 132.596 192.94C132.925 192.94 133.202 192.845 133.428 192.657C133.654 192.462 133.766 192.228 133.766 191.956C133.766 191.682 133.654 191.45 133.428 191.261C133.202 191.069 132.925 190.973 132.596 190.973C132.268 190.973 131.991 191.07 131.765 191.261C131.54 191.45 131.427 191.681 131.427 191.956C131.427 192.228 131.539 192.462 131.765 192.657Z" fill="#213D65"></path> <path d="M136.872 191.79V190.655H137.281V193.257H136.872V192.122H135.087V193.257H134.678V190.655H135.087V191.79H136.872Z" fill="#213D65"></path> <path d="M138.21 192.659L140.057 190.655H140.404V193.257H139.995V191.253L138.148 193.257H137.801V190.655H138.21V192.659Z" fill="#213D65"></path> <path d="M141.625 191.904L143.006 193.257H142.552L141.264 192.003V193.257H140.924V190.655H141.264V191.805L142.49 190.655H142.954L141.625 191.904Z" fill="#213D65"></path> <path d="M145.781 190.655C146.168 190.655 146.495 190.781 146.763 191.033C147.034 191.281 147.17 191.589 147.17 191.956C147.17 192.32 147.034 192.63 146.763 192.885C146.492 193.133 146.164 193.257 145.781 193.257C145.429 193.257 145.122 193.15 144.862 192.934C144.605 192.713 144.459 192.439 144.424 192.115H143.875V193.198H143.526V190.715H143.875V191.798H144.424C144.462 191.47 144.609 191.198 144.862 190.983C145.119 190.764 145.425 190.655 145.781 190.655ZM145.042 192.656C145.242 192.845 145.488 192.94 145.781 192.94C146.073 192.94 146.32 192.845 146.52 192.656C146.721 192.461 146.821 192.228 146.821 191.956C146.821 191.681 146.721 191.449 146.52 191.261C146.32 191.069 146.074 190.973 145.781 190.973C145.488 190.973 145.242 191.069 145.042 191.261C144.841 191.449 144.741 191.681 144.741 191.956C144.741 192.228 144.841 192.461 145.042 192.656Z" fill="#213D65"></path> <path d="M149.802 190.655C150.225 190.655 150.585 190.785 150.882 191.044C151.183 191.303 151.333 191.621 151.333 191.995C151.333 192.371 151.183 192.688 150.882 192.947C150.585 193.206 150.225 193.336 149.802 193.336C149.275 193.336 148.875 193.149 148.602 192.773V194.298H148.211V190.717H148.602V191.218C148.876 190.842 149.276 190.655 149.802 190.655ZM148.941 192.717C149.167 192.911 149.443 193.009 149.772 193.009C150.101 193.009 150.378 192.911 150.603 192.717C150.829 192.516 150.942 192.275 150.942 191.995C150.942 191.712 150.829 191.474 150.603 191.279C150.378 191.081 150.101 190.982 149.772 190.982C149.443 190.982 149.167 191.082 148.941 191.279C148.715 191.474 148.603 191.712 148.603 191.995C148.603 192.275 148.715 192.516 148.941 192.717Z" fill="#213D65"></path> <path d="M153.824 192.659L155.671 190.655H156.018V193.257H155.609V191.253L153.762 193.257H153.415V190.655H153.824V192.659Z" fill="#213D65"></path> <path d="M157.579 190.655H160.181V193.257H159.773V190.988H157.988V193.257H157.58V190.655H157.579Z" fill="#213D65"></path> <path d="M162.303 190.655C162.761 190.655 163.127 190.786 163.401 191.047C163.683 191.306 163.825 191.612 163.825 191.966C163.825 191.983 163.82 192.034 163.812 192.12H161.119C161.16 192.369 161.291 192.567 161.512 192.716C161.732 192.865 162.008 192.94 162.34 192.94C162.806 192.94 163.135 192.799 163.327 192.518L163.683 192.686C163.548 192.865 163.363 193.005 163.127 193.106C162.892 193.207 162.628 193.257 162.333 193.257C161.851 193.257 161.458 193.135 161.155 192.89C160.853 192.645 160.702 192.334 160.702 191.956C160.702 191.582 160.851 191.273 161.149 191.028C161.448 190.779 161.832 190.655 162.303 190.655ZM162.303 190.973C161.984 190.973 161.717 191.049 161.502 191.201C161.288 191.353 161.159 191.554 161.119 191.802H163.407C163.362 191.537 163.237 191.334 163.032 191.191C162.82 191.046 162.577 190.973 162.303 190.973Z" fill="#213D65"></path> <path d="M166.542 190.655V192.803H166.947V193.778H166.566V193.118H164.206V193.778H163.825V192.803H164.178C164.374 192.579 164.472 192.269 164.472 191.872V190.655H166.542ZM164.64 192.803H166.161V190.97H164.853V191.872C164.853 192.252 164.782 192.563 164.64 192.803Z" fill="#213D65"></path> <path d="M167.877 192.659L169.723 190.655H170.07V193.257H169.661V191.253L167.815 193.257H167.468V190.655H167.877V192.659Z" fill="#213D65"></path> <path d="M171.291 191.904L172.673 193.257H172.219L170.931 192.003V193.257H170.591V190.655H170.931V191.805L172.157 190.655H172.621L171.291 191.904Z" fill="#213D65"></path> <path d="M175.968 190.655C176.355 190.655 176.683 190.781 176.95 191.033C177.221 191.281 177.357 191.589 177.357 191.956C177.357 192.32 177.221 192.63 176.95 192.885C176.679 193.133 176.351 193.257 175.968 193.257C175.616 193.257 175.31 193.15 175.049 192.934C174.792 192.713 174.646 192.439 174.611 192.115H174.062V193.198H173.713V190.715H174.062V191.798H174.611C174.649 191.47 174.796 191.198 175.049 190.983C175.306 190.764 175.613 190.655 175.968 190.655ZM175.229 192.656C175.429 192.845 175.676 192.94 175.968 192.94C176.26 192.94 176.507 192.845 176.708 192.656C176.908 192.461 177.008 192.228 177.008 191.956C177.008 191.681 176.908 191.449 176.708 191.261C176.507 191.069 176.261 190.973 175.968 190.973C175.676 190.973 175.429 191.069 175.229 191.261C175.028 191.449 174.928 191.681 174.928 191.956C174.928 192.228 175.028 192.461 175.229 192.656Z" fill="#213D65"></path> <path d="M179.468 190.655C179.891 190.655 180.252 190.785 180.549 191.044C180.849 191.303 181 191.621 181 191.995C181 192.371 180.849 192.688 180.549 192.947C180.252 193.206 179.891 193.336 179.468 193.336C178.942 193.336 178.542 193.149 178.269 192.773V194.298H177.877V190.717H178.269V191.218C178.542 190.842 178.942 190.655 179.468 190.655ZM178.608 192.717C178.833 192.911 179.11 193.009 179.439 193.009C179.767 193.009 180.044 192.911 180.27 192.717C180.496 192.516 180.608 192.275 180.608 191.995C180.608 191.712 180.496 191.474 180.27 191.279C180.044 191.081 179.768 190.982 179.439 190.982C179.11 190.982 178.833 191.082 178.608 191.279C178.382 191.474 178.269 191.712 178.269 191.995C178.269 192.275 178.382 192.516 178.608 192.717Z" fill="#213D65"></path> <path d="M103.45 196.901C109.774 196.901 114.901 191.774 114.901 185.45C114.901 179.126 109.774 174 103.45 174C97.1265 174 92 179.126 92 185.45C92 191.774 97.1265 196.901 103.45 196.901Z" fill="#FCFBCD"></path> <path d="M111.778 193.742C110.84 194 106.831 194.991 103.116 192.758C102.235 192.23 99.1909 190.383 98.8396 187.128C98.6866 185.714 99.1572 184.532 99.2486 184.311C99.2486 184.311 99.7684 183.088 100.853 182.388C100.969 182.313 101.082 182.316 101.082 182.316C101.139 182.318 101.196 182.333 101.248 182.363C101.681 182.608 102.329 182.902 103.16 183.048C104.082 183.21 104.851 183.122 105.328 183.03C105.601 182.853 105.99 182.555 106.336 182.094C107.508 180.53 107.529 177.957 106.172 176.44C105.136 175.281 103.631 175.089 103.105 175.053C99.3932 174.797 95.7187 178.714 94.5494 182.508C93.9291 184.52 94.0762 186.293 94.1585 187.193C94.2175 187.833 94.4832 190.219 95.976 192.86C96.5302 193.84 97.1058 194.594 97.5452 195.115C97.9166 195.35 98.4708 195.672 99.1799 195.974C102.369 197.332 105.282 196.843 106.102 196.68C107.213 196.458 108.06 196.122 108.54 195.908C110.05 195.236 111.119 194.367 111.778 193.742Z" fill="#2F4B74"></path> <path d="M111.257 194.146C110.248 194.373 106.425 195.107 102.871 192.866C102.216 192.452 98.9381 190.384 98.6205 187.051C98.5723 186.545 98.4675 185.268 99.1619 183.886C99.6621 182.891 100.364 182.265 100.835 181.92C100.959 181.829 101.122 181.829 101.249 181.916C101.686 182.216 102.421 182.624 103.407 182.764C104.19 182.875 104.845 182.778 105.267 182.678C105.47 182.577 105.741 182.413 105.996 182.147C107.2 180.891 107.127 178.317 105.846 176.869C104.894 175.795 103.517 175.61 103.012 175.574C99.6364 175.327 96.5443 178.833 95.3907 181.706C95.3599 181.783 95.3174 181.89 95.2686 182.023C94.5445 183.992 94.5883 185.7 94.6133 186.427C94.7207 189.506 95.9816 191.799 96.5391 192.788C97.2651 194.074 98.0514 195.038 98.6501 195.687C99.3509 196.037 100.36 196.453 101.628 196.696C102.205 196.807 103.128 196.938 104.264 196.891C104.772 196.87 106.587 196.761 108.512 195.891C109.142 195.605 109.643 195.302 109.812 195.198C110.405 194.833 110.886 194.463 111.257 194.146Z" fill="#FEACBB"></path> <path d="M102.932 178.795C102.913 178.606 103.036 178.404 103.233 178.287C103.428 178.165 103.698 178.13 103.938 178.198C104.176 178.268 104.372 178.437 104.448 178.637C104.529 178.834 104.495 179.061 104.354 179.205C104.335 179.017 104.266 178.872 104.171 178.758C104.074 178.647 103.952 178.566 103.816 178.53C103.681 178.488 103.53 178.49 103.376 178.529C103.222 178.57 103.071 178.653 102.932 178.795Z" fill="#2F4B74"></path> <path d="M107.883 178.221C107.599 178.081 107.222 178.227 106.954 178.34C106.663 178.463 106.377 178.605 106.134 178.806C106.074 178.855 106.053 178.885 106.053 178.958C106.052 179.025 106.054 179.091 106.058 179.157C106.067 179.31 106.09 179.462 106.121 179.612C106.158 179.785 106.199 179.957 106.257 180.124C106.318 180.305 106.397 180.51 106.539 180.644C106.716 180.811 106.989 180.783 107.201 180.7C107.693 180.507 107.936 179.905 108.052 179.441C108.103 179.241 108.131 179.034 108.134 178.828C108.138 178.627 108.115 178.361 107.92 178.242C107.811 178.176 107.658 178.207 107.544 178.251C107.506 178.266 107.28 178.386 107.384 178.45C107.599 178.58 107.572 178.923 107.549 179.135C107.515 179.446 107.431 179.751 107.298 180.036C107.23 180.183 107.148 180.326 107.039 180.448C107.027 180.461 107 180.488 106.995 180.493C106.984 180.502 106.969 180.511 106.959 180.522C106.984 180.498 106.971 180.519 106.957 180.523C106.98 180.517 107 180.504 107.024 180.499C107.055 180.492 107.12 180.5 107.146 180.488C107.165 180.479 107.166 180.517 107.147 180.488C107.14 180.477 107.133 180.483 107.128 180.48C106.92 180.358 106.84 180.023 106.781 179.814C106.685 179.476 106.624 179.131 106.627 178.779C106.607 178.815 106.587 178.85 106.566 178.885C106.713 178.767 106.871 178.664 107.043 178.585C107.145 178.539 107.249 178.495 107.354 178.459C107.359 178.458 107.375 178.446 107.396 178.45C107.342 178.439 107.414 178.468 107.421 178.471C107.535 178.528 107.723 178.468 107.826 178.412C107.902 178.369 108 178.279 107.883 178.221Z" fill="#2F4B74"></path> <path d="M105.975 179.202C106.135 179.214 106.291 179.186 106.436 179.111C106.508 179.074 106.579 178.995 106.573 178.902C106.567 178.812 106.487 178.756 106.411 178.747C106.251 178.729 106.092 178.712 105.932 178.694C105.909 178.691 105.886 178.689 105.863 178.686C105.808 178.68 105.755 178.688 105.702 178.71C105.656 178.729 105.606 178.758 105.575 178.803C105.555 178.834 105.539 178.868 105.533 178.906C105.526 178.959 105.556 179.014 105.593 179.044C105.702 179.134 105.84 179.19 105.975 179.202C106.041 179.208 106.108 179.198 106.167 179.166C106.213 179.14 106.272 179.092 106.292 179.035C106.309 178.985 106.314 178.927 106.281 178.882C106.247 178.836 106.195 178.807 106.142 178.801C106.114 178.799 106.086 178.794 106.059 178.787C106.078 178.792 106.097 178.797 106.115 178.802C106.072 178.79 106.031 178.773 105.992 178.752C106.008 178.761 106.024 178.77 106.04 178.779C106.014 178.763 105.99 178.747 105.967 178.728C105.877 178.847 105.787 178.967 105.696 179.086C105.856 179.104 106.015 179.122 106.175 179.139C106.199 179.142 106.222 179.145 106.244 179.147C106.235 179.026 106.227 178.904 106.218 178.783C106.205 178.79 106.191 178.796 106.177 178.802C106.197 178.794 106.219 178.785 106.24 178.776C106.208 178.789 106.175 178.798 106.142 178.805C106.164 178.801 106.187 178.796 106.209 178.792C106.175 178.798 106.142 178.801 106.108 178.801C106.129 178.801 106.151 178.802 106.171 178.803C106.161 178.803 106.151 178.802 106.141 178.801C106.075 178.796 106.009 178.805 105.949 178.838C105.903 178.864 105.844 178.912 105.824 178.968C105.807 179.018 105.803 179.077 105.835 179.122C105.87 179.168 105.922 179.198 105.975 179.202Z" fill="#2F4B74"></path> <path d="M103.705 176.946C102.876 176.647 102.017 176.548 101.147 176.63C101.07 176.637 100.851 176.704 100.849 176.816C100.819 178.494 101.694 180.438 103.397 180.734C104.284 180.888 105.331 180.477 105.846 179.672C106.271 179.008 105.991 178.342 105.45 177.884C104.938 177.451 104.319 177.175 103.705 176.946C103.586 176.902 103.441 176.928 103.335 176.999C103.276 177.038 103.165 177.166 103.288 177.212C103.729 177.375 104.165 177.564 104.568 177.815C105.003 178.086 105.559 178.522 105.541 179.121C105.515 179.967 104.496 180.539 103.789 180.447C103.098 180.358 102.48 179.895 102.094 179.294C101.614 178.544 101.356 177.652 101.372 176.745C101.273 176.807 101.173 176.869 101.074 176.931C101.822 176.861 102.576 176.955 103.288 177.212C103.407 177.255 103.551 177.231 103.658 177.159C103.716 177.121 103.828 176.991 103.705 176.946Z" fill="#2F4B74"></path> <path d="M102.409 195.339C101.177 194.848 100.05 194.083 99.0626 193.161C98.0854 192.225 97.2861 191.075 96.7645 189.792C96.279 188.496 96.0689 187.084 96.2038 185.703C96.271 185.014 96.4121 184.334 96.6153 183.678C96.8329 183.027 97.1002 182.393 97.4427 181.807C96.8603 183.035 96.4929 184.369 96.4065 185.721C96.3163 187.072 96.5196 188.439 97.0088 189.689C97.4955 190.941 98.2732 192.057 99.2012 193.007C100.143 193.945 101.223 194.745 102.409 195.339Z" fill="#2F4B74"></path> <path d="M104.374 180.248C104.182 180.225 104.006 180.368 103.99 180.568C103.986 180.623 103.981 180.68 103.978 180.741C103.96 181.103 103.978 181.406 103.992 181.548C104.045 182.068 104.306 183.041 105.029 183.668C105.148 183.771 105.145 183.748 105.895 184.32C106.226 184.574 106.395 184.696 106.468 184.763C107.046 185.297 107.398 185.866 107.613 186.22C107.972 186.809 108.35 187.6 108.471 187.859C108.752 188.462 108.951 188.965 109.358 189.069C109.64 189.141 109.868 189.029 109.868 189.029C110.055 188.937 110.147 188.784 110.174 188.738C110.236 188.631 110.249 188.548 110.288 188.341C110.324 188.155 110.371 187.971 110.403 187.784C110.541 186.986 110.523 187.13 110.569 186.844C110.66 186.257 110.707 185.963 110.722 185.651C110.742 185.233 110.755 184.951 110.67 184.578C110.585 184.203 110.443 183.921 110.326 183.69C110.291 183.62 110.163 183.369 109.944 183.054C109.944 183.054 109.612 182.573 109.193 182.166C108.935 181.915 107.773 180.994 105.664 180.483C105.339 180.403 104.901 180.313 104.374 180.248Z" fill="white"></path> <path d="M109.895 189.614C109.823 189.614 109.744 189.606 109.661 189.585C109.212 189.471 108.986 188.985 108.724 188.422C108.7 188.372 108.677 188.32 108.652 188.268C108.573 188.1 108.159 187.23 107.77 186.598C107.558 186.253 107.203 185.676 106.605 185.129C106.559 185.086 106.459 185.011 106.294 184.888C106.217 184.83 106.127 184.763 106.021 184.682C105.585 184.352 105.393 184.215 105.291 184.141C105.209 184.082 105.175 184.057 105.117 184.007C104.186 183.208 104.018 181.976 103.994 181.737C103.975 181.553 103.961 181.233 103.979 180.886C103.982 180.823 103.986 180.761 103.991 180.704C104.001 180.569 104.064 180.447 104.166 180.361C104.269 180.274 104.406 180.233 104.538 180.249C104.995 180.304 105.45 180.386 105.892 180.492C108.381 181.09 109.564 182.208 109.613 182.255C110.052 182.678 110.396 183.166 110.41 183.187C110.619 183.486 110.755 183.735 110.816 183.857C110.94 184.099 111.093 184.4 111.185 184.801C111.278 185.204 111.263 185.514 111.241 185.943C111.225 186.271 111.177 186.576 111.081 187.183C111.059 187.324 111.051 187.365 111.034 187.457C111.015 187.555 110.985 187.72 110.909 188.152C110.89 188.264 110.865 188.375 110.841 188.483C110.823 188.564 110.805 188.645 110.79 188.726L110.781 188.77C110.745 188.961 110.726 189.057 110.654 189.18C110.538 189.376 110.387 189.48 110.28 189.532C110.257 189.545 110.105 189.614 109.895 189.614ZM104.481 180.524C104.428 180.524 104.377 180.543 104.336 180.577C104.291 180.615 104.263 180.669 104.258 180.728C104.254 180.783 104.25 180.841 104.247 180.902C104.23 181.232 104.243 181.535 104.261 181.709C104.322 182.317 104.629 183.229 105.288 183.795C105.338 183.838 105.365 183.858 105.445 183.915C105.548 183.99 105.741 184.128 106.179 184.46C106.286 184.541 106.375 184.608 106.451 184.665C106.629 184.798 106.726 184.871 106.783 184.923C107.409 185.496 107.791 186.117 107.996 186.45C108.382 187.078 108.78 187.909 108.893 188.148C108.917 188.2 108.941 188.253 108.965 188.303C109.208 188.823 109.399 189.234 109.725 189.317C109.964 189.378 110.163 189.286 110.165 189.284C110.238 189.249 110.342 189.177 110.423 189.039C110.471 188.958 110.483 188.893 110.517 188.719L110.526 188.675C110.542 188.592 110.56 188.508 110.579 188.425C110.602 188.32 110.626 188.212 110.645 188.106C110.72 187.673 110.751 187.507 110.77 187.408C110.787 187.319 110.795 187.279 110.816 187.142C110.91 186.545 110.958 186.245 110.973 185.933C110.993 185.512 111.007 185.233 110.923 184.868C110.839 184.5 110.695 184.217 110.578 183.989C110.52 183.873 110.391 183.637 110.192 183.352C110.189 183.347 109.849 182.864 109.429 182.46C109.383 182.415 108.25 181.346 105.831 180.765C105.398 180.661 104.953 180.581 104.507 180.526C104.498 180.525 104.489 180.524 104.481 180.524Z" fill="#2F4B74"></path> <path d="M107.614 186.137C107.778 186.416 107.943 186.719 108.107 187.042C108.321 187.466 108.505 187.875 108.664 188.262V188.263C108.767 188.625 108.922 188.968 109.131 189.292C109.167 189.343 109.342 189.584 109.635 189.611C109.771 189.625 109.882 189.587 109.948 189.557C110.111 189.476 110.195 189.333 110.225 189.281C110.258 189.222 110.283 189.162 110.344 188.874C110.384 188.691 110.416 188.524 110.443 188.357C110.531 187.804 110.545 187.737 110.563 187.628C110.563 187.628 110.575 187.556 110.585 187.481C110.655 186.988 110.688 186.581 110.704 186.321C110.735 185.794 110.75 185.53 110.722 185.313C110.667 184.875 110.54 184.557 110.437 184.304C110.337 184.058 110.183 183.736 109.946 183.392C109.724 183.353 109.394 183.335 109.195 183.556C108.87 183.915 109.207 184.56 108.972 185.17C108.847 185.491 108.526 185.896 107.614 186.137Z" fill="#2F4B74"></path> <path d="M104.491 180.766C104.907 181.368 105.399 181.904 105.965 182.339C106.531 182.79 107.174 183.048 107.889 183.27C108.241 183.393 108.617 183.567 108.901 183.847C109.186 184.12 109.391 184.463 109.513 184.822C109.759 185.545 109.724 186.3 109.599 187.012C109.586 186.289 109.518 185.561 109.249 184.919C109.108 184.604 108.922 184.312 108.665 184.09C108.416 183.863 108.109 183.717 107.766 183.604C107.425 183.484 107.061 183.368 106.718 183.196C106.376 183.024 106.058 182.805 105.779 182.555C105.211 182.06 104.779 181.435 104.491 180.766Z" fill="#2F4B74"></path> <path d="M70.7558 120.188C71.2545 120.188 71.7758 120.233 72.3198 120.324C72.8638 120.403 73.2888 120.511 73.5948 120.647C73.6968 120.681 73.7591 120.726 73.7818 120.783C73.8158 120.828 73.8441 120.913 73.8668 121.038L74.0708 123.401C74.0708 123.435 74.0425 123.458 73.9858 123.469C73.9291 123.48 73.8951 123.463 73.8838 123.418C73.4985 122.523 72.9828 121.831 72.3368 121.344C71.6908 120.857 70.9428 120.613 70.0928 120.613C68.9708 120.613 68.1038 121.027 67.4918 121.854C66.8798 122.681 66.5738 123.792 66.5738 125.186C66.5738 126.229 66.7381 127.181 67.0668 128.042C67.4068 128.903 67.8771 129.589 68.4778 130.099C69.0898 130.598 69.7811 130.847 70.5518 130.847C71.2771 130.847 71.9231 130.609 72.4898 130.133C73.0678 129.646 73.5835 128.909 74.0368 127.923C74.0481 127.878 74.0821 127.861 74.1388 127.872C74.2068 127.883 74.2408 127.906 74.2408 127.94L73.9858 130.252C73.9631 130.388 73.9348 130.479 73.9008 130.524C73.8781 130.558 73.8158 130.598 73.7138 130.643C72.7051 131.017 71.6681 131.204 70.6028 131.204C69.2201 131.204 68.0641 130.932 67.1348 130.388C66.2055 129.833 65.5198 129.136 65.0778 128.297C64.6471 127.447 64.4318 126.563 64.4318 125.645C64.4318 124.568 64.7208 123.616 65.2988 122.789C65.8881 121.962 66.6645 121.321 67.6278 120.868C68.6025 120.415 69.6451 120.188 70.7558 120.188ZM81.3969 129.878C81.4195 129.878 81.4422 129.901 81.4649 129.946C81.4989 129.991 81.5045 130.025 81.4819 130.048C81.0625 130.456 80.6375 130.751 80.2069 130.932C79.7762 131.113 79.3059 131.204 78.7959 131.204C78.0819 131.204 77.4642 131.057 76.9429 130.762C76.4215 130.456 76.0249 130.054 75.7529 129.555C75.4809 129.045 75.3449 128.501 75.3449 127.923C75.3449 127.266 75.5149 126.659 75.8549 126.104C76.1949 125.537 76.6595 125.095 77.2489 124.778C77.8382 124.449 78.4955 124.285 79.2209 124.285C79.9235 124.285 80.4619 124.438 80.8359 124.744C81.2099 125.039 81.3969 125.447 81.3969 125.968C81.3969 126.297 81.3345 126.461 81.2099 126.461H80.1729L77.1129 126.495C77.0789 126.71 77.0619 126.948 77.0619 127.209C77.0619 128.184 77.2885 128.954 77.7419 129.521C78.2065 130.088 78.8412 130.371 79.6459 130.371C79.9292 130.371 80.2239 130.331 80.5299 130.252C80.8359 130.173 81.1135 130.054 81.3629 129.895L81.3969 129.878ZM78.5919 124.625C78.2519 124.625 77.9572 124.761 77.7079 125.033C77.4585 125.305 77.2772 125.679 77.1639 126.155L79.5779 126.104C79.5439 125.118 79.2152 124.625 78.5919 124.625ZM86.0543 131.221C85.499 131.221 85.0117 131.159 84.5923 131.034V134.298C84.5923 134.638 84.6263 134.887 84.6943 135.046C84.7737 135.205 84.9153 135.312 85.1193 135.369C85.3347 135.437 85.6633 135.471 86.1053 135.471C86.1393 135.471 86.1563 135.505 86.1563 135.573C86.1563 135.641 86.1393 135.675 86.1053 135.675C85.686 135.675 85.3573 135.669 85.1193 135.658L83.7763 135.641L82.7733 135.658C82.6033 135.669 82.3653 135.675 82.0593 135.675C82.0253 135.675 82.0083 135.641 82.0083 135.573C82.0083 135.505 82.0253 135.471 82.0593 135.471C82.3313 135.471 82.5297 135.437 82.6543 135.369C82.7903 135.312 82.881 135.199 82.9263 135.029C82.983 134.87 83.0113 134.627 83.0113 134.298V125.815C83.0113 125.339 82.9263 125.027 82.7563 124.88C82.5977 124.721 82.3087 124.642 81.8893 124.642C81.8667 124.642 81.8553 124.608 81.8553 124.54C81.8553 124.472 81.8667 124.438 81.8893 124.438H84.2183C84.377 124.438 84.479 124.466 84.5243 124.523C84.5697 124.58 84.5923 124.682 84.5923 124.829V125.322C85.4083 124.585 86.247 124.217 87.1083 124.217C87.5843 124.217 88.0263 124.342 88.4343 124.591C88.8537 124.84 89.188 125.203 89.4373 125.679C89.6867 126.155 89.8113 126.71 89.8113 127.345C89.8113 128.252 89.6243 129 89.2503 129.589C88.8763 130.167 88.4003 130.586 87.8223 130.847C87.2557 131.096 86.6663 131.221 86.0543 131.221ZM85.9863 125.169C85.4763 125.169 85.0117 125.35 84.5923 125.713V129.946C84.8417 130.229 85.1023 130.445 85.3743 130.592C85.6463 130.728 85.9807 130.796 86.3773 130.796C87.522 130.796 88.0943 129.821 88.0943 127.872C88.0943 127.011 87.8903 126.348 87.4823 125.883C87.0857 125.407 86.587 125.169 85.9863 125.169ZM92.036 131C92.002 131 91.985 130.966 91.985 130.898C91.985 130.83 92.002 130.796 92.036 130.796C92.308 130.796 92.5063 130.768 92.631 130.711C92.767 130.654 92.8576 130.547 92.903 130.388C92.9483 130.218 92.971 129.963 92.971 129.623V125.849C92.971 125.452 92.937 125.18 92.869 125.033C92.8123 124.886 92.6933 124.812 92.512 124.812C92.1833 124.812 91.8603 124.988 91.543 125.339C91.237 125.69 91.016 126.127 90.88 126.648C90.8686 126.671 90.829 126.682 90.761 126.682C90.7043 126.682 90.676 126.671 90.676 126.648L90.642 125.543C90.6193 125.09 90.608 124.767 90.608 124.574C90.608 124.506 90.6136 124.466 90.625 124.455C90.6363 124.432 90.676 124.421 90.744 124.421C90.982 124.421 91.1916 124.427 91.373 124.438L93.719 124.455L96.116 124.438C96.3086 124.427 96.5296 124.421 96.779 124.421C96.8583 124.421 96.9036 124.432 96.915 124.455C96.9263 124.466 96.932 124.506 96.932 124.574C96.8753 125.707 96.847 126.399 96.847 126.648C96.847 126.671 96.813 126.682 96.745 126.682C96.6883 126.682 96.6543 126.671 96.643 126.648C96.507 126.127 96.2803 125.69 95.963 125.339C95.657 124.988 95.3396 124.812 95.011 124.812C94.8296 124.812 94.705 124.886 94.637 125.033C94.5803 125.18 94.552 125.452 94.552 125.849V129.623C94.552 129.963 94.5746 130.218 94.62 130.388C94.6653 130.547 94.7503 130.654 94.875 130.711C95.011 130.768 95.2093 130.796 95.47 130.796C95.504 130.796 95.521 130.83 95.521 130.898C95.521 130.966 95.504 131 95.47 131C95.1526 131 94.909 130.994 94.739 130.983L93.787 130.966L92.801 130.983C92.6196 130.994 92.3646 131 92.036 131ZM105.735 130.796C105.758 130.796 105.769 130.83 105.769 130.898C105.769 130.966 105.758 131 105.735 131C105.418 131 105.174 130.994 105.004 130.983L104.052 130.966L103.049 130.983C102.868 130.994 102.619 131 102.301 131C102.267 131 102.25 130.966 102.25 130.898C102.25 130.83 102.267 130.796 102.301 130.796C102.573 130.796 102.772 130.768 102.896 130.711C103.032 130.654 103.123 130.547 103.168 130.388C103.214 130.218 103.236 129.963 103.236 129.623V126.512L100.244 129.521V129.623C100.244 129.963 100.267 130.218 100.312 130.388C100.358 130.547 100.443 130.654 100.567 130.711C100.692 130.768 100.89 130.796 101.162 130.796C101.185 130.796 101.196 130.83 101.196 130.898C101.196 130.966 101.185 131 101.162 131C100.845 131 100.601 130.994 100.431 130.983L99.4794 130.966L98.4934 130.983C98.3121 130.994 98.0571 131 97.7284 131C97.6944 131 97.6774 130.966 97.6774 130.898C97.6774 130.83 97.6944 130.796 97.7284 130.796C98.0004 130.796 98.1988 130.768 98.3234 130.711C98.4594 130.654 98.5501 130.547 98.5954 130.388C98.6408 130.218 98.6634 129.963 98.6634 129.623V125.815C98.6634 125.475 98.6408 125.226 98.5954 125.067C98.5501 124.897 98.4594 124.784 98.3234 124.727C98.1988 124.67 98.0061 124.642 97.7454 124.642C97.7114 124.642 97.6944 124.608 97.6944 124.54C97.6944 124.472 97.7114 124.438 97.7454 124.438C98.0628 124.438 98.3064 124.444 98.4764 124.455L99.4794 124.472L100.431 124.455C100.613 124.444 100.856 124.438 101.162 124.438C101.185 124.438 101.196 124.472 101.196 124.54C101.196 124.608 101.185 124.642 101.162 124.642C100.902 124.642 100.703 124.676 100.567 124.744C100.443 124.812 100.358 124.931 100.312 125.101C100.267 125.26 100.244 125.509 100.244 125.849V128.909L103.236 125.917V125.815C103.236 125.475 103.214 125.226 103.168 125.067C103.123 124.897 103.032 124.784 102.896 124.727C102.772 124.67 102.579 124.642 102.318 124.642C102.284 124.642 102.267 124.608 102.267 124.54C102.267 124.472 102.284 124.438 102.318 124.438C102.636 124.438 102.879 124.444 103.049 124.455L104.052 124.472L105.004 124.455C105.186 124.444 105.429 124.438 105.735 124.438C105.758 124.438 105.769 124.472 105.769 124.54C105.769 124.608 105.758 124.642 105.735 124.642C105.475 124.642 105.276 124.676 105.14 124.744C105.016 124.812 104.931 124.931 104.885 125.101C104.84 125.26 104.817 125.509 104.817 125.849V129.623C104.817 129.963 104.84 130.218 104.885 130.388C104.931 130.547 105.016 130.654 105.14 130.711C105.265 130.768 105.463 130.796 105.735 130.796ZM114.527 124.217C114.969 124.217 115.371 124.353 115.734 124.625C116.097 124.886 116.386 125.277 116.601 125.798C116.816 126.308 116.924 126.914 116.924 127.617C116.924 128.388 116.771 129.045 116.465 129.589C116.159 130.133 115.779 130.541 115.326 130.813C114.884 131.085 114.448 131.221 114.017 131.221C113.518 131.221 113.037 131.023 112.572 130.626V134.298C112.572 134.638 112.606 134.887 112.674 135.046C112.742 135.205 112.872 135.312 113.065 135.369C113.258 135.437 113.558 135.471 113.966 135.471C113.989 135.471 114 135.505 114 135.573C114 135.641 113.989 135.675 113.966 135.675C113.592 135.675 113.292 135.669 113.065 135.658L111.807 135.641L110.447 135.658C110.22 135.669 109.903 135.675 109.495 135.675C109.461 135.675 109.444 135.641 109.444 135.573C109.444 135.505 109.461 135.471 109.495 135.471C109.937 135.471 110.26 135.437 110.464 135.369C110.679 135.312 110.821 135.205 110.889 135.046C110.968 134.887 111.008 134.638 111.008 134.298V130.388C110.362 130.943 109.71 131.221 109.053 131.221C108.611 131.221 108.209 131.091 107.846 130.83C107.483 130.558 107.194 130.167 106.979 129.657C106.764 129.136 106.656 128.524 106.656 127.821C106.656 127.05 106.809 126.393 107.115 125.849C107.421 125.305 107.795 124.897 108.237 124.625C108.69 124.353 109.127 124.217 109.546 124.217C110.056 124.217 110.543 124.415 111.008 124.812V120.987C111.008 120.59 110.968 120.307 110.889 120.137C110.821 119.967 110.691 119.882 110.498 119.882C110.351 119.882 110.141 119.944 109.869 120.069H109.852C109.807 120.069 109.773 120.041 109.75 119.984C109.727 119.916 109.727 119.876 109.75 119.865L112.198 118.692C112.221 118.681 112.249 118.675 112.283 118.675C112.34 118.675 112.402 118.703 112.47 118.76C112.538 118.805 112.572 118.851 112.572 118.896V125.05C113.218 124.495 113.87 124.217 114.527 124.217ZM109.665 130.643C110.096 130.643 110.543 130.433 111.008 130.014V125.407C110.804 125.146 110.589 124.948 110.362 124.812C110.135 124.665 109.926 124.591 109.733 124.591C109.348 124.591 109.047 124.852 108.832 125.373C108.628 125.894 108.526 126.603 108.526 127.498C108.526 128.518 108.628 129.3 108.832 129.844C109.036 130.377 109.314 130.643 109.665 130.643ZM113.847 130.847C114.232 130.847 114.527 130.586 114.731 130.065C114.946 129.544 115.054 128.835 115.054 127.94C115.054 126.92 114.952 126.144 114.748 125.611C114.544 125.067 114.261 124.795 113.898 124.795C113.467 124.795 113.025 124.999 112.572 125.407V130.031C112.776 130.292 112.991 130.496 113.218 130.643C113.445 130.779 113.654 130.847 113.847 130.847ZM125.849 130.796C125.871 130.796 125.883 130.83 125.883 130.898C125.883 130.966 125.871 131 125.849 131C125.531 131 125.288 130.994 125.118 130.983L124.166 130.966L123.163 130.983C122.981 130.994 122.732 131 122.415 131C122.381 131 122.364 130.966 122.364 130.898C122.364 130.83 122.381 130.796 122.415 130.796C122.687 130.796 122.885 130.768 123.01 130.711C123.146 130.654 123.236 130.547 123.282 130.388C123.327 130.218 123.35 129.963 123.35 129.623V126.512L120.358 129.521V129.623C120.358 129.963 120.38 130.218 120.426 130.388C120.471 130.547 120.556 130.654 120.681 130.711C120.805 130.768 121.004 130.796 121.276 130.796C121.298 130.796 121.31 130.83 121.31 130.898C121.31 130.966 121.298 131 121.276 131C120.958 131 120.715 130.994 120.545 130.983L119.593 130.966L118.607 130.983C118.425 130.994 118.17 131 117.842 131C117.808 131 117.791 130.966 117.791 130.898C117.791 130.83 117.808 130.796 117.842 130.796C118.114 130.796 118.312 130.768 118.437 130.711C118.573 130.654 118.663 130.547 118.709 130.388C118.754 130.218 118.777 129.963 118.777 129.623V125.815C118.777 125.475 118.754 125.226 118.709 125.067C118.663 124.897 118.573 124.784 118.437 124.727C118.312 124.67 118.119 124.642 117.859 124.642C117.825 124.642 117.808 124.608 117.808 124.54C117.808 124.472 117.825 124.438 117.859 124.438C118.176 124.438 118.42 124.444 118.59 124.455L119.593 124.472L120.545 124.455C120.726 124.444 120.97 124.438 121.276 124.438C121.298 124.438 121.31 124.472 121.31 124.54C121.31 124.608 121.298 124.642 121.276 124.642C121.015 124.642 120.817 124.676 120.681 124.744C120.556 124.812 120.471 124.931 120.426 125.101C120.38 125.26 120.358 125.509 120.358 125.849V128.909L123.35 125.917V125.815C123.35 125.475 123.327 125.226 123.282 125.067C123.236 124.897 123.146 124.784 123.01 124.727C122.885 124.67 122.692 124.642 122.432 124.642C122.398 124.642 122.381 124.608 122.381 124.54C122.381 124.472 122.398 124.438 122.432 124.438C122.749 124.438 122.993 124.444 123.163 124.455L124.166 124.472L125.118 124.455C125.299 124.444 125.543 124.438 125.849 124.438C125.871 124.438 125.883 124.472 125.883 124.54C125.883 124.608 125.871 124.642 125.849 124.642C125.588 124.642 125.39 124.676 125.254 124.744C125.129 124.812 125.044 124.931 124.999 125.101C124.953 125.26 124.931 125.509 124.931 125.849V129.623C124.931 129.963 124.953 130.218 124.999 130.388C125.044 130.547 125.129 130.654 125.254 130.711C125.378 130.768 125.577 130.796 125.849 130.796ZM132.158 131C132.952 131 133.547 131.187 133.943 131.561C134.34 131.946 134.538 132.553 134.538 133.38C134.538 133.437 134.572 133.465 134.64 133.465C134.708 133.465 134.742 133.437 134.742 133.38C134.742 132.677 134.776 132.043 134.844 131.476C134.878 131.227 134.895 131 134.895 130.796C134.895 130.705 134.884 130.654 134.861 130.643C134.85 130.62 134.793 130.609 134.691 130.609C134.419 130.609 134.221 130.592 134.096 130.558C133.983 130.524 133.898 130.439 133.841 130.303C133.796 130.167 133.773 129.94 133.773 129.623V125.815C133.773 125.475 133.796 125.226 133.841 125.067C133.887 124.897 133.972 124.784 134.096 124.727C134.232 124.67 134.436 124.642 134.708 124.642C134.742 124.642 134.759 124.608 134.759 124.54C134.759 124.472 134.742 124.438 134.708 124.438C134.38 124.438 134.125 124.444 133.943 124.455L132.957 124.472L132.124 124.455C131.966 124.444 131.75 124.438 131.478 124.438C131.444 124.438 131.427 124.472 131.427 124.54C131.427 124.608 131.444 124.642 131.478 124.642C131.694 124.642 131.847 124.67 131.937 124.727C132.039 124.784 132.107 124.897 132.141 125.067C132.175 125.226 132.192 125.475 132.192 125.815V129.589C132.192 129.952 132.181 130.19 132.158 130.303C132.147 130.416 132.107 130.49 132.039 130.524C131.983 130.558 131.858 130.575 131.665 130.575H129.761C129.58 130.575 129.461 130.564 129.404 130.541C129.348 130.507 129.308 130.433 129.285 130.32C129.274 130.207 129.268 129.974 129.268 129.623V125.815C129.268 125.475 129.285 125.226 129.319 125.067C129.365 124.897 129.433 124.784 129.523 124.727C129.625 124.67 129.784 124.642 129.999 124.642C130.033 124.642 130.05 124.608 130.05 124.54C130.05 124.472 130.033 124.438 129.999 124.438C129.727 124.438 129.512 124.444 129.353 124.455L128.452 124.472L127.5 124.455C127.33 124.444 127.087 124.438 126.769 124.438C126.735 124.438 126.718 124.472 126.718 124.54C126.718 124.608 126.735 124.642 126.769 124.642C127.03 124.642 127.223 124.67 127.347 124.727C127.472 124.784 127.557 124.897 127.602 125.067C127.648 125.226 127.67 125.475 127.67 125.815V129.589C127.67 129.929 127.648 130.184 127.602 130.354C127.557 130.513 127.472 130.626 127.347 130.694C127.223 130.762 127.03 130.796 126.769 130.796C126.735 130.796 126.718 130.83 126.718 130.898C126.718 130.966 126.735 131 126.769 131H132.158ZM143.604 130.796C143.627 130.796 143.638 130.83 143.638 130.898C143.638 130.966 143.627 131 143.604 131C143.287 131 143.043 130.994 142.873 130.983L141.921 130.966L140.918 130.983C140.737 130.994 140.488 131 140.17 131C140.136 131 140.119 130.966 140.119 130.898C140.119 130.83 140.136 130.796 140.17 130.796C140.442 130.796 140.641 130.768 140.765 130.711C140.901 130.654 140.992 130.547 141.037 130.388C141.083 130.218 141.105 129.963 141.105 129.623V126.512L138.113 129.521V129.623C138.113 129.963 138.136 130.218 138.181 130.388C138.227 130.547 138.312 130.654 138.436 130.711C138.561 130.768 138.759 130.796 139.031 130.796C139.054 130.796 139.065 130.83 139.065 130.898C139.065 130.966 139.054 131 139.031 131C138.714 131 138.47 130.994 138.3 130.983L137.348 130.966L136.362 130.983C136.181 130.994 135.926 131 135.597 131C135.563 131 135.546 130.966 135.546 130.898C135.546 130.83 135.563 130.796 135.597 130.796C135.869 130.796 136.068 130.768 136.192 130.711C136.328 130.654 136.419 130.547 136.464 130.388C136.51 130.218 136.532 129.963 136.532 129.623V125.815C136.532 125.475 136.51 125.226 136.464 125.067C136.419 124.897 136.328 124.784 136.192 124.727C136.068 124.67 135.875 124.642 135.614 124.642C135.58 124.642 135.563 124.608 135.563 124.54C135.563 124.472 135.58 124.438 135.614 124.438C135.932 124.438 136.175 124.444 136.345 124.455L137.348 124.472L138.3 124.455C138.482 124.444 138.725 124.438 139.031 124.438C139.054 124.438 139.065 124.472 139.065 124.54C139.065 124.608 139.054 124.642 139.031 124.642C138.771 124.642 138.572 124.676 138.436 124.744C138.312 124.812 138.227 124.931 138.181 125.101C138.136 125.26 138.113 125.509 138.113 125.849V128.909L141.105 125.917V125.815C141.105 125.475 141.083 125.226 141.037 125.067C140.992 124.897 140.901 124.784 140.765 124.727C140.641 124.67 140.448 124.642 140.187 124.642C140.153 124.642 140.136 124.608 140.136 124.54C140.136 124.472 140.153 124.438 140.187 124.438C140.505 124.438 140.748 124.444 140.918 124.455L141.921 124.472L142.873 124.455C143.055 124.444 143.298 124.438 143.604 124.438C143.627 124.438 143.638 124.472 143.638 124.54C143.638 124.608 143.627 124.642 143.604 124.642C143.344 124.642 143.145 124.676 143.009 124.744C142.885 124.812 142.8 124.931 142.754 125.101C142.709 125.26 142.686 125.509 142.686 125.849V129.623C142.686 129.963 142.709 130.218 142.754 130.388C142.8 130.547 142.885 130.654 143.009 130.711C143.134 130.768 143.332 130.796 143.604 130.796ZM148.299 131.221C147.744 131.221 147.256 131.159 146.837 131.034V134.298C146.837 134.638 146.871 134.887 146.939 135.046C147.018 135.205 147.16 135.312 147.364 135.369C147.579 135.437 147.908 135.471 148.35 135.471C148.384 135.471 148.401 135.505 148.401 135.573C148.401 135.641 148.384 135.675 148.35 135.675C147.931 135.675 147.602 135.669 147.364 135.658L146.021 135.641L145.018 135.658C144.848 135.669 144.61 135.675 144.304 135.675C144.27 135.675 144.253 135.641 144.253 135.573C144.253 135.505 144.27 135.471 144.304 135.471C144.576 135.471 144.774 135.437 144.899 135.369C145.035 135.312 145.126 135.199 145.171 135.029C145.228 134.87 145.256 134.627 145.256 134.298V125.815C145.256 125.339 145.171 125.027 145.001 124.88C144.842 124.721 144.553 124.642 144.134 124.642C144.111 124.642 144.1 124.608 144.1 124.54C144.1 124.472 144.111 124.438 144.134 124.438H146.463C146.622 124.438 146.724 124.466 146.769 124.523C146.814 124.58 146.837 124.682 146.837 124.829V125.322C147.653 124.585 148.492 124.217 149.353 124.217C149.829 124.217 150.271 124.342 150.679 124.591C151.098 124.84 151.433 125.203 151.682 125.679C151.931 126.155 152.056 126.71 152.056 127.345C152.056 128.252 151.869 129 151.495 129.589C151.121 130.167 150.645 130.586 150.067 130.847C149.5 131.096 148.911 131.221 148.299 131.221ZM148.231 125.169C147.721 125.169 147.256 125.35 146.837 125.713V129.946C147.086 130.229 147.347 130.445 147.619 130.592C147.891 130.728 148.225 130.796 148.622 130.796C149.767 130.796 150.339 129.821 150.339 127.872C150.339 127.011 150.135 126.348 149.727 125.883C149.33 125.407 148.832 125.169 148.231 125.169ZM156.44 131.221C155.737 131.221 155.119 131.062 154.587 130.745C154.065 130.416 153.663 129.98 153.38 129.436C153.096 128.881 152.955 128.28 152.955 127.634C152.955 126.897 153.142 126.274 153.516 125.764C153.89 125.243 154.366 124.857 154.944 124.608C155.522 124.347 156.117 124.217 156.729 124.217C157.431 124.217 158.043 124.381 158.565 124.71C159.086 125.039 159.483 125.475 159.755 126.019C160.038 126.552 160.18 127.124 160.18 127.736C160.18 128.416 160.01 129.022 159.67 129.555C159.33 130.076 158.871 130.484 158.293 130.779C157.726 131.074 157.108 131.221 156.44 131.221ZM156.95 130.864C157.392 130.864 157.726 130.649 157.953 130.218C158.191 129.776 158.31 129.147 158.31 128.331C158.31 127.538 158.208 126.858 158.004 126.291C157.8 125.724 157.533 125.299 157.205 125.016C156.876 124.721 156.525 124.574 156.151 124.574C155.244 124.574 154.791 125.384 154.791 127.005C154.791 127.764 154.887 128.439 155.08 129.028C155.272 129.606 155.533 130.059 155.862 130.388C156.19 130.705 156.553 130.864 156.95 130.864ZM165.692 127.362C167.109 127.487 167.817 128.008 167.817 128.926C167.817 129.538 167.551 130.042 167.018 130.439C166.485 130.836 165.794 131.034 164.944 131.034C164.808 131.034 164.502 131.023 164.026 131C163.482 130.977 163.091 130.966 162.853 130.966L161.867 130.983C161.686 130.994 161.431 131 161.102 131C161.068 131 161.051 130.966 161.051 130.898C161.051 130.83 161.068 130.796 161.102 130.796C161.374 130.796 161.572 130.768 161.697 130.711C161.833 130.654 161.924 130.547 161.969 130.388C162.014 130.218 162.037 129.963 162.037 129.623V125.815C162.037 125.475 162.014 125.226 161.969 125.067C161.924 124.897 161.833 124.784 161.697 124.727C161.572 124.67 161.38 124.642 161.119 124.642C161.085 124.642 161.068 124.608 161.068 124.54C161.068 124.472 161.085 124.438 161.119 124.438L162.853 124.455L163.737 124.438C164.168 124.415 164.485 124.404 164.689 124.404C166.298 124.404 167.103 124.835 167.103 125.696C167.103 125.991 166.984 126.274 166.746 126.546C166.519 126.818 166.168 127.09 165.692 127.362ZM164.281 124.744C164.009 124.744 163.828 124.812 163.737 124.948C163.658 125.084 163.618 125.384 163.618 125.849V127.345H165.063H165.216C165.329 127.005 165.386 126.62 165.386 126.189C165.386 125.668 165.295 125.299 165.114 125.084C164.944 124.857 164.666 124.744 164.281 124.744ZM164.655 130.677C165.142 130.677 165.499 130.564 165.726 130.337C165.953 130.099 166.066 129.748 166.066 129.283C166.066 128.784 165.936 128.393 165.675 128.11C165.426 127.815 165.023 127.668 164.468 127.668H163.618V129.623C163.618 129.997 163.686 130.269 163.822 130.439C163.969 130.598 164.247 130.677 164.655 130.677ZM175.247 130.082C175.293 130.082 175.321 130.11 175.332 130.167C175.355 130.212 175.344 130.246 175.298 130.269L173.547 131.102C173.502 131.125 173.445 131.136 173.377 131.136C173.207 131.136 173.037 131.051 172.867 130.881C172.709 130.711 172.595 130.479 172.527 130.184L171.745 130.609C171.451 130.756 171.145 130.881 170.827 130.983C170.51 131.074 170.227 131.119 169.977 131.119C169.615 131.119 169.326 131.028 169.11 130.847C168.906 130.654 168.804 130.382 168.804 130.031C168.804 129.77 168.867 129.561 168.991 129.402C169.127 129.243 169.314 129.113 169.552 129.011C169.802 128.898 170.193 128.75 170.725 128.569L172.459 128.008V126.665C172.459 125.985 172.391 125.486 172.255 125.169C172.119 124.84 171.898 124.676 171.592 124.676C171.32 124.676 171.105 124.778 170.946 124.982C170.788 125.186 170.691 125.52 170.657 125.985C170.589 126.62 170.255 126.937 169.654 126.937C169.122 126.937 168.855 126.705 168.855 126.24C168.855 125.934 169.048 125.628 169.433 125.322C169.819 125.016 170.283 124.767 170.827 124.574C171.371 124.381 171.847 124.285 172.255 124.285C172.788 124.285 173.219 124.444 173.547 124.761C173.887 125.078 174.057 125.543 174.057 126.155V129.164C174.057 129.493 174.114 129.748 174.227 129.929C174.352 130.11 174.522 130.201 174.737 130.201C174.896 130.201 175.06 130.161 175.23 130.082H175.247ZM172.476 129.912C172.465 129.833 172.459 129.714 172.459 129.555V128.297L171.524 128.637C171.218 128.75 170.997 128.875 170.861 129.011C170.737 129.147 170.674 129.311 170.674 129.504C170.674 129.742 170.742 129.929 170.878 130.065C171.014 130.201 171.184 130.269 171.388 130.269C171.638 130.269 171.927 130.19 172.255 130.031L172.476 129.912ZM183.661 130.796C183.683 130.796 183.695 130.83 183.695 130.898C183.695 130.966 183.683 131 183.661 131C183.343 131 183.1 130.994 182.93 130.983L181.978 130.966L180.975 130.983C180.793 130.994 180.544 131 180.227 131C180.193 131 180.176 130.966 180.176 130.898C180.176 130.83 180.193 130.796 180.227 130.796C180.499 130.796 180.697 130.768 180.822 130.711C180.958 130.654 181.048 130.547 181.094 130.388C181.139 130.218 181.162 129.963 181.162 129.623V127.923H178.17V129.623C178.17 129.963 178.192 130.218 178.238 130.388C178.283 130.547 178.368 130.654 178.493 130.711C178.617 130.768 178.816 130.796 179.088 130.796C179.11 130.796 179.122 130.83 179.122 130.898C179.122 130.966 179.11 131 179.088 131C178.77 131 178.527 130.994 178.357 130.983L177.405 130.966L176.419 130.983C176.237 130.994 175.982 131 175.654 131C175.62 131 175.603 130.966 175.603 130.898C175.603 130.83 175.62 130.796 175.654 130.796C175.926 130.796 176.124 130.768 176.249 130.711C176.385 130.654 176.475 130.547 176.521 130.388C176.566 130.218 176.589 129.963 176.589 129.623V125.815C176.589 125.475 176.566 125.226 176.521 125.067C176.475 124.897 176.385 124.784 176.249 124.727C176.124 124.67 175.931 124.642 175.671 124.642C175.637 124.642 175.62 124.608 175.62 124.54C175.62 124.472 175.637 124.438 175.671 124.438C175.988 124.438 176.232 124.444 176.402 124.455L177.405 124.472L178.357 124.455C178.538 124.444 178.782 124.438 179.088 124.438C179.11 124.438 179.122 124.472 179.122 124.54C179.122 124.608 179.11 124.642 179.088 124.642C178.827 124.642 178.629 124.676 178.493 124.744C178.368 124.812 178.283 124.931 178.238 125.101C178.192 125.26 178.17 125.509 178.17 125.849V127.515H181.162V125.815C181.162 125.475 181.139 125.226 181.094 125.067C181.048 124.897 180.958 124.784 180.822 124.727C180.697 124.67 180.504 124.642 180.244 124.642C180.21 124.642 180.193 124.608 180.193 124.54C180.193 124.472 180.21 124.438 180.244 124.438C180.561 124.438 180.805 124.444 180.975 124.455L181.978 124.472L182.93 124.455C183.111 124.444 183.355 124.438 183.661 124.438C183.683 124.438 183.695 124.472 183.695 124.54C183.695 124.608 183.683 124.642 183.661 124.642C183.4 124.642 183.202 124.676 183.066 124.744C182.941 124.812 182.856 124.931 182.811 125.101C182.765 125.26 182.743 125.509 182.743 125.849V129.623C182.743 129.963 182.765 130.218 182.811 130.388C182.856 130.547 182.941 130.654 183.066 130.711C183.19 130.768 183.389 130.796 183.661 130.796ZM192.588 130.796C192.611 130.796 192.622 130.83 192.622 130.898C192.622 130.966 192.611 131 192.588 131C192.271 131 192.027 130.994 191.857 130.983L190.905 130.966L189.902 130.983C189.721 130.994 189.472 131 189.154 131C189.12 131 189.103 130.966 189.103 130.898C189.103 130.83 189.12 130.796 189.154 130.796C189.426 130.796 189.625 130.768 189.749 130.711C189.885 130.654 189.976 130.547 190.021 130.388C190.067 130.218 190.089 129.963 190.089 129.623V127.923H187.097V129.623C187.097 129.963 187.12 130.218 187.165 130.388C187.211 130.547 187.296 130.654 187.42 130.711C187.545 130.768 187.743 130.796 188.015 130.796C188.038 130.796 188.049 130.83 188.049 130.898C188.049 130.966 188.038 131 188.015 131C187.698 131 187.454 130.994 187.284 130.983L186.332 130.966L185.346 130.983C185.165 130.994 184.91 131 184.581 131C184.547 131 184.53 130.966 184.53 130.898C184.53 130.83 184.547 130.796 184.581 130.796C184.853 130.796 185.052 130.768 185.176 130.711C185.312 130.654 185.403 130.547 185.448 130.388C185.494 130.218 185.516 129.963 185.516 129.623V125.815C185.516 125.475 185.494 125.226 185.448 125.067C185.403 124.897 185.312 124.784 185.176 124.727C185.052 124.67 184.859 124.642 184.598 124.642C184.564 124.642 184.547 124.608 184.547 124.54C184.547 124.472 184.564 124.438 184.598 124.438C184.916 124.438 185.159 124.444 185.329 124.455L186.332 124.472L187.284 124.455C187.466 124.444 187.709 124.438 188.015 124.438C188.038 124.438 188.049 124.472 188.049 124.54C188.049 124.608 188.038 124.642 188.015 124.642C187.755 124.642 187.556 124.676 187.42 124.744C187.296 124.812 187.211 124.931 187.165 125.101C187.12 125.26 187.097 125.509 187.097 125.849V127.515H190.089V125.815C190.089 125.475 190.067 125.226 190.021 125.067C189.976 124.897 189.885 124.784 189.749 124.727C189.625 124.67 189.432 124.642 189.171 124.642C189.137 124.642 189.12 124.608 189.12 124.54C189.12 124.472 189.137 124.438 189.171 124.438C189.489 124.438 189.732 124.444 189.902 124.455L190.905 124.472L191.857 124.455C192.039 124.444 192.282 124.438 192.588 124.438C192.611 124.438 192.622 124.472 192.622 124.54C192.622 124.608 192.611 124.642 192.588 124.642C192.328 124.642 192.129 124.676 191.993 124.744C191.869 124.812 191.784 124.931 191.738 125.101C191.693 125.26 191.67 125.509 191.67 125.849V129.623C191.67 129.963 191.693 130.218 191.738 130.388C191.784 130.547 191.869 130.654 191.993 130.711C192.118 130.768 192.316 130.796 192.588 130.796ZM197.402 127.107C199.147 127.107 200.02 127.696 200.02 128.875C200.02 129.521 199.77 130.042 199.272 130.439C198.784 130.836 198.144 131.034 197.351 131.034L196.433 131C195.889 130.977 195.498 130.966 195.26 130.966L194.274 130.983C194.092 130.994 193.837 131 193.509 131C193.475 131 193.458 130.966 193.458 130.898C193.458 130.83 193.475 130.796 193.509 130.796C193.781 130.796 193.979 130.768 194.104 130.711C194.24 130.654 194.33 130.547 194.376 130.388C194.421 130.218 194.444 129.963 194.444 129.623V125.815C194.444 125.475 194.421 125.226 194.376 125.067C194.33 124.897 194.24 124.784 194.104 124.727C193.979 124.67 193.786 124.642 193.526 124.642C193.492 124.642 193.475 124.608 193.475 124.54C193.475 124.472 193.492 124.438 193.526 124.438C193.843 124.438 194.087 124.444 194.257 124.455L195.26 124.472L196.314 124.455C196.518 124.444 196.795 124.438 197.147 124.438C197.169 124.438 197.181 124.472 197.181 124.54C197.181 124.608 197.169 124.642 197.147 124.642C196.818 124.642 196.574 124.676 196.416 124.744C196.268 124.812 196.166 124.931 196.11 125.101C196.053 125.26 196.025 125.509 196.025 125.849V127.26C196.444 127.158 196.903 127.107 197.402 127.107ZM204.1 130.796C204.122 130.796 204.134 130.83 204.134 130.898C204.134 130.966 204.122 131 204.1 131C203.782 131 203.539 130.994 203.369 130.983L202.417 130.966L201.431 130.983C201.249 130.994 200.994 131 200.666 131C200.632 131 200.615 130.966 200.615 130.898C200.615 130.83 200.632 130.796 200.666 130.796C200.938 130.796 201.136 130.768 201.261 130.711C201.397 130.654 201.487 130.547 201.533 130.388C201.578 130.218 201.601 129.963 201.601 129.623V125.815C201.601 125.475 201.578 125.226 201.533 125.067C201.487 124.897 201.397 124.784 201.261 124.727C201.136 124.67 200.943 124.642 200.683 124.642C200.649 124.642 200.632 124.608 200.632 124.54C200.632 124.472 200.649 124.438 200.683 124.438C201 124.438 201.244 124.444 201.414 124.455L202.417 124.472L203.369 124.455C203.55 124.444 203.794 124.438 204.1 124.438C204.122 124.438 204.134 124.472 204.134 124.54C204.134 124.608 204.122 124.642 204.1 124.642C203.839 124.642 203.641 124.676 203.505 124.744C203.38 124.812 203.295 124.931 203.25 125.101C203.204 125.26 203.182 125.509 203.182 125.849V129.623C203.182 129.963 203.204 130.218 203.25 130.388C203.295 130.547 203.38 130.654 203.505 130.711C203.629 130.768 203.828 130.796 204.1 130.796ZM196.994 130.779C197.447 130.779 197.781 130.66 197.997 130.422C198.212 130.173 198.32 129.782 198.32 129.249C198.32 128.07 197.81 127.481 196.79 127.481C196.552 127.481 196.297 127.515 196.025 127.583V129.623C196.025 130.031 196.093 130.326 196.229 130.507C196.365 130.688 196.62 130.779 196.994 130.779ZM211.062 129.878C211.084 129.878 211.107 129.901 211.13 129.946C211.164 129.991 211.169 130.025 211.147 130.048C210.727 130.456 210.302 130.751 209.872 130.932C209.441 131.113 208.971 131.204 208.461 131.204C207.747 131.204 207.129 131.057 206.608 130.762C206.086 130.456 205.69 130.054 205.418 129.555C205.146 129.045 205.01 128.501 205.01 127.923C205.01 127.266 205.18 126.659 205.52 126.104C205.86 125.537 206.324 125.095 206.914 124.778C207.503 124.449 208.16 124.285 208.886 124.285C209.588 124.285 210.127 124.438 210.501 124.744C210.875 125.039 211.062 125.447 211.062 125.968C211.062 126.297 210.999 126.461 210.875 126.461H209.838L206.778 126.495C206.744 126.71 206.727 126.948 206.727 127.209C206.727 128.184 206.953 128.954 207.407 129.521C207.871 130.088 208.506 130.371 209.311 130.371C209.594 130.371 209.889 130.331 210.195 130.252C210.501 130.173 210.778 130.054 211.028 129.895L211.062 129.878ZM208.257 124.625C207.917 124.625 207.622 124.761 207.373 125.033C207.123 125.305 206.942 125.679 206.829 126.155L209.243 126.104C209.209 125.118 208.88 124.625 208.257 124.625ZM109.671 151.796C109.705 151.796 109.722 151.83 109.722 151.898C109.722 151.966 109.705 152 109.671 152C109.342 152 109.082 151.994 108.889 151.983L107.954 151.966L107.07 151.983C106.911 151.994 106.696 152 106.424 152C106.401 152 106.39 151.966 106.39 151.898C106.39 151.83 106.401 151.796 106.424 151.796C106.707 151.796 106.9 151.745 107.002 151.643C107.115 151.53 107.172 151.309 107.172 150.98C107.172 150.833 107.166 150.714 107.155 150.623L106.832 146.662L104.877 151.609C104.866 151.643 104.826 151.66 104.758 151.66C104.69 151.66 104.645 151.643 104.622 151.609L102.276 146.849L102.259 146.815L102.072 150.232C102.049 150.742 102.129 151.133 102.31 151.405C102.503 151.666 102.78 151.796 103.143 151.796C103.177 151.796 103.194 151.83 103.194 151.898C103.194 151.966 103.177 152 103.143 152C102.905 152 102.724 151.994 102.599 151.983L101.902 151.966L101.188 151.983C101.052 151.994 100.859 152 100.61 152C100.576 152 100.559 151.966 100.559 151.898C100.559 151.83 100.576 151.796 100.61 151.796C101.301 151.796 101.675 151.275 101.732 150.232L101.953 146.254C101.794 146.016 101.636 145.857 101.477 145.778C101.318 145.687 101.126 145.642 100.899 145.642C100.876 145.642 100.865 145.608 100.865 145.54C100.865 145.472 100.876 145.438 100.899 145.438L101.919 145.455L102.667 145.438C102.928 145.438 103.126 145.489 103.262 145.591C103.409 145.693 103.579 145.931 103.772 146.305L105.353 149.569L106.815 145.863C106.86 145.727 106.928 145.625 107.019 145.557C107.121 145.478 107.223 145.438 107.325 145.438L108.328 145.455L109.416 145.438C109.439 145.438 109.45 145.472 109.45 145.54C109.45 145.608 109.439 145.642 109.416 145.642C109.042 145.642 108.77 145.721 108.6 145.88C108.441 146.027 108.379 146.322 108.413 146.764L108.736 150.623C108.77 150.986 108.804 151.246 108.838 151.405C108.883 151.552 108.963 151.654 109.076 151.711C109.201 151.768 109.399 151.796 109.671 151.796ZM117.002 151.082C117.047 151.082 117.075 151.11 117.087 151.167C117.109 151.212 117.098 151.246 117.053 151.269L115.302 152.102C115.256 152.125 115.2 152.136 115.132 152.136C114.962 152.136 114.792 152.051 114.622 151.881C114.463 151.711 114.35 151.479 114.282 151.184L113.5 151.609C113.205 151.756 112.899 151.881 112.582 151.983C112.264 152.074 111.981 152.119 111.732 152.119C111.369 152.119 111.08 152.028 110.865 151.847C110.661 151.654 110.559 151.382 110.559 151.031C110.559 150.77 110.621 150.561 110.746 150.402C110.882 150.243 111.069 150.113 111.307 150.011C111.556 149.898 111.947 149.75 112.48 149.569L114.214 149.008V147.665C114.214 146.985 114.146 146.486 114.01 146.169C113.874 145.84 113.653 145.676 113.347 145.676C113.075 145.676 112.859 145.778 112.701 145.982C112.542 146.186 112.446 146.52 112.412 146.985C112.344 147.62 112.009 147.937 111.409 147.937C110.876 147.937 110.61 147.705 110.61 147.24C110.61 146.934 110.802 146.628 111.188 146.322C111.573 146.016 112.038 145.767 112.582 145.574C113.126 145.381 113.602 145.285 114.01 145.285C114.542 145.285 114.973 145.444 115.302 145.761C115.642 146.078 115.812 146.543 115.812 147.155V150.164C115.812 150.493 115.868 150.748 115.982 150.929C116.106 151.11 116.276 151.201 116.492 151.201C116.65 151.201 116.815 151.161 116.985 151.082H117.002ZM114.231 150.912C114.219 150.833 114.214 150.714 114.214 150.555V149.297L113.279 149.637C112.973 149.75 112.752 149.875 112.616 150.011C112.491 150.147 112.429 150.311 112.429 150.504C112.429 150.742 112.497 150.929 112.633 151.065C112.769 151.201 112.939 151.269 113.143 151.269C113.392 151.269 113.681 151.19 114.01 151.031L114.231 150.912ZM118.734 152C118.7 152 118.683 151.966 118.683 151.898C118.683 151.83 118.7 151.796 118.734 151.796C119.006 151.796 119.204 151.768 119.329 151.711C119.465 151.654 119.556 151.547 119.601 151.388C119.646 151.218 119.669 150.963 119.669 150.623V146.849C119.669 146.452 119.635 146.18 119.567 146.033C119.51 145.886 119.391 145.812 119.21 145.812C118.881 145.812 118.558 145.988 118.241 146.339C117.935 146.69 117.714 147.127 117.578 147.648C117.567 147.671 117.527 147.682 117.459 147.682C117.402 147.682 117.374 147.671 117.374 147.648L117.34 146.543C117.317 146.09 117.306 145.767 117.306 145.574C117.306 145.506 117.312 145.466 117.323 145.455C117.334 145.432 117.374 145.421 117.442 145.421C117.68 145.421 117.89 145.427 118.071 145.438L120.417 145.455L122.814 145.438C123.007 145.427 123.228 145.421 123.477 145.421C123.556 145.421 123.602 145.432 123.613 145.455C123.624 145.466 123.63 145.506 123.63 145.574C123.573 146.707 123.545 147.399 123.545 147.648C123.545 147.671 123.511 147.682 123.443 147.682C123.386 147.682 123.352 147.671 123.341 147.648C123.205 147.127 122.978 146.69 122.661 146.339C122.355 145.988 122.038 145.812 121.709 145.812C121.528 145.812 121.403 145.886 121.335 146.033C121.278 146.18 121.25 146.452 121.25 146.849V150.623C121.25 150.963 121.273 151.218 121.318 151.388C121.363 151.547 121.448 151.654 121.573 151.711C121.709 151.768 121.907 151.796 122.168 151.796C122.202 151.796 122.219 151.83 122.219 151.898C122.219 151.966 122.202 152 122.168 152C121.851 152 121.607 151.994 121.437 151.983L120.485 151.966L119.499 151.983C119.318 151.994 119.063 152 118.734 152ZM130.478 150.878C130.501 150.878 130.524 150.901 130.546 150.946C130.58 150.991 130.586 151.025 130.563 151.048C130.144 151.456 129.719 151.751 129.288 151.932C128.858 152.113 128.387 152.204 127.877 152.204C127.163 152.204 126.546 152.057 126.024 151.762C125.503 151.456 125.106 151.054 124.834 150.555C124.562 150.045 124.426 149.501 124.426 148.923C124.426 148.266 124.596 147.659 124.936 147.104C125.276 146.537 125.741 146.095 126.33 145.778C126.92 145.449 127.577 145.285 128.302 145.285C129.005 145.285 129.543 145.438 129.917 145.744C130.291 146.039 130.478 146.447 130.478 146.968C130.478 147.297 130.416 147.461 130.291 147.461H129.254L126.194 147.495C126.16 147.71 126.143 147.948 126.143 148.209C126.143 149.184 126.37 149.954 126.823 150.521C127.288 151.088 127.923 151.371 128.727 151.371C129.011 151.371 129.305 151.331 129.611 151.252C129.917 151.173 130.195 151.054 130.444 150.895L130.478 150.878ZM127.673 145.625C127.333 145.625 127.039 145.761 126.789 146.033C126.54 146.305 126.359 146.679 126.245 147.155L128.659 147.104C128.625 146.118 128.297 145.625 127.673 145.625ZM135.136 152.221C134.581 152.221 134.093 152.159 133.674 152.034V155.298C133.674 155.638 133.708 155.887 133.776 156.046C133.855 156.205 133.997 156.312 134.201 156.369C134.416 156.437 134.745 156.471 135.187 156.471C135.221 156.471 135.238 156.505 135.238 156.573C135.238 156.641 135.221 156.675 135.187 156.675C134.768 156.675 134.439 156.669 134.201 156.658L132.858 156.641L131.855 156.658C131.685 156.669 131.447 156.675 131.141 156.675C131.107 156.675 131.09 156.641 131.09 156.573C131.09 156.505 131.107 156.471 131.141 156.471C131.413 156.471 131.611 156.437 131.736 156.369C131.872 156.312 131.963 156.199 132.008 156.029C132.065 155.87 132.093 155.627 132.093 155.298V146.815C132.093 146.339 132.008 146.027 131.838 145.88C131.679 145.721 131.39 145.642 130.971 145.642C130.948 145.642 130.937 145.608 130.937 145.54C130.937 145.472 130.948 145.438 130.971 145.438H133.3C133.459 145.438 133.561 145.466 133.606 145.523C133.651 145.58 133.674 145.682 133.674 145.829V146.322C134.49 145.585 135.329 145.217 136.19 145.217C136.666 145.217 137.108 145.342 137.516 145.591C137.935 145.84 138.27 146.203 138.519 146.679C138.768 147.155 138.893 147.71 138.893 148.345C138.893 149.252 138.706 150 138.332 150.589C137.958 151.167 137.482 151.586 136.904 151.847C136.337 152.096 135.748 152.221 135.136 152.221ZM135.068 146.169C134.558 146.169 134.093 146.35 133.674 146.713V150.946C133.923 151.229 134.184 151.445 134.456 151.592C134.728 151.728 135.062 151.796 135.459 151.796C136.604 151.796 137.176 150.821 137.176 148.872C137.176 148.011 136.972 147.348 136.564 146.883C136.167 146.407 135.669 146.169 135.068 146.169ZM147.798 151.796C147.821 151.796 147.832 151.83 147.832 151.898C147.832 151.966 147.821 152 147.798 152C147.481 152 147.237 151.994 147.067 151.983L146.115 151.966L145.112 151.983C144.931 151.994 144.682 152 144.364 152C144.33 152 144.313 151.966 144.313 151.898C144.313 151.83 144.33 151.796 144.364 151.796C144.636 151.796 144.835 151.768 144.959 151.711C145.095 151.654 145.186 151.547 145.231 151.388C145.277 151.218 145.299 150.963 145.299 150.623V147.512L142.307 150.521V150.623C142.307 150.963 142.33 151.218 142.375 151.388C142.421 151.547 142.506 151.654 142.63 151.711C142.755 151.768 142.953 151.796 143.225 151.796C143.248 151.796 143.259 151.83 143.259 151.898C143.259 151.966 143.248 152 143.225 152C142.908 152 142.664 151.994 142.494 151.983L141.542 151.966L140.556 151.983C140.375 151.994 140.12 152 139.791 152C139.757 152 139.74 151.966 139.74 151.898C139.74 151.83 139.757 151.796 139.791 151.796C140.063 151.796 140.262 151.768 140.386 151.711C140.522 151.654 140.613 151.547 140.658 151.388C140.704 151.218 140.726 150.963 140.726 150.623V146.815C140.726 146.475 140.704 146.226 140.658 146.067C140.613 145.897 140.522 145.784 140.386 145.727C140.262 145.67 140.069 145.642 139.808 145.642C139.774 145.642 139.757 145.608 139.757 145.54C139.757 145.472 139.774 145.438 139.808 145.438C140.126 145.438 140.369 145.444 140.539 145.455L141.542 145.472L142.494 145.455C142.676 145.444 142.919 145.438 143.225 145.438C143.248 145.438 143.259 145.472 143.259 145.54C143.259 145.608 143.248 145.642 143.225 145.642C142.965 145.642 142.766 145.676 142.63 145.744C142.506 145.812 142.421 145.931 142.375 146.101C142.33 146.26 142.307 146.509 142.307 146.849V149.909L145.299 146.917V146.815C145.299 146.475 145.277 146.226 145.231 146.067C145.186 145.897 145.095 145.784 144.959 145.727C144.835 145.67 144.642 145.642 144.381 145.642C144.347 145.642 144.33 145.608 144.33 145.54C144.33 145.472 144.347 145.438 144.381 145.438C144.699 145.438 144.942 145.444 145.112 145.455L146.115 145.472L147.067 145.455C147.249 145.444 147.492 145.438 147.798 145.438C147.821 145.438 147.832 145.472 147.832 145.54C147.832 145.608 147.821 145.642 147.798 145.642C147.538 145.642 147.339 145.676 147.203 145.744C147.079 145.812 146.994 145.931 146.948 146.101C146.903 146.26 146.88 146.509 146.88 146.849V150.623C146.88 150.963 146.903 151.218 146.948 151.388C146.994 151.547 147.079 151.654 147.203 151.711C147.328 151.768 147.526 151.796 147.798 151.796ZM155.298 151.082C155.343 151.082 155.372 151.11 155.383 151.167C155.406 151.212 155.394 151.246 155.349 151.269L153.598 152.102C153.553 152.125 153.496 152.136 153.428 152.136C153.258 152.136 153.088 152.051 152.918 151.881C152.759 151.711 152.646 151.479 152.578 151.184L151.796 151.609C151.501 151.756 151.195 151.881 150.878 151.983C150.561 152.074 150.277 152.119 150.028 152.119C149.665 152.119 149.376 152.028 149.161 151.847C148.957 151.654 148.855 151.382 148.855 151.031C148.855 150.77 148.917 150.561 149.042 150.402C149.178 150.243 149.365 150.113 149.603 150.011C149.852 149.898 150.243 149.75 150.776 149.569L152.51 149.008V147.665C152.51 146.985 152.442 146.486 152.306 146.169C152.17 145.84 151.949 145.676 151.643 145.676C151.371 145.676 151.156 145.778 150.997 145.982C150.838 146.186 150.742 146.52 150.708 146.985C150.64 147.62 150.306 147.937 149.705 147.937C149.172 147.937 148.906 147.705 148.906 147.24C148.906 146.934 149.099 146.628 149.484 146.322C149.869 146.016 150.334 145.767 150.878 145.574C151.422 145.381 151.898 145.285 152.306 145.285C152.839 145.285 153.269 145.444 153.598 145.761C153.938 146.078 154.108 146.543 154.108 147.155V150.164C154.108 150.493 154.165 150.748 154.278 150.929C154.403 151.11 154.573 151.201 154.788 151.201C154.947 151.201 155.111 151.161 155.281 151.082H155.298ZM152.527 150.912C152.516 150.833 152.51 150.714 152.51 150.555V149.297L151.575 149.637C151.269 149.75 151.048 149.875 150.912 150.011C150.787 150.147 150.725 150.311 150.725 150.504C150.725 150.742 150.793 150.929 150.929 151.065C151.065 151.201 151.235 151.269 151.439 151.269C151.688 151.269 151.977 151.19 152.306 151.031L152.527 150.912ZM156.095 152.153C155.801 152.153 155.574 152.085 155.415 151.949C155.268 151.813 155.194 151.62 155.194 151.371C155.194 151.11 155.268 150.923 155.415 150.81C155.563 150.697 155.744 150.64 155.959 150.64C156.05 150.64 156.152 150.657 156.265 150.691C156.379 150.714 156.464 150.725 156.52 150.725C156.838 150.725 157.11 150.504 157.336 150.062C157.563 149.62 157.739 149.082 157.863 148.447C157.988 147.812 158.05 147.223 158.05 146.679C158.05 146.26 157.965 145.976 157.795 145.829C157.625 145.67 157.331 145.591 156.911 145.591C156.877 145.591 156.86 145.563 156.86 145.506C156.86 145.438 156.877 145.404 156.911 145.404L159.648 145.438H162.674C162.708 145.438 162.725 145.472 162.725 145.54C162.725 145.608 162.708 145.642 162.674 145.642C162.414 145.642 162.215 145.676 162.079 145.744C161.955 145.812 161.87 145.931 161.824 146.101C161.779 146.26 161.756 146.509 161.756 146.849V150.623C161.756 150.963 161.779 151.218 161.824 151.388C161.87 151.547 161.955 151.654 162.079 151.711C162.204 151.768 162.402 151.796 162.674 151.796C162.708 151.796 162.725 151.83 162.725 151.898C162.725 151.966 162.708 152 162.674 152C162.357 152 162.113 151.994 161.943 151.983L160.991 151.966L159.988 151.983C159.807 151.994 159.558 152 159.24 152C159.206 152 159.189 151.966 159.189 151.898C159.189 151.83 159.206 151.796 159.24 151.796C159.512 151.796 159.711 151.768 159.835 151.711C159.971 151.654 160.062 151.547 160.107 151.388C160.153 151.218 160.175 150.963 160.175 150.623V146.815C160.175 146.43 160.164 146.175 160.141 146.05C160.13 145.925 160.09 145.846 160.022 145.812C159.966 145.778 159.847 145.761 159.665 145.761H159.461C159.144 145.761 158.923 145.784 158.798 145.829C158.685 145.874 158.611 145.954 158.577 146.067C158.543 146.18 158.509 146.413 158.475 146.764L158.424 147.308C158.356 148.169 158.26 148.934 158.135 149.603C158.022 150.26 157.801 150.85 157.472 151.371C157.144 151.892 156.685 152.153 156.095 152.153ZM167.479 148.107C169.225 148.107 170.097 148.696 170.097 149.875C170.097 150.521 169.848 151.042 169.349 151.439C168.862 151.836 168.222 152.034 167.428 152.034L166.51 152C165.966 151.977 165.575 151.966 165.337 151.966L164.351 151.983C164.17 151.994 163.915 152 163.586 152C163.552 152 163.535 151.966 163.535 151.898C163.535 151.83 163.552 151.796 163.586 151.796C163.858 151.796 164.057 151.768 164.181 151.711C164.317 151.654 164.408 151.547 164.453 151.388C164.499 151.218 164.521 150.963 164.521 150.623V146.815C164.521 146.475 164.499 146.226 164.453 146.067C164.408 145.897 164.317 145.784 164.181 145.727C164.057 145.67 163.864 145.642 163.603 145.642C163.569 145.642 163.552 145.608 163.552 145.54C163.552 145.472 163.569 145.438 163.603 145.438C163.921 145.438 164.164 145.444 164.334 145.455L165.337 145.472L166.391 145.455C166.595 145.444 166.873 145.438 167.224 145.438C167.247 145.438 167.258 145.472 167.258 145.54C167.258 145.608 167.247 145.642 167.224 145.642C166.896 145.642 166.652 145.676 166.493 145.744C166.346 145.812 166.244 145.931 166.187 146.101C166.131 146.26 166.102 146.509 166.102 146.849V148.26C166.522 148.158 166.981 148.107 167.479 148.107ZM174.177 151.796C174.2 151.796 174.211 151.83 174.211 151.898C174.211 151.966 174.2 152 174.177 152C173.86 152 173.616 151.994 173.446 151.983L172.494 151.966L171.508 151.983C171.327 151.994 171.072 152 170.743 152C170.709 152 170.692 151.966 170.692 151.898C170.692 151.83 170.709 151.796 170.743 151.796C171.015 151.796 171.214 151.768 171.338 151.711C171.474 151.654 171.565 151.547 171.61 151.388C171.656 151.218 171.678 150.963 171.678 150.623V146.815C171.678 146.475 171.656 146.226 171.61 146.067C171.565 145.897 171.474 145.784 171.338 145.727C171.214 145.67 171.021 145.642 170.76 145.642C170.726 145.642 170.709 145.608 170.709 145.54C170.709 145.472 170.726 145.438 170.76 145.438C171.078 145.438 171.321 145.444 171.491 145.455L172.494 145.472L173.446 145.455C173.628 145.444 173.871 145.438 174.177 145.438C174.2 145.438 174.211 145.472 174.211 145.54C174.211 145.608 174.2 145.642 174.177 145.642C173.917 145.642 173.718 145.676 173.582 145.744C173.458 145.812 173.373 145.931 173.327 146.101C173.282 146.26 173.259 146.509 173.259 146.849V150.623C173.259 150.963 173.282 151.218 173.327 151.388C173.373 151.547 173.458 151.654 173.582 151.711C173.707 151.768 173.905 151.796 174.177 151.796ZM167.071 151.779C167.525 151.779 167.859 151.66 168.074 151.422C168.29 151.173 168.397 150.782 168.397 150.249C168.397 149.07 167.887 148.481 166.867 148.481C166.629 148.481 166.374 148.515 166.102 148.583V150.623C166.102 151.031 166.17 151.326 166.306 151.507C166.442 151.688 166.697 151.779 167.071 151.779Z" fill="#F07B95"></path> <path d="M96.6447 89.412C97.0339 88.7695 97.9661 88.7695 98.3553 89.412L100.42 92.8212C100.56 93.0511 100.786 93.2153 101.047 93.2767L104.928 94.1872C105.659 94.3588 105.947 95.2454 105.456 95.8141L102.852 98.8317C102.677 99.0352 102.59 99.3008 102.613 99.5686L102.946 103.541C103.009 104.289 102.255 104.837 101.562 104.546L97.8874 103.002C97.6396 102.898 97.3604 102.898 97.1126 103.002L93.438 104.546C92.7454 104.837 91.9912 104.289 92.054 103.541L92.3872 99.5686C92.4096 99.3008 92.3233 99.0352 92.1477 98.8317L89.5435 95.8141C89.0527 95.2454 89.3408 94.3588 90.0722 94.1872L93.9527 93.2767C94.2144 93.2153 94.4403 93.0511 94.5795 92.8212L96.6447 89.412Z" fill="#EE5476"></path> <path d="M116.645 89.412C117.034 88.7695 117.966 88.7695 118.355 89.412L120.42 92.8212C120.56 93.0511 120.786 93.2153 121.047 93.2767L124.928 94.1872C125.659 94.3588 125.947 95.2454 125.456 95.8141L122.852 98.8317C122.677 99.0352 122.59 99.3008 122.613 99.5686L122.946 103.541C123.009 104.289 122.255 104.837 121.562 104.546L117.887 103.002C117.64 102.898 117.36 102.898 117.113 103.002L113.438 104.546C112.745 104.837 111.991 104.289 112.054 103.541L112.387 99.5686C112.41 99.3008 112.323 99.0352 112.148 98.8317L109.544 95.8141C109.053 95.2454 109.341 94.3588 110.072 94.1872L113.953 93.2767C114.214 93.2153 114.44 93.0511 114.58 92.8212L116.645 89.412Z" fill="#EE5476"></path> <path d="M136.645 89.412C137.034 88.7695 137.966 88.7695 138.355 89.412L140.42 92.8212C140.56 93.0511 140.786 93.2153 141.047 93.2767L144.928 94.1872C145.659 94.3588 145.947 95.2454 145.456 95.8141L142.852 98.8317C142.677 99.0352 142.59 99.3008 142.613 99.5686L142.946 103.541C143.009 104.289 142.255 104.837 141.562 104.546L137.887 103.002C137.64 102.898 137.36 102.898 137.113 103.002L133.438 104.546C132.745 104.837 131.991 104.289 132.054 103.541L132.387 99.5686C132.41 99.3008 132.323 99.0352 132.148 98.8317L129.544 95.8141C129.053 95.2454 129.341 94.3588 130.072 94.1872L133.953 93.2767C134.214 93.2153 134.44 93.0511 134.58 92.8212L136.645 89.412Z" fill="#EE5476"></path> <path d="M156.645 89.412C157.034 88.7695 157.966 88.7695 158.355 89.412L160.42 92.8212C160.56 93.0511 160.786 93.2153 161.047 93.2767L164.928 94.1872C165.659 94.3588 165.947 95.2454 165.456 95.8141L162.852 98.8317C162.677 99.0352 162.59 99.3008 162.613 99.5686L162.946 103.541C163.009 104.289 162.255 104.837 161.562 104.546L157.887 103.002C157.64 102.898 157.36 102.898 157.113 103.002L153.438 104.546C152.745 104.837 151.991 104.289 152.054 103.541L152.387 99.5686C152.41 99.3008 152.323 99.0352 152.148 98.8317L149.544 95.8141C149.053 95.2454 149.341 94.3588 150.072 94.1872L153.953 93.2767C154.214 93.2153 154.44 93.0511 154.58 92.8212L156.645 89.412Z" fill="#EE5476"></path> <path d="M176.645 89.412C177.034 88.7695 177.966 88.7695 178.355 89.412L180.42 92.8212C180.56 93.0511 180.786 93.2153 181.047 93.2767L184.928 94.1872C185.659 94.3588 185.947 95.2454 185.456 95.8141L182.852 98.8317C182.677 99.0352 182.59 99.3008 182.613 99.5686L182.946 103.541C183.009 104.289 182.255 104.837 181.562 104.546L177.887 103.002C177.64 102.898 177.36 102.898 177.113 103.002L173.438 104.546C172.745 104.837 171.991 104.289 172.054 103.541L172.387 99.5686C172.41 99.3008 172.323 99.0352 172.148 98.8317L169.544 95.8141C169.053 95.2454 169.341 94.3588 170.072 94.1872L173.953 93.2767C174.214 93.2153 174.44 93.0511 174.58 92.8212L176.645 89.412Z" fill="#EE5476"></path> <defs> <linearGradient id="paint0_linear_385_234" x1="110.615" y1="247.652" x2="69.3464" y2="340.473" gradientUnits="userSpaceOnUse"> <stop stop-color="#F088A1"></stop> <stop offset="1" stop-color="#FCE7F0"></stop> </linearGradient> <linearGradient id="paint1_linear_385_234" x1="160.644" y1="249.32" x2="220.395" y2="331.47" gradientUnits="userSpaceOnUse"> <stop stop-color="#F088A1"></stop> <stop offset="1" stop-color="#FCE7F0"></stop> </linearGradient> <linearGradient id="paint2_linear_385_234" x1="137.5" y1="0" x2="137.5" y2="275" gradientUnits="userSpaceOnUse"> <stop stop-color="#FCE7F0"></stop> <stop offset="1" stop-color="#FAA1B5"></stop> </linearGradient> </defs> </svg> 