<?xml version="1.0" encoding="UTF-8"?> <svg xmlns="http://www.w3.org/2000/svg" width="73" height="57" viewBox="0 0 73 57" fill="none"> <path d="M51.6104 5.81398C51.4858 5.74476 51.3543 5.67554 51.2297 5.60632C51.4719 4.80334 51.285 3.86884 50.399 3.25969C47.2079 1.07227 43.4353 0.310827 39.628 0.123928C36.5407 -0.0283601 31.3491 -0.672125 31.003 3.64041C30.6776 7.62761 35.1078 9.07435 38.2228 9.75273C42.4523 10.6734 46.7579 10.618 50.9735 9.65582C52.6972 9.24741 53.2371 6.73465 51.6104 5.81398Z" fill="#FFDEEF"></path> <path d="M21.4642 7.7725C21.4642 6.95568 21.0558 6.12501 20.0867 5.74428C15.4696 3.94451 10.5618 3.16922 5.61237 3.48072C3.97872 3.58455 2.50429 5.66814 3.99949 7.01798C8.43665 11.019 14.4451 12.6319 20.2667 11.1298C21.6165 10.7837 22.5372 8.8939 21.4642 7.7725Z" fill="#FFDEEF"></path> <path d="M33.0796 52.8847C33.0103 52.4002 32.8373 51.9849 32.5881 51.618C32.8857 50.6143 32.5327 49.4652 31.2106 49.1675C29.0785 48.6899 26.9119 48.323 24.7314 48.1223C22.807 47.9492 20.2873 47.5131 18.7783 49.0498C17.6084 50.2405 17.5392 52.1441 18.3837 53.5354C19.422 55.2452 21.3741 55.7575 23.2223 56.0205C25.6866 56.3666 33.7026 57.2181 33.0796 52.8847Z" fill="#FFDEEF"></path> <path d="M45.3872 30.6929C47.3531 30.6722 48.066 27.3979 45.8371 26.5327C42.5075 25.2382 28.6492 21.5694 30.006 29.1077C31.1343 35.3654 40.3409 35.67 44.8749 33.9394C46.2801 33.4133 46.1763 31.6759 45.3872 30.6929ZM34.3601 28.6716C34.4016 28.5886 34.6646 28.5609 35.0454 28.5678C34.8931 28.727 34.7616 28.9139 34.6646 29.1077C34.6231 29.0662 34.5677 29.0316 34.5262 28.9831C34.1524 28.6024 34.097 28.4917 34.3601 28.6716Z" fill="#FFDEEF"></path> <path d="M72.4189 24.4207C70.9029 22.1987 68.6391 20.6135 66.1333 19.9905C65.9464 19.4644 65.5172 19.0352 64.7765 18.8691C62.6376 18.3845 59.6749 18.0384 57.7713 19.3813C55.9438 20.6689 56.2553 23.0086 57.7367 24.4553C60.997 27.6464 66.784 28.2071 71.0275 27.4526C72.2597 27.2311 73.1803 25.5352 72.4189 24.4207Z" fill="#FFDEEF"></path> <path d="M68.0368 48.9389C68.7913 46.6339 67.0815 44.9656 65.0256 44.3564C59.3632 42.6813 53.071 42.6467 47.2563 43.2558C44.5705 43.5327 45.5188 47.6237 48.17 47.3538C48.62 47.3053 49.0699 47.2707 49.5268 47.2361C49.9629 51.5417 59.2871 51.874 62.319 51.8463C64.5757 51.8186 67.2269 51.4102 68.0368 48.9389Z" fill="#FFDEEF"></path> <path d="M16.2379 29.0237C14.6458 27.8331 12.8045 27.0924 10.887 26.8156C10.7486 26.1787 10.3263 25.5972 9.53719 25.3204C6.6991 24.3097 3.82639 24.5243 1.09904 25.7495C-0.14004 26.3033 -0.347706 28.1239 0.559104 29.0445C4.44246 32.9902 10.2848 34.5615 15.5872 32.8586C17.3939 32.2772 17.7539 30.1521 16.2379 29.0237Z" fill="#FFDEEF"></path> </svg> 