<?xml version="1.0" encoding="UTF-8"?> <svg xmlns="http://www.w3.org/2000/svg" width="44" height="47" viewBox="0 0 44 47" fill="none"> <path d="M1.69663 26.8836C3.38046 36.1834 10.3866 41.0683 12.1312 42.2674C14.137 43.6757 18.0924 46.3155 23.6111 46.5119C25.1959 46.5933 29.4839 46.596 33.4006 43.8929C35.6268 42.3103 36.7387 40.5944 38.5439 37.6849C40.6513 34.1927 44.1125 28.5183 43.9918 20.7673C43.9746 17.9491 43.9725 16.0998 43.0053 13.9726C40.2246 7.35758 32.8858 5.10969 24.9036 2.67647C20.8985 1.41563 19.1367 1.3904 17.608 1.48593C12.696 1.9733 9.45073 4.95023 8.25883 6.1073C2.89977 11.0206 0.224353 19.1719 1.69663 26.8836Z" fill="#FFD1EA"></path> <mask id="mask0_546_1950" style="mask-type:alpha" maskUnits="userSpaceOnUse" x="1" y="1" width="43" height="46"> <path d="M1.69663 26.8836C3.38046 36.1834 10.3866 41.0683 12.1312 42.2674C14.137 43.6757 18.0924 46.3155 23.6111 46.5119C25.1959 46.5933 29.4839 46.596 33.4006 43.8929C35.6268 42.3103 36.7387 40.5944 38.5439 37.6849C40.6513 34.1927 44.1125 28.5183 43.9918 20.7673C43.9746 17.9491 43.9725 16.0998 43.0053 13.9726C40.2246 7.35758 32.8858 5.10969 24.9036 2.67647C20.8985 1.41563 19.1367 1.3904 17.608 1.48593C12.696 1.9733 9.45073 4.95023 8.25883 6.1073C2.89977 11.0206 0.224353 19.1719 1.69663 26.8836Z" fill="#FFD1EA"></path> </mask> <g mask="url(#mask0_546_1950)"> <path d="M28.3052 75.0798C28.3358 75.6922 28.2179 76.3522 28.2179 76.3522C28.1104 76.8241 28.0003 77.0666 27.9711 77.1219C27.8105 77.4265 27.6167 77.6261 27.48 77.7849C26.9915 78.3088 26.4658 78.5678 26.2176 78.6698C26.118 78.7242 25.7197 78.9427 25.0783 78.9847C24.113 79.0374 23.3469 78.9808 22.764 78.9122C22.209 78.8579 21.893 78.82 20.6992 78.6683C19.4776 78.5026 19.3368 78.5012 18.9717 78.4556C16.0227 78.0777 10.759 77.2579 7.8565 77.0262C3.22499 76.6516 -0.426164 77.3029 -1.9941 77.5928C-4.95398 78.1396 -12.5057 79.6138 -19.1551 85.8496C-26.3047 92.4977 -28.1257 100.613 -28.6637 104.149C-30.1216 113.925 -26.6802 123.298 -24.1705 123.47C-23.0243 123.545 -20.0082 121.85 -19.8861 121.719C-19.7428 121.582 -19.7072 121.547 -19.6141 121.472C-19.578 121.437 -19.5356 121.424 -19.5 121.389L-19.4788 121.383C-15.9371 122.449 -10.9285 123.718 -4.82415 124.386C0.457662 124.97 7.4461 125.772 16.1809 123.9C20.2519 123.023 28.084 121.253 36.328 115.549C41.1204 112.23 45.3579 109.226 48.17 103.424C51.802 95.9322 51.4358 86.9663 47.9844 80.3621C46.4833 77.4729 44.815 75.6045 43.0073 73.6654C38.2617 68.509 35.3007 68.0195 27.7999 62.6539C23.8065 59.7947 19.7718 56.8792 15.6663 52.119C12.3046 48.2296 9.38394 44.8455 8.19806 39.4128C7.85376 37.8853 6.08537 28.9952 10.839 24.7439C10.9466 24.6406 11.0607 24.5583 11.1112 24.4962C11.289 24.3936 11.5148 24.3681 11.7458 24.4331C12.9077 24.7791 14.8013 25.1465 17.089 24.7665C18.8893 24.4719 20.2608 23.7832 21.129 23.2773C21.5232 22.8986 21.9772 22.3397 22.378 21.6132C24.2824 18.0353 22.8402 12.3842 19.1734 9.74399C14.5134 6.40467 7.79279 8.95179 4.60162 12.085C1.83393 14.7842 0.728988 18.8921 0.304557 20.5021C-0.164996 22.2647 -0.388911 24.0646 -0.461803 24.5718C-0.461803 24.5718 -0.800984 27.2612 -0.692653 30.1083C-0.306287 39.8749 4.0682 47.5463 4.0682 47.5463C9.98237 57.9336 24.3852 69.0621 26.9128 72.0175C28.0352 73.3443 28.2826 74.7874 28.3052 75.0798ZM-21.1857 122.708C-21.1645 122.701 -21.1645 122.701 -21.1645 122.701C-21.1579 122.722 -21.1857 122.708 -21.1857 122.708Z" fill="#FEACBB"></path> <path d="M27.8007 74.9632C27.8288 75.7151 27.7495 76.5703 27.2663 77.1847C26.7831 77.7987 26.0132 78.3198 25.2218 78.4787C23.6113 78.7822 21.719 78.3449 20.1111 78.1408C16.7756 77.7236 13.456 77.2093 10.1204 76.7921C6.35607 76.3499 2.62638 76.3113 -1.12975 76.927C-3.73495 77.3385 -6.30151 77.9452 -8.77459 78.8452C-16.5789 81.7359 -22.9584 87.4943 -26.4431 95.0083C-29.173 100.923 -30.0502 107.517 -29.0936 113.922C-28.8315 115.706 -28.4075 117.485 -27.7991 119.182C-27.3643 120.404 -26.817 121.613 -26.0201 122.651C-25.5047 123.318 -24.7781 123.986 -23.8766 123.954C-23.2288 123.933 -22.5901 123.661 -21.9872 123.424C-21.3486 123.152 -20.7233 122.838 -20.1046 122.503C-19.7276 122.292 -19.4701 122.072 -19.1277 121.825C-19.2405 121.838 -19.3535 121.85 -19.4876 121.87C-14.3154 123.433 -9.0477 124.412 -3.66736 125.011C1.29849 125.556 6.26336 125.802 11.2503 125.234C15.9056 124.725 20.6002 123.605 25.0226 121.994C30.5363 119.991 35.5267 117.002 40.1889 113.494C42.281 111.908 44.2775 110.168 45.8996 108.133C47.6225 105.972 48.9576 103.474 49.8371 100.867C51.5433 95.8535 51.7104 90.337 50.3494 85.2365C49.645 82.6477 48.5647 80.201 47.0651 77.9799C45.6478 75.8709 43.9105 73.9323 42.079 72.139C38.9552 69.0732 35.1147 67.0644 31.464 64.6957C26.784 61.6625 22.1451 58.3161 18.2431 54.3447C16.1711 52.2358 14.1801 49.9399 12.4441 47.5631C10.708 45.1863 9.38479 42.5633 8.72811 39.6827C8.07801 36.8231 7.84083 33.7172 8.36719 30.8071C8.72782 28.8485 9.48148 26.9497 10.8885 25.489C11.0319 25.3513 11.219 25.1306 11.3969 25.0281C11.6744 24.8708 11.8975 24.9845 12.1777 25.057C12.7102 25.1877 13.2572 25.2907 13.8123 25.3452C15.1959 25.5055 16.598 25.4295 17.9549 25.1374C18.6758 24.9778 19.3702 24.7344 20.0301 24.4559C20.5266 24.2523 21.1294 24.015 21.5302 23.6572C22.417 22.9149 23.0168 21.7103 23.3472 20.6143C24.0011 18.4013 23.6805 15.9904 22.7983 13.8729C21.9028 11.7136 20.3129 9.79752 18.2001 8.73897C16.248 7.74469 13.9708 7.56814 11.8172 7.92867C9.68484 8.28246 7.59914 9.15165 5.83747 10.3791C3.8767 11.7157 2.44853 13.552 1.43067 15.6499C-0.297147 19.1948 -1.02635 23.1605 -1.19789 27.0415C-1.45394 32.7934 -0.266665 38.5254 1.84998 43.8704C3.08696 46.9587 4.7249 49.6894 6.75845 52.3406C9.80156 56.3314 13.3517 59.9306 16.996 63.3845C19.8037 66.0439 22.7482 68.5446 25.5345 71.2103C26.5997 72.2096 27.6675 73.4379 27.8007 74.9632C27.8474 75.4788 28.8539 75.8509 28.8166 75.2174C28.6261 72.9956 27.0018 71.4134 25.4665 69.964C23.6124 68.2471 21.7225 66.5645 19.8539 64.8755C14.9411 60.3714 10.0749 55.6454 6.25731 50.1714C3.30314 45.9451 1.50264 41.0069 0.506726 35.9518C-0.700579 29.7882 -0.481983 23.0339 1.97947 17.1585C2.64955 15.5859 3.50159 14.0708 4.68695 12.7957C5.62808 11.7825 6.791 10.9525 8.01372 10.311C10.5733 8.9457 13.72 8.1779 16.5909 8.97289C19.7698 9.85456 21.8552 12.7429 22.508 15.8322C22.8244 17.3454 22.8222 18.9597 22.3021 20.4156C22.0196 21.2199 21.5763 21.9599 21.0081 22.6012C20.4692 23.1871 19.5478 23.5255 18.811 23.7823C17.004 24.4247 15.0296 24.6132 13.1282 24.2944C12.4829 24.1764 11.6874 23.8064 11.0368 23.9667C10.4566 24.1277 9.92968 24.825 9.57662 25.2598C7.89089 27.316 7.26226 30.0512 7.12222 32.6313C7.02053 34.669 7.20697 36.7306 7.58463 38.7316C8.19361 41.9039 9.54608 44.8404 11.411 47.4759C12.5149 49.039 13.7474 50.4921 15.0012 51.9384C16.3375 53.4971 17.752 55.0076 19.2739 56.4148C21.9302 58.8915 24.8533 61.0303 27.8122 63.1342C30.5838 65.0903 33.4934 66.818 36.366 68.65C38.7936 70.1849 40.9556 71.9883 42.8935 74.1168C45.3971 76.8494 47.5384 79.7663 48.7887 83.2651C49.9646 86.6032 50.4185 90.1708 50.183 93.7031C49.9239 97.3816 48.9117 101.045 47.1121 104.29C45.3272 107.507 42.7373 110.104 39.8234 112.342C36.6454 114.78 33.288 117.021 29.7141 118.8C26.581 120.347 23.3203 121.566 19.9321 122.457C16.8544 123.295 13.7168 123.944 10.5715 124.274C7.04481 124.655 3.46258 124.639 -0.0585618 124.373C-3.58024 124.107 -7.099 123.702 -10.5711 123.075C-12.3812 122.75 -14.1896 122.356 -15.9756 121.885C-16.7392 121.689 -17.4812 121.487 -18.2237 121.284C-18.7909 121.118 -19.5358 120.687 -20.0295 121.12C-20.7877 121.752 -21.7739 122.18 -22.682 122.56C-23.1363 122.751 -23.7467 123.036 -24.2527 122.99C-24.4426 122.981 -24.651 122.839 -24.8794 122.635C-25.6062 121.967 -26.0591 120.981 -26.4574 120.093C-27.0649 118.695 -27.4807 117.237 -27.7905 115.744C-29.031 109.845 -28.5903 103.642 -26.5061 97.9788C-23.9905 91.0951 -19.0593 85.2662 -12.566 81.7078C-7.6236 79.0101 -1.83192 77.5876 3.78824 77.3949C7.41576 77.2584 11.0236 77.7967 14.5968 78.2995C17.3135 78.6822 20.0369 79.0861 22.7696 79.3717C24.2236 79.5329 25.7281 79.6321 27.017 78.8309C28.3486 78.0167 28.8661 76.7 28.8166 75.2174C28.7979 74.7162 27.7634 74.3297 27.8007 74.9632Z" fill="#FF95AB"></path> <path d="M13.465 15.4045C13.4901 15.189 13.6055 14.6684 14.0436 14.2067C14.2015 14.0413 14.6754 13.5452 15.4004 13.5457C16.1957 13.547 16.6779 14.1085 16.7536 14.1998C17.2968 14.8803 17.1271 15.6718 17.1112 15.7691C17.0447 15.5596 16.8507 15.0218 16.2876 14.6473C16.1416 14.5553 15.8215 14.3572 15.3993 14.3529C15.0687 14.3425 14.827 14.4652 14.5071 14.6359C14.2363 14.814 13.8659 15.0468 13.465 15.4045Z" fill="#333333"></path> <path d="M18.9061 17.9635C18.4467 18.0631 18.1215 18.5121 18.2398 18.9586C18.2797 19.0843 18.2983 19.2167 18.3382 19.3424C18.5549 20.1726 18.81 20.8294 18.9521 21.13C19.445 22.2415 20.7521 24.2241 22.8967 25.0882C23.246 25.2309 23.226 25.1681 25.3945 25.8863C26.3599 26.2024 26.8286 26.3533 27.0451 26.446C28.7833 27.2085 30.0105 28.2022 30.7728 28.8363C32.0411 29.8862 33.4915 31.3624 33.9471 31.8402C35.0308 32.9717 35.857 33.9544 36.886 33.8814C37.5977 33.8401 38.049 33.4203 38.049 33.4203C38.4287 33.0693 38.5348 32.6668 38.5653 32.5419C38.6409 32.2643 38.6023 32.0691 38.5624 31.5746C38.5144 31.1288 38.4944 30.6972 38.4465 30.2513C38.2003 28.3701 38.2575 28.6977 38.1644 28.0357C37.9649 26.6698 37.8585 25.9659 37.6817 25.2613C37.4318 24.3263 37.2749 23.6846 36.7967 22.9142C36.3398 22.1371 35.8005 21.6167 35.3649 21.2016C35.2334 21.082 34.7566 20.6108 34.0209 20.0605C34.0209 20.0605 32.896 19.2418 31.6331 18.6512C30.8377 18.2812 27.4674 17.0915 22.1378 17.5375C21.292 17.5984 20.2059 17.7125 18.9061 17.9635Z" fill="white" stroke="#EDCCCA" stroke-width="2" stroke-miterlimit="10"></path> <path d="M18.5643 18.58C19.903 19.6306 21.3651 20.4807 22.9241 21.0464C24.4963 21.6541 26.099 21.768 27.8304 21.772C28.7028 21.7948 29.6575 21.9299 30.4663 22.3419C31.2963 22.747 31.9816 23.3595 32.5169 24.0887C33.5808 25.5261 34.0274 27.2286 34.2496 28.887C33.7168 27.2811 33.0564 25.7156 32.0098 24.4801C31.4718 23.89 30.8556 23.3479 30.1292 23.0482C29.4174 22.7207 28.6313 22.6013 27.8081 22.5859C26.9782 22.5495 26.0913 22.5543 25.2069 22.4199C24.3438 22.2788 23.4833 21.9985 22.6945 21.6494C21.0466 20.9506 19.6733 19.8648 18.5643 18.58Z" fill="#EDCCCA"></path> <path d="M29.4215 28.3213C29.6712 28.5188 30.0001 28.8111 30.3812 29.1282C30.6654 29.3607 30.944 29.5665 31.3039 29.8903C31.7329 30.2844 32.39 30.9163 33.2122 31.7389C33.4193 31.9498 33.6824 32.2282 34.0556 32.5939C34.891 33.4584 35.097 33.6869 35.2988 33.8073C35.7441 34.1286 36.1738 34.2925 36.7222 34.3259C37.5308 34.3691 38.1552 33.9183 38.3557 33.7395C38.5349 33.5674 38.8331 33.3317 38.9538 32.9015C38.9764 32.8252 39.0082 32.7334 39.0307 32.6571C39.1023 32.2195 39.0938 31.9422 39.0392 31.4754C38.9594 30.8553 39.0005 30.9629 38.9327 30.4543C38.8914 30.0294 38.875 29.7827 38.8138 29.295C38.7766 29.0302 38.7522 28.89 38.7482 28.7299C38.7428 28.6394 38.7305 28.509 38.7039 28.4252C38.5309 27.1431 38.4133 26.5825 38.3827 26.3386C38.2697 25.6138 38.1213 24.2254 37.3574 22.9233C37.0373 22.3564 36.6238 21.8627 36.3688 21.5748C35.6874 20.7537 35.0526 20.2198 34.5387 19.8527C33.6849 19.9622 32.3691 20.3093 31.967 21.1054C31.4548 22.1439 32.6315 23.1998 32.5191 24.6877C32.4596 25.6056 31.8058 26.9194 29.4215 28.3213Z" fill="#333333"></path> <path d="M24.4008 11.4064C23.7343 11.2952 23.0692 11.852 22.59 12.2576C22.0749 12.6976 21.5944 13.1728 21.2387 13.7467C21.1445 13.8919 21.1219 13.9682 21.1684 14.1148C21.215 14.2614 21.2548 14.387 21.3226 14.5269C21.4435 14.8344 21.5856 15.135 21.749 15.429C21.9257 15.7648 22.1449 16.0872 22.3574 16.3885C22.6045 16.7251 22.8861 17.0968 23.2699 17.2747C23.7373 17.4952 24.2764 17.2782 24.6414 16.9549C25.5136 16.2401 25.6101 14.8495 25.5448 13.8328C25.5181 13.3803 25.4277 12.9479 25.316 12.5223C25.1831 12.1034 24.9679 11.5724 24.5124 11.4633C24.2535 11.3841 23.9614 11.5689 23.7543 11.7268C23.676 11.7747 23.3096 12.1676 23.5619 12.2258C24.0731 12.3633 24.2499 13.068 24.347 13.5213C24.4826 14.1698 24.512 14.852 24.4219 15.5261C24.3663 15.8665 24.3106 16.2069 24.1566 16.5324C24.1421 16.56 24.0983 16.6431 24.0983 16.6431C24.0836 16.6708 24.0691 16.6985 24.0545 16.7261C24.0836 16.6708 24.0757 16.7194 24.0545 16.7261C24.0903 16.6917 24.1261 16.6573 24.1686 16.6438C24.2257 16.6027 24.3598 16.5831 24.4169 16.542C24.4527 16.5076 24.4793 16.5913 24.4169 16.542C24.389 16.5278 24.3957 16.5487 24.3678 16.5345C23.8632 16.418 23.4952 15.774 23.2348 15.3956C22.8244 14.7651 22.471 14.0934 22.2451 13.3813C22.2225 13.4576 22.2066 13.5549 22.1841 13.6312C22.4017 13.2855 22.6539 12.975 22.9686 12.7138C23.1478 12.5417 23.3336 12.3905 23.5261 12.2603C23.5261 12.2603 23.5619 12.2258 23.6044 12.2124C23.4916 12.2251 23.6602 12.2408 23.6602 12.2408C23.9337 12.2923 24.2762 12.0453 24.4488 11.8523C24.543 11.7071 24.6744 11.458 24.4008 11.4064Z" fill="#333333"></path> <path d="M20.9485 14.5992C21.3375 14.4988 21.6787 14.3214 21.9933 14.0602C22.1366 13.9225 22.2534 13.7011 22.1724 13.5193C22.0913 13.3376 21.8603 13.2726 21.6837 13.3056C21.288 13.385 20.8924 13.4644 20.5034 13.5648C20.4396 13.585 20.3905 13.5775 20.3268 13.5977C20.1927 13.6173 20.0719 13.6786 19.9577 13.761C19.8648 13.8366 19.7573 13.9398 19.7267 14.0647C19.7042 14.141 19.6883 14.2383 19.687 14.3079C19.699 14.4193 19.8238 14.518 19.9287 14.5539C20.2434 14.6615 20.6165 14.6584 20.9485 14.5992C21.1038 14.5729 21.2671 14.4981 21.3892 14.3672C21.4755 14.2706 21.591 14.1187 21.6002 14.0005C21.6095 13.8824 21.5696 13.7567 21.4727 13.6722C21.3545 13.5944 21.2071 13.572 21.0796 13.6125C21.0159 13.6327 20.9455 13.632 20.8818 13.6522C20.931 13.6596 20.9734 13.6462 21.0226 13.6536C20.9097 13.6664 20.8114 13.6515 20.6919 13.6433C20.7411 13.6508 20.7902 13.6582 20.8181 13.6724C20.7411 13.6507 20.6707 13.65 20.6149 13.6216C20.4822 13.9403 20.3495 14.259 20.2168 14.5777C20.6125 14.4983 21.0081 14.4189 21.3972 14.3185C21.4609 14.2983 21.51 14.3057 21.5738 14.2855C21.4728 14.041 21.3652 13.7754 21.2642 13.5309C21.2283 13.5653 21.2071 13.572 21.1712 13.6064C21.2071 13.572 21.2642 13.5309 21.3 13.4965C21.2217 13.5443 21.1646 13.5855 21.0863 13.6334C21.1288 13.6199 21.1859 13.5788 21.2283 13.5653C21.15 13.6132 21.0863 13.6334 21.0013 13.6604C21.0438 13.6469 21.1075 13.6267 21.15 13.6132C21.1288 13.6199 21.1075 13.6267 21.0863 13.6334C20.931 13.6596 20.7676 13.7345 20.6455 13.8655C20.5592 13.962 20.4438 14.1139 20.4345 14.2321C20.4252 14.3503 20.4651 14.4759 20.5621 14.5604C20.6669 14.5963 20.8143 14.6187 20.9485 14.5992Z" fill="#333333"></path> <path d="M14.2059 11.1819C12.1651 11.1609 10.1868 11.558 8.30686 12.3388C8.14355 12.4137 7.69486 12.6944 7.76795 12.9247C8.80057 16.4006 12.0306 19.8017 16.0046 19.2094C18.0798 18.8968 20.1295 17.3245 20.745 15.285C21.269 13.6204 20.1932 12.4403 18.7046 11.8753C17.2784 11.3596 15.7395 11.2255 14.2059 11.1819C13.9244 11.179 13.5978 11.3287 13.4107 11.5494C13.3098 11.6737 13.1412 12.0268 13.444 12.0229C14.5275 12.048 15.6309 12.1359 16.6892 12.3764C17.8245 12.6386 19.3635 13.1416 19.7131 14.3907C20.2075 16.1702 18.3279 18.0574 16.6961 18.3676C15.1068 18.6644 13.427 18.16 12.1787 17.173C10.6248 15.9601 9.46653 14.2991 8.89641 12.4284C8.72385 12.6215 8.53007 12.8213 8.3575 13.0143C9.96793 12.342 11.7059 11.9981 13.4719 12.0372C13.7746 12.0333 14.0799 11.8903 14.2671 11.6696C14.3468 11.5521 14.5153 11.199 14.2059 11.1819Z" fill="#333333"></path> <path d="M3.70625 44.7094C3.99581 45.0325 4.31052 45.1401 4.62522 45.2477C4.9333 45.3344 5.27724 45.3867 5.55208 45.3686C5.69281 45.3701 5.79902 45.3364 5.9265 45.2959C6.0473 45.2346 6.16812 45.1732 6.27563 45.0699C6.49732 44.8843 6.6433 44.6075 6.64452 44.1691C6.82512 44.2962 6.96195 44.5064 6.99256 44.7502C7.02317 44.9941 6.99005 45.2582 6.85199 45.4864C6.73523 45.7078 6.56267 45.9009 6.32769 46.0446C6.20687 46.106 6.10729 46.1606 5.97986 46.2011C5.85238 46.2415 5.71831 46.261 5.60544 46.2737C5.09824 46.2964 4.65737 46.1596 4.28949 45.8844C4.10887 45.7573 3.93621 45.5816 3.82727 45.3856C3.72628 45.141 3.68109 44.9249 3.70625 44.7094Z" fill="#FF95AB"></path> <path d="M6.48815 46.9163C6.85731 47.1219 7.19456 47.1532 7.53979 47.1359C7.8638 47.1253 8.1957 47.0661 8.46521 46.9575C8.59269 46.9171 8.68557 46.8415 8.79976 46.7592C8.91395 46.6769 8.99359 46.5594 9.07318 46.4419C9.23246 46.207 9.29477 45.8875 9.1194 45.4821C9.32922 45.5539 9.5165 45.7019 9.63207 45.9188C9.74763 46.1357 9.7849 46.4006 9.74513 46.6437C9.70535 46.8868 9.5952 47.1292 9.42265 47.3223C9.33636 47.4188 9.25007 47.5153 9.13593 47.5977C9.02175 47.68 8.90097 47.7414 8.79475 47.7751C8.33405 47.9443 7.84805 47.9601 7.40719 47.8234C7.19742 47.7517 6.9743 47.638 6.80828 47.4832C6.64226 47.3284 6.50544 47.1183 6.48815 46.9163Z" fill="#FF95AB"></path> <path d="M1.15892 30.1205C1.38602 30.3942 1.62375 30.4802 1.84018 30.5729C2.05664 30.6655 2.30894 30.7238 2.49882 30.7327C2.59707 30.7476 2.6608 30.7274 2.7524 30.7214C2.8374 30.6944 2.92235 30.6675 3.02857 30.6338C3.2131 30.5522 3.37773 30.4077 3.47589 30.0539C3.62862 30.1668 3.70299 30.3276 3.72032 30.5296C3.73763 30.7315 3.66335 30.9395 3.55449 31.1124C3.44565 31.2852 3.27441 31.4086 3.07527 31.5179C2.89075 31.5996 2.65041 31.6527 2.45393 31.6229C2.04629 31.5909 1.70496 31.3995 1.45659 31.1325C1.33974 30.9852 1.22285 30.8379 1.1697 30.6703C1.08863 30.4886 1.07132 30.2866 1.15892 30.1205Z" fill="#FF95AB"></path> <path d="M3.44892 33.7279C3.67607 34.0016 3.91375 34.0876 4.13022 34.1803C4.34668 34.273 4.59898 34.3312 4.78882 34.3401C4.88711 34.355 4.95081 34.3348 5.04245 34.3288C5.1274 34.3018 5.21236 34.2749 5.31858 34.2412C5.50315 34.1596 5.66774 34.0152 5.7659 33.6613C5.91863 33.7742 5.99304 33.935 6.01035 34.137C6.02768 34.3389 5.95336 34.5469 5.84454 34.7198C5.7357 34.8926 5.56442 35.0161 5.36532 35.1254C5.18076 35.207 4.94045 35.2601 4.74392 35.2303C4.33629 35.1983 3.99499 35.0069 3.74663 34.7399C3.62974 34.5926 3.51285 34.4453 3.4597 34.2778C3.39326 34.0683 3.38257 33.8873 3.44892 33.7279Z" fill="#FF95AB"></path> <g opacity="0.2"> <g opacity="0.2"> <path opacity="0.2" d="M3.7541 20.4682C3.8323 20.0514 3.91055 19.6347 4.0379 19.2255C4.12015 18.9689 4.20239 18.7123 4.29133 18.4766C4.24753 18.5597 4.29926 18.428 4.31387 18.4003C4.34307 18.345 4.37226 18.2896 4.39479 18.2133C4.44657 18.0816 4.50495 17.9709 4.57795 17.8325C4.69474 17.611 4.8115 17.3895 4.93494 17.189C4.99996 17.0992 5.05838 16.9885 5.10218 16.9054C5.1234 16.8987 5.18974 16.7393 5.21766 16.7536C5.17514 16.767 5.1234 16.8987 5.21766 16.7536C5.4486 16.4498 5.67953 16.146 5.93839 15.8564C6.16139 15.6012 6.28342 15.1015 5.84123 15.0343C5.37118 14.9529 4.88661 15.268 4.57071 15.5988C3.21942 17.0878 2.29045 18.9501 1.98562 20.937C1.914 21.3746 2.34159 21.4695 2.68813 21.3826C2.94304 21.3017 3.18466 21.179 3.36387 21.0069C3.54972 20.8557 3.72893 20.6836 3.7541 20.4682Z" fill="white"></path> </g> </g> <path d="M15.2248 24.7122C13.1108 24.4608 11.0593 23.89 9.12577 23.0281C8.90934 22.9354 8.40888 23.3478 8.63194 23.4614C10.5933 24.3375 12.7007 24.9367 14.8358 25.1814C14.9833 25.2038 15.1611 25.1012 15.2687 24.9979C15.3058 24.894 15.3721 24.7346 15.2248 24.7122Z" fill="#FF95AB"></path> </g> </svg> 