<?xml version="1.0" encoding="UTF-8"?> <svg xmlns="http://www.w3.org/2000/svg" width="124" height="130" viewBox="0 0 124 130" fill="none"> <g clip-path="url(#clip0_1466_1902)"> <mask id="mask0_1466_1902" style="mask-type:luminance" maskUnits="userSpaceOnUse" x="-1" y="0" width="126" height="130"> <path d="M27.2016 10.9C49.4016 -4.19998 79.8016 -3.49998 100.702 12.6C124.202 30.7 124.302 59.7 124.202 64.2C124.102 69.1 123.402 89.2 107.902 106.8C105.502 109.5 84.6016 132.6 54.6016 129.2C25.3016 125.9 3.1016 98.7 0.301602 70.3C-1.7984 49.3 6.6016 25 27.2016 10.9Z" fill="white"></path> </mask> <g mask="url(#mask0_1466_1902)"> <path d="M27.2016 10.9C49.4016 -4.19998 79.8016 -3.49998 100.702 12.6C124.202 30.7 124.302 59.7 124.202 64.2C124.102 69.1 123.402 89.2 107.902 106.8C105.502 109.5 84.6016 132.6 54.6016 129.2C25.3016 125.9 3.1016 98.7 0.301602 70.3C-1.7984 49.3 6.6016 25 27.2016 10.9Z" fill="#FFCFCF"></path> <path d="M87 90C100.807 76.1929 100.807 53.8071 87 40C73.1929 26.1929 50.8071 26.1929 37 40C23.1929 53.8071 23.1929 76.1929 37 90C50.8071 103.807 73.1929 103.807 87 90Z" fill="#EB2145"></path> <path d="M62.008 93.8392C77.9445 93.8392 90.8636 80.9201 90.8636 64.9836C90.8636 49.047 77.9445 36.1279 62.008 36.1279C46.0715 36.1279 33.1523 49.047 33.1523 64.9836C33.1523 80.9201 46.0715 93.8392 62.008 93.8392Z" fill="white"></path> <path d="M56.6368 43.305C56.2235 43.4177 55.8102 43.1547 55.6974 42.7414L54.7957 39.1344C54.683 38.7211 54.946 38.3078 55.3593 38.1951C55.7726 38.0824 56.1859 38.3454 56.2986 38.7587L57.2003 42.3657C57.3131 42.779 57.0501 43.2298 56.6368 43.305Z" fill="#FA8541"></path> <path d="M68.6563 91.7732C68.243 91.886 67.8297 91.6229 67.717 91.2096L66.8152 87.6027C66.7025 87.1894 66.9655 86.7761 67.3788 86.6634C67.7921 86.5507 68.2054 86.8137 68.3181 87.227L69.2199 90.8339C69.3326 91.2472 69.1072 91.6981 68.6563 91.7732Z" fill="#FA8541"></path> <path d="M83.6902 59.6114C83.5775 59.1981 83.8405 58.7848 84.2538 58.6721L87.8608 57.7703C88.2741 57.6576 88.6874 57.9206 88.8001 58.3339C88.9128 58.7472 88.6498 59.1605 88.2365 59.2732L84.6296 60.175C84.2163 60.2877 83.803 60.0247 83.6902 59.6114Z" fill="#FA8541"></path> <path d="M35.2606 71.6348C35.1478 71.2215 35.4108 70.8082 35.8241 70.6955L39.4311 69.7938C39.8444 69.681 40.2577 69.944 40.3704 70.3573C40.4831 70.7706 40.2201 71.1839 39.8068 71.2967L36.1999 72.1984C35.7866 72.3111 35.3357 72.0857 35.2606 71.6348Z" fill="#FA8541"></path> <path d="M74.074 44.9955C73.6983 44.7701 73.5855 44.2817 73.811 43.9435L74.7879 42.3279C75.0133 41.9522 75.5017 41.8395 75.8399 42.0649C76.2156 42.2903 76.3283 42.7788 76.1029 43.1169L75.126 44.7325C74.9006 45.1083 74.4121 45.221 74.074 44.9955Z" fill="#FA8541"></path> <path d="M48.1834 87.9782C47.8076 87.7528 47.6949 87.2643 47.9204 86.9262L49.1227 84.9348C49.3481 84.5591 49.8366 84.4464 50.1747 84.6718C50.5504 84.8973 50.6631 85.3857 50.4377 85.7239L49.2354 87.7152C49.0475 88.0533 48.5591 88.2036 48.1834 87.9782Z" fill="#FA8541"></path> <path d="M82.0336 77.0442C82.2591 76.6685 82.7475 76.5558 83.0857 76.7812L84.7013 77.7581C85.077 77.9835 85.1897 78.472 84.9643 78.8101C84.7389 79.1858 84.2504 79.2986 83.9123 79.0731L82.2966 78.0962C81.9209 77.9084 81.8082 77.4199 82.0336 77.0442Z" fill="#FA8541"></path> <path d="M39.0525 51.1946C39.2779 50.8189 39.7664 50.7062 40.1045 50.9316L42.0959 52.1339C42.4716 52.3593 42.5843 52.8478 42.3589 53.1859C42.1334 53.5617 41.645 53.6744 41.3069 53.4489L39.3155 52.2466C38.9774 52.0212 38.8271 51.5703 39.0525 51.1946Z" fill="#FA8541"></path> <path d="M62.0822 64.7952C61.8192 65.2085 61.2931 65.3212 60.9174 65.0958L48.1804 57.3558C47.7671 57.0928 47.6543 56.5668 47.8798 56.1911C48.1428 55.7778 48.6688 55.6651 49.0445 55.8905L61.7816 63.6304C62.2325 63.8559 62.3452 64.3819 62.0822 64.7952Z" fill="#FA8541"></path> <path d="M62.1921 65.8848C61.7788 65.6218 61.6661 65.0958 61.8915 64.7201L68.354 54.0495C68.617 53.6362 69.143 53.5235 69.5187 53.7489C69.932 54.0119 70.0447 54.5379 69.8193 54.9137L63.3944 65.5842C63.1314 65.9975 62.6054 66.1103 62.1921 65.8848Z" fill="#FA8541"></path> <path d="M65.0515 64.2693C65.4648 65.9225 64.4503 67.6133 62.7596 68.0266C61.1064 68.4399 59.4156 67.4254 59.0023 65.7346C58.589 64.0815 59.6035 62.3907 61.2942 61.9774C62.9474 61.5641 64.6382 62.5786 65.0515 64.2693Z" fill="#EB2145"></path> </g> <mask id="mask1_1466_1902" style="mask-type:luminance" maskUnits="userSpaceOnUse" x="-1" y="0" width="126" height="130"> <path d="M27.2016 10.9C49.4016 -4.19998 79.8016 -3.49998 100.702 12.6C124.202 30.7 124.302 59.7 124.202 64.2C124.102 69.1 123.402 89.2 107.902 106.8C105.502 109.5 84.6016 132.6 54.6016 129.2C25.3016 125.9 3.1016 98.7 0.301602 70.3C-1.7984 49.3 6.6016 25 27.2016 10.9Z" fill="white"></path> </mask> <g mask="url(#mask1_1466_1902)"> <path d="M98.6016 44C98.6016 44 97.5016 48.9 94.6016 48.9C94.6016 48.9 98.6016 50.5 98.6016 53.2C98.6016 53.2 99.7016 48.9 102.602 48.7C102.602 48.7 99.4016 48.6 98.6016 44Z" fill="white"></path> </g> <mask id="mask2_1466_1902" style="mask-type:luminance" maskUnits="userSpaceOnUse" x="-1" y="0" width="126" height="130"> <path d="M27.2016 10.9C49.4016 -4.19998 79.8016 -3.49998 100.702 12.6C124.202 30.7 124.302 59.7 124.202 64.2C124.102 69.1 123.402 89.2 107.902 106.8C105.502 109.5 84.6016 132.6 54.6016 129.2C25.3016 125.9 3.1016 98.7 0.301602 70.3C-1.7984 49.3 6.6016 25 27.2016 10.9Z" fill="white"></path> </mask> <g mask="url(#mask2_1466_1902)"> <path d="M24.5016 60.8999C24.5016 60.8999 23.6016 65.0999 21.1016 65.0999C21.1016 65.0999 24.5016 66.4999 24.5016 68.6999C24.5016 68.6999 25.4016 65.0999 27.9016 64.8999C27.9016 64.8999 25.1016 64.7999 24.5016 60.8999Z" fill="white"></path> </g> <mask id="mask3_1466_1902" style="mask-type:luminance" maskUnits="userSpaceOnUse" x="-1" y="0" width="126" height="130"> <path d="M27.2016 10.9C49.4016 -4.19998 79.8016 -3.49998 100.702 12.6C124.202 30.7 124.302 59.7 124.202 64.2C124.102 69.1 123.402 89.2 107.902 106.8C105.502 109.5 84.6016 132.6 54.6016 129.2C25.3016 125.9 3.1016 98.7 0.301602 70.3C-1.7984 49.3 6.6016 25 27.2016 10.9Z" fill="white"></path> </mask> <g mask="url(#mask3_1466_1902)"> <path d="M82.5016 31.5C82.5016 31.5 82.0016 33.8 80.6016 33.8C80.6016 33.8 82.5016 34.6 82.5016 35.8C82.5016 35.8 83.0016 33.8 84.4016 33.7C84.3016 33.8 82.8016 33.7 82.5016 31.5Z" fill="white"></path> </g> <mask id="mask4_1466_1902" style="mask-type:luminance" maskUnits="userSpaceOnUse" x="-1" y="0" width="126" height="130"> <path d="M27.2016 10.9C49.4016 -4.19998 79.8016 -3.49998 100.702 12.6C124.202 30.7 124.302 59.7 124.202 64.2C124.102 69.1 123.402 89.2 107.902 106.8C105.502 109.5 84.6016 132.6 54.6016 129.2C25.3016 125.9 3.1016 98.7 0.301602 70.3C-1.7984 49.3 6.6016 25 27.2016 10.9Z" fill="white"></path> </mask> <g mask="url(#mask4_1466_1902)"> <path d="M23.1031 75.1001C23.1031 75.1001 22.6031 77.4001 21.2031 77.4001C21.2031 77.4001 23.1031 78.2001 23.1031 79.4001C23.1031 79.4001 23.6031 77.4001 25.0031 77.3001C25.0031 77.3001 23.5031 77.2001 23.1031 75.1001Z" fill="white"></path> </g> <mask id="mask5_1466_1902" style="mask-type:luminance" maskUnits="userSpaceOnUse" x="-1" y="0" width="126" height="130"> <path d="M27.2016 10.9C49.4016 -4.19998 79.8016 -3.49998 100.702 12.6C124.202 30.7 124.302 59.7 124.202 64.2C124.102 69.1 123.402 89.2 107.902 106.8C105.502 109.5 84.6016 132.6 54.6016 129.2C25.3016 125.9 3.1016 98.7 0.301602 70.3C-1.7984 49.3 6.6016 25 27.2016 10.9Z" fill="white"></path> </mask> <g mask="url(#mask5_1466_1902)"> <path d="M96.5016 94.2998C96.5016 94.2998 96.0016 96.5998 94.6016 96.5998C94.6016 96.5998 96.5016 97.3998 96.5016 98.5998C96.5016 98.5998 97.0016 96.5998 98.4016 96.4998C98.4016 96.4998 96.8016 96.3998 96.5016 94.2998Z" fill="white"></path> </g> </g> <defs> <clipPath id="clip0_1466_1902"> <rect width="124" height="130" fill="white"></rect> </clipPath> </defs> </svg> 