<?xml version="1.0" encoding="UTF-8"?> <svg xmlns="http://www.w3.org/2000/svg" width="124" height="130" viewBox="0 0 124 130" fill="none"> <g clip-path="url(#clip0_1466_1738)"> <mask id="mask0_1466_1738" style="mask-type:luminance" maskUnits="userSpaceOnUse" x="-1" y="0" width="126" height="130"> <path d="M27.2016 10.9C49.4016 -4.19998 79.8016 -3.49998 100.702 12.6C124.202 30.7 124.302 59.7 124.202 64.2C124.102 69.1 123.402 89.2 107.902 106.8C105.502 109.5 84.6016 132.6 54.6016 129.2C25.3016 125.9 3.1016 98.7 0.301602 70.3C-1.7984 49.3 6.6016 25 27.2016 10.9Z" fill="white"></path> </mask> <g mask="url(#mask0_1466_1738)"> <path d="M27.2016 10.9C49.4016 -4.19998 79.8016 -3.49998 100.702 12.6C124.202 30.7 124.302 59.7 124.202 64.2C124.102 69.1 123.402 89.2 107.902 106.8C105.502 109.5 84.6016 132.6 54.6016 129.2C25.3016 125.9 3.1016 98.7 0.301602 70.3C-1.7984 49.3 6.6016 25 27.2016 10.9Z" fill="#FFCFCF"></path> </g> <path d="M70.6433 23.4796L24.8359 40.8774L53.8694 117.321L99.6767 99.9227L70.6433 23.4796Z" fill="#EB2145"></path> <path d="M53.8711 117.32L59.7346 121.765L78.9892 114.452L76.7748 108.621L53.8711 117.32Z" fill="white"></path> <path d="M99.6771 99.9227L98.2639 107.131L78.9879 114.452L76.7734 108.622L99.6771 99.9227Z" fill="white"></path> <path d="M24.8384 40.8773L26.8641 35.7344L46.2904 28.3563L47.7421 32.1784L24.8384 40.8773Z" fill="white"></path> <path d="M70.6444 23.4797L65.7153 20.9783L46.2891 28.3564L47.7407 32.1786L70.6444 23.4797Z" fill="white"></path> <path d="M65.6297 21.0109L26.9489 35.702C25.94 36.0852 24.8127 35.5744 24.4272 34.5595C24.0714 33.558 24.5754 32.4277 25.5628 32.0526L64.2222 17.3696C65.2311 16.9865 66.3584 17.4972 66.7439 18.5121C67.1212 19.5055 66.6171 20.6359 65.6297 21.0109Z" fill="white"></path> <path opacity="0.33" d="M66.6553 18.2744C66.6471 18.2528 66.6471 18.2528 66.6389 18.2312C66.5846 18.1529 66.56 18.0882 66.5139 18.0315C66.0122 17.3573 65.0906 17.0649 64.2749 17.3747L52.8123 21.7282C53.8212 21.345 54.9486 21.8558 55.334 22.8707C55.4489 23.173 55.4911 23.4782 55.4525 23.7647L26.5814 34.73C25.7443 35.048 24.8441 34.7474 24.3424 34.0732C24.3487 34.219 24.3928 34.3999 24.4585 34.5727C24.8439 35.5876 25.9713 36.0984 26.9802 35.7152L54.1984 25.3776L65.661 21.0241C66.6699 20.6409 67.1739 19.5105 66.7884 18.4956C66.7127 18.4255 66.6799 18.3391 66.6553 18.2744Z" fill="white"></path> <path opacity="0.48" d="M35.2664 55.9178C35.4888 57.5383 36.1223 59.0767 36.7475 60.5936C40.3595 69.3278 43.9715 78.0619 47.5621 86.8042C48.2693 88.537 49.3818 90.5607 51.0793 90.6326C52.5293 90.6996 53.577 89.1898 53.6348 87.6605C53.6926 86.1313 53.0674 84.6145 52.4667 83.1624C48.9676 74.8548 45.8252 66.3871 43.0641 57.8239C42.5872 56.3742 42.099 54.83 41.0835 53.7085C38.9011 51.3252 34.7742 52.4231 35.2664 55.9178Z" fill="white"></path> <path opacity="0.48" d="M32.1515 42.2254C31.954 42.0286 31.7721 42.1965 31.6711 42.3831C31.0465 43.584 31.4385 46.1037 32.4955 47.8519C33.5739 49.592 35.176 50.3179 35.9665 49.4246C36.7786 48.5232 36.6453 46.1029 35.7058 44.2112C34.7663 42.3195 33.1321 41.1858 32.1838 41.7931L32.1515 42.2254Z" fill="white"></path> <path d="M64.9011 105.225C65.1718 105.938 65.3187 106.648 65.3337 107.334C65.3486 108.02 65.2317 108.682 64.9879 109.269C64.7441 109.856 64.3387 110.405 63.8064 110.879C63.2741 111.353 62.5935 111.76 61.7778 112.07C61.005 112.363 60.2771 112.516 59.5644 112.515C58.8517 112.514 58.192 112.394 57.5987 112.125C57.0136 111.878 56.4865 111.46 56.0208 110.945C55.5468 110.409 55.1852 109.78 54.8982 109.024C54.7424 108.614 54.6244 108.239 54.5443 107.899C54.4642 107.558 54.4138 107.232 54.3716 106.926C54.3508 106.613 54.33 106.3 54.3472 106.021C54.3643 105.743 54.3681 105.495 54.3884 105.289L56.7281 104.401L56.8347 104.681C56.7766 104.852 56.7267 105.044 56.642 105.273C56.5656 105.525 56.5106 105.768 56.472 106.055C56.4335 106.341 56.4031 106.649 56.4238 106.962C56.4446 107.276 56.495 107.603 56.6099 107.905C56.7411 108.25 56.9367 108.571 57.1588 108.833C57.3892 109.116 57.689 109.323 58.0317 109.514C58.3663 109.684 58.7835 109.748 59.2355 109.774C59.7008 109.77 60.2273 109.669 60.8069 109.449C61.4079 109.221 61.8903 108.939 62.211 108.619C62.5533 108.291 62.7932 107.953 62.9309 107.604C63.0686 107.256 63.1255 106.888 63.1099 106.523C63.0942 106.159 63.0141 105.818 62.891 105.494C62.7762 105.192 62.6185 104.906 62.4178 104.636C62.2171 104.367 61.9899 104.157 61.7412 103.954C61.5304 103.787 61.3278 103.642 61.1119 103.526C60.8961 103.411 60.7313 103.3 60.5748 103.211L60.4764 102.952L62.7732 102.08C62.9707 102.277 63.1683 102.474 63.3361 102.657C63.504 102.84 63.6801 103.045 63.8347 103.258C64.0436 103.549 64.2146 103.806 64.3856 104.062C64.5516 104.37 64.7125 104.729 64.9011 105.225Z" fill="#FFD3BA"></path> <path d="M54.3198 92.4409C55.8653 91.8539 57.2314 91.8292 58.4692 92.3722C59.707 92.9151 60.6253 93.9748 61.2158 95.5296C61.8063 97.0843 61.823 98.4864 61.2578 99.7142C60.6925 100.942 59.633 101.839 58.1089 102.417C56.5634 103.004 55.1758 103.037 53.938 102.494C52.7002 101.951 51.7819 100.892 51.1914 99.3369C50.6009 97.7821 50.5842 96.38 51.1495 95.1523C51.7148 93.9245 52.7743 93.0279 54.3198 92.4409ZM58.0217 94.8154C57.631 94.692 57.2137 94.6281 56.7863 94.6669C56.3375 94.7138 55.8621 94.8202 55.304 95.0322C54.7244 95.2523 54.2553 95.5046 53.8967 95.7891C53.538 96.0735 53.2817 96.3686 53.1061 96.6824C52.9305 96.9961 52.8358 97.3286 52.8351 97.6501C52.8343 97.9716 52.8848 98.2984 53.0078 98.6223C53.1308 98.9462 53.3018 99.2025 53.5158 99.4424C53.7297 99.6824 54.0213 99.8681 54.3691 100.008C54.6873 100.134 55.0963 100.176 55.5831 100.165C56.0616 100.131 56.5799 100.008 57.138 99.7963C57.7176 99.5762 58.1652 99.3321 58.5238 99.0476C58.8825 98.7631 59.1388 98.4681 59.3144 98.1543C59.49 97.8405 59.5847 97.508 59.5855 97.1866C59.6076 96.8569 59.5275 96.5167 59.4045 96.1928C59.2815 95.8689 59.1023 95.591 58.8587 95.3376C58.6529 95.1193 58.3613 94.9335 58.0217 94.8154Z" fill="#FFD3BA"></path> <path d="M55.7415 81.6962L58.3988 88.6927L48.7823 92.3451L47.8309 89.8402L55.6014 86.8889L53.8955 82.3974L55.7415 81.6962Z" fill="#FFD3BA"></path> <path d="M51.7708 71.2447L52.755 73.836L51.0559 75.2473L52.4173 78.8319L54.625 78.7595L55.5845 81.286L44.5851 81.3619L43.4943 78.4899L51.7708 71.2447ZM49.5254 76.5205L46.5205 79.0207L50.4275 78.8958L49.5254 76.5205Z" fill="#FFD3BA"></path> <path d="M73.1316 30.0226C71.3739 31.0855 69.7739 32.4345 68.3304 33.8722C64.8878 37.3541 61.952 41.4589 57.7805 44.0564C52.489 47.3263 45.9369 47.6651 40.1576 49.9095C38.2983 50.6404 34.2392 53.1457 30.6786 56.2524L34.4349 66.1425C37.3903 62.1538 40.9527 58.9229 45.7458 57.2507C51.2125 55.3474 57.4401 55.5766 62.4241 52.5964C66.5508 50.1396 69.1899 45.9003 72.2519 42.1923C73.4264 40.7579 74.7707 39.3825 76.2696 38.2202L73.1531 30.0144L73.1316 30.0226Z" fill="#FFD3BA"></path> <path d="M77.323 41.0572C75.4194 42.4474 73.6785 44.0722 72.2078 45.891C70.3368 48.2077 68.828 50.8316 66.6162 52.833C63.5513 55.6278 59.4388 56.8932 55.4211 57.8262C51.4034 58.7591 47.2362 59.4276 43.5333 61.254C40.5142 62.7466 37.8925 65.0272 35.9381 67.771C35.7461 68.0415 35.5541 68.3121 35.3621 68.5827L37.0107 72.9231C37.8386 71.5462 38.6962 70.1827 39.7564 68.9646C43.6714 64.4632 49.7814 62.6367 55.6128 61.435C60.061 60.5362 64.6986 59.8127 68.3884 57.1758C71.4999 54.9563 73.5795 51.572 76.1167 48.681C77.0247 47.6443 78.03 46.6695 79.1355 45.8295L77.323 41.0572Z" fill="#FFD3BA"></path> <path opacity="0.33" d="M65.6303 21.0105L53.9102 25.4619L58.3455 28.1508L87.379 104.594L87.1463 111.354L98.2654 107.131L99.6787 99.9224L70.6453 23.4794L65.6303 21.0105Z" fill="white"></path> <mask id="mask1_1466_1738" style="mask-type:luminance" maskUnits="userSpaceOnUse" x="-1" y="0" width="126" height="130"> <path d="M27.2016 10.9C49.4016 -4.19998 79.8016 -3.49998 100.702 12.6C124.202 30.7 124.302 59.7 124.202 64.2C124.102 69.1 123.402 89.2 107.902 106.8C105.502 109.5 84.6016 132.6 54.6016 129.2C25.3016 125.9 3.1016 98.7 0.301602 70.3C-1.7984 49.3 6.6016 25 27.2016 10.9Z" fill="white"></path> </mask> <g mask="url(#mask1_1466_1738)"> <path d="M98.6016 44C98.6016 44 97.5016 48.9 94.6016 48.9C94.6016 48.9 98.6016 50.5 98.6016 53.2C98.6016 53.2 99.7016 48.9 102.602 48.7C102.602 48.7 99.4016 48.6 98.6016 44Z" fill="white"></path> </g> <mask id="mask2_1466_1738" style="mask-type:luminance" maskUnits="userSpaceOnUse" x="-1" y="0" width="126" height="130"> <path d="M27.2016 10.9C49.4016 -4.19998 79.8016 -3.49998 100.702 12.6C124.202 30.7 124.302 59.7 124.202 64.2C124.102 69.1 123.402 89.2 107.902 106.8C105.502 109.5 84.6016 132.6 54.6016 129.2C25.3016 125.9 3.1016 98.7 0.301602 70.3C-1.7984 49.3 6.6016 25 27.2016 10.9Z" fill="white"></path> </mask> <g mask="url(#mask2_1466_1738)"> <path d="M24.5016 60.8999C24.5016 60.8999 23.6016 65.0999 21.1016 65.0999C21.1016 65.0999 24.5016 66.4999 24.5016 68.6999C24.5016 68.6999 25.4016 65.0999 27.9016 64.8999C27.9016 64.8999 25.1016 64.7999 24.5016 60.8999Z" fill="white"></path> </g> <mask id="mask3_1466_1738" style="mask-type:luminance" maskUnits="userSpaceOnUse" x="-1" y="0" width="126" height="130"> <path d="M27.2016 10.9C49.4016 -4.19998 79.8016 -3.49998 100.702 12.6C124.202 30.7 124.302 59.7 124.202 64.2C124.102 69.1 123.402 89.2 107.902 106.8C105.502 109.5 84.6016 132.6 54.6016 129.2C25.3016 125.9 3.1016 98.7 0.301602 70.3C-1.7984 49.3 6.6016 25 27.2016 10.9Z" fill="white"></path> </mask> <g mask="url(#mask3_1466_1738)"> <path d="M82.5016 31.5C82.5016 31.5 82.0016 33.8 80.6016 33.8C80.6016 33.8 82.5016 34.6 82.5016 35.8C82.5016 35.8 83.0016 33.8 84.4016 33.7C84.3016 33.8 82.8016 33.7 82.5016 31.5Z" fill="white"></path> </g> <mask id="mask4_1466_1738" style="mask-type:luminance" maskUnits="userSpaceOnUse" x="-1" y="0" width="126" height="130"> <path d="M27.2016 10.9C49.4016 -4.19998 79.8016 -3.49998 100.702 12.6C124.202 30.7 124.302 59.7 124.202 64.2C124.102 69.1 123.402 89.2 107.902 106.8C105.502 109.5 84.6016 132.6 54.6016 129.2C25.3016 125.9 3.1016 98.7 0.301602 70.3C-1.7984 49.3 6.6016 25 27.2016 10.9Z" fill="white"></path> </mask> <g mask="url(#mask4_1466_1738)"> <path d="M23.1031 75.1001C23.1031 75.1001 22.6031 77.4001 21.2031 77.4001C21.2031 77.4001 23.1031 78.2001 23.1031 79.4001C23.1031 79.4001 23.6031 77.4001 25.0031 77.3001C25.0031 77.3001 23.5031 77.2001 23.1031 75.1001Z" fill="white"></path> </g> <mask id="mask5_1466_1738" style="mask-type:luminance" maskUnits="userSpaceOnUse" x="-1" y="0" width="126" height="130"> <path d="M27.2016 10.9C49.4016 -4.19998 79.8016 -3.49998 100.702 12.6C124.202 30.7 124.302 59.7 124.202 64.2C124.102 69.1 123.402 89.2 107.902 106.8C105.502 109.5 84.6016 132.6 54.6016 129.2C25.3016 125.9 3.1016 98.7 0.301602 70.3C-1.7984 49.3 6.6016 25 27.2016 10.9Z" fill="white"></path> </mask> <g mask="url(#mask5_1466_1738)"> <path d="M96.5016 94.2998C96.5016 94.2998 96.0016 96.5998 94.6016 96.5998C94.6016 96.5998 96.5016 97.3998 96.5016 98.5998C96.5016 98.5998 97.0016 96.5998 98.4016 96.4998C98.4016 96.4998 96.8016 96.3998 96.5016 94.2998Z" fill="white"></path> </g> </g> <defs> <clipPath id="clip0_1466_1738"> <rect width="124" height="130" fill="white"></rect> </clipPath> </defs> </svg> 