<?xml version="1.0" encoding="UTF-8"?> <svg xmlns="http://www.w3.org/2000/svg" width="1394" height="938" viewBox="0 0 1394 938" fill="none"> <g clip-path="url(#clip0_864_1139)"> <path d="M984.553 306.404H939.256C928.203 306.404 919.242 315.365 919.242 326.418C919.242 337.471 928.203 346.432 939.256 346.432H984.553C995.606 346.432 1004.57 337.471 1004.57 326.418C1004.57 315.365 995.606 306.404 984.553 306.404Z" fill="white"></path> <path d="M984.553 400.911H939.256C928.203 400.911 919.242 409.872 919.242 420.925C919.242 431.978 928.203 440.939 939.256 440.939H984.553C995.606 440.939 1004.57 431.978 1004.57 420.925C1004.57 409.872 995.606 400.911 984.553 400.911Z" fill="white"></path> <path d="M937.604 353.646H892.307C881.253 353.646 872.293 362.607 872.293 373.66C872.293 384.714 881.253 393.674 892.307 393.674H937.604C948.657 393.674 957.617 384.714 957.617 373.66C957.617 362.607 948.657 353.646 937.604 353.646Z" fill="white"></path> <path d="M1030.14 353.646H984.844C973.791 353.646 964.83 362.607 964.83 373.66C964.83 384.714 973.791 393.674 984.844 393.674H1030.14C1041.19 393.674 1050.15 384.714 1050.15 373.66C1050.15 362.607 1041.19 353.646 1030.14 353.646Z" fill="white"></path> <path d="M978.331 700.447C966.583 699.852 959.495 686.156 957.861 682.993C955.345 678.362 953.922 673.217 953.7 667.952C953.503 661.272 955.646 659.852 954.721 654.483C953.676 648.421 950.372 646.903 946.957 640.347C944.141 634.543 942.613 628.198 942.476 621.749C941.429 611.334 943.453 600.84 948.298 591.561C968.078 555.953 979.587 536.21 979.587 536.21C979.587 536.21 1008.02 567.444 1012.48 594.091C1014.38 605.483 1016.72 606.76 1015.51 619.234C1014.98 624.633 1012.28 627.233 1010.46 633.969C1009.71 636.744 1009.84 638.104 1009.98 648.069C1010.63 653.744 1010.59 659.476 1009.87 665.141C1008.43 674.861 1003.82 683.831 996.744 690.652C991.975 695.237 986.146 700.844 978.331 700.447Z" fill="#295F4B"></path> <path d="M981.982 576.15L981.617 918.003L973.408 917.896L981.982 576.15Z" fill="#79A592"></path> <path d="M1030.94 718.455C1020.35 715.646 1016.54 701.809 1015.67 698.614C1014.27 693.913 1013.97 688.954 1014.78 684.118C1015.89 677.999 1018.12 677.119 1018.31 672.052C1018.53 666.332 1015.81 664.312 1013.97 657.684C1012.53 651.856 1012.36 645.786 1013.48 639.887C1014.53 630.203 1018.4 621.04 1024.6 613.527C1049.48 584.925 1063.77 569.172 1063.77 569.172C1063.77 569.172 1083.63 603.094 1082.55 628.215C1082.08 638.955 1083.97 640.569 1080.45 651.69C1078.93 656.504 1075.97 658.35 1073.02 664.132C1071.8 666.514 1071.66 667.777 1069.86 676.877C1069.35 682.168 1068.21 687.379 1066.46 692.397C1063.28 700.969 1057.34 708.245 1049.59 713.09C1044.36 716.345 1037.97 720.324 1030.94 718.455Z" fill="#F5E1B4"></path> <path d="M1058.24 605.996L986.033 932.22L976.449 929.951L1058.24 605.996Z" fill="#79A592"></path> <path d="M971.353 814.582C963.076 814.162 958.083 804.513 956.931 802.284C955.159 799.022 954.156 795.397 953.999 791.688C953.861 786.981 955.37 785.981 954.719 782.198C953.983 777.927 951.655 776.858 949.249 772.239C947.265 768.149 946.188 763.679 946.092 759.135C945.354 751.798 946.78 744.404 950.194 737.867C964.129 712.78 972.238 698.87 972.238 698.87C972.238 698.87 992.269 720.876 995.411 739.649C996.754 747.676 998.402 748.575 997.545 757.363C997.174 761.168 995.272 762.999 993.992 767.745C993.464 769.7 993.555 770.658 993.654 777.679C994.109 781.677 994.081 785.715 993.572 789.707C992.56 796.555 989.308 802.875 984.326 807.68C980.966 810.911 976.859 814.861 971.353 814.582Z" fill="#DCDEEB"></path> <path d="M973.925 727.009L972.227 920.28L964.021 920.034L973.925 727.009Z" fill="#F5E1B4"></path> <path d="M1002.12 757.752C992.769 757.278 987.126 746.373 985.825 743.855C983.822 740.168 982.689 736.072 982.512 731.88C982.355 726.561 984.061 725.43 983.324 721.155C982.493 716.329 979.862 715.12 977.143 709.901C974.901 705.279 973.685 700.228 973.576 695.093C972.742 686.801 974.353 678.445 978.211 671.058C993.959 642.707 1003.12 626.988 1003.12 626.988C1003.12 626.988 1025.76 651.856 1029.31 673.072C1030.83 682.143 1032.69 683.159 1031.72 693.09C1031.3 697.39 1029.15 699.459 1027.71 704.823C1027.11 707.032 1027.21 708.115 1027.32 716.049C1027.84 720.567 1027.81 725.131 1027.23 729.641C1026.09 737.38 1022.41 744.522 1016.78 749.952C1012.99 753.604 1008.35 758.067 1002.12 757.752Z" fill="#79A592"></path> <path d="M1005.28 658.799L1003.15 724.651L1000.78 790.492C1000 812.439 999.515 834.401 998.156 856.321C997.46 867.28 996.764 878.239 995.855 889.188L994.485 905.612C993.93 911.081 993.468 916.556 992.83 922.021L992.339 921.998C992.22 916.497 992.276 911.003 992.24 905.506L992.425 889.026C992.554 878.04 992.895 867.064 993.236 856.088C993.951 834.138 995.537 812.228 996.84 790.306L1000.69 724.535L1004.78 658.775L1005.28 658.799Z" fill="#F5E1B4"></path> <path d="M942.883 765.622C933.868 766.306 927.137 756.551 925.584 754.298C923.218 751.012 921.634 747.227 920.954 743.235C920.157 738.161 921.653 736.87 920.427 732.866C919.043 728.346 916.377 727.509 913.138 722.842C910.429 718.689 908.649 714.001 907.919 709.096C906.111 701.258 906.637 693.061 909.432 685.517C921.062 656.453 927.923 640.285 927.923 640.285C927.923 640.285 952.626 661.342 958.609 681.226C961.166 689.727 963.073 690.474 963.355 700.101C963.477 704.269 961.671 706.513 960.938 711.824C960.636 714.013 960.866 715.037 961.939 722.621C962.981 726.885 963.507 731.258 963.505 735.648C963.351 743.197 960.702 750.484 955.971 756.369C952.78 760.327 948.879 765.167 942.883 765.622Z" fill="#F5E1B4"></path> <path d="M933.617 670.503L970.366 912.833L960.598 914.115L933.617 670.503Z" fill="#79A592"></path> <path d="M1045.6 768.386C1036.1 765.12 1033.53 752.209 1032.93 749.228C1031.96 744.835 1032.01 740.278 1033.07 735.906C1034.49 730.38 1036.59 729.721 1037.1 725.098C1037.67 719.879 1035.32 717.852 1034.07 711.667C1033.13 706.24 1033.38 700.674 1034.79 695.351C1036.4 686.56 1040.54 678.43 1046.7 671.964C1071.35 647.43 1085.46 633.956 1085.46 633.956C1085.46 633.956 1101.4 666.3 1098.75 689.213C1097.63 699.009 1099.24 700.61 1095.3 710.554C1093.59 714.86 1090.76 716.354 1087.67 721.45C1086.4 723.549 1086.19 724.695 1083.95 732.903C1083.14 737.711 1081.75 742.403 1079.82 746.88C1076.34 754.514 1070.43 760.781 1063.02 764.704C1058.02 767.338 1051.92 770.559 1045.6 768.386Z" fill="#295F4B"></path> <path d="M1077.98 667.284L1003.05 919.262L995.223 916.8L1077.98 667.284Z" fill="#F5E1B4"></path> <path d="M937.501 847.476C931.431 848.704 926.031 842.643 924.785 841.243C922.898 839.209 921.501 836.771 920.701 834.114C919.73 830.733 920.638 829.729 919.466 827.111C918.143 824.156 916.26 823.812 913.663 820.914C911.47 818.321 909.864 815.284 908.953 812.013C907.061 806.837 906.724 801.221 907.986 795.857C913.431 775.117 916.727 763.547 916.727 763.547C916.727 763.547 935.3 775.77 941.049 788.78C943.507 794.341 944.866 794.688 945.872 801.208C946.308 804.031 945.27 805.708 945.221 809.381C945.201 810.894 945.444 811.571 946.815 816.635C947.884 819.445 948.612 822.373 948.982 825.357C949.516 830.502 948.332 835.678 945.614 840.079C943.78 843.04 941.538 846.659 937.501 847.476Z" fill="#F5E1B4"></path> <path d="M923.4 783.552L932.248 818.56L940.855 853.623C943.693 865.317 946.946 876.919 949.223 888.739C951.53 900.552 953.641 912.409 954.946 924.447L954.465 924.554C950.513 913.109 947.367 901.484 944.416 889.815C941.435 878.153 939.431 866.271 937.01 854.484L929.845 819.099L922.92 783.659L923.4 783.552ZM1046.74 827.126C1038.14 823.198 1036.91 810.862 1036.62 808.014C1036.12 803.808 1036.58 799.542 1037.97 795.542C1039.81 790.492 1041.83 790.065 1042.73 785.779C1043.74 780.94 1041.73 778.826 1041.12 772.915C1040.73 767.743 1041.47 762.549 1043.28 757.689C1045.59 749.596 1050.21 742.354 1056.58 736.857C1081.92 716.113 1096.37 704.773 1096.37 704.773C1096.37 704.773 1108.36 736.541 1103.79 757.775C1101.84 766.853 1103.21 768.501 1098.6 777.461C1096.61 781.34 1093.82 782.482 1090.46 786.977C1089.08 788.828 1088.77 789.883 1085.93 797.37C1084.72 801.802 1083 806.074 1080.78 810.093C1076.82 816.93 1070.71 822.265 1063.41 825.265C1058.48 827.278 1052.47 829.739 1046.74 827.126Z" fill="#79A592"></path> <path d="M1086.54 735.424L1065.59 786.418L1044.41 837.314C1037.32 854.267 1030.62 871.389 1023.01 888.113C1015.42 904.85 1007.65 921.507 999.116 937.838L998.664 937.643C1004.7 920.237 1011.5 903.159 1018.49 886.16C1025.44 869.149 1033.31 852.535 1040.8 835.752L1063.33 785.442L1086.09 735.229L1086.54 735.424Z" fill="#79A592"></path> <path d="M1051.4 866.389C1046.51 862.128 1048.11 853.781 1048.48 851.854C1048.97 848.991 1050.1 846.278 1051.8 843.923C1053.99 840.963 1055.41 841.078 1056.84 838.437C1058.45 835.456 1057.54 833.673 1058.29 829.67C1059.05 826.197 1060.55 822.928 1062.69 820.089C1065.79 815.221 1070.24 811.367 1075.5 809C1096.2 800.321 1107.91 795.693 1107.91 795.693C1107.91 795.693 1109.58 818.909 1102.43 831.968C1099.37 837.552 1099.95 838.902 1095.17 843.889C1093.1 846.048 1091.05 846.254 1087.97 848.551C1086.7 849.498 1086.29 850.131 1082.95 854.494C1081.3 857.171 1079.33 859.64 1077.09 861.848C1073.15 865.567 1068.09 867.879 1062.71 868.422C1059.08 868.783 1054.64 869.224 1051.4 866.389Z" fill="#F5E1B4"></path> <path d="M1095.53 813.964L1072.03 843.575L1048.35 873.028C1040.43 882.825 1032.84 892.895 1024.48 902.323C1016.14 911.77 1007.65 921.09 998.532 929.879L998.154 929.563C1005.2 919.033 1012.87 909.033 1020.7 899.162C1028.51 889.27 1037.08 880.021 1045.33 870.499L1070.15 841.994L1095.15 813.647L1095.53 813.964Z" fill="#79A592"></path> <path d="M416.405 660.084C430.151 659.387 438.444 643.362 440.356 639.662C443.299 634.244 444.965 628.224 445.225 622.064C445.455 614.248 442.948 612.586 444.03 606.304C445.252 599.212 449.118 597.436 453.114 589.765C456.408 582.974 458.196 575.551 458.356 568.004C459.582 555.819 457.214 543.54 451.545 532.685C428.402 491.022 414.936 467.922 414.936 467.922C414.936 467.922 381.67 504.467 376.452 535.644C374.222 548.974 371.485 550.468 372.908 565.062C373.524 571.38 376.683 574.421 378.809 582.303C379.685 585.549 379.535 587.141 379.37 598.8C378.615 605.439 378.661 612.146 379.506 618.775C381.446 635.342 392.701 646.544 394.862 648.623C400.441 653.988 407.261 660.548 416.405 660.084Z" fill="#F5E1B4"></path> <path d="M412.139 514.653L412.565 914.629L422.171 914.505L412.139 514.653Z" fill="#79A592"></path> <path d="M354.86 681.154C367.24 677.867 371.697 661.678 372.724 657.939C374.359 652.439 374.713 646.637 373.761 640.979C372.463 633.819 369.86 632.789 369.633 626.861C369.377 620.168 372.554 617.805 374.711 610.05C376.4 603.231 376.596 596.128 375.285 589.227C374.05 577.896 369.524 567.175 362.268 558.385C333.159 524.92 316.441 506.488 316.441 506.488C316.441 506.488 293.207 546.179 294.473 575.57C295.014 588.136 292.811 590.024 296.923 603.036C298.703 608.67 302.166 610.829 305.622 617.594C307.047 620.381 307.216 621.859 309.317 632.506C309.91 638.696 311.246 644.793 313.294 650.665C317.02 660.694 323.961 669.208 333.035 674.877C339.149 678.685 346.624 683.341 354.86 681.154Z" fill="#F5E1B4"></path> <path d="M322.91 549.573L407.398 931.265L418.612 928.608L322.91 549.573Z" fill="#79A592"></path> <path d="M424.572 793.625C434.257 793.134 440.099 781.844 441.447 779.237C443.52 775.42 444.694 771.179 444.877 766.838C445.039 761.332 443.273 760.161 444.035 755.735C444.896 750.738 447.62 749.487 450.435 744.083C452.756 739.298 454.016 734.068 454.129 728.751C454.992 720.166 453.324 711.515 449.33 703.867C433.025 674.514 423.537 658.239 423.537 658.239C423.537 658.239 400.1 683.986 396.424 705.952C394.852 715.343 392.924 716.396 393.927 726.678C394.361 731.129 396.586 733.272 398.085 738.825C398.702 741.112 398.596 742.233 398.48 750.448C397.948 755.126 397.98 759.851 398.575 764.521C399.76 772.533 403.564 779.928 409.394 785.55C413.325 789.33 418.13 793.952 424.572 793.625Z" fill="#F5E1B4"></path> <path d="M421.564 691.163L423.552 917.295L433.151 917.006L421.564 691.163Z" fill="#79A592"></path> <path d="M388.569 727.132C399.513 726.577 406.116 713.819 407.639 710.872C409.982 706.558 411.308 701.766 411.515 696.861C411.698 690.638 409.702 689.315 410.564 684.313C411.537 678.666 414.615 677.252 417.797 671.145C420.419 665.738 421.843 659.828 421.97 653.819C422.946 644.117 421.061 634.342 416.547 625.698C398.121 592.527 387.399 574.135 387.399 574.135C387.399 574.135 360.914 603.232 356.759 628.055C354.983 638.667 352.805 639.857 353.938 651.476C354.428 656.507 356.943 658.928 358.636 665.203C359.333 667.789 359.214 669.056 359.083 678.338C358.481 683.625 358.518 688.964 359.191 694.242C360.529 703.297 364.829 711.653 371.417 718.007C375.859 722.279 381.289 727.501 388.569 727.132Z" fill="#79A592"></path> <path d="M384.885 611.355L387.374 688.404L390.151 765.439C391.054 791.119 391.626 816.814 393.216 842.461C394.031 855.284 394.845 868.106 395.908 880.917L397.511 900.133C398.16 906.532 398.702 912.938 399.447 919.333L400.022 919.305C400.161 912.868 400.095 906.441 400.138 900.009L399.921 880.727C399.771 867.873 399.371 855.031 398.973 842.188C398.136 816.506 396.281 790.872 394.756 765.222L390.252 688.268L385.461 611.328L384.885 611.355Z" fill="#F5E1B4"></path> <path d="M457.884 736.34C468.432 737.141 476.307 725.728 478.124 723.092C480.893 719.246 482.746 714.818 483.541 710.147C484.474 704.21 482.724 702.7 484.158 698.016C485.777 692.727 488.897 691.747 492.687 686.287C495.856 681.428 497.939 675.942 498.792 670.204C500.908 661.032 500.292 651.442 497.022 642.616C483.416 608.609 475.388 589.693 475.388 589.693C475.388 589.693 446.484 614.331 439.485 637.595C436.492 647.541 434.261 648.415 433.932 659.679C433.789 664.556 435.902 667.181 436.76 673.396C437.113 675.956 436.844 677.155 435.589 686.028C434.369 691.017 433.754 696.134 433.756 701.27C433.936 710.103 437.035 718.628 442.571 725.514C446.304 730.146 450.868 735.808 457.884 736.34Z" fill="#F5E1B4"></path> <path d="M468.724 625.049L425.727 908.582L437.155 910.081L468.724 625.049Z" fill="#F67C95"></path> <path d="M337.703 739.574C348.814 735.753 351.828 720.647 352.522 717.159C353.656 712.018 353.599 706.687 352.355 701.572C350.696 695.106 348.247 694.335 347.649 688.926C346.975 682.819 349.726 680.448 351.191 673.211C352.287 666.861 351.999 660.349 350.346 654.121C348.471 643.835 343.625 634.323 336.408 626.758C307.573 598.052 291.065 582.287 291.065 582.287C291.065 582.287 272.417 620.13 275.508 646.939C276.829 658.401 274.938 660.274 279.556 671.909C281.555 676.946 284.865 678.695 288.473 684.657C289.959 687.113 290.212 688.454 292.833 698.057C293.784 703.683 295.407 709.173 297.667 714.411C301.735 723.343 308.646 730.676 317.321 735.266C323.166 738.348 330.312 742.117 337.703 739.574Z" fill="#DCDEEB"></path> <path d="M299.816 621.284L387.485 916.105L396.646 913.223L299.816 621.284Z" fill="#F5E1B4"></path> <path d="M464.18 832.112C471.281 833.549 477.6 826.457 479.058 824.819C481.266 822.44 482.9 819.587 483.836 816.479C484.972 812.523 483.91 811.348 485.281 808.285C486.829 804.827 489.032 804.425 492.071 801.034C494.636 798 496.516 794.447 497.582 790.619C499.796 784.564 500.189 777.993 498.713 771.717C492.341 747.451 488.485 733.914 488.485 733.914C488.485 733.914 466.754 748.215 460.028 763.436C457.152 769.943 455.562 770.348 454.385 777.977C453.875 781.28 455.089 783.243 455.146 787.54C455.17 789.31 454.886 790.102 453.282 796.027C452.031 799.315 451.179 802.741 450.746 806.233C450.121 812.252 451.507 818.309 454.686 823.458C456.832 826.922 459.456 831.157 464.18 832.112Z" fill="#295F4B"></path> <path d="M480.682 757.319L470.329 798.279L460.259 839.303C456.938 852.987 453.132 866.56 450.468 880.39C447.769 894.212 445.299 908.085 443.771 922.169L444.334 922.296C448.958 908.905 452.64 895.302 456.092 881.649C459.581 868.004 461.925 854.103 464.757 840.311L473.14 798.909L481.243 757.445L480.682 757.319Z" fill="#F5E1B4"></path> <path d="M336.368 808.301C346.433 803.705 347.879 789.272 348.21 785.94C348.804 781.019 348.263 776.027 346.631 771.347C344.486 765.438 342.12 764.94 341.066 759.924C339.877 754.263 342.239 751.789 342.951 744.873C343.399 738.821 342.535 732.744 340.417 727.058C337.72 717.589 332.311 709.116 324.856 702.685C295.211 678.414 278.3 665.145 278.3 665.145C278.3 665.145 264.277 702.315 269.621 727.159C271.906 737.781 270.304 739.708 275.694 750.192C278.027 754.73 281.289 756.067 285.215 761.326C286.832 763.492 287.191 764.726 290.525 773.487C291.929 778.672 293.951 783.67 296.548 788.373C301.176 796.372 308.323 802.614 316.872 806.124C322.632 808.479 329.673 811.359 336.368 808.301Z" fill="#79A592"></path> <path d="M289.793 701.009L314.308 760.673L339.088 820.223C347.383 840.059 355.219 860.091 364.132 879.659C373.01 899.242 382.105 918.732 392.085 937.839L392.614 937.61C385.547 917.245 377.592 897.263 369.422 877.374C361.286 857.471 352.073 838.032 343.32 818.395L316.953 759.531L290.322 700.78L289.793 701.009Z" fill="#F5E1B4"></path> <path d="M330.918 854.242C336.633 849.255 334.763 839.49 334.33 837.235C333.758 833.886 332.428 830.711 330.441 827.955C327.877 824.492 326.225 824.626 324.552 821.537C322.664 818.049 323.733 815.962 322.85 811.279C321.961 807.215 320.206 803.391 317.704 800.069C314.081 794.374 308.871 789.864 302.716 787.095C278.495 776.939 264.791 771.525 264.791 771.525C264.791 771.525 262.84 798.688 271.206 813.968C274.783 820.501 274.107 822.081 279.697 827.916C282.117 830.442 284.521 830.682 288.128 833.371C289.614 834.478 290.091 835.219 293.993 840.324C295.929 843.457 298.235 846.345 300.86 848.928C305.464 853.28 311.379 855.985 317.682 856.62C321.927 857.043 327.116 857.559 330.918 854.242Z" fill="#F5E1B4"></path> <path d="M279.283 792.902L306.772 827.548L334.48 862.009C343.746 873.471 352.63 885.254 362.411 896.285C372.164 907.339 382.098 918.243 392.772 928.526L393.214 928.156C384.973 915.836 375.992 904.136 366.83 892.586C357.697 881.013 347.666 870.191 338.016 859.05L308.981 825.699L279.725 792.532L279.283 792.902Z" fill="#79A592"></path> <path d="M1118.82 910.654H282.713C273.759 910.654 266.5 917.913 266.5 926.867C266.5 935.821 273.759 943.08 282.713 943.08H1118.82C1127.78 943.08 1135.04 935.821 1135.04 926.867C1135.04 917.913 1127.78 910.654 1118.82 910.654Z" fill="#DCDEEB"></path> <path d="M815.318 314.645V905.154H443.391V314.645C443.391 265.325 462.983 218.024 497.858 183.149C532.733 148.274 580.033 128.682 629.354 128.682H629.354C653.776 128.682 677.957 133.492 700.52 142.837C723.082 152.183 743.582 165.881 760.851 183.149C778.119 200.418 791.817 220.918 801.162 243.48C810.508 266.042 815.318 290.224 815.318 314.645Z" fill="#DCDEEB" stroke="white" stroke-width="11"></path> <path d="M634.248 668.34C651.593 676.432 665.022 680.017 674.534 681.672C678.266 682.315 686.472 683.603 686.751 687.004C686.937 689.395 682.929 691.878 680.224 693.347C652.433 708.702 594.146 722.218 594.146 722.218C550.408 732.331 552.459 734.079 531.197 737.204C517.301 739.227 509.001 740.882 492.495 744.284C473.283 748.237 462.932 751.087 456.59 758.811C452.021 764.42 449.969 771.13 449.969 771.13C449.036 774.257 448.943 776.28 446.705 786.945C445.866 790.989 445.026 794.391 442.322 795.586C442.135 795.679 440.177 796.507 438.778 795.772C435.514 794.024 438.498 784.553 440.177 781.061C440.363 780.693 440.643 780.14 440.55 780.14C440.363 780.049 436.819 785.197 434.115 790.898C431.317 796.69 432.53 796.69 430.571 799.908C426.468 806.712 418.074 811.769 415.65 810.481C414.811 810.022 414.811 808.827 414.811 808.183C414.997 800.092 422.644 789.887 425.069 786.392C435.327 771.958 430.851 771.039 438.964 762.671C445.679 755.684 453.14 751.915 459.575 748.788C470.206 743.456 479.065 741.342 487.179 739.411C504.618 735.181 521.964 730.768 539.31 726.631C562.626 721.207 569.806 719.552 586.499 715.69C592.933 714.22 599.461 712.748 605.896 711.369C605.896 711.369 613.731 709.714 643.2 699.325C649.914 696.935 658.309 693.9 658.216 691.141C658.121 689.578 655.23 688.66 653.365 688.108C635.46 683.051 619.047 685.165 617.741 681.763C617.182 680.108 619.699 676.706 634.248 668.34Z" fill="#F5E1B4"></path> <path d="M634.248 668.34C651.593 676.432 665.022 680.017 674.534 681.672C678.266 682.315 686.472 683.603 686.751 687.004C686.937 689.395 682.929 691.878 680.224 693.347C652.433 708.702 594.146 722.218 594.146 722.218C550.408 732.331 552.459 734.079 531.197 737.204C517.301 739.227 509.001 740.882 492.495 744.284C473.283 748.237 462.932 751.087 456.59 758.811C452.021 764.42 449.969 771.13 449.969 771.13C449.036 774.257 448.943 776.28 446.705 786.945C445.866 790.989 445.026 794.391 442.322 795.586C442.135 795.679 440.177 796.507 438.778 795.772C435.514 794.024 438.498 784.553 440.177 781.061C440.363 780.693 440.643 780.14 440.55 780.14C440.363 780.049 436.819 785.197 434.115 790.898C431.317 796.69 432.53 796.69 430.571 799.908C426.468 806.712 418.074 811.769 415.65 810.481C414.811 810.022 414.811 808.827 414.811 808.183C414.997 800.092 422.644 789.887 425.069 786.392C435.327 771.958 430.851 771.039 438.964 762.671C445.679 755.684 453.14 751.915 459.575 748.788C470.206 743.456 479.065 741.342 487.179 739.411C504.618 735.181 521.964 730.768 539.31 726.631C562.626 721.207 569.806 719.552 586.499 715.69C592.933 714.22 599.461 712.748 605.896 711.369C605.896 711.369 613.731 709.714 643.2 699.325C649.914 696.935 658.309 693.9 658.216 691.141C658.121 689.578 655.23 688.66 653.365 688.108C635.46 683.051 619.047 685.165 617.741 681.763C617.182 680.108 619.699 676.706 634.248 668.34Z" fill="#F5E1B4"></path> <path d="M596.105 668.985C610.932 729.022 620.258 767.913 620.725 773.153C620.818 773.797 621.004 776.648 622.59 779.866C623.895 782.531 625.014 783.175 626.786 785.565C627.533 786.576 631.637 792.185 631.263 797.793C630.982 801.931 628.372 804.782 627.067 806.345C626.414 807.172 622.404 815.631 614.476 832.456C608.415 845.235 605.524 854.705 598.715 873.829C588.736 901.964 583.421 915.938 580.158 923.569C574.561 936.625 570.179 950.141 564.023 963.012C563.744 963.564 561.785 970.644 557.962 984.711C557.495 986.457 556.75 989.491 557.962 992.525C559.267 995.743 562.344 997.766 564.116 999.052C565.795 1000.16 567.474 1000.89 571.484 1003.56C573.163 1004.66 574.19 1005.4 574.095 1006.13C574.095 1006.32 573.816 1007.42 569.713 1008.06C563.557 1009.08 558.895 1007.6 554.697 1006.87C549.755 1005.95 546.211 1006.13 540.336 1006.5C532.782 1006.87 526.814 1009.17 515.156 1013.58C511.053 1015.14 502.473 1018.54 492.401 1021.3C492.401 1021.3 484.941 1023.33 479.998 1020.48C479.625 1020.29 478.319 1019.46 478.413 1018.73C478.506 1017.81 480.557 1017.72 483.169 1015.79C484.008 1015.24 485.407 1014.22 485.127 1013.58C484.941 1012.94 482.889 1013.21 478.319 1013.76C471.791 1014.59 468.807 1015.05 465.17 1014.13C463.864 1013.76 462.186 1013.31 461.999 1012.38C461.719 1010.73 466.103 1008.62 467.595 1007.88C477.946 1002.91 491.562 1002.09 499.396 1001.35C513.478 1000.16 520.472 999.513 526.347 997.031C530.171 995.376 538.284 991.33 545.092 983.055C550.408 976.528 552.46 970.367 554.232 965.403C558.895 952.071 565.516 939.384 570.458 926.143C592.001 868.589 591.628 870.151 592.187 867.854C592.187 867.854 598.81 842.661 606.643 823.63C608.974 817.929 610.001 816.273 610.001 816.273C611.399 813.883 612.332 812.872 612.985 810.574C613.357 809.286 613.916 807.263 613.357 804.873C612.704 802.115 611.12 802.115 610.373 799.541C609.72 797.242 610.56 796.047 611.399 791.634C611.399 791.634 612.052 787.955 612.237 783.542C612.425 777.75 610.56 773.337 609.627 770.947C606.083 761.569 604.685 751.548 601.794 741.985C596.664 724.425 593.587 710.542 589.203 690.958C586.965 680.845 585.287 672.57 584.168 667.146C588.272 667.88 592.187 668.432 596.105 668.985Z" fill="#F5E1B4"></path> <path d="M474.776 510.292C475.429 512.774 476.734 515.257 476.734 515.257C477.76 517.003 478.506 517.831 478.693 518.014C479.718 519.026 480.744 519.577 481.49 520.037C484.102 521.509 486.526 521.876 487.645 521.969C488.112 522.06 489.977 522.428 492.588 521.784C496.505 520.772 499.489 519.577 501.727 518.566C503.872 517.647 505.085 517.096 509.654 514.98C514.317 512.774 514.877 512.59 516.276 511.946C527.56 506.707 547.517 496.776 558.801 492.18C576.801 484.825 592.188 482.802 598.809 481.974C611.307 480.41 643.293 476.734 677.706 493.191C714.637 510.66 732.169 540.724 738.79 554.147C756.976 591.291 755.111 633.032 745.318 636.894C740.841 638.642 726.666 635.699 726.013 635.332C725.268 634.964 725.082 634.871 724.615 634.688C724.428 634.597 724.242 634.597 724.056 634.504H723.963C711.186 643.239 692.815 654.639 669.312 665.028C648.983 674.038 622.124 686.083 584.915 689.668C567.568 691.323 534.088 694.174 493.987 681.853C470.672 674.682 449.969 668.063 431.411 648.48C407.443 623.195 397.558 586.971 402.967 556.263C405.298 542.84 409.588 533.277 414.344 523.255C426.748 496.684 437.939 490.984 461.067 460.093C473.377 443.635 485.78 426.901 496.132 402.72C504.618 382.953 511.986 365.76 509.841 342.591C509.281 336.063 505.085 298.368 480.744 287.427C480.185 287.151 479.625 286.967 479.345 286.783C478.506 286.599 477.574 286.783 476.734 287.335C472.538 290.185 465.45 294.046 455.844 295.426C448.29 296.529 441.949 295.517 437.846 294.598C435.794 293.587 433.276 291.932 430.758 289.541C418.634 277.681 417.235 253.316 428.52 238.146C442.881 218.931 472.911 220.585 489.604 229.044C504.059 236.307 513.665 251.294 517.395 257.178C521.498 263.614 524.669 270.509 525.602 272.44C525.602 272.44 530.358 282.738 533.528 294.23C544.347 333.673 536.606 369.806 536.606 369.806C526.161 418.719 482.796 481.331 476.454 496.316C473.657 503.029 474.496 509.097 474.776 510.292ZM732.448 637.631C732.355 637.631 732.355 637.631 732.355 637.631C732.355 637.722 732.448 637.631 732.448 637.631Z" fill="#FFA7B7"></path> <path d="M476.64 509.187C477.479 512.222 478.878 515.532 481.583 517.372C484.287 519.209 488.017 520.313 491.375 519.946C498.183 519.118 505.177 514.979 511.332 512.131C524.109 506.246 536.698 499.994 549.475 494.109C563.93 487.582 578.757 482.709 594.518 480.411C605.43 478.756 616.435 477.928 627.438 478.388C662.225 480.042 694.957 494.937 718.365 520.497C736.738 540.632 748.582 565.823 752.871 592.578C754.083 600.026 754.643 607.657 754.364 615.195C754.176 620.62 753.524 626.137 751.659 631.285C750.447 634.596 748.394 638.181 744.757 639.193C742.147 639.928 739.256 639.653 736.551 639.469C733.659 639.193 730.768 638.733 727.877 638.181C726.105 637.814 724.8 637.263 723.121 636.71C723.588 636.619 724.054 636.526 724.614 636.435C705.962 649.214 686.191 659.787 665.488 668.982C646.371 677.441 626.879 684.703 606.269 688.749C587.057 692.611 566.914 694.082 547.237 693.255C522.71 692.243 499.022 686.635 475.987 678.544C465.636 674.865 455.47 670.452 446.424 664.385C436.819 657.95 428.332 649.674 421.524 640.388C408.375 622.552 400.728 600.761 399.702 578.695C399.236 567.479 400.448 556.353 403.619 545.597C406.603 535.392 411.079 525.461 416.115 515.991C424.695 499.81 437.472 486.938 449.036 472.871C463.864 454.851 478.132 435.634 488.67 414.856C494.266 403.824 499.302 392.147 503.219 380.47C507.135 368.794 509.094 356.657 508.068 344.337C507.042 332.109 504.058 319.421 498.276 308.48C494.359 301.125 488.95 294.505 481.489 290.46C480.743 290.092 479.718 289.448 478.878 289.264C477.573 288.989 476.827 289.724 475.801 290.368C473.842 291.563 471.791 292.666 469.646 293.586C464.33 295.976 458.641 297.447 452.859 297.999C449.782 298.275 446.704 298.183 443.72 297.907C441.482 297.723 438.777 297.539 436.725 296.62C432.249 294.781 428.332 290.735 425.628 286.782C420.219 278.783 418.447 268.761 419.286 259.2C420.125 249.454 424.042 239.8 431.13 232.904C437.658 226.469 446.518 222.883 455.564 221.596C464.516 220.308 473.935 221.136 482.515 223.802C492.028 226.652 500.048 232.169 506.762 239.248C518.14 251.201 526.067 266.095 531.662 281.357C539.962 303.975 542.48 328.339 540.802 352.336C539.776 366.219 536.698 379.183 531.942 392.33C524.855 412.099 515.249 430.946 505.084 449.334C497.25 463.494 488.67 477.193 480.93 491.351C477.946 496.685 475.241 502.935 476.64 509.187C477.106 511.303 473.562 514.061 472.91 511.487C470.858 502.384 475.334 494.018 479.624 486.294C484.847 477.1 490.256 467.998 495.571 458.897C509.467 434.715 522.896 409.708 531.196 383.045C537.631 362.45 538.564 340.476 536.139 319.053C533.155 292.942 523.735 266.279 506.483 245.96C501.82 240.536 496.504 235.571 490.162 231.985C485.127 229.135 479.438 227.296 473.749 226.285C461.812 224.078 448.289 224.997 437.845 231.801C426.28 239.34 421.618 253.499 422.923 266.647C423.576 273.083 425.628 279.519 429.545 284.667C431.689 287.518 434.394 289.908 437.472 291.747C440.362 293.402 444.466 293.586 447.73 293.678C455.75 293.953 463.864 292.207 471.044 288.529C473.469 287.242 476.174 284.759 478.971 284.575C481.489 284.484 484.474 286.598 486.432 287.885C495.758 293.953 501.726 304.067 505.55 314.18C508.534 322.179 510.4 330.638 511.425 339.097C513.011 352.52 511.332 365.943 507.229 378.815C504.804 386.446 501.726 393.802 498.556 401.157C495.198 409.064 491.468 416.879 487.178 424.418C479.718 437.657 470.765 449.887 461.625 462.022C453.046 473.331 443.627 483.904 434.487 494.846C426.747 504.039 420.405 513.968 415.369 524.91C408.841 538.977 403.992 553.321 403.432 568.857C402.966 583.659 405.67 598.463 411.079 612.254C416.768 626.597 425.441 639.928 436.725 650.593C447.916 661.167 461.532 668.246 475.987 673.486C491.748 679.187 507.975 683.877 524.482 686.451C538.937 688.658 553.484 689.393 568.126 688.658C581.463 688.106 594.799 686.726 607.762 684.061C622.31 681.118 636.578 676.521 650.287 671.005C663.997 665.488 677.519 659.419 690.575 652.525C697.383 648.94 704.097 645.078 710.625 640.939C713.423 639.193 716.127 637.446 718.832 635.698C720.884 634.319 723.309 631.654 725.826 632.757C729.651 634.319 734.126 634.78 738.229 635.147C740.282 635.331 743.078 635.698 745.038 634.872C745.784 634.596 746.436 633.768 747.089 632.666C749.141 629.079 749.701 624.575 750.166 620.529C750.82 614.186 750.632 607.841 749.98 601.497C747.462 576.398 737.856 552.216 722.376 532.265C703.631 507.992 676.586 490.984 646.183 485.008C623.056 480.502 598.155 482.157 575.494 488.501C560.853 492.546 547.143 499.259 533.528 505.786C523.176 510.75 512.824 515.807 502.286 520.404C496.691 522.887 490.815 525.186 484.66 523.622C478.319 522.059 474.588 517.462 472.91 511.487C472.35 509.464 475.987 506.613 476.64 509.187Z" fill="#FF95AB"></path> <path d="M731.608 639.745C731.42 639.654 731.234 639.561 731.048 639.561C732.073 638.917 733.192 638.182 734.218 637.538C734.218 637.538 734.218 637.538 734.218 637.631C733.006 637.538 731.794 637.447 730.581 637.354C730.674 637.171 730.767 636.987 730.86 636.803C731.141 636.436 731.141 636.343 731.515 636.159C731.794 635.884 731.794 635.884 732.26 635.699C732.446 635.699 732.632 635.608 732.82 635.608C733.099 635.608 733.287 635.608 733.473 635.699C733.659 635.792 733.845 635.884 734.032 636.159C734.218 636.343 734.311 636.619 734.311 636.803C734.404 637.08 734.404 637.354 734.311 637.631C734.218 637.814 734.218 637.998 734.125 638.182C733.939 638.549 733.752 638.917 733.473 639.193C733.287 639.284 733.192 639.47 733.006 639.561C732.727 639.745 732.353 639.837 731.98 639.928C731.98 639.928 731.98 639.928 731.887 639.928C732.073 639.928 732.26 639.837 732.353 639.837C732.539 639.745 732.632 639.654 732.82 639.561C733.006 639.47 733.099 639.284 733.287 639.193C733.38 639.01 733.566 638.917 733.659 638.733C733.752 638.549 733.845 638.366 733.939 638.182C733.845 638.458 733.659 638.733 733.473 638.917C733.287 639.193 733.099 639.377 732.82 639.561C732.632 639.654 732.539 639.745 732.353 639.837C732.073 639.928 731.887 639.928 731.608 639.928C731.42 639.928 731.327 639.928 731.141 639.837C730.955 639.745 730.767 639.654 730.581 639.377C730.489 639.193 730.396 639.101 730.396 638.917C730.301 638.549 730.301 638.275 730.301 637.905C730.301 637.905 730.301 637.905 730.301 637.814C730.396 637.447 730.489 637.08 730.767 636.71C730.955 636.343 731.234 636.068 731.608 635.884C731.887 635.699 732.26 635.608 732.632 635.515C733.006 635.515 733.287 635.515 733.566 635.699C733.38 635.608 733.287 635.608 733.099 635.515H733.192C733.473 635.608 733.659 635.699 733.752 635.884C733.939 636.068 734.032 636.252 734.125 636.436C734.218 636.71 734.218 636.894 734.218 637.171C734.218 637.447 734.125 637.722 734.032 637.998C733.939 638.182 733.845 638.366 733.752 638.549C733.566 638.917 733.287 639.193 732.913 639.377C732.727 639.47 732.632 639.561 732.446 639.654C732.26 639.837 731.98 639.837 731.608 639.745Z" fill="#FF95AB"></path> <path d="M458.451 253.501C458.078 252.674 456.959 250.743 454.627 249.456C453.788 248.996 451.27 247.617 448.379 248.537C445.208 249.548 443.996 252.398 443.81 252.858C442.504 256.26 444.183 259.202 444.369 259.569C444.369 258.65 444.462 256.26 446.234 254.053C446.701 253.501 447.726 252.306 449.405 251.755C450.711 251.295 451.83 251.479 453.322 251.755C454.627 252.122 456.399 252.582 458.451 253.501Z" fill="#333333"></path> <path d="M439.988 270.598C441.946 270.414 443.811 271.793 443.905 273.724C443.905 274.276 443.998 274.827 443.998 275.379C444.184 278.965 443.998 281.907 443.811 283.286C443.252 288.343 440.547 297.904 433.087 304.064C431.874 305.076 431.874 304.8 424.134 310.408C420.683 312.891 419.005 314.086 418.259 314.729C412.29 319.97 408.653 325.486 406.415 328.98C402.685 334.772 398.768 342.495 397.555 344.978C394.664 350.862 392.613 355.827 388.416 356.838C385.525 357.574 383.193 356.47 383.193 356.47C381.235 355.551 380.302 354.08 380.023 353.62C379.37 352.609 379.277 351.781 378.81 349.759C378.437 347.92 377.971 346.173 377.598 344.334C376.199 336.519 376.386 337.898 375.919 335.14C374.987 329.44 374.52 326.498 374.334 323.464C374.147 319.418 373.961 316.66 374.893 312.983C375.733 309.305 377.225 306.547 378.437 304.34C378.81 303.697 380.116 301.214 382.354 298.088C382.354 298.088 385.805 293.399 390.095 289.446C392.799 286.963 404.736 277.953 426.559 272.988C430.009 272.161 434.486 271.242 439.988 270.598Z" fill="white" stroke="#EDCCCA" stroke-width="1.17853" stroke-miterlimit="10"></path> <path d="M442.132 272.622C438.122 278.506 433.366 283.747 427.864 287.976C422.361 292.39 416.113 294.872 409.212 297.079C405.761 298.274 402.124 300.021 399.42 302.687C396.622 305.353 394.664 308.663 393.451 312.249C391.027 319.329 391.4 326.684 392.612 333.58C392.705 326.5 393.358 319.421 395.969 313.169C397.368 310.134 399.14 307.192 401.658 305.078C404.083 302.871 407.067 301.4 410.331 300.297C413.595 299.101 417.139 297.998 420.496 296.343C423.76 294.688 426.838 292.482 429.542 290.091C435.231 285.218 439.334 279.15 442.132 272.622Z" fill="#EDCCCA"></path> <path d="M411.151 325.212C410.405 326.315 409.463 327.898 408.344 329.644C407.505 330.932 406.654 332.105 405.628 333.852C404.416 335.967 402.594 339.318 400.356 343.639C399.797 344.743 399.1 346.186 398.074 348.117C395.836 352.622 395.303 353.794 394.651 354.53C393.281 356.375 391.775 357.572 389.63 358.4C386.459 359.595 383.398 358.587 382.372 358.127C381.44 357.668 379.952 357.105 378.926 355.542C378.74 355.266 378.496 354.94 378.31 354.665C377.471 353.01 377.154 351.893 376.781 349.962C376.315 347.388 376.287 347.869 375.914 345.755C375.541 344.008 375.294 343.003 374.921 340.98C374.734 339.877 374.654 339.287 374.467 338.644C374.374 338.276 374.258 337.74 374.258 337.372C373.326 332.04 373.085 329.655 372.899 328.644C372.433 325.61 371.268 319.884 372.666 313.724C373.226 311.058 374.251 308.566 374.903 307.095C376.582 302.957 378.438 300.025 380.024 297.91C383.568 297.267 389.255 296.986 391.866 299.652C395.224 303.146 391.866 308.847 394.198 314.639C395.597 318.225 399.867 322.638 411.151 325.212Z" fill="#333333"></path> <path d="M409.775 251.385C412.293 250.098 415.651 251.477 418.075 252.488C420.687 253.591 423.205 254.879 425.35 256.718C425.909 257.177 426.096 257.453 426.096 258.097C426.096 258.74 426.096 259.292 426.002 259.936C425.909 261.315 425.723 262.694 425.443 264.073C425.163 265.636 424.697 267.199 424.23 268.67C423.671 270.325 423.018 272.164 421.712 273.359C420.127 274.83 417.702 274.647 415.837 273.819C411.454 272.072 409.309 266.647 408.283 262.51C407.817 260.671 407.63 258.832 407.537 256.993C407.537 255.155 407.724 252.764 409.402 251.753C410.335 251.109 411.734 251.477 412.76 251.845C413.133 251.937 415.091 253.04 414.158 253.591C412.293 254.787 412.48 257.821 412.666 259.752C412.946 262.51 413.692 265.268 414.905 267.843C415.557 269.13 416.21 270.417 417.236 271.52C417.329 271.612 417.609 271.888 417.609 271.888C417.702 271.98 417.796 272.072 417.889 272.164C417.702 271.98 417.796 272.164 417.889 272.164C417.702 272.072 417.516 271.98 417.329 271.98C417.05 271.888 416.49 271.98 416.21 271.888C416.024 271.796 416.024 272.164 416.21 271.888C416.303 271.796 416.303 271.888 416.397 271.796C418.262 270.693 418.915 267.659 419.474 265.82C420.314 262.786 420.873 259.66 420.873 256.534C421.06 256.81 421.246 257.177 421.433 257.453C420.127 256.35 418.728 255.43 417.143 254.787C416.21 254.327 415.278 253.959 414.345 253.684C414.345 253.684 414.158 253.591 413.972 253.591C414.438 253.5 413.786 253.775 413.786 253.775C412.76 254.327 411.081 253.775 410.148 253.224C409.589 252.764 408.75 251.937 409.775 251.385Z" fill="#333333"></path> <path d="M427.582 259.752C425.904 259.844 424.318 259.569 422.733 258.925C421.987 258.557 421.241 257.822 421.334 256.994C421.427 256.167 422.267 255.615 423.013 255.523C424.691 255.339 426.37 255.155 428.049 255.064C428.328 255.064 428.515 254.972 428.795 254.972C429.354 254.88 429.914 254.972 430.473 255.155C430.94 255.339 431.499 255.615 431.779 256.075C431.965 256.351 432.152 256.718 432.245 256.994C432.338 257.454 431.965 258.006 431.593 258.281C430.473 259.109 428.981 259.569 427.582 259.752C426.93 259.844 426.184 259.752 425.531 259.385C425.064 259.109 424.412 258.649 424.225 258.19C424.039 257.73 424.039 257.178 424.318 256.718C424.691 256.259 425.251 255.983 425.81 255.983C426.09 255.983 426.37 255.891 426.65 255.891C426.463 255.983 426.277 255.983 426.09 256.075C426.557 255.983 426.93 255.799 427.396 255.615C427.209 255.707 427.023 255.799 426.93 255.891C427.209 255.707 427.489 255.615 427.676 255.431C428.608 256.535 429.541 257.638 430.473 258.741C428.795 258.925 427.116 259.109 425.437 259.201C425.158 259.201 424.971 259.293 424.691 259.293C424.785 258.19 424.878 256.994 424.971 255.891C425.158 255.983 425.251 255.983 425.437 256.075C425.251 255.983 424.971 255.891 424.785 255.799C425.158 255.891 425.437 255.983 425.81 256.075C425.624 256.075 425.344 255.983 425.158 255.983C425.531 256.075 425.81 256.075 426.184 256.075C425.997 256.075 425.717 256.075 425.531 256.075C425.624 256.075 425.717 256.075 425.81 256.075C426.463 255.983 427.209 256.075 427.862 256.443C428.328 256.718 428.981 257.178 429.168 257.638C429.354 258.098 429.354 258.649 429.075 259.109C428.702 259.385 428.142 259.66 427.582 259.752Z" fill="#333333"></path> <path d="M450.153 237.598C458.266 234.931 466.66 234.012 475.146 234.748C475.892 234.84 478.037 235.391 478.037 236.403C478.317 251.573 469.737 269.225 453.137 271.891C444.464 273.271 434.299 269.593 429.263 262.238C425.067 256.262 427.864 250.193 433.087 246.056C438.123 242.195 444.091 239.712 450.153 237.598C451.272 237.23 452.764 237.414 453.79 238.057C454.35 238.425 455.469 239.62 454.256 239.988C449.966 241.459 445.677 243.206 441.76 245.505C437.563 247.987 432.061 251.94 432.247 257.365C432.527 265.088 442.413 270.237 449.314 269.409C456.028 268.582 462.09 264.444 465.82 258.928C470.483 252.124 473.001 244.034 472.908 235.851C473.841 236.403 474.866 236.954 475.799 237.506C468.525 236.862 461.158 237.69 454.163 240.08C452.951 240.448 451.552 240.264 450.526 239.62C450.06 239.253 448.941 238.057 450.153 237.598Z" fill="#333333"></path> <path d="M484.47 562.421C486.988 558.191 490.998 554.699 495.288 552.307C504.148 547.342 515.805 547.986 524.758 552.399C527.742 553.871 530.633 555.71 533.058 558.008C534.457 559.387 532.032 560.03 531.006 560.03C529.047 560.123 526.343 559.754 524.851 558.284C524.291 557.733 523.732 557.273 523.172 556.812C522.986 556.629 522.706 556.445 522.519 556.261C522.146 555.894 522.613 556.352 522.706 556.352C522.519 556.261 522.426 556.169 522.24 556.078C521.587 555.617 520.934 555.25 520.281 554.882C519.908 554.699 519.535 554.515 519.255 554.329C518.789 554.055 519.908 554.606 519.349 554.422C519.162 554.329 518.882 554.238 518.696 554.146C518.323 553.962 517.95 553.871 517.577 553.687C517.483 553.687 516.551 553.318 517.204 553.504C517.857 553.778 516.831 553.411 516.644 553.318C516.364 553.227 514.779 552.676 516.085 553.134C515.618 552.951 515.152 552.951 514.686 552.86C514.592 552.86 513.473 552.767 514.219 552.767C514.872 552.86 514.126 552.767 513.94 552.767C513.66 552.767 513.287 552.767 513.007 552.676C512.074 552.583 513.66 552.583 512.634 552.676C512.168 552.676 511.702 552.676 511.235 552.767C510.116 552.86 511.702 552.676 511.049 552.767C510.862 552.767 510.582 552.86 510.396 552.86C509.93 552.951 509.463 553.043 508.997 553.134C508.81 553.134 508.624 553.227 508.344 553.318C507.691 553.504 508.531 553.227 507.878 553.411C506.106 553.962 504.521 554.699 502.842 555.617C500.604 556.905 498.179 558.928 496.314 561.042C495.195 562.33 494.076 563.616 493.236 565.088C492.956 565.639 491.371 565.731 490.905 565.731C489.786 565.822 488.48 565.639 487.361 565.271C486.242 564.72 483.631 563.892 484.47 562.421Z" fill="#FF95AB"></path> <path d="M521.03 543.389C527.465 538.332 535.019 534.84 543.039 533.092C554.51 530.61 566.633 531.896 577.545 536.035C580.902 537.321 584.072 538.884 587.149 540.723C587.616 540.999 588.362 541.55 588.269 542.194C588.176 542.838 587.149 543.113 586.683 543.206C584.632 543.573 582.02 543.113 580.155 542.011C579.223 541.459 578.383 540.906 577.452 540.448C577.171 540.264 576.892 540.171 576.518 539.988C575.587 539.527 577.171 540.264 576.239 539.804C575.492 539.437 574.746 539.069 574.001 538.793C573.16 538.425 572.415 538.149 571.576 537.872C571.296 537.781 570.736 537.414 571.669 537.872C571.483 537.781 571.296 537.781 571.11 537.688C570.55 537.505 569.897 537.321 569.338 537.137C568.871 537.046 568.404 536.862 567.938 536.77C567.659 536.677 567.38 536.677 567.099 536.586C566.261 536.402 567.192 536.586 567.285 536.677C566.166 536.219 564.675 536.219 563.463 535.942C563.277 535.942 562.529 535.758 563.555 535.942C563.277 535.851 562.903 535.851 562.622 535.851C562.063 535.758 561.505 535.758 560.945 535.667C560.291 535.667 559.638 535.575 558.985 535.575C559.731 535.575 559.078 535.575 558.892 535.575C558.426 535.575 557.959 535.575 557.494 535.575C554.696 535.667 552.831 535.851 550.126 536.402C545.836 537.23 541.733 538.7 537.63 540.723C534.645 542.194 532.314 543.757 529.516 545.872C528.024 547.068 525.319 546.607 523.641 546.056C523.268 545.872 519.631 544.492 521.03 543.389Z" fill="#FF95AB"></path> <path d="M573.906 548.815C581.646 542.746 591.158 538.794 601.043 537.689C607.759 536.954 614.566 537.138 621.188 537.966C626.597 538.701 632.379 539.896 637.135 542.655C638.721 543.667 640.679 545.046 641.146 546.976C641.891 550.194 638.814 552.952 636.483 554.7C634.99 555.802 632.286 555.435 630.607 554.883C630.048 554.7 626.316 553.321 627.809 552.217C629.581 550.838 632.379 548.815 632.098 546.241C632.098 546.425 632.005 545.873 631.912 545.781C631.82 545.504 631.632 545.32 631.539 545.046C631.353 544.769 632.005 545.413 631.539 545.046C631.446 544.953 631.26 544.769 631.167 544.678C631.074 544.586 630.886 544.402 630.7 544.309C630.327 543.851 631.26 544.678 630.7 544.309C630.327 544.125 630.048 543.851 629.674 543.667C629.207 543.39 629.302 543.758 629.86 543.758C629.674 543.758 629.302 543.483 629.207 543.483C628.835 543.298 628.369 543.114 627.995 543.023C627.064 542.655 628.928 543.298 627.995 543.023C627.716 542.93 627.342 542.839 627.064 542.746C626.504 542.563 626.037 542.472 625.478 542.288C624.451 542.011 626.597 542.472 625.478 542.288C625.292 542.288 625.104 542.195 624.825 542.195C623.52 541.919 622.213 541.735 620.908 541.551C619.695 541.368 621.934 541.644 620.722 541.551C620.536 541.551 620.255 541.46 620.069 541.46C619.323 541.368 618.669 541.368 617.923 541.277C616.618 541.184 615.313 541.091 614.006 541.091C615.032 541.091 613.82 541.091 613.727 541.091C613.353 541.091 612.982 541.091 612.608 541.091C612.048 541.091 611.396 541.091 610.836 541.091C610.276 541.091 609.624 541.184 609.064 541.184C608.69 541.184 608.319 541.184 608.038 541.277C607.945 541.277 606.733 541.368 607.106 541.368C601.791 541.919 597.128 543.299 592.277 545.506C588.547 547.16 585.749 548.908 582.579 551.389C581.086 552.584 578.383 552.124 576.704 551.573C576.144 551.298 572.507 549.917 573.906 548.815Z" fill="#FF95AB"></path> <path d="M620.347 558.468C624.824 554.33 630.326 551.021 636.108 549.182C645.527 546.24 655.599 546.699 665.018 549.549C669.4 550.837 673.598 552.676 677.328 555.341C680.033 557.364 682.458 560.031 683.203 563.433C684.415 569.225 681.152 574.833 677.421 578.971C670.893 586.326 661.474 591.016 652.148 593.866C650.097 594.51 647.671 594.234 645.713 593.406C644.968 593.038 642.45 591.383 644.501 590.739C652.429 588.349 660.169 584.672 666.23 579.062C670.24 575.386 673.97 570.604 674.251 565.088C674.251 564.537 674.251 563.984 674.251 563.433C674.158 562.881 674.158 562.698 673.97 561.961C673.784 561.319 673.504 560.675 673.132 560.031C672.758 559.387 672.291 558.652 672.012 558.376C671.546 557.824 670.986 557.273 670.426 556.813C670.148 556.537 669.774 556.262 669.495 556.078C669.028 555.711 670.147 556.446 669.307 555.985C669.028 555.802 668.842 555.711 668.562 555.525C667.909 555.067 667.256 554.699 666.511 554.33C665.67 553.872 666.976 554.514 666.416 554.33C666.137 554.239 665.951 554.146 665.763 554.055C665.297 553.871 664.832 553.688 664.365 553.411C663.992 553.228 663.62 553.135 663.153 552.951C662.407 552.676 663.246 552.951 663.339 553.044C663.153 552.951 662.872 552.86 662.593 552.767C661.66 552.491 660.636 552.216 659.702 551.94C659.422 551.849 658.864 551.849 659.981 552.032C659.795 552.032 659.609 551.94 659.329 551.94C658.864 551.849 658.397 551.756 657.93 551.665C657.464 551.572 656.997 551.481 656.532 551.481C656.437 551.481 655.973 551.481 655.973 551.388C656.625 551.481 656.811 551.481 656.437 551.481C656.251 551.481 656.158 551.481 655.973 551.388C655.132 551.296 654.201 551.205 653.36 551.205C653.267 551.205 652.801 551.205 652.801 551.205C652.801 551.205 654.106 551.205 652.988 551.205C652.334 551.205 651.681 551.205 651.029 551.296C650.75 551.296 650.562 551.296 650.283 551.388C650.376 551.388 649.164 551.481 649.631 551.481C650.097 551.388 648.978 551.572 648.978 551.572C648.697 551.572 648.511 551.665 648.231 551.665C647.206 551.849 646.18 552.032 645.154 552.307C644.315 552.491 643.382 552.86 642.262 553.228C641.331 553.595 640.305 553.962 639.371 554.423C638.44 554.883 637.506 555.341 636.668 555.802C636.294 555.985 635.921 556.262 635.456 556.446C635.175 556.629 635.082 556.629 634.708 556.906C632.657 558.192 630.7 559.664 628.926 561.319C627.621 562.514 624.637 561.961 623.051 561.503C622.493 560.95 619.042 559.664 620.347 558.468Z" fill="#FF95AB"></path> <path d="M668.935 587.061C672.574 589.82 675.465 593.957 673.319 598.463C671.174 603.06 666.418 606.185 661.941 608.301C658.211 610.047 654.201 611.242 650.19 612.07C648.139 612.53 645.434 611.979 643.662 610.875C643.197 610.598 642.45 610.047 642.543 609.403C642.638 608.761 643.569 608.575 644.129 608.392C649.632 607.197 655.413 605.266 659.797 601.681C662.595 599.474 665.113 596.624 664.832 592.855C664.832 592.485 664.927 593.129 664.832 592.671C664.739 592.486 664.739 592.302 664.646 592.118C664.46 591.66 664.272 591.199 663.993 590.739C663.155 589.36 661.941 588.256 660.635 587.246C658.957 585.959 661.848 585.224 662.688 585.224C664.927 585.315 667.258 585.775 668.935 587.061Z" fill="#FF95AB"></path> <path d="M622.402 610.231C609.812 615.288 596.475 618.598 583.046 620.068C566.539 621.907 549.66 621.08 533.433 617.587C527.092 616.208 520.843 614.46 514.688 612.254C513.849 611.979 513.01 611.61 512.73 610.691C512.45 609.863 512.823 608.945 513.383 608.301C514.782 606.738 517.579 605.634 519.631 606.369C524.76 608.208 530.076 609.772 535.392 611.058C538.749 611.886 542.106 612.53 545.464 613.081C545.65 613.081 545.837 613.174 546.023 613.174C546.116 613.174 546.862 613.265 546.396 613.265C545.93 613.174 546.583 613.265 546.583 613.265C546.862 613.265 547.049 613.358 547.329 613.358C548.261 613.449 549.194 613.632 550.221 613.725C552.178 614 554.043 614.185 556.001 614.276C560.104 614.644 564.208 614.828 568.311 614.737C569.43 614.737 570.55 614.737 571.669 614.737C572.229 614.737 572.695 614.737 573.255 614.644C573.255 614.644 574.001 614.644 573.534 614.644C573.067 614.644 574.186 614.644 574.281 614.644C576.332 614.553 578.478 614.369 580.528 614.185C584.539 613.816 588.456 613.265 592.372 612.621C594.144 612.346 595.916 611.979 597.782 611.61C597.968 611.61 598.154 611.519 598.342 611.519C597.409 611.886 597.968 611.61 598.154 611.519C598.528 611.426 598.994 611.335 599.366 611.242C600.207 611.058 601.045 610.875 601.886 610.598C608.133 609.036 614.382 607.013 620.35 604.622C621.936 603.978 625.106 604.071 625.665 606.001C626.692 608.117 623.987 609.587 622.402 610.231Z" fill="#FF95AB"></path> <path d="M614.942 629.998C600.86 636.341 585.751 640.479 570.364 642.042C549.94 644.157 529.144 641.765 509.839 635.055C502.472 632.481 495.384 629.354 488.576 625.675C486.711 624.666 487.55 622.367 488.949 621.355C490.628 620.067 493.332 619.332 495.384 620.436C497.902 621.815 500.42 623.101 502.938 624.297C504.43 625.033 506.016 625.676 507.601 626.319C508.347 626.687 509.093 626.963 509.932 627.24C509.186 626.963 509.839 627.24 510.026 627.24C510.305 627.331 510.492 627.424 510.772 627.515C511.238 627.698 511.704 627.884 512.264 628.068C520.564 631.193 529.144 633.399 537.817 634.871C538.19 634.962 538.469 634.962 538.842 635.055C538.656 635.055 538.19 634.962 539.029 635.055C539.682 635.146 540.241 635.238 540.894 635.329C542.2 635.515 543.505 635.699 544.904 635.79C547.609 636.066 550.219 636.25 552.924 636.341C555.535 636.434 558.24 636.526 560.852 636.434C561.41 636.434 561.97 636.434 562.529 636.434C562.903 636.434 563.182 636.434 563.556 636.434C564.396 636.434 562.529 636.526 563.836 636.434C565.049 636.341 566.261 636.341 567.473 636.25C572.136 635.882 576.799 635.329 581.367 634.504C582.394 634.318 583.42 634.134 584.446 633.951C584.913 633.86 585.471 633.767 585.937 633.676C586.125 633.676 586.871 633.492 586.125 633.583C585.378 633.767 586.497 633.492 586.685 633.492C588.643 633.032 590.507 632.572 592.465 632.02C596.197 631.009 599.833 629.814 603.47 628.435C604.311 628.159 605.056 627.791 605.895 627.515C606.268 627.331 606.642 627.24 607.107 627.056C607.388 626.963 607.947 626.687 606.547 627.24C606.735 627.147 606.921 627.056 607.202 626.963C608.507 626.412 609.719 625.861 611.024 625.308C612.796 624.48 615.687 623.838 617.085 625.585C618.298 627.24 616.433 629.354 614.942 629.998Z" fill="#FF95AB"></path> <path d="M443.999 630.276C445.398 633.401 443.906 637.08 441.574 639.377C439.057 641.767 435.046 642.504 431.783 641.033C430.104 640.298 429.078 638.826 428.612 637.08C428.518 636.71 428.985 636.252 429.265 636.159C429.731 635.884 430.384 635.701 430.85 635.701C431.783 635.701 432.995 635.884 433.275 636.896C433.275 636.987 433.368 637.171 433.461 637.447C433.554 637.722 433.741 637.998 433.927 638.182C434.114 638.459 433.834 638.091 434.021 638.275C434.114 638.366 434.207 638.458 434.3 638.549C434.394 638.642 434.487 638.733 434.58 638.826C434.673 638.919 434.487 638.733 434.487 638.733C434.58 638.733 434.58 638.826 434.673 638.826C434.767 638.919 434.86 638.919 434.953 639.01C435.233 639.193 434.58 638.919 434.953 639.01C435.046 639.01 435.14 639.102 435.326 639.102C435.42 639.102 435.513 639.102 435.513 639.193C435.419 639.193 435.046 639.102 435.326 639.193C435.42 639.193 435.606 639.193 435.699 639.193C436.072 639.286 435.14 639.193 435.513 639.193C435.606 639.193 435.793 639.193 435.886 639.193C435.979 639.193 436.166 639.193 435.793 639.193C435.326 639.286 435.793 639.193 435.793 639.193C435.886 639.193 435.979 639.102 436.166 639.102C436.539 639.01 435.699 639.286 436.072 639.102C436.166 639.102 436.259 639.01 436.445 639.01C436.539 639.01 436.539 638.919 436.632 638.919C436.818 638.826 436.259 639.102 436.445 639.01C436.632 638.826 436.912 638.733 437.098 638.549C437.378 638.366 436.912 638.733 437.191 638.459C437.285 638.366 437.471 638.275 437.564 638.091C437.751 637.907 438.031 637.631 438.217 637.447C438.311 637.354 438.404 637.171 438.497 637.08C438.497 636.987 438.59 636.987 438.59 636.896C438.777 636.71 438.497 637.08 438.59 636.803C438.963 636.252 439.243 635.608 439.523 635.057C439.803 634.32 439.896 633.862 439.896 633.125C439.896 632.39 439.803 631.746 439.523 631.102C439.15 630.183 440.269 629.539 441.108 629.448C441.854 629.356 443.626 629.356 443.999 630.276Z" fill="#FF95AB"></path> <path d="M451.645 557.733C450.34 558.928 448.941 559.386 447.542 559.663C446.143 559.939 444.744 560.03 443.625 559.846C443.065 559.755 442.599 559.663 442.04 559.386C441.573 559.111 441.107 558.744 440.641 558.377C439.801 557.549 439.242 556.354 439.522 554.515C438.776 554.975 438.123 555.801 437.843 556.721C437.563 557.733 437.656 558.835 438.123 559.755C438.496 560.767 439.242 561.593 440.081 562.237C440.547 562.513 441.014 562.881 441.48 563.064C442.04 563.248 442.506 563.432 443.065 563.525C445.117 563.799 447.076 563.341 448.754 562.42C449.594 561.962 450.34 561.318 450.899 560.49C451.365 559.572 451.738 558.651 451.645 557.733Z" fill="#FF95AB"></path> <path d="M439.52 554.054C438.215 555.249 436.816 555.709 435.417 555.984C434.018 556.26 432.619 556.351 431.5 556.168C430.94 556.077 430.474 555.984 429.914 555.709C429.448 555.433 428.982 555.065 428.516 554.698C427.676 553.87 427.117 552.675 427.397 550.836C426.651 551.296 425.998 552.124 425.718 553.042C425.438 554.054 425.531 555.156 425.998 556.077C426.371 557.088 427.117 557.916 427.956 558.56C428.422 558.835 428.889 559.202 429.355 559.386C429.914 559.569 430.381 559.755 430.94 559.846C432.992 560.122 434.95 559.662 436.629 558.744C437.468 558.283 438.215 557.639 438.774 556.812C439.24 555.893 439.613 554.973 439.52 554.054Z" fill="#FF95AB"></path> <g opacity="0.59"> <g opacity="0.59"> <path opacity="0.59" d="M630.611 529.047C625.668 525.001 619.606 522.703 613.078 523.164C608.23 523.531 603.659 525.187 599.649 527.668C598.53 528.404 596.758 527.944 595.826 527.3C594.986 526.656 594.333 525.461 595.453 524.817C604.779 518.934 616.808 517.83 626.882 522.427C629.492 523.622 632.009 525.187 634.248 526.933C634.994 527.577 635.741 528.679 634.622 529.416C633.502 530.058 631.543 529.783 630.611 529.047Z" fill="white"></path> </g> </g> <g opacity="0.59"> <g opacity="0.59"> <path opacity="0.59" d="M676.214 542.652C672.764 538.791 668.195 536.124 662.973 535.48C658.682 535.021 654.206 535.94 650.289 537.686C649.17 538.147 647.491 537.686 646.466 537.135C645.812 536.768 644.787 535.847 645.907 535.296C657.75 529.964 672.578 532.999 681.158 542.652C681.997 543.571 680.411 543.939 679.758 543.939C678.639 544.031 677.055 543.571 676.214 542.652Z" fill="white"></path> </g> </g> <g opacity="0.5"> <g opacity="0.5"> <path opacity="0.5" d="M658.678 564.63C654.296 564.722 650.285 567.113 647.954 570.791C647.394 571.71 644.782 570.791 645.436 569.687C648.047 565.55 652.71 562.976 657.652 562.883C658.304 562.883 659.145 563.067 659.424 563.711C659.797 564.171 659.238 564.63 658.678 564.63Z" fill="white"></path> </g> </g> <g opacity="0.5"> <g opacity="0.5"> <path opacity="0.5" d="M654.387 558.746C649.446 558.746 644.783 561.043 641.798 564.905C641.144 565.733 638.534 564.812 639.279 563.801C642.544 559.481 647.86 556.998 653.361 556.998C654.014 556.998 654.854 557.181 655.133 557.825C655.414 558.285 654.947 558.746 654.387 558.746Z" fill="white"></path> </g> </g> <g opacity="0.5"> <g opacity="0.5"> <path opacity="0.5" d="M617.65 549.917C617.369 549.917 616.809 549.733 616.344 549.733C615.69 549.642 615.13 549.642 614.478 549.642C612.894 549.642 611.308 549.917 609.815 550.47C607.764 551.114 605.711 552.309 604.127 553.688C603.661 554.146 602.915 554.055 602.355 553.779C601.982 553.595 601.143 552.951 601.703 552.493C606.271 548.538 612.334 547.068 618.209 548.263C618.674 548.354 619.514 548.815 619.328 549.459C619.048 550.103 618.116 550.01 617.65 549.917Z" fill="white"></path> </g> </g> <g opacity="0.5"> <g opacity="0.5"> <path opacity="0.5" d="M608.975 545.966C604.033 546.242 599.277 548.265 595.734 551.667C595.267 552.125 594.521 552.034 593.962 551.758C593.588 551.574 592.842 550.93 593.309 550.472C597.225 546.61 602.54 544.403 608.044 544.128C608.696 544.128 609.535 544.312 609.816 544.954C610.094 545.598 609.535 545.966 608.975 545.966Z" fill="white"></path> </g> </g> <g opacity="0.5"> <g opacity="0.5"> <path opacity="0.5" d="M567.569 544.495C561.881 543.667 556.192 545.23 551.622 548.631C550.783 549.275 548.358 548.08 549.477 547.16C554.513 543.391 560.948 541.735 567.197 542.747C567.756 542.839 568.595 543.114 568.688 543.758C568.876 544.402 568.035 544.586 567.569 544.495Z" fill="white"></path> </g> </g> <g opacity="0.5"> <g opacity="0.5"> <path opacity="0.5" d="M558.522 540.54C553.393 540.909 548.543 542.93 544.626 546.148C543.787 546.792 541.362 545.597 542.481 544.678C546.678 541.184 551.993 539.161 557.496 538.7C558.149 538.61 558.987 538.886 559.268 539.528C559.64 540.172 559.08 540.54 558.522 540.54Z" fill="white"></path> </g> </g> <g opacity="0.5"> <g opacity="0.5"> <path opacity="0.5" d="M683.949 584.673C686.933 590.005 687.398 596.625 684.88 602.233C682.735 606.83 678.819 610.599 674.063 612.531C672.851 612.991 671.265 612.622 670.239 611.98C669.586 611.61 668.56 610.508 669.772 609.957C674.063 608.209 677.607 604.9 679.565 600.761C681.057 597.452 681.522 593.774 680.87 590.189C680.591 588.901 680.31 587.615 679.75 586.327C679.565 585.959 679.379 585.499 679.286 585.132C679.286 585.041 679.005 584.488 679.191 584.948C679.098 584.857 679.098 584.764 679.005 584.673C677.7 582.558 683.108 583.202 683.949 584.673Z" fill="white"></path> </g> </g> <path d="M474.587 534.564C473.467 536.036 472.255 536.68 470.949 537.231C469.644 537.782 468.245 538.059 467.126 538.15C466.566 538.15 466.1 538.15 465.541 537.966C464.981 537.782 464.421 537.506 463.955 537.231C463.023 536.587 462.183 535.485 462.09 533.646C461.437 534.288 460.971 535.115 460.878 536.127C460.784 537.138 461.157 538.242 461.717 539.07C462.276 539.989 463.116 540.633 464.048 541.184C464.515 541.46 465.074 541.644 465.634 541.735C466.193 541.828 466.753 541.919 467.312 541.828C469.364 541.735 471.229 540.907 472.628 539.621C473.374 538.977 473.934 538.15 474.307 537.322C474.68 536.403 474.866 535.485 474.587 534.564Z" fill="#FF95AB"></path> <path d="M461.997 533.275C460.878 534.747 459.665 535.391 458.36 535.942C457.054 536.493 455.655 536.77 454.536 536.861C453.976 536.861 453.51 536.861 452.951 536.677C452.391 536.493 451.832 536.218 451.365 535.942C450.433 535.298 449.593 534.196 449.5 532.356C448.847 533 448.381 533.828 448.288 534.84C448.195 535.849 448.568 536.953 449.127 537.781C449.687 538.7 450.526 539.344 451.458 539.895C451.925 540.171 452.484 540.355 453.044 540.448C453.603 540.539 454.163 540.632 454.723 540.539C456.774 540.448 458.639 539.62 460.038 538.332C460.784 537.688 461.344 536.861 461.717 536.035C462.09 535.207 462.277 534.196 461.997 533.275Z" fill="#FF95AB"></path> <path d="M426.653 573.824C425.347 575.02 423.948 575.478 422.55 575.754C421.151 576.031 419.752 576.122 418.633 575.938C418.073 575.845 417.607 575.754 417.047 575.478C416.581 575.203 416.115 574.834 415.648 574.467C414.809 573.639 414.25 572.444 414.529 570.606C413.783 571.065 413.13 571.893 412.851 572.813C412.571 573.824 412.664 574.927 413.13 575.845C413.503 576.857 414.25 577.685 415.089 578.329C415.555 578.605 416.021 578.972 416.488 579.156C417.047 579.34 417.514 579.524 418.073 579.616C420.125 579.891 422.083 579.433 423.762 578.512C424.601 578.052 425.347 577.41 425.907 576.582C426.373 575.662 426.746 574.65 426.653 573.824Z" fill="#FF95AB"></path> <path d="M443.16 570.42C442.227 571.985 441.108 572.72 439.896 573.455C438.683 574.099 437.378 574.559 436.165 574.743C435.606 574.834 435.139 574.834 434.58 574.743C434.02 574.65 433.461 574.466 432.901 574.099C431.875 573.547 430.943 572.536 430.663 570.697C430.01 571.341 429.73 572.352 429.73 573.364C429.73 574.375 430.197 575.387 430.943 576.212C431.596 577.04 432.528 577.684 433.554 578.052C434.02 578.235 434.58 578.328 435.139 578.419C435.699 578.512 436.259 578.419 436.818 578.419C438.87 578.052 440.548 577.133 441.854 575.661C442.507 574.926 442.973 574.099 443.253 573.18C443.533 572.26 443.533 571.248 443.16 570.42Z" fill="#FF95AB"></path> <path d="M423.294 593.132C422.454 594.696 421.335 595.615 420.216 596.35C419.097 597.087 417.698 597.638 416.579 597.914C416.019 598.005 415.553 598.098 414.994 598.005C414.434 597.914 413.875 597.731 413.315 597.545C412.196 597.087 411.263 596.166 410.797 594.327C410.238 595.064 409.958 595.982 410.051 596.994C410.144 598.005 410.704 599.017 411.45 599.753C412.196 600.488 413.128 601.039 414.154 601.407C414.714 601.591 415.18 601.683 415.74 601.683C416.299 601.683 416.859 601.683 417.418 601.5C419.47 601.039 421.055 599.937 422.268 598.373C422.827 597.638 423.294 596.719 423.573 595.799C423.76 594.88 423.667 593.96 423.294 593.132Z" fill="#FF95AB"></path> <path d="M445.587 594.876C445.027 596.531 444.001 597.543 442.975 598.463C441.95 599.382 440.737 600.117 439.618 600.486C439.058 600.67 438.592 600.761 438.033 600.761C437.473 600.761 436.914 600.67 436.261 600.486C435.142 600.117 434.023 599.382 433.37 597.636C432.903 598.37 432.717 599.382 432.997 600.393C433.277 601.405 433.929 602.325 434.769 602.967C435.608 603.611 436.634 604.072 437.66 604.255C438.219 604.348 438.779 604.348 439.338 604.255C439.898 604.162 440.457 604.071 440.924 603.888C442.882 603.151 444.374 601.865 445.307 600.21C445.773 599.382 446.146 598.463 446.239 597.543C446.333 596.624 446.146 595.613 445.587 594.876Z" fill="#FF95AB"></path> <path d="M432.156 610.967C431.69 612.715 430.851 613.818 429.825 614.738C428.892 615.75 427.68 616.577 426.654 617.036C426.095 617.312 425.628 617.403 425.069 617.496C424.509 617.589 423.95 617.496 423.297 617.403C422.178 617.129 420.965 616.485 420.219 614.829C419.846 615.657 419.753 616.668 420.126 617.589C420.499 618.6 421.152 619.426 422.084 619.979C423.017 620.53 424.043 620.898 425.069 620.99C425.628 620.99 426.188 620.99 426.747 620.898C427.307 620.807 427.867 620.623 428.333 620.437C430.198 619.519 431.597 618.14 432.436 616.392C432.809 615.566 433.089 614.554 433.089 613.634C432.903 612.623 432.716 611.704 432.156 610.967Z" fill="#FF95AB"></path> <path d="M452.952 611.888C452.672 613.634 451.833 614.831 450.993 615.841C450.061 616.852 449.035 617.772 448.009 618.416C447.543 618.691 447.077 618.875 446.517 618.968C445.958 619.059 445.398 619.059 444.745 618.968C443.533 618.784 442.32 618.233 441.388 616.577C441.015 617.405 441.108 618.416 441.481 619.335C441.854 620.254 442.694 621.081 443.626 621.542C444.559 622.093 445.585 622.277 446.704 622.277C447.263 622.277 447.823 622.186 448.289 622.093C448.848 621.909 449.315 621.725 449.781 621.449C451.553 620.439 452.859 618.875 453.511 617.128C453.884 616.21 454.071 615.289 453.978 614.278C453.884 613.45 453.605 612.532 452.952 611.888Z" fill="#FF95AB"></path> <path d="M469.084 658.96C469.457 660.799 469.084 662.269 468.525 663.65C467.965 665.028 467.219 666.315 466.38 667.326C466.007 667.786 465.54 668.154 464.981 668.43C464.421 668.705 463.862 668.889 463.209 669.074C461.903 669.258 460.504 669.074 459.105 667.786C459.105 668.705 459.479 669.716 460.225 670.544C460.971 671.372 461.997 671.832 463.116 672.016C464.235 672.199 465.354 672.107 466.38 671.739C466.939 671.555 467.406 671.281 467.872 671.004C468.338 670.637 468.804 670.269 469.177 669.9C470.576 668.246 471.322 666.315 471.416 664.292C471.416 663.28 471.322 662.269 470.949 661.35C470.576 660.248 469.924 659.42 469.084 658.96Z" fill="#FF95AB"></path> <path d="M450.34 647.928C450.526 649.767 450.06 651.238 449.407 652.525C448.754 653.812 447.915 655.1 446.983 655.928C446.516 656.387 446.05 656.663 445.49 656.94C444.931 657.214 444.278 657.307 443.625 657.398C442.32 657.491 440.921 657.123 439.615 655.744C439.522 656.663 439.802 657.674 440.455 658.502C441.107 659.33 442.133 659.974 443.252 660.248C444.371 660.525 445.49 660.525 446.609 660.248C447.169 660.065 447.729 659.881 448.195 659.605C448.661 659.33 449.221 658.962 449.594 658.593C451.179 657.123 452.019 655.191 452.298 653.169C452.392 652.157 452.392 651.146 452.019 650.227C451.645 649.307 451.086 648.388 450.34 647.928Z" fill="#FF95AB"></path> <path d="M468.433 633.493C468.992 635.332 468.713 636.803 468.433 638.182C468.06 639.561 467.407 640.94 466.661 642.044C466.288 642.595 465.915 642.963 465.355 643.239C464.889 643.607 464.236 643.883 463.677 643.974C462.464 644.342 460.972 644.251 459.387 643.056C459.48 643.974 459.946 644.986 460.786 645.63C461.625 646.365 462.744 646.734 463.863 646.825C464.982 646.918 466.101 646.641 467.127 646.181C467.593 645.906 468.153 645.63 468.526 645.262C468.992 644.895 469.365 644.434 469.645 643.974C470.857 642.228 471.417 640.205 471.324 638.182C471.231 637.171 471.044 636.159 470.484 635.332C470.018 634.597 469.272 633.862 468.433 633.493Z" fill="#FF95AB"></path> <path d="M534.459 358.035C533.713 359.69 532.594 360.518 531.475 361.345C530.356 362.081 529.05 362.724 527.931 363C527.372 363.184 526.906 363.184 526.346 363.184C525.786 363.092 525.227 363 524.667 362.724C523.548 362.265 522.616 361.345 522.056 359.598C521.497 360.334 521.217 361.345 521.403 362.356C521.59 363.368 522.056 364.379 522.895 365.115C523.641 365.85 524.574 366.402 525.693 366.678C526.253 366.77 526.719 366.862 527.278 366.862C527.838 366.862 528.398 366.77 528.864 366.678C530.916 366.126 532.501 365.023 533.62 363.46C534.18 362.724 534.646 361.805 534.832 360.885C534.926 359.782 534.832 358.863 534.459 358.035Z" fill="#FF95AB"></path> <path d="M477.475 477.192C476.355 478.571 475.05 479.215 473.744 479.673C472.439 480.133 471.04 480.41 469.827 480.41C469.268 480.41 468.802 480.317 468.242 480.133C467.683 479.95 467.216 479.673 466.75 479.306C465.817 478.571 465.071 477.467 465.071 475.627C464.325 476.18 463.859 477.099 463.766 478.11C463.673 479.122 463.952 480.226 464.512 481.145C465.071 482.063 465.911 482.8 466.843 483.351C467.309 483.628 467.869 483.812 468.335 483.995C468.895 484.086 469.454 484.179 469.921 484.179C471.972 484.179 473.838 483.444 475.33 482.156C476.076 481.512 476.729 480.777 477.102 479.95C477.475 479.029 477.661 478.018 477.475 477.192Z" fill="#FF95AB"></path> <path d="M526.159 370.357C524.947 371.644 523.641 372.196 522.242 372.563C520.936 372.931 519.538 373.115 518.325 373.023C517.766 373.023 517.299 372.839 516.74 372.655C516.18 372.471 515.714 372.104 515.248 371.736C514.315 371 513.662 369.805 513.849 367.966C513.103 368.518 512.543 369.345 512.357 370.357C512.17 371.368 512.357 372.471 512.823 373.391C513.289 374.31 514.035 375.138 514.968 375.689C515.434 375.965 515.901 376.241 516.46 376.425C517.02 376.609 517.579 376.701 518.045 376.701C520.097 376.793 522.056 376.241 523.641 375.138C524.387 374.586 525.133 373.851 525.599 373.023C526.066 372.196 526.345 371.184 526.159 370.357Z" fill="#FF95AB"></path> <path d="M526.158 296.62C525.599 297.999 524.759 298.643 524.013 299.286C523.267 299.93 522.334 300.482 521.588 300.757C521.215 300.941 520.936 300.941 520.563 301.033C520.189 301.033 519.816 301.033 519.35 301.033C518.511 300.941 517.671 300.573 516.832 299.286C516.366 299.93 516.273 300.665 516.459 301.493C516.646 302.32 517.205 303.056 517.858 303.607C518.511 304.159 519.35 304.435 520.283 304.619C521.122 304.711 522.148 304.619 522.894 304.251C524.479 303.607 525.599 302.412 526.251 301.033C526.531 300.298 526.811 299.562 526.811 298.827C526.904 297.999 526.718 297.172 526.158 296.62Z" fill="#FF95AB"></path> <path d="M521.59 313.906C521.03 315.285 520.191 315.928 519.445 316.572C518.699 317.216 517.766 317.767 517.02 318.043C516.647 318.227 516.367 318.227 515.994 318.319C515.621 318.319 515.248 318.319 514.782 318.319C513.942 318.227 513.103 317.859 512.264 316.572C511.798 317.216 511.704 317.951 511.891 318.778C512.077 319.606 512.637 320.341 513.29 320.893C513.942 321.445 514.782 321.72 515.714 321.904C516.554 321.996 517.58 321.904 518.326 321.537C519.911 320.893 521.03 319.698 521.683 318.319C521.963 317.583 522.243 316.848 522.243 316.112C522.243 315.193 522.056 314.457 521.59 313.906Z" fill="#FF95AB"></path> <g opacity="0.2"> <g opacity="0.2"> <path opacity="0.2" d="M503.596 261.41C502.756 259.847 501.917 258.284 500.891 256.813C500.238 255.893 499.586 254.974 498.933 254.146C499.212 254.422 498.839 253.963 498.746 253.87C498.56 253.687 498.373 253.503 498.187 253.227C497.813 252.767 497.44 252.4 496.974 251.94C496.228 251.204 495.482 250.469 494.736 249.825C494.363 249.549 493.99 249.182 493.71 248.906C493.617 248.906 493.151 248.354 493.057 248.446C493.244 248.446 493.617 248.906 493.057 248.446C491.752 247.527 490.446 246.607 489.047 245.78C487.835 245.044 486.716 243.205 488.394 242.378C490.166 241.459 492.498 242.102 494.176 243.022C501.451 247.251 507.512 253.503 511.243 261.042C512.082 262.697 510.497 263.616 509.005 263.708C507.885 263.708 506.766 263.524 505.834 263.065C504.901 262.697 503.969 262.237 503.596 261.41Z" fill="white"></path> </g> </g> <path d="M463.21 292.85C471.323 289.173 478.784 284.3 485.405 278.416C486.151 277.772 488.669 278.783 487.923 279.519C481.209 285.495 473.562 290.552 465.355 294.229C464.795 294.505 463.956 294.321 463.396 294.045C463.117 293.678 462.65 293.126 463.21 292.85Z" fill="#FF95AB"></path> <path d="M923.5 256.269V942.934L564.5 1026.08V256.269C564.5 231.848 569.153 207.671 578.188 185.119C587.223 162.567 600.461 142.087 617.139 124.845C633.815 107.603 653.604 93.9362 675.369 84.6153C697.133 75.2947 720.454 70.5 744 70.5H744C791.546 70.5 837.184 90.026 870.862 124.845C904.546 159.671 923.5 206.942 923.5 256.269Z" fill="#FFEAF7" stroke="white" stroke-width="11"></path> <path d="M1005.88 254.568L1036.68 269.407L1057.84 228L1005.88 254.568Z" fill="#F67C95"></path> <path d="M971.887 238.891L991.921 246.382L992.458 274.324L1057.84 228L971.887 238.891Z" fill="#F67C95"></path> <path d="M991.922 246.382L992.426 272.504L992.459 274.324L1005.88 254.568L1057.85 228L991.922 246.382Z" fill="#BB7C8D"></path> <path d="M843.74 338.693C844.71 341.563 845.408 343.246 845.439 343.316L847.118 342.615C847.112 342.6 846.414 340.914 845.464 338.109L843.74 338.693ZM848.316 277.919L849.585 279.223C850.689 278.148 851.906 277.145 853.202 276.239L852.163 274.75C850.787 275.709 849.493 276.777 848.316 277.919ZM865.77 268.97L866.174 270.742C867.668 270.401 869.242 270.118 870.859 269.9L870.614 268.098C868.946 268.325 867.318 268.617 865.77 268.97ZM856.444 272.221L857.249 273.849C858.619 273.171 860.086 272.562 861.609 272.036L861.014 270.317C859.421 270.87 857.88 271.51 856.444 272.221ZM842.745 328.863L840.984 329.307C841.407 330.995 841.842 332.578 842.268 334.025L844.012 333.515C843.593 332.085 843.165 330.527 842.745 328.863ZM840.819 319.439L839.024 319.72C839.28 321.372 839.577 322.982 839.895 324.537L841.675 324.169C841.363 322.646 841.073 321.062 840.819 319.439ZM875.611 269.438C877.145 269.344 878.74 269.297 880.397 269.3V267.48C878.702 267.48 877.07 267.527 875.502 267.623L875.611 269.438ZM840.154 300.348L838.346 300.143C838.167 301.722 838.051 303.374 838 305.055L839.817 305.109C839.864 303.479 839.978 301.878 840.154 300.348ZM846.51 282.76L845.045 281.683C844.081 282.996 843.2 284.424 842.427 285.924L844.043 286.756C844.775 285.34 845.604 283.995 846.51 282.76ZM839.853 309.899L838.033 309.973C838.096 311.54 838.216 313.184 838.39 314.865L840.199 314.678C840.029 313.034 839.911 311.427 839.853 309.899ZM842.197 291.089L840.48 290.496C839.953 292.017 839.505 293.62 839.146 295.266L840.921 295.654C841.265 294.077 841.693 292.543 842.197 291.089ZM951.398 283.393C953.113 283.612 954.734 283.772 956.266 283.884L956.395 282.071C954.897 281.962 953.309 281.803 951.627 281.589L951.398 283.393ZM961.176 282.263L961.165 284.08C962.869 284.089 964.524 284.027 966.087 283.897L965.937 282.086C964.428 282.214 962.824 282.272 961.176 282.263ZM970.616 281.422L970.986 283.201C972.73 282.84 974.344 282.361 975.778 281.781L975.096 280.095C973.76 280.637 972.255 281.083 970.616 281.422ZM941.773 281.743C943.439 282.095 945.033 282.399 946.565 282.664L946.873 280.871C945.366 280.61 943.789 280.309 942.148 279.964L941.773 281.743ZM885.191 269.433C886.739 269.516 888.336 269.636 889.981 269.799L890.157 267.988C888.481 267.826 886.859 267.703 885.285 267.618L885.191 269.433ZM980.493 276.342C980.49 276.349 980.111 276.993 979.061 277.845L980.207 279.257C981.465 278.233 981.978 277.408 982.067 277.252L980.493 276.342ZM904.258 271.982C905.794 272.292 907.364 272.631 908.972 272.999L909.378 271.229C907.757 270.856 906.169 270.515 904.617 270.203L904.258 271.982ZM894.756 270.363C896.301 270.573 897.896 270.818 899.517 271.099L899.825 269.306C898.177 269.025 896.564 268.776 895.003 268.562L894.756 270.363ZM913.664 274.132C915.191 274.518 916.746 274.93 918.331 275.367L918.815 273.615C917.216 273.173 915.649 272.761 914.112 272.37L913.664 274.132ZM923.496 274.953L922.981 276.694C923.944 276.98 924.916 277.274 925.9 277.575L927.621 278.097L928.137 276.355L926.433 275.84C925.445 275.537 924.464 275.24 923.496 274.953ZM932.302 279.439C933.926 279.883 935.496 280.289 937.019 280.662L937.451 278.898C935.942 278.527 934.385 278.126 932.779 277.687L932.302 279.439Z" fill="#F67C95"></path> <path d="M630.017 632.723C646.219 632.723 659.354 619.588 659.354 603.386C659.354 587.183 646.219 574.048 630.017 574.048C613.814 574.048 600.68 587.183 600.68 603.386C600.68 619.588 613.814 632.723 630.017 632.723Z" fill="white"></path> <path d="M737.438 357.88C746.818 357.88 754.422 350.275 754.422 340.895C754.422 331.514 746.818 323.91 737.438 323.91C728.057 323.91 720.453 331.514 720.453 340.895C720.453 350.275 728.057 357.88 737.438 357.88Z" fill="white"></path> <path d="M640.651 667.85C640.651 672.54 634.704 684.92 630.014 684.92C625.324 684.92 619.377 672.54 619.377 667.85C619.377 663.16 625.324 659.357 630.014 659.357C634.704 659.357 640.651 663.16 640.651 667.85Z" fill="white"></path> <path d="M376.79 761.553C365.28 786.365 354.417 809.786 344.144 831.917C343.622 833.047 343.989 834.567 344.961 835.337C376.899 860.411 415.062 885.465 460.859 910.53C462.453 911.398 464.446 911.109 465.303 909.865C482.23 885.204 500.377 858.76 519.883 830.345C520.449 829.519 520.555 828.546 520.258 827.662C520.258 827.662 520.258 827.662 520.254 827.649C519.997 826.868 519.44 826.16 518.617 825.674C468.09 796.324 421.848 774.741 380.179 759.92C379.618 759.718 379.004 759.768 378.451 759.987C378.332 760.028 378.216 760.083 378.115 760.14C378.091 760.153 378.082 760.159 378.082 760.159C377.54 760.463 377.076 760.947 376.79 761.553Z" fill="#F67C95"></path> <path d="M378.084 760.161C378.084 760.161 396.106 876.899 520.26 827.664C520.26 827.664 520.26 827.664 520.257 827.651C519.999 826.869 519.442 826.161 518.62 825.676C468.092 796.325 421.85 774.743 380.181 759.922C379.621 759.719 379.006 759.769 378.453 759.989C378.28 760.065 378.175 760.12 378.118 760.142C378.093 760.155 378.084 760.161 378.084 760.161Z" fill="#FFA0B3"></path> <path d="M380.179 759.92C379.545 759.663 378.741 759.751 378.071 760.102L378.018 760.127L378.023 760.174C380.069 773.084 384.454 785.743 390.955 797.593C407.452 828.151 439.517 846.357 480.857 839.307C494.228 837.443 507.435 832.931 520.295 827.723L520.355 827.697C520.077 826.864 519.436 826.118 518.616 825.667C519.391 826.147 519.954 826.875 520.184 827.674L520.222 827.591C464.553 848.661 417.636 840.906 392.307 796.709C385.57 785.175 380.855 772.763 378.14 760.137L378.096 760.212C378.096 760.212 378.16 760.177 378.129 760.192C378.785 759.827 379.529 759.709 380.179 759.92Z" fill="white"></path> <path d="M440.222 839.172C440.222 839.172 430.868 815.684 401.689 816.869C401.693 816.871 408.03 840.929 440.222 839.172Z" fill="#FFA0B3"></path> <path d="M461.393 906.916C457.848 874.42 447.466 833.023 424.155 819.735C411.909 813.464 397.396 814.742 383.919 817.947C370.898 821.154 358.234 826.294 346.219 832.903C358.322 827.315 370.952 822.818 383.858 820.051C396.818 817.421 411.05 816.278 422.67 822.391C445.046 835.167 455.865 875.985 461.393 906.916Z" fill="white"></path> <g clip-path="url(#clip1_864_1139)"> <path d="M635.437 668C652.782 676.091 666.212 679.676 675.724 681.332C679.455 681.974 687.662 683.262 687.941 686.663C688.127 689.054 684.118 691.537 681.413 693.007C653.623 708.362 595.335 721.878 595.335 721.878C551.598 731.99 553.649 733.738 532.386 736.863C518.491 738.886 510.191 740.541 493.684 743.943C474.473 747.896 464.121 750.747 457.78 758.47C453.21 764.079 451.158 770.789 451.158 770.789C450.226 773.916 449.738 777.335 447.5 788C445.5 787.5 444.444 783.805 441.739 785C440.228 776.255 443.138 785.235 441.739 784.5C438.475 782.752 439.687 784.213 441.366 780.72C441.553 780.352 441.833 779.799 441.739 779.799C441.553 779.708 438.009 784.856 435.304 790.557C432.507 796.349 433.719 796.35 431.761 799.568C427.657 806.371 419.264 811.428 416.839 810.14C416 809.682 416 808.486 416 807.843C416.186 799.751 423.834 789.546 426.258 786.052C436.517 771.617 432.04 770.698 440.154 762.331C446.868 755.343 454.329 751.574 460.764 748.447C471.395 743.115 480.255 741.002 488.368 739.07C505.808 734.84 523.154 730.427 540.5 726.291C563.815 720.866 570.996 719.211 587.688 715.349C594.123 713.879 600.651 712.407 607.086 711.028C607.086 711.028 614.92 709.373 644.39 698.984C651.103 696.594 659.498 693.56 659.405 690.8C659.31 689.237 656.419 688.319 654.554 687.768C636.65 682.711 620.236 684.824 618.931 681.423C618.371 679.767 620.889 676.366 635.437 668Z" fill="#F5E1B4"></path> </g> <path d="M890.511 852.955C890.511 852.955 889.148 824.697 901.502 824.222C913.857 823.746 1074.78 820.635 1092.96 825.334C1111.14 830.032 1109.86 892.403 1109.86 892.403C1109.86 892.403 1122.82 941.212 1082.32 934.925C1041.82 928.637 920.758 840.436 890.511 852.955Z" fill="#79A592"></path> <path opacity="0.05" d="M1062.94 823.246C1051.93 826.769 1040.91 830.37 1029.23 830.423C1025.45 830.44 1021.67 830.115 1017.94 829.54C1014.57 829.021 1011.23 828.786 1007.85 829.352C1000.97 830.504 994.956 834.483 988.638 837.191C973.076 843.864 956.761 848.729 940.269 852.494C933.448 854.051 926.581 855.409 919.685 856.598C967.696 873.629 1050.25 929.945 1082.32 934.923C1122.82 941.21 1109.86 892.401 1109.86 892.401C1109.86 892.401 1111.14 830.031 1092.96 825.332C1088.92 824.292 1077.85 823.633 1062.94 823.246Z" fill="#295F4B"></path> <path d="M1068.03 879.411L1093.88 875.133C1093.88 875.133 1110.34 912.519 1087.33 915.829C1069.96 918.327 1068.03 879.411 1068.03 879.411Z" fill="#79A592"></path> <path opacity="0.2" d="M1095.48 890.305C1094.25 892.329 1092.62 894.192 1090.41 895.147C1088.5 895.968 1086.36 895.948 1084.38 895.411C1079.9 894.194 1076.03 890.951 1073.05 887.503C1071.52 885.727 1070.17 883.779 1069.13 881.667C1068.77 880.935 1068.46 880.166 1068.2 879.381L1068.03 879.411C1068.03 879.411 1069.96 918.326 1087.33 915.829C1102.21 913.689 1100.58 897.302 1097.58 885.986C1096.97 887.474 1096.31 888.937 1095.48 890.305Z" fill="#295F4B"></path> <path d="M883.444 846.933C891.184 833.336 1081.73 837.334 1081.73 837.334C1081.73 837.334 1032.92 911.202 1075.71 928.962C1118.5 946.723 1109.86 892.403 1109.86 892.403C1109.86 892.403 1126.07 926.004 1099.46 938.034C1099.46 938.034 926.443 954.255 904.178 946.523C881.914 938.791 854.029 898.6 883.444 846.933Z" fill="#BCD9CA"></path> <path d="M1092.39 827.548C1087.32 828.399 1083.81 832.664 1080.79 836.403C1069.12 851.385 1063.74 871.243 1066.88 890.049C1068.57 899.35 1071.92 909.349 1079.81 915.246C1089.5 922.377 1100.26 912.337 1100.95 902.158C1101.83 892.572 1098.7 883.297 1094.53 874.857L1094.36 874.521C1094.36 874.521 1094 874.587 1094 874.588C1087.78 875.716 1075.55 877.987 1068.89 879.25C1068.92 873.589 1069.67 867.923 1071.05 862.489C1073.32 853.658 1077.41 845.314 1082.88 837.997C1086.21 833.554 1092.62 826.249 1097.88 832.127C1107.25 843.176 1109.01 877.409 1109.86 892.405C1110.03 883.092 1109.63 873.77 1108.82 864.47C1107.81 855.367 1105.23 826.203 1092.39 827.548ZM1093.77 875.646C1097.27 883.829 1100.08 892.994 1098.98 901.905C1098.41 906.265 1096.36 910.429 1092.73 912.977C1084.44 919.462 1076.64 910.014 1073.5 902.59C1070.27 895.281 1068.86 887.29 1068.89 879.286C1075.46 878.349 1087.42 876.6 1093.77 875.646Z" fill="#F5E1B4"></path> <path d="M893.061 898.067C893.969 896.916 948.622 892.954 948.622 892.954C948.622 892.954 949.516 915.11 956.068 924.998C956.068 924.998 907.755 931.76 904.421 930.122C901.085 928.483 885.206 908.02 893.061 898.067ZM962.199 892.255C962.199 892.255 964.838 919.832 970.368 921.566C975.899 923.301 1000.38 924.109 1002.08 922.539C1003.78 920.968 997.234 893.333 996.094 891.051C994.956 888.768 962.199 892.255 962.199 892.255ZM1008.1 891.563L1043.37 892.221L1043.32 898.581C1043.32 898.581 1012.84 900.101 1011.1 898.837C1009.35 897.574 1008.1 891.563 1008.1 891.563ZM1009.63 904.984L1028.14 905.322L1027.39 911.361C1027.39 911.361 1011.4 909.439 1010.85 909.049C1010.31 908.661 1009.63 904.984 1009.63 904.984ZM1011.36 922.489C1011.36 922.489 1047.49 924.656 1047.83 921.827C1048.16 918.997 1044.57 915.802 1044.57 915.802C1044.57 915.802 1014.39 914.792 1011.68 917.059C1008.96 919.325 1011.36 922.489 1011.36 922.489Z" fill="#79A592"></path> </g> <defs> <clipPath id="clip0_864_1139"> <rect width="1394" height="938" fill="white"></rect> </clipPath> <clipPath id="clip1_864_1139"> <rect width="117.283" height="77.6139" fill="white" transform="translate(393.143 706.717) rotate(30.5562)"></rect> </clipPath> </defs> </svg> 